<?xml version="1.0" encoding="UTF-8" standalone="no"?>
<!DOCTYPE svg PUBLIC "-//W3C//DTD SVG 1.1//EN"
 "http://www.w3.org/Graphics/SVG/1.1/DTD/svg11.dtd">
<!-- Generated by graphviz version 2.43.0 (0)
 -->
<!-- Title: testing::internal::FunctionMockerBase&lt; F &gt; Pages: 1 -->
<svg width="166pt" height="104pt"
 viewBox="0.00 0.00 166.00 104.00" xmlns="http://www.w3.org/2000/svg" xmlns:xlink="http://www.w3.org/1999/xlink">
<g id="graph0" class="graph" transform="scale(1 1) rotate(0) translate(4 100)">
<title>testing::internal::FunctionMockerBase&lt; F &gt;</title>
<!-- Node1 -->
<g id="Node000001" class="node">
<title>Node1</title>
<g id="a_Node000001"><a xlink:title=" ">
<polygon fill="#999999" stroke="#666666" points="152,-30 6,-30 6,0 152,0 152,-30"/>
<text text-anchor="start" x="14" y="-18" font-family="Helvetica,sans-Serif" font-size="10.00">testing::internal::</text>
<text text-anchor="middle" x="79" y="-7" font-family="Helvetica,sans-Serif" font-size="10.00">FunctionMockerBase&lt; F &gt;</text>
</a>
</g>
</g>
<!-- Node2 -->
<g id="Node000002" class="node">
<title>Node2</title>
<g id="a_Node000002"><a xlink:href="classtesting_1_1internal_1_1UntypedFunctionMockerBase.html" target="_top" xlink:title=" ">
<polygon fill="white" stroke="#666666" points="158,-96 0,-96 0,-66 158,-66 158,-96"/>
<text text-anchor="start" x="8" y="-84" font-family="Helvetica,sans-Serif" font-size="10.00">testing::internal::</text>
<text text-anchor="middle" x="79" y="-73" font-family="Helvetica,sans-Serif" font-size="10.00">UntypedFunctionMockerBase</text>
</a>
</g>
</g>
<!-- Node2&#45;&gt;Node1 -->
<g id="edge1_Node000001_Node000002" class="edge">
<title>Node2&#45;&gt;Node1</title>
<g id="a_edge1_Node000001_Node000002"><a xlink:title=" ">
<path fill="none" stroke="#63b8ff" d="M72.43,-55.83C72.02,-47.17 72.31,-37.7 73.29,-30.16"/>
<polygon fill="#63b8ff" stroke="#63b8ff" points="68.95,-56.13 73.28,-65.8 75.92,-55.54 68.95,-56.13"/>
</a>
</g>
</g>
<!-- Node2&#45;&gt;Node1 -->
<g id="edge2_Node000001_Node000002" class="edge">
<title>Node2&#45;&gt;Node1</title>
<g id="a_edge2_Node000001_Node000002"><a xlink:title=" ">
<path fill="none" stroke="#63b8ff" d="M85.57,-55.83C85.98,-47.17 85.69,-37.7 84.71,-30.16"/>
<polygon fill="#63b8ff" stroke="#63b8ff" points="82.08,-55.54 84.72,-65.8 89.05,-56.13 82.08,-55.54"/>
</a>
</g>
</g>
</g>
</svg>
