<?xml version="1.0" encoding="UTF-8" standalone="no"?>
<!DOCTYPE svg PUBLIC "-//W3C//DTD SVG 1.1//EN"
 "http://www.w3.org/Graphics/SVG/1.1/DTD/svg11.dtd">
<!-- Generated by graphviz version 2.43.0 (0)
 -->
<!-- Title: testing::internal::SizeIsMatcher&lt; SizeMatcher &gt;::Impl&lt; Container &gt; Pages: 1 -->
<svg width="164pt" height="181pt"
 viewBox="0.00 0.00 164.00 181.00" xmlns="http://www.w3.org/2000/svg" xmlns:xlink="http://www.w3.org/1999/xlink">
<g id="graph0" class="graph" transform="scale(1 1) rotate(0) translate(4 177)">
<title>testing::internal::SizeIsMatcher&lt; SizeMatcher &gt;::Impl&lt; Container &gt;</title>
<!-- Node1 -->
<g id="Node000001" class="node">
<title>Node1</title>
<g id="a_Node000001"><a xlink:title=" ">
<polygon fill="#999999" stroke="#666666" points="156,-41 0,-41 0,0 156,0 156,-41"/>
<text text-anchor="start" x="8" y="-29" font-family="Helvetica,sans-Serif" font-size="10.00">testing::internal::</text>
<text text-anchor="start" x="8" y="-18" font-family="Helvetica,sans-Serif" font-size="10.00">SizeIsMatcher&lt; SizeMatcher</text>
<text text-anchor="middle" x="78" y="-7" font-family="Helvetica,sans-Serif" font-size="10.00"> &gt;::Impl&lt; Container &gt;</text>
</a>
</g>
</g>
<!-- Node2 -->
<g id="Node000002" class="node">
<title>Node2</title>
<g id="a_Node000002"><a xlink:href="classtesting_1_1MatcherInterface.html" target="_top" xlink:title=" ">
<polygon fill="white" stroke="#666666" points="148,-107 8,-107 8,-77 148,-77 148,-107"/>
<text text-anchor="start" x="16" y="-95" font-family="Helvetica,sans-Serif" font-size="10.00">testing::MatcherInterface</text>
<text text-anchor="middle" x="78" y="-84" font-family="Helvetica,sans-Serif" font-size="10.00">&lt; Container &gt;</text>
</a>
</g>
</g>
<!-- Node2&#45;&gt;Node1 -->
<g id="edge1_Node000001_Node000002" class="edge">
<title>Node2&#45;&gt;Node1</title>
<g id="a_edge1_Node000001_Node000002"><a xlink:title=" ">
<path fill="none" stroke="#63b8ff" d="M71.54,-66.91C71.07,-58.47 71.17,-49.1 71.86,-41.07"/>
<polygon fill="#63b8ff" stroke="#63b8ff" points="68.06,-67.29 72.45,-76.94 75.03,-66.66 68.06,-67.29"/>
</a>
</g>
</g>
<!-- Node2&#45;&gt;Node1 -->
<g id="edge4_Node000001_Node000002" class="edge">
<title>Node2&#45;&gt;Node1</title>
<g id="a_edge4_Node000001_Node000002"><a xlink:title=" ">
<path fill="none" stroke="#63b8ff" d="M84.46,-66.91C84.93,-58.47 84.83,-49.1 84.14,-41.07"/>
<polygon fill="#63b8ff" stroke="#63b8ff" points="80.97,-66.66 83.55,-76.94 87.94,-67.29 80.97,-66.66"/>
</a>
</g>
</g>
<!-- Node3 -->
<g id="Node000003" class="node">
<title>Node3</title>
<g id="a_Node000003"><a xlink:href="classtesting_1_1MatcherDescriberInterface.html" target="_top" xlink:title=" ">
<polygon fill="white" stroke="#666666" points="149.5,-173 6.5,-173 6.5,-143 149.5,-143 149.5,-173"/>
<text text-anchor="start" x="14.5" y="-161" font-family="Helvetica,sans-Serif" font-size="10.00">testing::MatcherDescriber</text>
<text text-anchor="middle" x="78" y="-150" font-family="Helvetica,sans-Serif" font-size="10.00">Interface</text>
</a>
</g>
</g>
<!-- Node3&#45;&gt;Node2 -->
<g id="edge2_Node000002_Node000003" class="edge">
<title>Node3&#45;&gt;Node2</title>
<g id="a_edge2_Node000002_Node000003"><a xlink:title=" ">
<path fill="none" stroke="#63b8ff" d="M71.43,-132.83C71.02,-124.17 71.31,-114.7 72.29,-107.16"/>
<polygon fill="#63b8ff" stroke="#63b8ff" points="67.95,-133.13 72.28,-142.8 74.92,-132.54 67.95,-133.13"/>
</a>
</g>
</g>
<!-- Node3&#45;&gt;Node2 -->
<g id="edge3_Node000002_Node000003" class="edge">
<title>Node3&#45;&gt;Node2</title>
<g id="a_edge3_Node000002_Node000003"><a xlink:title=" ">
<path fill="none" stroke="#63b8ff" d="M84.57,-132.83C84.98,-124.17 84.69,-114.7 83.71,-107.16"/>
<polygon fill="#63b8ff" stroke="#63b8ff" points="81.08,-132.54 83.72,-142.8 88.05,-133.13 81.08,-132.54"/>
</a>
</g>
</g>
</g>
</svg>
