<?xml version="1.0" encoding="UTF-8" standalone="no"?>
<!DOCTYPE svg PUBLIC "-//W3C//DTD SVG 1.1//EN"
 "http://www.w3.org/Graphics/SVG/1.1/DTD/svg11.dtd">
<!-- Generated by graphviz version 2.43.0 (0)
 -->
<!-- Title: testing::internal::EachMatcherImpl&lt; Container &gt; Pages: 1 -->
<svg width="179pt" height="247pt"
 viewBox="0.00 0.00 179.00 247.00" xmlns="http://www.w3.org/2000/svg" xmlns:xlink="http://www.w3.org/1999/xlink">
<g id="graph0" class="graph" transform="scale(1 1) rotate(0) translate(4 243)">
<title>testing::internal::EachMatcherImpl&lt; Container &gt;</title>
<!-- Node1 -->
<g id="Node000001" class="node">
<title>Node1</title>
<g id="a_Node000001"><a xlink:title=" ">
<polygon fill="#999999" stroke="#666666" points="171,-30 0,-30 0,0 171,0 171,-30"/>
<text text-anchor="start" x="8" y="-18" font-family="Helvetica,sans-Serif" font-size="10.00">testing::internal::</text>
<text text-anchor="middle" x="85.5" y="-7" font-family="Helvetica,sans-Serif" font-size="10.00">EachMatcherImpl&lt; Container &gt;</text>
</a>
</g>
</g>
<!-- Node2 -->
<g id="Node000002" class="node">
<title>Node2</title>
<g id="a_Node000002"><a xlink:href="classtesting_1_1internal_1_1QuantifierMatcherImpl.html" target="_top" xlink:title=" ">
<polygon fill="white" stroke="#666666" points="148.5,-107 22.5,-107 22.5,-66 148.5,-66 148.5,-107"/>
<text text-anchor="start" x="30.5" y="-95" font-family="Helvetica,sans-Serif" font-size="10.00">testing::internal::</text>
<text text-anchor="start" x="30.5" y="-84" font-family="Helvetica,sans-Serif" font-size="10.00">QuantifierMatcherImpl</text>
<text text-anchor="middle" x="85.5" y="-73" font-family="Helvetica,sans-Serif" font-size="10.00">&lt; Container &gt;</text>
</a>
</g>
</g>
<!-- Node2&#45;&gt;Node1 -->
<g id="edge1_Node000001_Node000002" class="edge">
<title>Node2&#45;&gt;Node1</title>
<g id="a_edge1_Node000001_Node000002"><a xlink:title=" ">
<path fill="none" stroke="#63b8ff" d="M78.81,-55.66C78.59,-46.76 78.97,-37.42 79.95,-30.04"/>
<polygon fill="#63b8ff" stroke="#63b8ff" points="75.32,-55.97 79.34,-65.77 82.31,-55.6 75.32,-55.97"/>
</a>
</g>
</g>
<!-- Node2&#45;&gt;Node1 -->
<g id="edge6_Node000001_Node000002" class="edge">
<title>Node2&#45;&gt;Node1</title>
<g id="a_edge6_Node000001_Node000002"><a xlink:title=" ">
<path fill="none" stroke="#63b8ff" d="M92.19,-55.66C92.41,-46.76 92.03,-37.42 91.05,-30.04"/>
<polygon fill="#63b8ff" stroke="#63b8ff" points="88.69,-55.6 91.66,-65.77 95.68,-55.97 88.69,-55.6"/>
</a>
</g>
</g>
<!-- Node3 -->
<g id="Node000003" class="node">
<title>Node3</title>
<g id="a_Node000003"><a xlink:href="classtesting_1_1MatcherInterface.html" target="_top" xlink:title=" ">
<polygon fill="white" stroke="#666666" points="155.5,-173 15.5,-173 15.5,-143 155.5,-143 155.5,-173"/>
<text text-anchor="start" x="23.5" y="-161" font-family="Helvetica,sans-Serif" font-size="10.00">testing::MatcherInterface</text>
<text text-anchor="middle" x="85.5" y="-150" font-family="Helvetica,sans-Serif" font-size="10.00">&lt; Container &gt;</text>
</a>
</g>
</g>
<!-- Node3&#45;&gt;Node2 -->
<g id="edge2_Node000002_Node000003" class="edge">
<title>Node3&#45;&gt;Node2</title>
<g id="a_edge2_Node000002_Node000003"><a xlink:title=" ">
<path fill="none" stroke="#63b8ff" d="M79.04,-132.91C78.57,-124.47 78.67,-115.1 79.36,-107.07"/>
<polygon fill="#63b8ff" stroke="#63b8ff" points="75.56,-133.29 79.95,-142.94 82.53,-132.66 75.56,-133.29"/>
</a>
</g>
</g>
<!-- Node3&#45;&gt;Node2 -->
<g id="edge5_Node000002_Node000003" class="edge">
<title>Node3&#45;&gt;Node2</title>
<g id="a_edge5_Node000002_Node000003"><a xlink:title=" ">
<path fill="none" stroke="#63b8ff" d="M91.96,-132.91C92.43,-124.47 92.33,-115.1 91.64,-107.07"/>
<polygon fill="#63b8ff" stroke="#63b8ff" points="88.47,-132.66 91.05,-142.94 95.44,-133.29 88.47,-132.66"/>
</a>
</g>
</g>
<!-- Node4 -->
<g id="Node000004" class="node">
<title>Node4</title>
<g id="a_Node000004"><a xlink:href="classtesting_1_1MatcherDescriberInterface.html" target="_top" xlink:title=" ">
<polygon fill="white" stroke="#666666" points="157,-239 14,-239 14,-209 157,-209 157,-239"/>
<text text-anchor="start" x="22" y="-227" font-family="Helvetica,sans-Serif" font-size="10.00">testing::MatcherDescriber</text>
<text text-anchor="middle" x="85.5" y="-216" font-family="Helvetica,sans-Serif" font-size="10.00">Interface</text>
</a>
</g>
</g>
<!-- Node4&#45;&gt;Node3 -->
<g id="edge3_Node000003_Node000004" class="edge">
<title>Node4&#45;&gt;Node3</title>
<g id="a_edge3_Node000003_Node000004"><a xlink:title=" ">
<path fill="none" stroke="#63b8ff" d="M78.93,-198.83C78.52,-190.17 78.81,-180.7 79.79,-173.16"/>
<polygon fill="#63b8ff" stroke="#63b8ff" points="75.45,-199.13 79.78,-208.8 82.42,-198.54 75.45,-199.13"/>
</a>
</g>
</g>
<!-- Node4&#45;&gt;Node3 -->
<g id="edge4_Node000003_Node000004" class="edge">
<title>Node4&#45;&gt;Node3</title>
<g id="a_edge4_Node000003_Node000004"><a xlink:title=" ">
<path fill="none" stroke="#63b8ff" d="M92.07,-198.83C92.48,-190.17 92.19,-180.7 91.21,-173.16"/>
<polygon fill="#63b8ff" stroke="#63b8ff" points="88.58,-198.54 91.22,-208.8 95.55,-199.13 88.58,-198.54"/>
</a>
</g>
</g>
</g>
</svg>
