<?xml version="1.0" encoding="UTF-8" standalone="no"?>
<!DOCTYPE svg PUBLIC "-//W3C//DTD SVG 1.1//EN"
 "http://www.w3.org/Graphics/SVG/1.1/DTD/svg11.dtd">
<!-- Generated by graphviz version 2.43.0 (0)
 -->
<!-- Title: testing::internal::FunctionMocker&lt; R(A1, A2, A3, A4, A5, A6, A7, A8)&gt; Pages: 1 -->
<svg width="166pt" height="214pt"
 viewBox="0.00 0.00 166.00 214.00" xmlns="http://www.w3.org/2000/svg" xmlns:xlink="http://www.w3.org/1999/xlink">
<g id="graph0" class="graph" transform="scale(1 1) rotate(0) translate(4 210)">
<title>testing::internal::FunctionMocker&lt; R(A1, A2, A3, A4, A5, A6, A7, A8)&gt;</title>
<!-- Node1 -->
<g id="Node000001" class="node">
<title>Node1</title>
<g id="a_Node000001"><a xlink:title=" ">
<polygon fill="#999999" stroke="#666666" points="144.5,-52 13.5,-52 13.5,0 144.5,0 144.5,-52"/>
<text text-anchor="start" x="21.5" y="-40" font-family="Helvetica,sans-Serif" font-size="10.00">testing::internal::</text>
<text text-anchor="start" x="21.5" y="-29" font-family="Helvetica,sans-Serif" font-size="10.00">FunctionMocker&lt; R(A1,</text>
<text text-anchor="start" x="21.5" y="-18" font-family="Helvetica,sans-Serif" font-size="10.00"> A2, A3, A4, A5, A6,</text>
<text text-anchor="middle" x="79" y="-7" font-family="Helvetica,sans-Serif" font-size="10.00"> A7, A8)&gt;</text>
</a>
</g>
</g>
<!-- Node2 -->
<g id="Node000002" class="node">
<title>Node2</title>
<g id="a_Node000002"><a xlink:href="classtesting_1_1internal_1_1FunctionMockerBase.html" target="_top" xlink:title=" ">
<polygon fill="white" stroke="#666666" points="141.5,-140 16.5,-140 16.5,-88 141.5,-88 141.5,-140"/>
<text text-anchor="start" x="24.5" y="-128" font-family="Helvetica,sans-Serif" font-size="10.00">testing::internal::</text>
<text text-anchor="start" x="24.5" y="-117" font-family="Helvetica,sans-Serif" font-size="10.00">FunctionMockerBase&lt;</text>
<text text-anchor="start" x="24.5" y="-106" font-family="Helvetica,sans-Serif" font-size="10.00"> R(A1, A2, A3, A4, A5,</text>
<text text-anchor="middle" x="79" y="-95" font-family="Helvetica,sans-Serif" font-size="10.00"> A6, A7, A8)&gt;</text>
</a>
</g>
</g>
<!-- Node2&#45;&gt;Node1 -->
<g id="edge1_Node000001_Node000002" class="edge">
<title>Node2&#45;&gt;Node1</title>
<g id="a_edge1_Node000001_Node000002"><a xlink:title=" ">
<path fill="none" stroke="#63b8ff" d="M72.34,-77.56C72.13,-69.04 72.28,-60.1 72.8,-52.16"/>
<polygon fill="#63b8ff" stroke="#63b8ff" points="68.85,-77.82 72.78,-87.66 75.85,-77.52 68.85,-77.82"/>
</a>
</g>
</g>
<!-- Node2&#45;&gt;Node1 -->
<g id="edge4_Node000001_Node000002" class="edge">
<title>Node2&#45;&gt;Node1</title>
<g id="a_edge4_Node000001_Node000002"><a xlink:title=" ">
<path fill="none" stroke="#63b8ff" d="M85.66,-77.56C85.87,-69.04 85.72,-60.1 85.2,-52.16"/>
<polygon fill="#63b8ff" stroke="#63b8ff" points="82.15,-77.52 85.22,-87.66 89.15,-77.82 82.15,-77.52"/>
</a>
</g>
</g>
<!-- Node3 -->
<g id="Node000003" class="node">
<title>Node3</title>
<g id="a_Node000003"><a xlink:href="classtesting_1_1internal_1_1UntypedFunctionMockerBase.html" target="_top" xlink:title=" ">
<polygon fill="white" stroke="#666666" points="158,-206 0,-206 0,-176 158,-176 158,-206"/>
<text text-anchor="start" x="8" y="-194" font-family="Helvetica,sans-Serif" font-size="10.00">testing::internal::</text>
<text text-anchor="middle" x="79" y="-183" font-family="Helvetica,sans-Serif" font-size="10.00">UntypedFunctionMockerBase</text>
</a>
</g>
</g>
<!-- Node3&#45;&gt;Node2 -->
<g id="edge2_Node000002_Node000003" class="edge">
<title>Node3&#45;&gt;Node2</title>
<g id="a_edge2_Node000002_Node000003"><a xlink:title=" ">
<path fill="none" stroke="#63b8ff" d="M72.65,-165.86C72.14,-157.69 72.12,-148.54 72.58,-140.28"/>
<polygon fill="#63b8ff" stroke="#63b8ff" points="69.17,-166.26 73.59,-175.89 76.14,-165.61 69.17,-166.26"/>
</a>
</g>
</g>
<!-- Node3&#45;&gt;Node2 -->
<g id="edge3_Node000002_Node000003" class="edge">
<title>Node3&#45;&gt;Node2</title>
<g id="a_edge3_Node000002_Node000003"><a xlink:title=" ">
<path fill="none" stroke="#63b8ff" d="M85.35,-165.86C85.86,-157.69 85.88,-148.54 85.42,-140.28"/>
<polygon fill="#63b8ff" stroke="#63b8ff" points="81.86,-165.61 84.41,-175.89 88.83,-166.26 81.86,-165.61"/>
</a>
</g>
</g>
</g>
</svg>
