<?xml version="1.0" encoding="UTF-8" standalone="no"?>
<!DOCTYPE svg PUBLIC "-//W3C//DTD SVG 1.1//EN"
 "http://www.w3.org/Graphics/SVG/1.1/DTD/svg11.dtd">
<!-- Generated by graphviz version 2.43.0 (0)
 -->
<!-- Title: testing::internal::ContainsMatcherImpl&lt; Container &gt; Pages: 1 -->
<svg width="151pt" height="258pt"
 viewBox="0.00 0.00 151.00 258.00" xmlns="http://www.w3.org/2000/svg" xmlns:xlink="http://www.w3.org/1999/xlink">
<g id="graph0" class="graph" transform="scale(1 1) rotate(0) translate(4 254)">
<title>testing::internal::ContainsMatcherImpl&lt; Container &gt;</title>
<!-- Node1 -->
<g id="Node000001" class="node">
<title>Node1</title>
<g id="a_Node000001"><a xlink:title=" ">
<polygon fill="#999999" stroke="#666666" points="132,-41 11,-41 11,0 132,0 132,-41"/>
<text text-anchor="start" x="19" y="-29" font-family="Helvetica,sans-Serif" font-size="10.00">testing::internal::</text>
<text text-anchor="start" x="19" y="-18" font-family="Helvetica,sans-Serif" font-size="10.00">ContainsMatcherImpl</text>
<text text-anchor="middle" x="71.5" y="-7" font-family="Helvetica,sans-Serif" font-size="10.00">&lt; Container &gt;</text>
</a>
</g>
</g>
<!-- Node2 -->
<g id="Node000002" class="node">
<title>Node2</title>
<g id="a_Node000002"><a xlink:href="classtesting_1_1internal_1_1QuantifierMatcherImpl.html" target="_top" xlink:title=" ">
<polygon fill="white" stroke="#666666" points="134.5,-118 8.5,-118 8.5,-77 134.5,-77 134.5,-118"/>
<text text-anchor="start" x="16.5" y="-106" font-family="Helvetica,sans-Serif" font-size="10.00">testing::internal::</text>
<text text-anchor="start" x="16.5" y="-95" font-family="Helvetica,sans-Serif" font-size="10.00">QuantifierMatcherImpl</text>
<text text-anchor="middle" x="71.5" y="-84" font-family="Helvetica,sans-Serif" font-size="10.00">&lt; Container &gt;</text>
</a>
</g>
</g>
<!-- Node2&#45;&gt;Node1 -->
<g id="edge1_Node000001_Node000002" class="edge">
<title>Node2&#45;&gt;Node1</title>
<g id="a_edge1_Node000001_Node000002"><a xlink:title=" ">
<path fill="none" stroke="#63b8ff" d="M64.88,-66.69C64.59,-58.08 64.79,-48.9 65.49,-41.07"/>
<polygon fill="#63b8ff" stroke="#63b8ff" points="61.39,-67.02 65.48,-76.79 68.38,-66.6 61.39,-67.02"/>
</a>
</g>
</g>
<!-- Node2&#45;&gt;Node1 -->
<g id="edge6_Node000001_Node000002" class="edge">
<title>Node2&#45;&gt;Node1</title>
<g id="a_edge6_Node000001_Node000002"><a xlink:title=" ">
<path fill="none" stroke="#63b8ff" d="M78.12,-66.69C78.41,-58.08 78.21,-48.9 77.51,-41.07"/>
<polygon fill="#63b8ff" stroke="#63b8ff" points="74.62,-66.6 77.52,-76.79 81.61,-67.02 74.62,-66.6"/>
</a>
</g>
</g>
<!-- Node3 -->
<g id="Node000003" class="node">
<title>Node3</title>
<g id="a_Node000003"><a xlink:href="classtesting_1_1MatcherInterface.html" target="_top" xlink:title=" ">
<polygon fill="white" stroke="#666666" points="141.5,-184 1.5,-184 1.5,-154 141.5,-154 141.5,-184"/>
<text text-anchor="start" x="9.5" y="-172" font-family="Helvetica,sans-Serif" font-size="10.00">testing::MatcherInterface</text>
<text text-anchor="middle" x="71.5" y="-161" font-family="Helvetica,sans-Serif" font-size="10.00">&lt; Container &gt;</text>
</a>
</g>
</g>
<!-- Node3&#45;&gt;Node2 -->
<g id="edge2_Node000002_Node000003" class="edge">
<title>Node3&#45;&gt;Node2</title>
<g id="a_edge2_Node000002_Node000003"><a xlink:title=" ">
<path fill="none" stroke="#63b8ff" d="M65.04,-143.91C64.57,-135.47 64.67,-126.1 65.36,-118.07"/>
<polygon fill="#63b8ff" stroke="#63b8ff" points="61.56,-144.29 65.95,-153.94 68.53,-143.66 61.56,-144.29"/>
</a>
</g>
</g>
<!-- Node3&#45;&gt;Node2 -->
<g id="edge5_Node000002_Node000003" class="edge">
<title>Node3&#45;&gt;Node2</title>
<g id="a_edge5_Node000002_Node000003"><a xlink:title=" ">
<path fill="none" stroke="#63b8ff" d="M77.96,-143.91C78.43,-135.47 78.33,-126.1 77.64,-118.07"/>
<polygon fill="#63b8ff" stroke="#63b8ff" points="74.47,-143.66 77.05,-153.94 81.44,-144.29 74.47,-143.66"/>
</a>
</g>
</g>
<!-- Node4 -->
<g id="Node000004" class="node">
<title>Node4</title>
<g id="a_Node000004"><a xlink:href="classtesting_1_1MatcherDescriberInterface.html" target="_top" xlink:title=" ">
<polygon fill="white" stroke="#666666" points="143,-250 0,-250 0,-220 143,-220 143,-250"/>
<text text-anchor="start" x="8" y="-238" font-family="Helvetica,sans-Serif" font-size="10.00">testing::MatcherDescriber</text>
<text text-anchor="middle" x="71.5" y="-227" font-family="Helvetica,sans-Serif" font-size="10.00">Interface</text>
</a>
</g>
</g>
<!-- Node4&#45;&gt;Node3 -->
<g id="edge3_Node000003_Node000004" class="edge">
<title>Node4&#45;&gt;Node3</title>
<g id="a_edge3_Node000003_Node000004"><a xlink:title=" ">
<path fill="none" stroke="#63b8ff" d="M64.93,-209.83C64.52,-201.17 64.81,-191.7 65.79,-184.16"/>
<polygon fill="#63b8ff" stroke="#63b8ff" points="61.45,-210.13 65.78,-219.8 68.42,-209.54 61.45,-210.13"/>
</a>
</g>
</g>
<!-- Node4&#45;&gt;Node3 -->
<g id="edge4_Node000003_Node000004" class="edge">
<title>Node4&#45;&gt;Node3</title>
<g id="a_edge4_Node000003_Node000004"><a xlink:title=" ">
<path fill="none" stroke="#63b8ff" d="M78.07,-209.83C78.48,-201.17 78.19,-191.7 77.21,-184.16"/>
<polygon fill="#63b8ff" stroke="#63b8ff" points="74.58,-209.54 77.22,-219.8 81.55,-210.13 74.58,-209.54"/>
</a>
</g>
</g>
</g>
</svg>
