<?xml version="1.0" encoding="UTF-8" standalone="no"?>
<!DOCTYPE svg PUBLIC "-//W3C//DTD SVG 1.1//EN"
 "http://www.w3.org/Graphics/SVG/1.1/DTD/svg11.dtd">
<!-- Generated by graphviz version 2.43.0 (0)
 -->
<!-- Title: testing::internal::UnorderedElementsAreMatcherImpl&lt; Container &gt; Pages: 1 -->
<svg width="563pt" height="98pt"
 viewBox="0.00 0.00 563.00 97.50" xmlns="http://www.w3.org/2000/svg" xmlns:xlink="http://www.w3.org/1999/xlink">
<g id="graph0" class="graph" transform="scale(1 1) rotate(0) translate(4 93.5)">
<title>testing::internal::UnorderedElementsAreMatcherImpl&lt; Container &gt;</title>
<!-- Node1 -->
<g id="Node000001" class="node">
<title>Node1</title>
<g id="a_Node000001"><a xlink:title=" ">
<polygon fill="#999999" stroke="#666666" points="555,-68 385,-68 385,-27 555,-27 555,-68"/>
<text text-anchor="start" x="393" y="-56" font-family="Helvetica,sans-Serif" font-size="10.00">testing::internal::</text>
<text text-anchor="start" x="393" y="-45" font-family="Helvetica,sans-Serif" font-size="10.00">UnorderedElementsAreMatcher</text>
<text text-anchor="middle" x="470" y="-34" font-family="Helvetica,sans-Serif" font-size="10.00">Impl&lt; Container &gt;</text>
</a>
</g>
</g>
<!-- Node2 -->
<g id="Node000002" class="node">
<title>Node2</title>
<g id="a_Node000002"><a xlink:href="classtesting_1_1MatcherInterface.html" target="_top" xlink:title=" ">
<polygon fill="white" stroke="#666666" points="334,-89.5 194,-89.5 194,-59.5 334,-59.5 334,-89.5"/>
<text text-anchor="start" x="202" y="-77.5" font-family="Helvetica,sans-Serif" font-size="10.00">testing::MatcherInterface</text>
<text text-anchor="middle" x="264" y="-66.5" font-family="Helvetica,sans-Serif" font-size="10.00">&lt; Container &gt;</text>
</a>
</g>
</g>
<!-- Node2&#45;&gt;Node1 -->
<g id="edge1_Node000001_Node000002" class="edge">
<title>Node2&#45;&gt;Node1</title>
<g id="a_edge1_Node000001_Node000002"><a xlink:title=" ">
<path fill="none" stroke="#63b8ff" d="M340.31,-57.99C354.85,-55.83 370.16,-53.77 384.96,-51.97"/>
<polygon fill="#63b8ff" stroke="#63b8ff" points="339.75,-54.54 330.39,-59.5 340.8,-61.46 339.75,-54.54"/>
</a>
</g>
</g>
<!-- Node2&#45;&gt;Node1 -->
<g id="edge5_Node000001_Node000002" class="edge">
<title>Node2&#45;&gt;Node1</title>
<g id="a_edge5_Node000001_Node000002"><a xlink:title=" ">
<path fill="none" stroke="#63b8ff" d="M344.14,-70.62C357.47,-69.04 371.35,-67.22 384.8,-65.3"/>
<polygon fill="#63b8ff" stroke="#63b8ff" points="343.6,-67.16 334.07,-71.79 344.4,-74.12 343.6,-67.16"/>
</a>
</g>
</g>
<!-- Node3 -->
<g id="Node000003" class="node">
<title>Node3</title>
<g id="a_Node000003"><a xlink:href="classtesting_1_1MatcherDescriberInterface.html" target="_top" xlink:title=" ">
<polygon fill="white" stroke="#666666" points="143,-89.5 0,-89.5 0,-59.5 143,-59.5 143,-89.5"/>
<text text-anchor="start" x="8" y="-77.5" font-family="Helvetica,sans-Serif" font-size="10.00">testing::MatcherDescriber</text>
<text text-anchor="middle" x="71.5" y="-66.5" font-family="Helvetica,sans-Serif" font-size="10.00">Interface</text>
</a>
</g>
</g>
<!-- Node3&#45;&gt;Node2 -->
<g id="edge2_Node000002_Node000003" class="edge">
<title>Node3&#45;&gt;Node2</title>
<g id="a_edge2_Node000002_Node000003"><a xlink:title=" ">
<path fill="none" stroke="#63b8ff" d="M153.34,-67.82C166.78,-67.69 180.6,-67.74 193.72,-67.98"/>
<polygon fill="#63b8ff" stroke="#63b8ff" points="153.12,-64.32 143.16,-67.95 153.21,-71.32 153.12,-64.32"/>
</a>
</g>
</g>
<!-- Node3&#45;&gt;Node2 -->
<g id="edge3_Node000002_Node000003" class="edge">
<title>Node3&#45;&gt;Node2</title>
<g id="a_edge3_Node000002_Node000003"><a xlink:title=" ">
<path fill="none" stroke="#63b8ff" d="M153.34,-81.18C166.78,-81.31 180.6,-81.26 193.72,-81.02"/>
<polygon fill="#63b8ff" stroke="#63b8ff" points="153.21,-77.68 143.16,-81.05 153.12,-84.68 153.21,-77.68"/>
</a>
</g>
</g>
<!-- Node4 -->
<g id="Node000004" class="node">
<title>Node4</title>
<g id="a_Node000004"><a xlink:href="classtesting_1_1internal_1_1UnorderedElementsAreMatcherImplBase.html" target="_top" xlink:title=" ">
<polygon fill="white" stroke="#666666" points="349,-41 179,-41 179,0 349,0 349,-41"/>
<text text-anchor="start" x="187" y="-29" font-family="Helvetica,sans-Serif" font-size="10.00">testing::internal::</text>
<text text-anchor="start" x="187" y="-18" font-family="Helvetica,sans-Serif" font-size="10.00">UnorderedElementsAreMatcher</text>
<text text-anchor="middle" x="264" y="-7" font-family="Helvetica,sans-Serif" font-size="10.00">ImplBase</text>
</a>
</g>
</g>
<!-- Node4&#45;&gt;Node1 -->
<g id="edge4_Node000001_Node000004" class="edge">
<title>Node4&#45;&gt;Node1</title>
<g id="a_edge4_Node000001_Node000004"><a xlink:title=" ">
<path fill="none" stroke="#63b8ff" d="M359.12,-26.23C367.66,-27.32 376.27,-28.48 384.71,-29.69"/>
<polygon fill="#63b8ff" stroke="#63b8ff" points="359.51,-22.75 349.15,-24.98 358.64,-29.69 359.51,-22.75"/>
</a>
</g>
</g>
<!-- Node4&#45;&gt;Node1 -->
<g id="edge6_Node000001_Node000004" class="edge">
<title>Node4&#45;&gt;Node1</title>
<g id="a_edge6_Node000001_Node000004"><a xlink:title=" ">
<path fill="none" stroke="#63b8ff" d="M359.12,-39.69C367.66,-40.86 376.27,-41.97 384.71,-43"/>
<polygon fill="#63b8ff" stroke="#63b8ff" points="359.54,-36.21 349.15,-38.3 358.57,-43.15 359.54,-36.21"/>
</a>
</g>
</g>
</g>
</svg>
