<?xml version="1.0" encoding="UTF-8" standalone="no"?>
<!DOCTYPE svg PUBLIC "-//W3C//DTD SVG 1.1//EN"
 "http://www.w3.org/Graphics/SVG/1.1/DTD/svg11.dtd">
<!-- Generated by graphviz version 2.43.0 (0)
 -->
<!-- Title: testing::internal::DefaultPerThreadTestPartResultReporter Pages: 1 -->
<svg width="179pt" height="115pt"
 viewBox="0.00 0.00 179.00 115.00" xmlns="http://www.w3.org/2000/svg" xmlns:xlink="http://www.w3.org/1999/xlink">
<g id="graph0" class="graph" transform="scale(1 1) rotate(0) translate(4 111)">
<title>testing::internal::DefaultPerThreadTestPartResultReporter</title>
<!-- Node1 -->
<g id="Node000001" class="node">
<title>Node1</title>
<g id="a_Node000001"><a xlink:title=" ">
<polygon fill="#999999" stroke="#666666" points="171,-41 0,-41 0,0 171,0 171,-41"/>
<text text-anchor="start" x="8" y="-29" font-family="Helvetica,sans-Serif" font-size="10.00">testing::internal::</text>
<text text-anchor="start" x="8" y="-18" font-family="Helvetica,sans-Serif" font-size="10.00">DefaultPerThreadTestPartResult</text>
<text text-anchor="middle" x="85.5" y="-7" font-family="Helvetica,sans-Serif" font-size="10.00">Reporter</text>
</a>
</g>
</g>
<!-- Node2 -->
<g id="Node000002" class="node">
<title>Node2</title>
<g id="a_Node000002"><a xlink:href="classtesting_1_1TestPartResultReporterInterface.html" target="_top" xlink:title=" ">
<polygon fill="white" stroke="#666666" points="169,-107 2,-107 2,-77 169,-77 169,-107"/>
<text text-anchor="start" x="10" y="-95" font-family="Helvetica,sans-Serif" font-size="10.00">testing::TestPartResultReporter</text>
<text text-anchor="middle" x="85.5" y="-84" font-family="Helvetica,sans-Serif" font-size="10.00">Interface</text>
</a>
</g>
</g>
<!-- Node2&#45;&gt;Node1 -->
<g id="edge1_Node000001_Node000002" class="edge">
<title>Node2&#45;&gt;Node1</title>
<g id="a_edge1_Node000001_Node000002"><a xlink:title=" ">
<path fill="none" stroke="#63b8ff" d="M79.04,-66.91C78.57,-58.47 78.67,-49.1 79.36,-41.07"/>
<polygon fill="#63b8ff" stroke="#63b8ff" points="75.56,-67.29 79.95,-76.94 82.53,-66.66 75.56,-67.29"/>
</a>
</g>
</g>
<!-- Node2&#45;&gt;Node1 -->
<g id="edge2_Node000001_Node000002" class="edge">
<title>Node2&#45;&gt;Node1</title>
<g id="a_edge2_Node000001_Node000002"><a xlink:title=" ">
<path fill="none" stroke="#63b8ff" d="M91.96,-66.91C92.43,-58.47 92.33,-49.1 91.64,-41.07"/>
<polygon fill="#63b8ff" stroke="#63b8ff" points="88.47,-66.66 91.05,-76.94 95.44,-67.29 88.47,-66.66"/>
</a>
</g>
</g>
</g>
</svg>
