<?xml version="1.0" encoding="UTF-8" standalone="no"?>
<!DOCTYPE svg PUBLIC "-//W3C//DTD SVG 1.1//EN"
 "http://www.w3.org/Graphics/SVG/1.1/DTD/svg11.dtd">
<!-- Generated by graphviz version 2.43.0 (0)
 -->
<!-- Title: testing::internal::PointwiseMatcher&lt; TupleMatcher, RhsContainer &gt;::Impl&lt; LhsContainer &gt; Pages: 1 -->
<svg width="218pt" height="181pt"
 viewBox="0.00 0.00 218.00 181.00" xmlns="http://www.w3.org/2000/svg" xmlns:xlink="http://www.w3.org/1999/xlink">
<g id="graph0" class="graph" transform="scale(1 1) rotate(0) translate(4 177)">
<title>testing::internal::PointwiseMatcher&lt; TupleMatcher, RhsContainer &gt;::Impl&lt; LhsContainer &gt;</title>
<!-- Node1 -->
<g id="Node000001" class="node">
<title>Node1</title>
<g id="a_Node000001"><a xlink:title=" ">
<polygon fill="#999999" stroke="#666666" points="210,-41 0,-41 0,0 210,0 210,-41"/>
<text text-anchor="start" x="8" y="-29" font-family="Helvetica,sans-Serif" font-size="10.00">testing::internal::</text>
<text text-anchor="start" x="8" y="-18" font-family="Helvetica,sans-Serif" font-size="10.00">PointwiseMatcher&lt; TupleMatcher,</text>
<text text-anchor="middle" x="105" y="-7" font-family="Helvetica,sans-Serif" font-size="10.00"> RhsContainer &gt;::Impl&lt; LhsContainer &gt;</text>
</a>
</g>
</g>
<!-- Node2 -->
<g id="Node000002" class="node">
<title>Node2</title>
<g id="a_Node000002"><a xlink:href="classtesting_1_1MatcherInterface.html" target="_top" xlink:title=" ">
<polygon fill="white" stroke="#666666" points="175,-107 35,-107 35,-77 175,-77 175,-107"/>
<text text-anchor="start" x="43" y="-95" font-family="Helvetica,sans-Serif" font-size="10.00">testing::MatcherInterface</text>
<text text-anchor="middle" x="105" y="-84" font-family="Helvetica,sans-Serif" font-size="10.00">&lt; LhsContainer &gt;</text>
</a>
</g>
</g>
<!-- Node2&#45;&gt;Node1 -->
<g id="edge1_Node000001_Node000002" class="edge">
<title>Node2&#45;&gt;Node1</title>
<g id="a_edge1_Node000001_Node000002"><a xlink:title=" ">
<path fill="none" stroke="#63b8ff" d="M98.54,-66.91C98.07,-58.47 98.17,-49.1 98.86,-41.07"/>
<polygon fill="#63b8ff" stroke="#63b8ff" points="95.06,-67.29 99.45,-76.94 102.03,-66.66 95.06,-67.29"/>
</a>
</g>
</g>
<!-- Node2&#45;&gt;Node1 -->
<g id="edge4_Node000001_Node000002" class="edge">
<title>Node2&#45;&gt;Node1</title>
<g id="a_edge4_Node000001_Node000002"><a xlink:title=" ">
<path fill="none" stroke="#63b8ff" d="M111.46,-66.91C111.93,-58.47 111.83,-49.1 111.14,-41.07"/>
<polygon fill="#63b8ff" stroke="#63b8ff" points="107.97,-66.66 110.55,-76.94 114.94,-67.29 107.97,-66.66"/>
</a>
</g>
</g>
<!-- Node3 -->
<g id="Node000003" class="node">
<title>Node3</title>
<g id="a_Node000003"><a xlink:href="classtesting_1_1MatcherDescriberInterface.html" target="_top" xlink:title=" ">
<polygon fill="white" stroke="#666666" points="176.5,-173 33.5,-173 33.5,-143 176.5,-143 176.5,-173"/>
<text text-anchor="start" x="41.5" y="-161" font-family="Helvetica,sans-Serif" font-size="10.00">testing::MatcherDescriber</text>
<text text-anchor="middle" x="105" y="-150" font-family="Helvetica,sans-Serif" font-size="10.00">Interface</text>
</a>
</g>
</g>
<!-- Node3&#45;&gt;Node2 -->
<g id="edge2_Node000002_Node000003" class="edge">
<title>Node3&#45;&gt;Node2</title>
<g id="a_edge2_Node000002_Node000003"><a xlink:title=" ">
<path fill="none" stroke="#63b8ff" d="M98.43,-132.83C98.02,-124.17 98.31,-114.7 99.29,-107.16"/>
<polygon fill="#63b8ff" stroke="#63b8ff" points="94.95,-133.13 99.28,-142.8 101.92,-132.54 94.95,-133.13"/>
</a>
</g>
</g>
<!-- Node3&#45;&gt;Node2 -->
<g id="edge3_Node000002_Node000003" class="edge">
<title>Node3&#45;&gt;Node2</title>
<g id="a_edge3_Node000002_Node000003"><a xlink:title=" ">
<path fill="none" stroke="#63b8ff" d="M111.57,-132.83C111.98,-124.17 111.69,-114.7 110.71,-107.16"/>
<polygon fill="#63b8ff" stroke="#63b8ff" points="108.08,-132.54 110.72,-142.8 115.05,-133.13 108.08,-132.54"/>
</a>
</g>
</g>
</g>
</svg>
