<?xml version="1.0" encoding="UTF-8" standalone="no"?>
<!DOCTYPE svg PUBLIC "-//W3C//DTD SVG 1.1//EN"
 "http://www.w3.org/Graphics/SVG/1.1/DTD/svg11.dtd">
<!-- Generated by graphviz version 2.43.0 (0)
 -->
<!-- Title: testing::MatcherInterface&lt; T &gt; Pages: 1 -->
<svg width="558pt" height="242pt"
 viewBox="0.00 0.00 558.00 242.00" xmlns="http://www.w3.org/2000/svg" xmlns:xlink="http://www.w3.org/1999/xlink">
<g id="graph0" class="graph" transform="scale(1 1) rotate(0) translate(4 238)">
<title>testing::MatcherInterface&lt; T &gt;</title>
<!-- Node1 -->
<g id="Node000001" class="node">
<title>Node1</title>
<g id="a_Node000001"><a xlink:title=" ">
<polygon fill="#999999" stroke="#666666" points="347,-132.5 179,-132.5 179,-113.5 347,-113.5 347,-132.5"/>
<text text-anchor="middle" x="263" y="-120.5" font-family="Helvetica,sans-Serif" font-size="10.00">testing::MatcherInterface&lt; T &gt;</text>
</a>
</g>
</g>
<!-- Node3 -->
<g id="Node000003" class="node">
<title>Node3</title>
<g id="a_Node000003"><a xlink:href="classtesting_1_1internal_1_1AnyMatcherImpl.html" target="_top" xlink:title=" ">
<polygon fill="white" stroke="#666666" points="529,-234 404,-234 404,-204 529,-204 529,-234"/>
<text text-anchor="start" x="412" y="-222" font-family="Helvetica,sans-Serif" font-size="10.00">testing::internal::</text>
<text text-anchor="middle" x="466.5" y="-211" font-family="Helvetica,sans-Serif" font-size="10.00">AnyMatcherImpl&lt; T &gt;</text>
</a>
</g>
</g>
<!-- Node1&#45;&gt;Node3 -->
<g id="edge3_Node000001_Node000003" class="edge">
<title>Node1&#45;&gt;Node3</title>
<g id="a_edge3_Node000001_Node000003"><a xlink:title=" ">
<path fill="none" stroke="#63b8ff" d="M295.91,-137.94C319.19,-152.05 351.96,-172.38 383,-186 399.39,-193.19 418.54,-198.92 434.27,-203.89"/>
<polygon fill="#63b8ff" stroke="#63b8ff" points="297.54,-134.84 287.17,-132.69 293.93,-140.84 297.54,-134.84"/>
</a>
</g>
</g>
<!-- Node1&#45;&gt;Node3 -->
<g id="edge4_Node000001_Node000003" class="edge">
<title>Node1&#45;&gt;Node3</title>
<g id="a_edge4_Node000001_Node000003"><a xlink:title=" ">
<path fill="none" stroke="#63b8ff" d="M278.68,-139.49C300.49,-158 343.18,-186.52 383,-204 389.56,-206.88 396.55,-209.52 403.6,-211.85"/>
<polygon fill="#63b8ff" stroke="#63b8ff" points="280.92,-136.8 271.15,-132.7 276.23,-142 280.92,-136.8"/>
</a>
</g>
</g>
<!-- Node4 -->
<g id="Node000004" class="node">
<title>Node4</title>
<g id="a_Node000004"><a xlink:href="classtesting_1_1internal_1_1BothOfMatcherImpl.html" target="_top" xlink:title=" ">
<polygon fill="white" stroke="#666666" points="536.5,-186 396.5,-186 396.5,-156 536.5,-156 536.5,-186"/>
<text text-anchor="start" x="404.5" y="-174" font-family="Helvetica,sans-Serif" font-size="10.00">testing::internal::</text>
<text text-anchor="middle" x="466.5" y="-163" font-family="Helvetica,sans-Serif" font-size="10.00">BothOfMatcherImpl&lt; T &gt;</text>
</a>
</g>
</g>
<!-- Node1&#45;&gt;Node4 -->
<g id="edge5_Node000001_Node000004" class="edge">
<title>Node1&#45;&gt;Node4</title>
<g id="a_edge5_Node000001_Node000004"><a xlink:title=" ">
<path fill="none" stroke="#63b8ff" d="M340.9,-134.74C369.77,-141.2 401.42,-149.09 425.6,-155.99"/>
<polygon fill="#63b8ff" stroke="#63b8ff" points="341.34,-131.25 330.82,-132.52 339.83,-138.09 341.34,-131.25"/>
</a>
</g>
</g>
<!-- Node1&#45;&gt;Node4 -->
<g id="edge6_Node000001_Node000004" class="edge">
<title>Node1&#45;&gt;Node4</title>
<g id="a_edge6_Node000001_Node000004"><a xlink:title=" ">
<path fill="none" stroke="#63b8ff" d="M295.21,-135.48C322.13,-143.51 361.99,-153.47 396.38,-160.98"/>
<polygon fill="#63b8ff" stroke="#63b8ff" points="296.15,-132.11 285.56,-132.51 294.09,-138.8 296.15,-132.11"/>
</a>
</g>
</g>
<!-- Node5 -->
<g id="Node000005" class="node">
<title>Node5</title>
<g id="a_Node000005"><a xlink:href="classtesting_1_1internal_1_1EitherOfMatcherImpl.html" target="_top" xlink:title=" ">
<polygon fill="white" stroke="#666666" points="539.5,-138 393.5,-138 393.5,-108 539.5,-108 539.5,-138"/>
<text text-anchor="start" x="401.5" y="-126" font-family="Helvetica,sans-Serif" font-size="10.00">testing::internal::</text>
<text text-anchor="middle" x="466.5" y="-115" font-family="Helvetica,sans-Serif" font-size="10.00">EitherOfMatcherImpl&lt; T &gt;</text>
</a>
</g>
</g>
<!-- Node1&#45;&gt;Node5 -->
<g id="edge7_Node000001_Node000005" class="edge">
<title>Node1&#45;&gt;Node5</title>
<g id="a_edge7_Node000001_Node000005"><a xlink:title=" ">
<path fill="none" stroke="#63b8ff" d="M357.22,-116.27C369.3,-116.21 381.52,-116.29 393.19,-116.49"/>
<polygon fill="#63b8ff" stroke="#63b8ff" points="357.09,-112.77 347.12,-116.34 357.15,-119.77 357.09,-112.77"/>
</a>
</g>
</g>
<!-- Node1&#45;&gt;Node5 -->
<g id="edge8_Node000001_Node000005" class="edge">
<title>Node1&#45;&gt;Node5</title>
<g id="a_edge8_Node000001_Node000005"><a xlink:title=" ">
<path fill="none" stroke="#63b8ff" d="M357.22,-129.73C369.3,-129.79 381.52,-129.71 393.19,-129.51"/>
<polygon fill="#63b8ff" stroke="#63b8ff" points="357.15,-126.23 347.12,-129.66 357.09,-133.23 357.15,-126.23"/>
</a>
</g>
</g>
<!-- Node6 -->
<g id="Node000006" class="node">
<title>Node6</title>
<g id="a_Node000006"><a xlink:href="classtesting_1_1internal_1_1FloatingEqMatcher_1_1Impl.html" target="_top" xlink:title=" ">
<polygon fill="white" stroke="#666666" points="550,-89.5 383,-89.5 383,-48.5 550,-48.5 550,-89.5"/>
<text text-anchor="start" x="391" y="-77.5" font-family="Helvetica,sans-Serif" font-size="10.00">testing::internal::</text>
<text text-anchor="start" x="391" y="-66.5" font-family="Helvetica,sans-Serif" font-size="10.00">FloatingEqMatcher&lt; FloatType</text>
<text text-anchor="middle" x="466.5" y="-55.5" font-family="Helvetica,sans-Serif" font-size="10.00"> &gt;::Impl&lt; T &gt;</text>
</a>
</g>
</g>
<!-- Node1&#45;&gt;Node6 -->
<g id="edge9_Node000001_Node000006" class="edge">
<title>Node1&#45;&gt;Node6</title>
<g id="a_edge9_Node000001_Node000006"><a xlink:title=" ">
<path fill="none" stroke="#63b8ff" d="M293.76,-110.07C317.26,-102.3 351.24,-92.63 382.78,-84.52"/>
<polygon fill="#63b8ff" stroke="#63b8ff" points="292.39,-106.84 284.06,-113.38 294.65,-113.46 292.39,-106.84"/>
</a>
</g>
</g>
<!-- Node1&#45;&gt;Node6 -->
<g id="edge10_Node000001_Node000006" class="edge">
<title>Node1&#45;&gt;Node6</title>
<g id="a_edge10_Node000001_Node000006"><a xlink:title=" ">
<path fill="none" stroke="#63b8ff" d="M332.86,-110.99C358.53,-104.62 387.28,-96.79 411.43,-89.55"/>
<polygon fill="#63b8ff" stroke="#63b8ff" points="331.71,-107.66 322.82,-113.44 333.37,-114.46 331.71,-107.66"/>
</a>
</g>
</g>
<!-- Node7 -->
<g id="Node000007" class="node">
<title>Node7</title>
<g id="a_Node000007"><a xlink:href="classtesting_1_1internal_1_1NotMatcherImpl.html" target="_top" xlink:title=" ">
<polygon fill="white" stroke="#666666" points="528.5,-30 404.5,-30 404.5,0 528.5,0 528.5,-30"/>
<text text-anchor="start" x="412.5" y="-18" font-family="Helvetica,sans-Serif" font-size="10.00">testing::internal::</text>
<text text-anchor="middle" x="466.5" y="-7" font-family="Helvetica,sans-Serif" font-size="10.00">NotMatcherImpl&lt; T &gt;</text>
</a>
</g>
</g>
<!-- Node1&#45;&gt;Node7 -->
<g id="edge11_Node000001_Node000007" class="edge">
<title>Node1&#45;&gt;Node7</title>
<g id="a_edge11_Node000001_Node000007"><a xlink:title=" ">
<path fill="none" stroke="#63b8ff" d="M276.85,-106.09C297.74,-84.92 340.98,-50.24 383,-30 389.72,-26.76 396.96,-23.88 404.27,-21.39"/>
<polygon fill="#63b8ff" stroke="#63b8ff" points="274.22,-103.77 269.98,-113.48 279.35,-108.53 274.22,-103.77"/>
</a>
</g>
</g>
<!-- Node1&#45;&gt;Node7 -->
<g id="edge12_Node000001_Node000007" class="edge">
<title>Node1&#45;&gt;Node7</title>
<g id="a_edge12_Node000001_Node000007"><a xlink:title=" ">
<path fill="none" stroke="#63b8ff" d="M290.8,-107.33C313.91,-90.42 348.86,-64.45 383,-48 398.59,-40.49 416.99,-34.86 432.45,-30.11"/>
<polygon fill="#63b8ff" stroke="#63b8ff" points="288.58,-104.62 282.55,-113.33 292.7,-110.28 288.58,-104.62"/>
</a>
</g>
</g>
<!-- Node2 -->
<g id="Node000002" class="node">
<title>Node2</title>
<g id="a_Node000002"><a xlink:href="classtesting_1_1MatcherDescriberInterface.html" target="_top" xlink:title=" ">
<polygon fill="white" stroke="#666666" points="143,-138 0,-138 0,-108 143,-108 143,-138"/>
<text text-anchor="start" x="8" y="-126" font-family="Helvetica,sans-Serif" font-size="10.00">testing::MatcherDescriber</text>
<text text-anchor="middle" x="71.5" y="-115" font-family="Helvetica,sans-Serif" font-size="10.00">Interface</text>
</a>
</g>
</g>
<!-- Node2&#45;&gt;Node1 -->
<g id="edge1_Node000001_Node000002" class="edge">
<title>Node2&#45;&gt;Node1</title>
<g id="a_edge1_Node000001_Node000002"><a xlink:title=" ">
<path fill="none" stroke="#63b8ff" d="M153.3,-116.32C161.78,-116.24 170.41,-116.23 178.9,-116.3"/>
<polygon fill="#63b8ff" stroke="#63b8ff" points="153.02,-112.82 143.06,-116.45 153.11,-119.82 153.02,-112.82"/>
</a>
</g>
</g>
<!-- Node2&#45;&gt;Node1 -->
<g id="edge2_Node000001_Node000002" class="edge">
<title>Node2&#45;&gt;Node1</title>
<g id="a_edge2_Node000001_Node000002"><a xlink:title=" ">
<path fill="none" stroke="#63b8ff" d="M153.3,-129.68C161.78,-129.76 170.41,-129.77 178.9,-129.7"/>
<polygon fill="#63b8ff" stroke="#63b8ff" points="153.11,-126.18 143.06,-129.55 153.02,-133.18 153.11,-126.18"/>
</a>
</g>
</g>
</g>
</svg>
