<?xml version="1.0" encoding="UTF-8" standalone="no"?>
<!DOCTYPE svg PUBLIC "-//W3C//DTD SVG 1.1//EN"
 "http://www.w3.org/Graphics/SVG/1.1/DTD/svg11.dtd">
<!-- Generated by graphviz version 2.43.0 (0)
 -->
<!-- Title: testing::internal::DefaultGlobalTestPartResultReporter Pages: 1 -->
<svg width="175pt" height="115pt"
 viewBox="0.00 0.00 175.00 115.00" xmlns="http://www.w3.org/2000/svg" xmlns:xlink="http://www.w3.org/1999/xlink">
<g id="graph0" class="graph" transform="scale(1 1) rotate(0) translate(4 111)">
<title>testing::internal::DefaultGlobalTestPartResultReporter</title>
<!-- Node1 -->
<g id="Node000001" class="node">
<title>Node1</title>
<g id="a_Node000001"><a xlink:title=" ">
<polygon fill="#999999" stroke="#666666" points="160,-41 7,-41 7,0 160,0 160,-41"/>
<text text-anchor="start" x="15" y="-29" font-family="Helvetica,sans-Serif" font-size="10.00">testing::internal::</text>
<text text-anchor="start" x="15" y="-18" font-family="Helvetica,sans-Serif" font-size="10.00">DefaultGlobalTestPartResult</text>
<text text-anchor="middle" x="83.5" y="-7" font-family="Helvetica,sans-Serif" font-size="10.00">Reporter</text>
</a>
</g>
</g>
<!-- Node2 -->
<g id="Node000002" class="node">
<title>Node2</title>
<g id="a_Node000002"><a xlink:href="classtesting_1_1TestPartResultReporterInterface.html" target="_top" xlink:title=" ">
<polygon fill="white" stroke="#666666" points="167,-107 0,-107 0,-77 167,-77 167,-107"/>
<text text-anchor="start" x="8" y="-95" font-family="Helvetica,sans-Serif" font-size="10.00">testing::TestPartResultReporter</text>
<text text-anchor="middle" x="83.5" y="-84" font-family="Helvetica,sans-Serif" font-size="10.00">Interface</text>
</a>
</g>
</g>
<!-- Node2&#45;&gt;Node1 -->
<g id="edge1_Node000001_Node000002" class="edge">
<title>Node2&#45;&gt;Node1</title>
<g id="a_edge1_Node000001_Node000002"><a xlink:title=" ">
<path fill="none" stroke="#63b8ff" d="M77.04,-66.91C76.57,-58.47 76.67,-49.1 77.36,-41.07"/>
<polygon fill="#63b8ff" stroke="#63b8ff" points="73.56,-67.29 77.95,-76.94 80.53,-66.66 73.56,-67.29"/>
</a>
</g>
</g>
<!-- Node2&#45;&gt;Node1 -->
<g id="edge2_Node000001_Node000002" class="edge">
<title>Node2&#45;&gt;Node1</title>
<g id="a_edge2_Node000001_Node000002"><a xlink:title=" ">
<path fill="none" stroke="#63b8ff" d="M89.96,-66.91C90.43,-58.47 90.33,-49.1 89.64,-41.07"/>
<polygon fill="#63b8ff" stroke="#63b8ff" points="86.47,-66.66 89.05,-76.94 93.44,-67.29 86.47,-66.66"/>
</a>
</g>
</g>
</g>
</svg>
