<?xml version="1.0" encoding="UTF-8" standalone="no"?>
<!DOCTYPE svg PUBLIC "-//W3C//DTD SVG 1.1//EN"
 "http://www.w3.org/Graphics/SVG/1.1/DTD/svg11.dtd">
<!-- Generated by graphviz version 2.43.0 (0)
 -->
<!-- Title: testing::internal::KeyMatcherImpl&lt; PairType &gt; Pages: 1 -->
<svg width="167pt" height="170pt"
 viewBox="0.00 0.00 167.00 170.00" xmlns="http://www.w3.org/2000/svg" xmlns:xlink="http://www.w3.org/1999/xlink">
<g id="graph0" class="graph" transform="scale(1 1) rotate(0) translate(4 166)">
<title>testing::internal::KeyMatcherImpl&lt; PairType &gt;</title>
<!-- Node1 -->
<g id="Node000001" class="node">
<title>Node1</title>
<g id="a_Node000001"><a xlink:title=" ">
<polygon fill="#999999" stroke="#666666" points="159,-30 0,-30 0,0 159,0 159,-30"/>
<text text-anchor="start" x="8" y="-18" font-family="Helvetica,sans-Serif" font-size="10.00">testing::internal::</text>
<text text-anchor="middle" x="79.5" y="-7" font-family="Helvetica,sans-Serif" font-size="10.00">KeyMatcherImpl&lt; PairType &gt;</text>
</a>
</g>
</g>
<!-- Node2 -->
<g id="Node000002" class="node">
<title>Node2</title>
<g id="a_Node000002"><a xlink:href="classtesting_1_1MatcherInterface.html" target="_top" xlink:title=" ">
<polygon fill="white" stroke="#666666" points="149.5,-96 9.5,-96 9.5,-66 149.5,-66 149.5,-96"/>
<text text-anchor="start" x="17.5" y="-84" font-family="Helvetica,sans-Serif" font-size="10.00">testing::MatcherInterface</text>
<text text-anchor="middle" x="79.5" y="-73" font-family="Helvetica,sans-Serif" font-size="10.00">&lt; PairType &gt;</text>
</a>
</g>
</g>
<!-- Node2&#45;&gt;Node1 -->
<g id="edge1_Node000001_Node000002" class="edge">
<title>Node2&#45;&gt;Node1</title>
<g id="a_edge1_Node000001_Node000002"><a xlink:title=" ">
<path fill="none" stroke="#63b8ff" d="M72.93,-55.83C72.52,-47.17 72.81,-37.7 73.79,-30.16"/>
<polygon fill="#63b8ff" stroke="#63b8ff" points="69.45,-56.13 73.78,-65.8 76.42,-55.54 69.45,-56.13"/>
</a>
</g>
</g>
<!-- Node2&#45;&gt;Node1 -->
<g id="edge4_Node000001_Node000002" class="edge">
<title>Node2&#45;&gt;Node1</title>
<g id="a_edge4_Node000001_Node000002"><a xlink:title=" ">
<path fill="none" stroke="#63b8ff" d="M86.07,-55.83C86.48,-47.17 86.19,-37.7 85.21,-30.16"/>
<polygon fill="#63b8ff" stroke="#63b8ff" points="82.58,-55.54 85.22,-65.8 89.55,-56.13 82.58,-55.54"/>
</a>
</g>
</g>
<!-- Node3 -->
<g id="Node000003" class="node">
<title>Node3</title>
<g id="a_Node000003"><a xlink:href="classtesting_1_1MatcherDescriberInterface.html" target="_top" xlink:title=" ">
<polygon fill="white" stroke="#666666" points="151,-162 8,-162 8,-132 151,-132 151,-162"/>
<text text-anchor="start" x="16" y="-150" font-family="Helvetica,sans-Serif" font-size="10.00">testing::MatcherDescriber</text>
<text text-anchor="middle" x="79.5" y="-139" font-family="Helvetica,sans-Serif" font-size="10.00">Interface</text>
</a>
</g>
</g>
<!-- Node3&#45;&gt;Node2 -->
<g id="edge2_Node000002_Node000003" class="edge">
<title>Node3&#45;&gt;Node2</title>
<g id="a_edge2_Node000002_Node000003"><a xlink:title=" ">
<path fill="none" stroke="#63b8ff" d="M72.93,-121.83C72.52,-113.17 72.81,-103.7 73.79,-96.16"/>
<polygon fill="#63b8ff" stroke="#63b8ff" points="69.45,-122.13 73.78,-131.8 76.42,-121.54 69.45,-122.13"/>
</a>
</g>
</g>
<!-- Node3&#45;&gt;Node2 -->
<g id="edge3_Node000002_Node000003" class="edge">
<title>Node3&#45;&gt;Node2</title>
<g id="a_edge3_Node000002_Node000003"><a xlink:title=" ">
<path fill="none" stroke="#63b8ff" d="M86.07,-121.83C86.48,-113.17 86.19,-103.7 85.21,-96.16"/>
<polygon fill="#63b8ff" stroke="#63b8ff" points="82.58,-121.54 85.22,-131.8 89.55,-122.13 82.58,-121.54"/>
</a>
</g>
</g>
</g>
</svg>
