<?xml version="1.0" encoding="UTF-8" standalone="no"?>
<!DOCTYPE svg PUBLIC "-//W3C//DTD SVG 1.1//EN"
 "http://www.w3.org/Graphics/SVG/1.1/DTD/svg11.dtd">
<!-- Generated by graphviz version 2.43.0 (0)
 -->
<!-- Title: testing::internal::FunctionMocker&lt; R(A1, A2, A3, A4, A5, A6, A7, A8, A9, A10)&gt; Pages: 1 -->
<svg width="494pt" height="60pt"
 viewBox="0.00 0.00 494.00 60.00" xmlns="http://www.w3.org/2000/svg" xmlns:xlink="http://www.w3.org/1999/xlink">
<g id="graph0" class="graph" transform="scale(1 1) rotate(0) translate(4 56)">
<title>testing::internal::FunctionMocker&lt; R(A1, A2, A3, A4, A5, A6, A7, A8, A9, A10)&gt;</title>
<!-- Node1 -->
<g id="Node000001" class="node">
<title>Node1</title>
<g id="a_Node000001"><a xlink:title=" ">
<polygon fill="#999999" stroke="#666666" points="486,-52 355,-52 355,0 486,0 486,-52"/>
<text text-anchor="start" x="363" y="-40" font-family="Helvetica,sans-Serif" font-size="10.00">testing::internal::</text>
<text text-anchor="start" x="363" y="-29" font-family="Helvetica,sans-Serif" font-size="10.00">FunctionMocker&lt; R(A1,</text>
<text text-anchor="start" x="363" y="-18" font-family="Helvetica,sans-Serif" font-size="10.00"> A2, A3, A4, A5, A6,</text>
<text text-anchor="middle" x="420.5" y="-7" font-family="Helvetica,sans-Serif" font-size="10.00"> A7, A8, A9, A10)&gt;</text>
</a>
</g>
</g>
<!-- Node2 -->
<g id="Node000002" class="node">
<title>Node2</title>
<g id="a_Node000002"><a xlink:href="classtesting_1_1internal_1_1FunctionMockerBase.html" target="_top" xlink:title=" ">
<polygon fill="white" stroke="#666666" points="319,-52 194,-52 194,0 319,0 319,-52"/>
<text text-anchor="start" x="202" y="-40" font-family="Helvetica,sans-Serif" font-size="10.00">testing::internal::</text>
<text text-anchor="start" x="202" y="-29" font-family="Helvetica,sans-Serif" font-size="10.00">FunctionMockerBase&lt;</text>
<text text-anchor="start" x="202" y="-18" font-family="Helvetica,sans-Serif" font-size="10.00"> R(A1, A2, A3, A4, A5,</text>
<text text-anchor="middle" x="256.5" y="-7" font-family="Helvetica,sans-Serif" font-size="10.00"> A6, A7, A8, A9, A10)&gt;</text>
</a>
</g>
</g>
<!-- Node2&#45;&gt;Node1 -->
<g id="edge1_Node000001_Node000002" class="edge">
<title>Node2&#45;&gt;Node1</title>
<g id="a_edge1_Node000001_Node000002"><a xlink:title=" ">
<path fill="none" stroke="#63b8ff" d="M329.4,-19.29C337.84,-19.22 346.4,-19.25 354.73,-19.37"/>
<polygon fill="#63b8ff" stroke="#63b8ff" points="329.16,-15.79 319.21,-19.42 329.25,-22.79 329.16,-15.79"/>
</a>
</g>
</g>
<!-- Node2&#45;&gt;Node1 -->
<g id="edge4_Node000001_Node000002" class="edge">
<title>Node2&#45;&gt;Node1</title>
<g id="a_edge4_Node000001_Node000002"><a xlink:title=" ">
<path fill="none" stroke="#63b8ff" d="M329.4,-32.71C337.84,-32.78 346.4,-32.75 354.73,-32.63"/>
<polygon fill="#63b8ff" stroke="#63b8ff" points="329.25,-29.21 319.21,-32.58 329.16,-36.21 329.25,-29.21"/>
</a>
</g>
</g>
<!-- Node3 -->
<g id="Node000003" class="node">
<title>Node3</title>
<g id="a_Node000003"><a xlink:href="classtesting_1_1internal_1_1UntypedFunctionMockerBase.html" target="_top" xlink:title=" ">
<polygon fill="white" stroke="#666666" points="158,-41 0,-41 0,-11 158,-11 158,-41"/>
<text text-anchor="start" x="8" y="-29" font-family="Helvetica,sans-Serif" font-size="10.00">testing::internal::</text>
<text text-anchor="middle" x="79" y="-18" font-family="Helvetica,sans-Serif" font-size="10.00">UntypedFunctionMockerBase</text>
</a>
</g>
</g>
<!-- Node3&#45;&gt;Node2 -->
<g id="edge2_Node000002_Node000003" class="edge">
<title>Node3&#45;&gt;Node2</title>
<g id="a_edge2_Node000002_Node000003"><a xlink:title=" ">
<path fill="none" stroke="#63b8ff" d="M168.39,-19.25C177.05,-19.25 185.69,-19.35 193.99,-19.53"/>
<polygon fill="#63b8ff" stroke="#63b8ff" points="168.24,-15.75 158.25,-19.29 168.27,-22.75 168.24,-15.75"/>
</a>
</g>
</g>
<!-- Node3&#45;&gt;Node2 -->
<g id="edge3_Node000002_Node000003" class="edge">
<title>Node3&#45;&gt;Node2</title>
<g id="a_edge3_Node000002_Node000003"><a xlink:title=" ">
<path fill="none" stroke="#63b8ff" d="M168.39,-32.75C177.05,-32.75 185.69,-32.65 193.99,-32.47"/>
<polygon fill="#63b8ff" stroke="#63b8ff" points="168.27,-29.25 158.25,-32.71 168.24,-36.25 168.27,-29.25"/>
</a>
</g>
</g>
</g>
</svg>
