<?xml version="1.0" encoding="UTF-8" standalone="no"?>
<!DOCTYPE svg PUBLIC "-//W3C//DTD SVG 1.1//EN"
 "http://www.w3.org/Graphics/SVG/1.1/DTD/svg11.dtd">
<!-- Generated by graphviz version 2.43.0 (0)
 -->
<!-- Title: testing::internal::FunctionMocker&lt; R(A1, A2, A3, A4, A5, A6)&gt; Pages: 1 -->
<svg width="166pt" height="192pt"
 viewBox="0.00 0.00 166.00 192.00" xmlns="http://www.w3.org/2000/svg" xmlns:xlink="http://www.w3.org/1999/xlink">
<g id="graph0" class="graph" transform="scale(1 1) rotate(0) translate(4 188)">
<title>testing::internal::FunctionMocker&lt; R(A1, A2, A3, A4, A5, A6)&gt;</title>
<!-- Node1 -->
<g id="Node000001" class="node">
<title>Node1</title>
<g id="a_Node000001"><a xlink:title=" ">
<polygon fill="#999999" stroke="#666666" points="144.5,-41 13.5,-41 13.5,0 144.5,0 144.5,-41"/>
<text text-anchor="start" x="21.5" y="-29" font-family="Helvetica,sans-Serif" font-size="10.00">testing::internal::</text>
<text text-anchor="start" x="21.5" y="-18" font-family="Helvetica,sans-Serif" font-size="10.00">FunctionMocker&lt; R(A1,</text>
<text text-anchor="middle" x="79" y="-7" font-family="Helvetica,sans-Serif" font-size="10.00"> A2, A3, A4, A5, A6)&gt;</text>
</a>
</g>
</g>
<!-- Node2 -->
<g id="Node000002" class="node">
<title>Node2</title>
<g id="a_Node000002"><a xlink:href="classtesting_1_1internal_1_1FunctionMockerBase.html" target="_top" xlink:title=" ">
<polygon fill="white" stroke="#666666" points="153.5,-118 4.5,-118 4.5,-77 153.5,-77 153.5,-118"/>
<text text-anchor="start" x="12.5" y="-106" font-family="Helvetica,sans-Serif" font-size="10.00">testing::internal::</text>
<text text-anchor="start" x="12.5" y="-95" font-family="Helvetica,sans-Serif" font-size="10.00">FunctionMockerBase&lt;</text>
<text text-anchor="middle" x="79" y="-84" font-family="Helvetica,sans-Serif" font-size="10.00"> R(A1, A2, A3, A4, A5, A6)&gt;</text>
</a>
</g>
</g>
<!-- Node2&#45;&gt;Node1 -->
<g id="edge1_Node000001_Node000002" class="edge">
<title>Node2&#45;&gt;Node1</title>
<g id="a_edge1_Node000001_Node000002"><a xlink:title=" ">
<path fill="none" stroke="#63b8ff" d="M72.38,-66.69C72.09,-58.08 72.29,-48.9 72.99,-41.07"/>
<polygon fill="#63b8ff" stroke="#63b8ff" points="68.89,-67.02 72.98,-76.79 75.88,-66.6 68.89,-67.02"/>
</a>
</g>
</g>
<!-- Node2&#45;&gt;Node1 -->
<g id="edge4_Node000001_Node000002" class="edge">
<title>Node2&#45;&gt;Node1</title>
<g id="a_edge4_Node000001_Node000002"><a xlink:title=" ">
<path fill="none" stroke="#63b8ff" d="M85.62,-66.69C85.91,-58.08 85.71,-48.9 85.01,-41.07"/>
<polygon fill="#63b8ff" stroke="#63b8ff" points="82.12,-66.6 85.02,-76.79 89.11,-67.02 82.12,-66.6"/>
</a>
</g>
</g>
<!-- Node3 -->
<g id="Node000003" class="node">
<title>Node3</title>
<g id="a_Node000003"><a xlink:href="classtesting_1_1internal_1_1UntypedFunctionMockerBase.html" target="_top" xlink:title=" ">
<polygon fill="white" stroke="#666666" points="158,-184 0,-184 0,-154 158,-154 158,-184"/>
<text text-anchor="start" x="8" y="-172" font-family="Helvetica,sans-Serif" font-size="10.00">testing::internal::</text>
<text text-anchor="middle" x="79" y="-161" font-family="Helvetica,sans-Serif" font-size="10.00">UntypedFunctionMockerBase</text>
</a>
</g>
</g>
<!-- Node3&#45;&gt;Node2 -->
<g id="edge2_Node000002_Node000003" class="edge">
<title>Node3&#45;&gt;Node2</title>
<g id="a_edge2_Node000002_Node000003"><a xlink:title=" ">
<path fill="none" stroke="#63b8ff" d="M72.54,-143.91C72.07,-135.47 72.17,-126.1 72.86,-118.07"/>
<polygon fill="#63b8ff" stroke="#63b8ff" points="69.06,-144.29 73.45,-153.94 76.03,-143.66 69.06,-144.29"/>
</a>
</g>
</g>
<!-- Node3&#45;&gt;Node2 -->
<g id="edge3_Node000002_Node000003" class="edge">
<title>Node3&#45;&gt;Node2</title>
<g id="a_edge3_Node000002_Node000003"><a xlink:title=" ">
<path fill="none" stroke="#63b8ff" d="M85.46,-143.91C85.93,-135.47 85.83,-126.1 85.14,-118.07"/>
<polygon fill="#63b8ff" stroke="#63b8ff" points="81.97,-143.66 84.55,-153.94 88.94,-144.29 81.97,-143.66"/>
</a>
</g>
</g>
</g>
</svg>
