<?xml version="1.0" encoding="UTF-8" standalone="no"?>
<!DOCTYPE svg PUBLIC "-//W3C//DTD SVG 1.1//EN"
 "http://www.w3.org/Graphics/SVG/1.1/DTD/svg11.dtd">
<!-- Generated by graphviz version 2.43.0 (0)
 -->
<!-- Title: testing::internal::WhenSortedByMatcher&lt; Comparator, ContainerMatcher &gt;::Impl&lt; LhsContainer &gt; Pages: 1 -->
<svg width="187pt" height="192pt"
 viewBox="0.00 0.00 187.00 192.00" xmlns="http://www.w3.org/2000/svg" xmlns:xlink="http://www.w3.org/1999/xlink">
<g id="graph0" class="graph" transform="scale(1 1) rotate(0) translate(4 188)">
<title>testing::internal::WhenSortedByMatcher&lt; Comparator, ContainerMatcher &gt;::Impl&lt; LhsContainer &gt;</title>
<!-- Node1 -->
<g id="Node000001" class="node">
<title>Node1</title>
<g id="a_Node000001"><a xlink:title=" ">
<polygon fill="#999999" stroke="#666666" points="179,-52 0,-52 0,0 179,0 179,-52"/>
<text text-anchor="start" x="8" y="-40" font-family="Helvetica,sans-Serif" font-size="10.00">testing::internal::</text>
<text text-anchor="start" x="8" y="-29" font-family="Helvetica,sans-Serif" font-size="10.00">WhenSortedByMatcher</text>
<text text-anchor="start" x="8" y="-18" font-family="Helvetica,sans-Serif" font-size="10.00">&lt; Comparator, ContainerMatcher</text>
<text text-anchor="middle" x="89.5" y="-7" font-family="Helvetica,sans-Serif" font-size="10.00"> &gt;::Impl&lt; LhsContainer &gt;</text>
</a>
</g>
</g>
<!-- Node2 -->
<g id="Node000002" class="node">
<title>Node2</title>
<g id="a_Node000002"><a xlink:href="classtesting_1_1MatcherInterface.html" target="_top" xlink:title=" ">
<polygon fill="white" stroke="#666666" points="159.5,-118 19.5,-118 19.5,-88 159.5,-88 159.5,-118"/>
<text text-anchor="start" x="27.5" y="-106" font-family="Helvetica,sans-Serif" font-size="10.00">testing::MatcherInterface</text>
<text text-anchor="middle" x="89.5" y="-95" font-family="Helvetica,sans-Serif" font-size="10.00">&lt; LhsContainer &gt;</text>
</a>
</g>
</g>
<!-- Node2&#45;&gt;Node1 -->
<g id="edge1_Node000001_Node000002" class="edge">
<title>Node2&#45;&gt;Node1</title>
<g id="a_edge1_Node000001_Node000002"><a xlink:title=" ">
<path fill="none" stroke="#63b8ff" d="M83.15,-77.86C82.64,-69.69 82.62,-60.54 83.08,-52.28"/>
<polygon fill="#63b8ff" stroke="#63b8ff" points="79.67,-78.26 84.09,-87.89 86.64,-77.61 79.67,-78.26"/>
</a>
</g>
</g>
<!-- Node2&#45;&gt;Node1 -->
<g id="edge4_Node000001_Node000002" class="edge">
<title>Node2&#45;&gt;Node1</title>
<g id="a_edge4_Node000001_Node000002"><a xlink:title=" ">
<path fill="none" stroke="#63b8ff" d="M95.85,-77.86C96.36,-69.69 96.38,-60.54 95.92,-52.28"/>
<polygon fill="#63b8ff" stroke="#63b8ff" points="92.36,-77.61 94.91,-87.89 99.33,-78.26 92.36,-77.61"/>
</a>
</g>
</g>
<!-- Node3 -->
<g id="Node000003" class="node">
<title>Node3</title>
<g id="a_Node000003"><a xlink:href="classtesting_1_1MatcherDescriberInterface.html" target="_top" xlink:title=" ">
<polygon fill="white" stroke="#666666" points="161,-184 18,-184 18,-154 161,-154 161,-184"/>
<text text-anchor="start" x="26" y="-172" font-family="Helvetica,sans-Serif" font-size="10.00">testing::MatcherDescriber</text>
<text text-anchor="middle" x="89.5" y="-161" font-family="Helvetica,sans-Serif" font-size="10.00">Interface</text>
</a>
</g>
</g>
<!-- Node3&#45;&gt;Node2 -->
<g id="edge2_Node000002_Node000003" class="edge">
<title>Node3&#45;&gt;Node2</title>
<g id="a_edge2_Node000002_Node000003"><a xlink:title=" ">
<path fill="none" stroke="#63b8ff" d="M82.93,-143.83C82.52,-135.17 82.81,-125.7 83.79,-118.16"/>
<polygon fill="#63b8ff" stroke="#63b8ff" points="79.45,-144.13 83.78,-153.8 86.42,-143.54 79.45,-144.13"/>
</a>
</g>
</g>
<!-- Node3&#45;&gt;Node2 -->
<g id="edge3_Node000002_Node000003" class="edge">
<title>Node3&#45;&gt;Node2</title>
<g id="a_edge3_Node000002_Node000003"><a xlink:title=" ">
<path fill="none" stroke="#63b8ff" d="M96.07,-143.83C96.48,-135.17 96.19,-125.7 95.21,-118.16"/>
<polygon fill="#63b8ff" stroke="#63b8ff" points="92.58,-143.54 95.22,-153.8 99.55,-144.13 92.58,-143.54"/>
</a>
</g>
</g>
</g>
</svg>
