<?xml version="1.0" encoding="UTF-8" standalone="no"?>
<!DOCTYPE svg PUBLIC "-//W3C//DTD SVG 1.1//EN"
 "http://www.w3.org/Graphics/SVG/1.1/DTD/svg11.dtd">
<!-- Generated by graphviz version 2.43.0 (0)
 -->
<!-- Title: testing::internal::QuantifierMatcherImpl&lt; Container &gt; Pages: 1 -->
<svg width="696pt" height="98pt"
 viewBox="0.00 0.00 696.00 97.50" xmlns="http://www.w3.org/2000/svg" xmlns:xlink="http://www.w3.org/1999/xlink">
<g id="graph0" class="graph" transform="scale(1 1) rotate(0) translate(4 93.5)">
<title>testing::internal::QuantifierMatcherImpl&lt; Container &gt;</title>
<!-- Node1 -->
<g id="Node000001" class="node">
<title>Node1</title>
<g id="a_Node000001"><a xlink:title=" ">
<polygon fill="#999999" stroke="#666666" points="481,-62.5 355,-62.5 355,-21.5 481,-21.5 481,-62.5"/>
<text text-anchor="start" x="363" y="-50.5" font-family="Helvetica,sans-Serif" font-size="10.00">testing::internal::</text>
<text text-anchor="start" x="363" y="-39.5" font-family="Helvetica,sans-Serif" font-size="10.00">QuantifierMatcherImpl</text>
<text text-anchor="middle" x="418" y="-28.5" font-family="Helvetica,sans-Serif" font-size="10.00">&lt; Container &gt;</text>
</a>
</g>
</g>
<!-- Node4 -->
<g id="Node000004" class="node">
<title>Node4</title>
<g id="a_Node000004"><a xlink:href="classtesting_1_1internal_1_1ContainsMatcherImpl.html" target="_top" xlink:title=" ">
<polygon fill="white" stroke="#666666" points="663,-89.5 542,-89.5 542,-48.5 663,-48.5 663,-89.5"/>
<text text-anchor="start" x="550" y="-77.5" font-family="Helvetica,sans-Serif" font-size="10.00">testing::internal::</text>
<text text-anchor="start" x="550" y="-66.5" font-family="Helvetica,sans-Serif" font-size="10.00">ContainsMatcherImpl</text>
<text text-anchor="middle" x="602.5" y="-55.5" font-family="Helvetica,sans-Serif" font-size="10.00">&lt; Container &gt;</text>
</a>
</g>
</g>
<!-- Node1&#45;&gt;Node4 -->
<g id="edge5_Node000001_Node000004" class="edge">
<title>Node1&#45;&gt;Node4</title>
<g id="a_edge5_Node000001_Node000004"><a xlink:title=" ">
<path fill="none" stroke="#63b8ff" d="M491.32,-46.08C508.05,-48.32 525.67,-51.01 541.79,-53.79"/>
<polygon fill="#63b8ff" stroke="#63b8ff" points="491.41,-42.56 481.04,-44.75 490.51,-49.5 491.41,-42.56"/>
</a>
</g>
</g>
<!-- Node1&#45;&gt;Node4 -->
<g id="edge6_Node000001_Node000004" class="edge">
<title>Node1&#45;&gt;Node4</title>
<g id="a_edge6_Node000001_Node000004"><a xlink:title=" ">
<path fill="none" stroke="#63b8ff" d="M491.32,-59.32C508.05,-62.03 525.67,-64.55 541.79,-66.54"/>
<polygon fill="#63b8ff" stroke="#63b8ff" points="491.48,-55.8 481.04,-57.61 490.33,-62.7 491.48,-55.8"/>
</a>
</g>
</g>
<!-- Node5 -->
<g id="Node000005" class="node">
<title>Node5</title>
<g id="a_Node000005"><a xlink:href="classtesting_1_1internal_1_1EachMatcherImpl.html" target="_top" xlink:title=" ">
<polygon fill="white" stroke="#666666" points="688,-30 517,-30 517,0 688,0 688,-30"/>
<text text-anchor="start" x="525" y="-18" font-family="Helvetica,sans-Serif" font-size="10.00">testing::internal::</text>
<text text-anchor="middle" x="602.5" y="-7" font-family="Helvetica,sans-Serif" font-size="10.00">EachMatcherImpl&lt; Container &gt;</text>
</a>
</g>
</g>
<!-- Node1&#45;&gt;Node5 -->
<g id="edge7_Node000001_Node000005" class="edge">
<title>Node1&#45;&gt;Node5</title>
<g id="a_edge7_Node000001_Node000005"><a xlink:title=" ">
<path fill="none" stroke="#63b8ff" d="M491.14,-24.71C499.53,-23.35 508.14,-22.04 516.68,-20.81"/>
<polygon fill="#63b8ff" stroke="#63b8ff" points="490.33,-21.3 481.04,-26.39 491.48,-28.2 490.33,-21.3"/>
</a>
</g>
</g>
<!-- Node1&#45;&gt;Node5 -->
<g id="edge8_Node000001_Node000005" class="edge">
<title>Node1&#45;&gt;Node5</title>
<g id="a_edge8_Node000001_Node000005"><a xlink:title=" ">
<path fill="none" stroke="#63b8ff" d="M491.01,-37.96C508.15,-35.67 526.24,-32.91 542.71,-30.05"/>
<polygon fill="#63b8ff" stroke="#63b8ff" points="490.51,-34.5 481.04,-39.25 491.41,-41.44 490.51,-34.5"/>
</a>
</g>
</g>
<!-- Node2 -->
<g id="Node000002" class="node">
<title>Node2</title>
<g id="a_Node000002"><a xlink:href="classtesting_1_1MatcherInterface.html" target="_top" xlink:title=" ">
<polygon fill="white" stroke="#666666" points="319,-57 179,-57 179,-27 319,-27 319,-57"/>
<text text-anchor="start" x="187" y="-45" font-family="Helvetica,sans-Serif" font-size="10.00">testing::MatcherInterface</text>
<text text-anchor="middle" x="249" y="-34" font-family="Helvetica,sans-Serif" font-size="10.00">&lt; Container &gt;</text>
</a>
</g>
</g>
<!-- Node2&#45;&gt;Node1 -->
<g id="edge1_Node000001_Node000002" class="edge">
<title>Node2&#45;&gt;Node1</title>
<g id="a_edge1_Node000001_Node000002"><a xlink:title=" ">
<path fill="none" stroke="#63b8ff" d="M329.63,-35.26C338.07,-35.23 346.57,-35.29 354.78,-35.45"/>
<polygon fill="#63b8ff" stroke="#63b8ff" points="329.34,-31.76 319.37,-35.34 329.4,-38.76 329.34,-31.76"/>
</a>
</g>
</g>
<!-- Node2&#45;&gt;Node1 -->
<g id="edge4_Node000001_Node000002" class="edge">
<title>Node2&#45;&gt;Node1</title>
<g id="a_edge4_Node000001_Node000002"><a xlink:title=" ">
<path fill="none" stroke="#63b8ff" d="M329.63,-48.74C338.07,-48.77 346.57,-48.71 354.78,-48.55"/>
<polygon fill="#63b8ff" stroke="#63b8ff" points="329.4,-45.24 319.37,-48.66 329.34,-52.24 329.4,-45.24"/>
</a>
</g>
</g>
<!-- Node3 -->
<g id="Node000003" class="node">
<title>Node3</title>
<g id="a_Node000003"><a xlink:href="classtesting_1_1MatcherDescriberInterface.html" target="_top" xlink:title=" ">
<polygon fill="white" stroke="#666666" points="143,-57 0,-57 0,-27 143,-27 143,-57"/>
<text text-anchor="start" x="8" y="-45" font-family="Helvetica,sans-Serif" font-size="10.00">testing::MatcherDescriber</text>
<text text-anchor="middle" x="71.5" y="-34" font-family="Helvetica,sans-Serif" font-size="10.00">Interface</text>
</a>
</g>
</g>
<!-- Node3&#45;&gt;Node2 -->
<g id="edge2_Node000002_Node000003" class="edge">
<title>Node3&#45;&gt;Node2</title>
<g id="a_edge2_Node000002_Node000003"><a xlink:title=" ">
<path fill="none" stroke="#63b8ff" d="M153.17,-35.27C161.78,-35.22 170.49,-35.26 178.95,-35.39"/>
<polygon fill="#63b8ff" stroke="#63b8ff" points="153.09,-31.77 143.12,-35.37 153.16,-38.77 153.09,-31.77"/>
</a>
</g>
</g>
<!-- Node3&#45;&gt;Node2 -->
<g id="edge3_Node000002_Node000003" class="edge">
<title>Node3&#45;&gt;Node2</title>
<g id="a_edge3_Node000002_Node000003"><a xlink:title=" ">
<path fill="none" stroke="#63b8ff" d="M153.17,-48.73C161.78,-48.78 170.49,-48.74 178.95,-48.61"/>
<polygon fill="#63b8ff" stroke="#63b8ff" points="153.16,-45.23 143.12,-48.63 153.09,-52.23 153.16,-45.23"/>
</a>
</g>
</g>
</g>
</svg>
