<?xml version="1.0" encoding="UTF-8" standalone="no"?>
<!DOCTYPE svg PUBLIC "-//W3C//DTD SVG 1.1//EN"
 "http://www.w3.org/Graphics/SVG/1.1/DTD/svg11.dtd">
<!-- Generated by graphviz version 2.43.0 (0)
 -->
<!-- Title: testing::internal::TestFactoryImpl&lt; TestClass &gt; Pages: 1 -->
<svg width="169pt" height="104pt"
 viewBox="0.00 0.00 169.00 104.00" xmlns="http://www.w3.org/2000/svg" xmlns:xlink="http://www.w3.org/1999/xlink">
<g id="graph0" class="graph" transform="scale(1 1) rotate(0) translate(4 100)">
<title>testing::internal::TestFactoryImpl&lt; TestClass &gt;</title>
<!-- Node1 -->
<g id="Node000001" class="node">
<title>Node1</title>
<g id="a_Node000001"><a xlink:title=" ">
<polygon fill="#999999" stroke="#666666" points="161,-30 0,-30 0,0 161,0 161,-30"/>
<text text-anchor="start" x="8" y="-18" font-family="Helvetica,sans-Serif" font-size="10.00">testing::internal::</text>
<text text-anchor="middle" x="80.5" y="-7" font-family="Helvetica,sans-Serif" font-size="10.00">TestFactoryImpl&lt; TestClass &gt;</text>
</a>
</g>
</g>
<!-- Node2 -->
<g id="Node000002" class="node">
<title>Node2</title>
<g id="a_Node000002"><a xlink:href="classtesting_1_1internal_1_1TestFactoryBase.html" target="_top" xlink:title=" ">
<polygon fill="white" stroke="#666666" points="130.5,-96 30.5,-96 30.5,-66 130.5,-66 130.5,-96"/>
<text text-anchor="start" x="38.5" y="-84" font-family="Helvetica,sans-Serif" font-size="10.00">testing::internal::</text>
<text text-anchor="middle" x="80.5" y="-73" font-family="Helvetica,sans-Serif" font-size="10.00">TestFactoryBase</text>
</a>
</g>
</g>
<!-- Node2&#45;&gt;Node1 -->
<g id="edge1_Node000001_Node000002" class="edge">
<title>Node2&#45;&gt;Node1</title>
<g id="a_edge1_Node000001_Node000002"><a xlink:title=" ">
<path fill="none" stroke="#63b8ff" d="M73.93,-55.83C73.52,-47.17 73.81,-37.7 74.79,-30.16"/>
<polygon fill="#63b8ff" stroke="#63b8ff" points="70.45,-56.13 74.78,-65.8 77.42,-55.54 70.45,-56.13"/>
</a>
</g>
</g>
<!-- Node2&#45;&gt;Node1 -->
<g id="edge2_Node000001_Node000002" class="edge">
<title>Node2&#45;&gt;Node1</title>
<g id="a_edge2_Node000001_Node000002"><a xlink:title=" ">
<path fill="none" stroke="#63b8ff" d="M87.07,-55.83C87.48,-47.17 87.19,-37.7 86.21,-30.16"/>
<polygon fill="#63b8ff" stroke="#63b8ff" points="83.58,-55.54 86.22,-65.8 90.55,-56.13 83.58,-55.54"/>
</a>
</g>
</g>
</g>
</svg>
