<?xml version="1.0" encoding="UTF-8" standalone="no"?>
<!DOCTYPE svg PUBLIC "-//W3C//DTD SVG 1.1//EN"
 "http://www.w3.org/Graphics/SVG/1.1/DTD/svg11.dtd">
<!-- Generated by graphviz version 2.43.0 (0)
 -->
<!-- Title: testing::internal::FloatingEqMatcher&lt; FloatType &gt;::Impl&lt; T &gt; Pages: 1 -->
<svg width="176pt" height="170pt"
 viewBox="0.00 0.00 176.00 170.00" xmlns="http://www.w3.org/2000/svg" xmlns:xlink="http://www.w3.org/1999/xlink">
<g id="graph0" class="graph" transform="scale(1 1) rotate(0) translate(4 166)">
<title>testing::internal::FloatingEqMatcher&lt; FloatType &gt;::Impl&lt; T &gt;</title>
<!-- Node1 -->
<g id="Node000001" class="node">
<title>Node1</title>
<g id="a_Node000001"><a xlink:title=" ">
<polygon fill="#999999" stroke="#666666" points="167.5,-41 0.5,-41 0.5,0 167.5,0 167.5,-41"/>
<text text-anchor="start" x="8.5" y="-29" font-family="Helvetica,sans-Serif" font-size="10.00">testing::internal::</text>
<text text-anchor="start" x="8.5" y="-18" font-family="Helvetica,sans-Serif" font-size="10.00">FloatingEqMatcher&lt; FloatType</text>
<text text-anchor="middle" x="84" y="-7" font-family="Helvetica,sans-Serif" font-size="10.00"> &gt;::Impl&lt; T &gt;</text>
</a>
</g>
</g>
<!-- Node2 -->
<g id="Node000002" class="node">
<title>Node2</title>
<g id="a_Node000002"><a xlink:href="classtesting_1_1MatcherInterface.html" target="_top" xlink:title=" ">
<polygon fill="white" stroke="#666666" points="168,-96 0,-96 0,-77 168,-77 168,-96"/>
<text text-anchor="middle" x="84" y="-84" font-family="Helvetica,sans-Serif" font-size="10.00">testing::MatcherInterface&lt; T &gt;</text>
</a>
</g>
</g>
<!-- Node2&#45;&gt;Node1 -->
<g id="edge1_Node000001_Node000002" class="edge">
<title>Node2&#45;&gt;Node1</title>
<g id="a_edge1_Node000001_Node000002"><a xlink:title=" ">
<path fill="none" stroke="#63b8ff" d="M77.81,-66.91C77.09,-58.78 77.07,-49.24 77.73,-41.01"/>
<polygon fill="#63b8ff" stroke="#63b8ff" points="74.35,-67.46 79.21,-76.87 81.28,-66.48 74.35,-67.46"/>
</a>
</g>
</g>
<!-- Node2&#45;&gt;Node1 -->
<g id="edge4_Node000001_Node000002" class="edge">
<title>Node2&#45;&gt;Node1</title>
<g id="a_edge4_Node000001_Node000002"><a xlink:title=" ">
<path fill="none" stroke="#63b8ff" d="M90.19,-66.91C90.91,-58.78 90.93,-49.24 90.27,-41.01"/>
<polygon fill="#63b8ff" stroke="#63b8ff" points="86.72,-66.48 88.79,-76.87 93.65,-67.46 86.72,-66.48"/>
</a>
</g>
</g>
<!-- Node3 -->
<g id="Node000003" class="node">
<title>Node3</title>
<g id="a_Node000003"><a xlink:href="classtesting_1_1MatcherDescriberInterface.html" target="_top" xlink:title=" ">
<polygon fill="white" stroke="#666666" points="155.5,-162 12.5,-162 12.5,-132 155.5,-132 155.5,-162"/>
<text text-anchor="start" x="20.5" y="-150" font-family="Helvetica,sans-Serif" font-size="10.00">testing::MatcherDescriber</text>
<text text-anchor="middle" x="84" y="-139" font-family="Helvetica,sans-Serif" font-size="10.00">Interface</text>
</a>
</g>
</g>
<!-- Node3&#45;&gt;Node2 -->
<g id="edge2_Node000002_Node000003" class="edge">
<title>Node3&#45;&gt;Node2</title>
<g id="a_edge2_Node000002_Node000003"><a xlink:title=" ">
<path fill="none" stroke="#63b8ff" d="M77.34,-121.75C77.02,-112.72 77.58,-103.03 79.02,-96.27"/>
<polygon fill="#63b8ff" stroke="#63b8ff" points="73.86,-122.14 78.12,-131.84 80.84,-121.6 73.86,-122.14"/>
</a>
</g>
</g>
<!-- Node3&#45;&gt;Node2 -->
<g id="edge3_Node000002_Node000003" class="edge">
<title>Node3&#45;&gt;Node2</title>
<g id="a_edge3_Node000002_Node000003"><a xlink:title=" ">
<path fill="none" stroke="#63b8ff" d="M90.66,-121.75C90.98,-112.72 90.42,-103.03 88.98,-96.27"/>
<polygon fill="#63b8ff" stroke="#63b8ff" points="87.16,-121.6 89.88,-131.84 94.14,-122.14 87.16,-121.6"/>
</a>
</g>
</g>
</g>
</svg>
