<?xml version="1.0" encoding="UTF-8" standalone="no"?>
<!DOCTYPE svg PUBLIC "-//W3C//DTD SVG 1.1//EN"
 "http://www.w3.org/Graphics/SVG/1.1/DTD/svg11.dtd">
<!-- Generated by graphviz version 2.43.0 (0)
 -->
<!-- Title: testing::NaggyMock&lt; MockClass &gt; Pages: 1 -->
<svg width="122pt" height="93pt"
 viewBox="0.00 0.00 122.00 93.00" xmlns="http://www.w3.org/2000/svg" xmlns:xlink="http://www.w3.org/1999/xlink">
<g id="graph0" class="graph" transform="scale(1 1) rotate(0) translate(4 89)">
<title>testing::NaggyMock&lt; MockClass &gt;</title>
<!-- Node1 -->
<g id="Node000001" class="node">
<title>Node1</title>
<g id="a_Node000001"><a xlink:title=" ">
<polygon fill="#999999" stroke="#666666" points="114,-30 0,-30 0,0 114,0 114,-30"/>
<text text-anchor="start" x="8" y="-18" font-family="Helvetica,sans-Serif" font-size="10.00">testing::NaggyMock</text>
<text text-anchor="middle" x="57" y="-7" font-family="Helvetica,sans-Serif" font-size="10.00">&lt; MockClass &gt;</text>
</a>
</g>
</g>
<!-- Node2 -->
<g id="Node000002" class="node">
<title>Node2</title>
<g id="a_Node000002"><a xlink:title=" ">
<polygon fill="white" stroke="#666666" points="91.5,-85 22.5,-85 22.5,-66 91.5,-66 91.5,-85"/>
<text text-anchor="middle" x="57" y="-73" font-family="Helvetica,sans-Serif" font-size="10.00">MockClass</text>
</a>
</g>
</g>
<!-- Node2&#45;&gt;Node1 -->
<g id="edge1_Node000001_Node000002" class="edge">
<title>Node2&#45;&gt;Node1</title>
<g id="a_edge1_Node000001_Node000002"><a xlink:title=" ">
<path fill="none" stroke="#63b8ff" d="M50.67,-55.93C49.99,-47.58 50.14,-37.87 51.13,-30.11"/>
<polygon fill="#63b8ff" stroke="#63b8ff" points="47.2,-56.44 52.04,-65.87 54.14,-55.48 47.2,-56.44"/>
</a>
</g>
</g>
<!-- Node2&#45;&gt;Node1 -->
<g id="edge2_Node000001_Node000002" class="edge">
<title>Node2&#45;&gt;Node1</title>
<g id="a_edge2_Node000001_Node000002"><a xlink:title=" ">
<path fill="none" stroke="#63b8ff" d="M63.33,-55.93C64.01,-47.58 63.86,-37.87 62.87,-30.11"/>
<polygon fill="#63b8ff" stroke="#63b8ff" points="59.86,-55.48 61.96,-65.87 66.8,-56.44 59.86,-55.48"/>
</a>
</g>
</g>
</g>
</svg>
