<?xml version="1.0" encoding="UTF-8" standalone="no"?>
<!DOCTYPE svg PUBLIC "-//W3C//DTD SVG 1.1//EN"
 "http://www.w3.org/Graphics/SVG/1.1/DTD/svg11.dtd">
<!-- Generated by graphviz version 2.43.0 (0)
 -->
<!-- Title: testing::TestPartResultReporterInterface Pages: 1 -->
<svg width="382pt" height="205pt"
 viewBox="0.00 0.00 382.00 205.00" xmlns="http://www.w3.org/2000/svg" xmlns:xlink="http://www.w3.org/1999/xlink">
<g id="graph0" class="graph" transform="scale(1 1) rotate(0) translate(4 201)">
<title>testing::TestPartResultReporterInterface</title>
<!-- Node1 -->
<g id="Node000001" class="node">
<title>Node1</title>
<g id="a_Node000001"><a xlink:title=" ">
<polygon fill="#999999" stroke="#666666" points="167,-113 0,-113 0,-83 167,-83 167,-113"/>
<text text-anchor="start" x="8" y="-101" font-family="Helvetica,sans-Serif" font-size="10.00">testing::TestPartResultReporter</text>
<text text-anchor="middle" x="83.5" y="-90" font-family="Helvetica,sans-Serif" font-size="10.00">Interface</text>
</a>
</g>
</g>
<!-- Node2 -->
<g id="Node000002" class="node">
<title>Node2</title>
<g id="a_Node000002"><a xlink:href="classtesting_1_1ScopedFakeTestPartResultReporter.html" target="_top" xlink:title=" ">
<polygon fill="white" stroke="#666666" points="364.5,-197 212.5,-197 212.5,-167 364.5,-167 364.5,-197"/>
<text text-anchor="start" x="220.5" y="-185" font-family="Helvetica,sans-Serif" font-size="10.00">testing::ScopedFakeTestPart</text>
<text text-anchor="middle" x="288.5" y="-174" font-family="Helvetica,sans-Serif" font-size="10.00">ResultReporter</text>
</a>
</g>
</g>
<!-- Node1&#45;&gt;Node2 -->
<g id="edge1_Node000001_Node000002" class="edge">
<title>Node1&#45;&gt;Node2</title>
<g id="a_edge1_Node000001_Node000002"><a xlink:title=" ">
<path fill="none" stroke="#63b8ff" d="M134.26,-117.55C155.08,-127.83 179.8,-139.93 203,-149 220.61,-155.89 240.99,-161.73 257.32,-166.95"/>
<polygon fill="#63b8ff" stroke="#63b8ff" points="135.8,-114.41 125.29,-113.12 132.7,-120.69 135.8,-114.41"/>
</a>
</g>
</g>
<!-- Node1&#45;&gt;Node2 -->
<g id="edge2_Node000001_Node000002" class="edge">
<title>Node1&#45;&gt;Node2</title>
<g id="a_edge2_Node000001_Node000002"><a xlink:title=" ">
<path fill="none" stroke="#63b8ff" d="M108.46,-118.75C131.96,-134.03 169.1,-153.75 203,-167 205.98,-168.17 209.04,-169.3 212.15,-170.4"/>
<polygon fill="#63b8ff" stroke="#63b8ff" points="110.4,-115.83 100.15,-113.13 106.47,-121.63 110.4,-115.83"/>
</a>
</g>
</g>
<!-- Node3 -->
<g id="Node000003" class="node">
<title>Node3</title>
<g id="a_Node000003"><a xlink:href="classtesting_1_1internal_1_1DefaultGlobalTestPartResultReporter.html" target="_top" xlink:title=" ">
<polygon fill="white" stroke="#666666" points="365,-148.5 212,-148.5 212,-107.5 365,-107.5 365,-148.5"/>
<text text-anchor="start" x="220" y="-136.5" font-family="Helvetica,sans-Serif" font-size="10.00">testing::internal::</text>
<text text-anchor="start" x="220" y="-125.5" font-family="Helvetica,sans-Serif" font-size="10.00">DefaultGlobalTestPartResult</text>
<text text-anchor="middle" x="288.5" y="-114.5" font-family="Helvetica,sans-Serif" font-size="10.00">Reporter</text>
</a>
</g>
</g>
<!-- Node1&#45;&gt;Node3 -->
<g id="edge3_Node000001_Node000003" class="edge">
<title>Node1&#45;&gt;Node3</title>
<g id="a_edge3_Node000001_Node000003"><a xlink:title=" ">
<path fill="none" stroke="#63b8ff" d="M177.21,-104.97C188.82,-106.63 200.57,-108.43 211.87,-110.27"/>
<polygon fill="#63b8ff" stroke="#63b8ff" points="177.46,-101.47 167.07,-103.56 176.49,-108.41 177.46,-101.47"/>
</a>
</g>
</g>
<!-- Node1&#45;&gt;Node3 -->
<g id="edge4_Node000001_Node000003" class="edge">
<title>Node1&#45;&gt;Node3</title>
<g id="a_edge4_Node000001_Node000003"><a xlink:title=" ">
<path fill="none" stroke="#63b8ff" d="M153.9,-114.7C172.52,-117.82 192.75,-120.85 211.7,-123.35"/>
<polygon fill="#63b8ff" stroke="#63b8ff" points="154.48,-111.25 144.04,-113.01 153.3,-118.15 154.48,-111.25"/>
</a>
</g>
</g>
<!-- Node4 -->
<g id="Node000004" class="node">
<title>Node4</title>
<g id="a_Node000004"><a xlink:href="classtesting_1_1internal_1_1DefaultPerThreadTestPartResultReporter.html" target="_top" xlink:title=" ">
<polygon fill="white" stroke="#666666" points="374,-89.5 203,-89.5 203,-48.5 374,-48.5 374,-89.5"/>
<text text-anchor="start" x="211" y="-77.5" font-family="Helvetica,sans-Serif" font-size="10.00">testing::internal::</text>
<text text-anchor="start" x="211" y="-66.5" font-family="Helvetica,sans-Serif" font-size="10.00">DefaultPerThreadTestPartResult</text>
<text text-anchor="middle" x="288.5" y="-55.5" font-family="Helvetica,sans-Serif" font-size="10.00">Reporter</text>
</a>
</g>
</g>
<!-- Node1&#45;&gt;Node4 -->
<g id="edge5_Node000001_Node000004" class="edge">
<title>Node1&#45;&gt;Node4</title>
<g id="a_edge5_Node000001_Node000004"><a xlink:title=" ">
<path fill="none" stroke="#63b8ff" d="M156.19,-81.27C171.22,-78.85 187.2,-76.51 202.66,-74.45"/>
<polygon fill="#63b8ff" stroke="#63b8ff" points="155.26,-77.88 145.96,-82.96 156.39,-84.79 155.26,-77.88"/>
</a>
</g>
</g>
<!-- Node1&#45;&gt;Node4 -->
<g id="edge6_Node000001_Node000004" class="edge">
<title>Node1&#45;&gt;Node4</title>
<g id="a_edge6_Node000001_Node000004"><a xlink:title=" ">
<path fill="none" stroke="#63b8ff" d="M177.05,-91.51C185.59,-90.33 194.22,-89.08 202.7,-87.78"/>
<polygon fill="#63b8ff" stroke="#63b8ff" points="176.51,-88.05 167.07,-92.85 177.45,-94.98 176.51,-88.05"/>
</a>
</g>
</g>
<!-- Node5 -->
<g id="Node000005" class="node">
<title>Node5</title>
<g id="a_Node000005"><a xlink:href="classtesting_1_1internal_1_1HasNewFatalFailureHelper.html" target="_top" xlink:title=" ">
<polygon fill="white" stroke="#666666" points="361,-30 216,-30 216,0 361,0 361,-30"/>
<text text-anchor="start" x="224" y="-18" font-family="Helvetica,sans-Serif" font-size="10.00">testing::internal::</text>
<text text-anchor="middle" x="288.5" y="-7" font-family="Helvetica,sans-Serif" font-size="10.00">HasNewFatalFailureHelper</text>
</a>
</g>
</g>
<!-- Node1&#45;&gt;Node5 -->
<g id="edge7_Node000001_Node000005" class="edge">
<title>Node1&#45;&gt;Node5</title>
<g id="a_edge7_Node000001_Node000005"><a xlink:title=" ">
<path fill="none" stroke="#63b8ff" d="M109.66,-77.16C133.28,-62.52 169.84,-43.92 203,-31 207.13,-29.39 211.42,-27.82 215.76,-26.33"/>
<polygon fill="#63b8ff" stroke="#63b8ff" points="107.49,-74.4 100.98,-82.76 111.28,-80.28 107.49,-74.4"/>
</a>
</g>
</g>
<!-- Node1&#45;&gt;Node5 -->
<g id="edge8_Node000001_Node000005" class="edge">
<title>Node1&#45;&gt;Node5</title>
<g id="a_edge8_Node000001_Node000005"><a xlink:title=" ">
<path fill="none" stroke="#63b8ff" d="M136.45,-78.62C156.86,-68.95 180.7,-57.69 203,-49 221.25,-41.89 242.37,-35.64 258.94,-30.04"/>
<polygon fill="#63b8ff" stroke="#63b8ff" points="134.88,-75.49 127.34,-82.93 137.87,-81.82 134.88,-75.49"/>
</a>
</g>
</g>
</g>
</svg>
