<?xml version="1.0" encoding="UTF-8" standalone="no"?>
<!DOCTYPE svg PUBLIC "-//W3C//DTD SVG 1.1//EN"
 "http://www.w3.org/Graphics/SVG/1.1/DTD/svg11.dtd">
<!-- Generated by graphviz version 2.43.0 (0)
 -->
<!-- Title: testing::StringMatchResultListener Pages: 1 -->
<svg width="164pt" height="93pt"
 viewBox="0.00 0.00 164.00 93.00" xmlns="http://www.w3.org/2000/svg" xmlns:xlink="http://www.w3.org/1999/xlink">
<g id="graph0" class="graph" transform="scale(1 1) rotate(0) translate(4 89)">
<title>testing::StringMatchResultListener</title>
<!-- Node1 -->
<g id="Node000001" class="node">
<title>Node1</title>
<g id="a_Node000001"><a xlink:title=" ">
<polygon fill="#999999" stroke="#666666" points="151,-30 5,-30 5,0 151,0 151,-30"/>
<text text-anchor="start" x="13" y="-18" font-family="Helvetica,sans-Serif" font-size="10.00">testing::StringMatchResult</text>
<text text-anchor="middle" x="78" y="-7" font-family="Helvetica,sans-Serif" font-size="10.00">Listener</text>
</a>
</g>
</g>
<!-- Node2 -->
<g id="Node000002" class="node">
<title>Node2</title>
<g id="a_Node000002"><a xlink:href="classtesting_1_1MatchResultListener.html" target="_top" xlink:title=" ">
<polygon fill="white" stroke="#666666" points="156,-85 0,-85 0,-66 156,-66 156,-85"/>
<text text-anchor="middle" x="78" y="-73" font-family="Helvetica,sans-Serif" font-size="10.00">testing::MatchResultListener</text>
</a>
</g>
</g>
<!-- Node2&#45;&gt;Node1 -->
<g id="edge1_Node000001_Node000002" class="edge">
<title>Node2&#45;&gt;Node1</title>
<g id="a_edge1_Node000001_Node000002"><a xlink:title=" ">
<path fill="none" stroke="#63b8ff" d="M71.67,-55.93C70.99,-47.58 71.14,-37.87 72.13,-30.11"/>
<polygon fill="#63b8ff" stroke="#63b8ff" points="68.2,-56.44 73.04,-65.87 75.14,-55.48 68.2,-56.44"/>
</a>
</g>
</g>
<!-- Node2&#45;&gt;Node1 -->
<g id="edge2_Node000001_Node000002" class="edge">
<title>Node2&#45;&gt;Node1</title>
<g id="a_edge2_Node000001_Node000002"><a xlink:title=" ">
<path fill="none" stroke="#63b8ff" d="M84.33,-55.93C85.01,-47.58 84.86,-37.87 83.87,-30.11"/>
<polygon fill="#63b8ff" stroke="#63b8ff" points="80.86,-55.48 82.96,-65.87 87.8,-56.44 80.86,-55.48"/>
</a>
</g>
</g>
</g>
</svg>
