<?xml version="1.0" encoding="UTF-8" standalone="no"?>
<!DOCTYPE svg PUBLIC "-//W3C//DTD SVG 1.1//EN"
 "http://www.w3.org/Graphics/SVG/1.1/DTD/svg11.dtd">
<!-- Generated by graphviz version 2.43.0 (0)
 -->
<!-- Title: testing::internal::FunctionMocker&lt; R(A1, A2, A3, A4, A5, A6, A7)&gt; Pages: 1 -->
<svg width="166pt" height="203pt"
 viewBox="0.00 0.00 166.00 203.00" xmlns="http://www.w3.org/2000/svg" xmlns:xlink="http://www.w3.org/1999/xlink">
<g id="graph0" class="graph" transform="scale(1 1) rotate(0) translate(4 199)">
<title>testing::internal::FunctionMocker&lt; R(A1, A2, A3, A4, A5, A6, A7)&gt;</title>
<!-- Node1 -->
<g id="Node000001" class="node">
<title>Node1</title>
<g id="a_Node000001"><a xlink:title=" ">
<polygon fill="#999999" stroke="#666666" points="148,-41 10,-41 10,0 148,0 148,-41"/>
<text text-anchor="start" x="18" y="-29" font-family="Helvetica,sans-Serif" font-size="10.00">testing::internal::</text>
<text text-anchor="start" x="18" y="-18" font-family="Helvetica,sans-Serif" font-size="10.00">FunctionMocker&lt; R(A1,</text>
<text text-anchor="middle" x="79" y="-7" font-family="Helvetica,sans-Serif" font-size="10.00"> A2, A3, A4, A5, A6, A7)&gt;</text>
</a>
</g>
</g>
<!-- Node2 -->
<g id="Node000002" class="node">
<title>Node2</title>
<g id="a_Node000002"><a xlink:href="classtesting_1_1internal_1_1FunctionMockerBase.html" target="_top" xlink:title=" ">
<polygon fill="white" stroke="#666666" points="141.5,-129 16.5,-129 16.5,-77 141.5,-77 141.5,-129"/>
<text text-anchor="start" x="24.5" y="-117" font-family="Helvetica,sans-Serif" font-size="10.00">testing::internal::</text>
<text text-anchor="start" x="24.5" y="-106" font-family="Helvetica,sans-Serif" font-size="10.00">FunctionMockerBase&lt;</text>
<text text-anchor="start" x="24.5" y="-95" font-family="Helvetica,sans-Serif" font-size="10.00"> R(A1, A2, A3, A4, A5,</text>
<text text-anchor="middle" x="79" y="-84" font-family="Helvetica,sans-Serif" font-size="10.00"> A6, A7)&gt;</text>
</a>
</g>
</g>
<!-- Node2&#45;&gt;Node1 -->
<g id="edge1_Node000001_Node000002" class="edge">
<title>Node2&#45;&gt;Node1</title>
<g id="a_edge1_Node000001_Node000002"><a xlink:title=" ">
<path fill="none" stroke="#63b8ff" d="M72.3,-66.87C72.13,-58.05 72.4,-48.9 73.11,-41.15"/>
<polygon fill="#63b8ff" stroke="#63b8ff" points="68.81,-67.12 72.7,-76.97 75.8,-66.84 68.81,-67.12"/>
</a>
</g>
</g>
<!-- Node2&#45;&gt;Node1 -->
<g id="edge4_Node000001_Node000002" class="edge">
<title>Node2&#45;&gt;Node1</title>
<g id="a_edge4_Node000001_Node000002"><a xlink:title=" ">
<path fill="none" stroke="#63b8ff" d="M85.7,-66.87C85.87,-58.05 85.6,-48.9 84.89,-41.15"/>
<polygon fill="#63b8ff" stroke="#63b8ff" points="82.2,-66.84 85.3,-76.97 89.19,-67.12 82.2,-66.84"/>
</a>
</g>
</g>
<!-- Node3 -->
<g id="Node000003" class="node">
<title>Node3</title>
<g id="a_Node000003"><a xlink:href="classtesting_1_1internal_1_1UntypedFunctionMockerBase.html" target="_top" xlink:title=" ">
<polygon fill="white" stroke="#666666" points="158,-195 0,-195 0,-165 158,-165 158,-195"/>
<text text-anchor="start" x="8" y="-183" font-family="Helvetica,sans-Serif" font-size="10.00">testing::internal::</text>
<text text-anchor="middle" x="79" y="-172" font-family="Helvetica,sans-Serif" font-size="10.00">UntypedFunctionMockerBase</text>
</a>
</g>
</g>
<!-- Node3&#45;&gt;Node2 -->
<g id="edge2_Node000002_Node000003" class="edge">
<title>Node3&#45;&gt;Node2</title>
<g id="a_edge2_Node000002_Node000003"><a xlink:title=" ">
<path fill="none" stroke="#63b8ff" d="M72.65,-154.86C72.14,-146.69 72.12,-137.54 72.58,-129.28"/>
<polygon fill="#63b8ff" stroke="#63b8ff" points="69.17,-155.26 73.59,-164.89 76.14,-154.61 69.17,-155.26"/>
</a>
</g>
</g>
<!-- Node3&#45;&gt;Node2 -->
<g id="edge3_Node000002_Node000003" class="edge">
<title>Node3&#45;&gt;Node2</title>
<g id="a_edge3_Node000002_Node000003"><a xlink:title=" ">
<path fill="none" stroke="#63b8ff" d="M85.35,-154.86C85.86,-146.69 85.88,-137.54 85.42,-129.28"/>
<polygon fill="#63b8ff" stroke="#63b8ff" points="81.86,-154.61 84.41,-164.89 88.83,-155.26 81.86,-154.61"/>
</a>
</g>
</g>
</g>
</svg>
