<?xml version="1.0" encoding="UTF-8" standalone="no"?>
<!DOCTYPE svg PUBLIC "-//W3C//DTD SVG 1.1//EN"
 "http://www.w3.org/Graphics/SVG/1.1/DTD/svg11.dtd">
<!-- Generated by graphviz version 2.43.0 (0)
 -->
<!-- Title: testing::Matcher&lt; const internal::string &amp; &gt; Pages: 1 -->
<svg width="142pt" height="104pt"
 viewBox="0.00 0.00 142.00 104.00" xmlns="http://www.w3.org/2000/svg" xmlns:xlink="http://www.w3.org/1999/xlink">
<g id="graph0" class="graph" transform="scale(1 1) rotate(0) translate(4 100)">
<title>testing::Matcher&lt; const internal::string &amp; &gt;</title>
<!-- Node1 -->
<g id="Node000001" class="node">
<title>Node1</title>
<g id="a_Node000001"><a xlink:title=" ">
<polygon fill="#999999" stroke="#666666" points="134,-30 0,-30 0,0 134,0 134,-30"/>
<text text-anchor="start" x="8" y="-18" font-family="Helvetica,sans-Serif" font-size="10.00">testing::Matcher&lt; const</text>
<text text-anchor="middle" x="67" y="-7" font-family="Helvetica,sans-Serif" font-size="10.00"> internal::string &amp; &gt;</text>
</a>
</g>
</g>
<!-- Node2 -->
<g id="Node000002" class="node">
<title>Node2</title>
<g id="a_Node000002"><a xlink:title=" ">
<polygon fill="white" stroke="#666666" points="121.5,-96 12.5,-96 12.5,-66 121.5,-66 121.5,-96"/>
<text text-anchor="start" x="20.5" y="-84" font-family="Helvetica,sans-Serif" font-size="10.00">testing::internal::</text>
<text text-anchor="middle" x="67" y="-73" font-family="Helvetica,sans-Serif" font-size="10.00">MatcherBase&lt; T &gt;</text>
</a>
</g>
</g>
<!-- Node2&#45;&gt;Node1 -->
<g id="edge1_Node000001_Node000002" class="edge">
<title>Node2&#45;&gt;Node1</title>
<g id="a_edge1_Node000001_Node000002"><a xlink:title=" ">
<path fill="none" stroke="#63b8ff" d="M60.43,-55.83C60.02,-47.17 60.31,-37.7 61.29,-30.16"/>
<polygon fill="#63b8ff" stroke="#63b8ff" points="56.95,-56.13 61.28,-65.8 63.92,-55.54 56.95,-56.13"/>
</a>
</g>
</g>
<!-- Node2&#45;&gt;Node1 -->
<g id="edge2_Node000001_Node000002" class="edge">
<title>Node2&#45;&gt;Node1</title>
<g id="a_edge2_Node000001_Node000002"><a xlink:title=" ">
<path fill="none" stroke="#63b8ff" d="M73.57,-55.83C73.98,-47.17 73.69,-37.7 72.71,-30.16"/>
<polygon fill="#63b8ff" stroke="#63b8ff" points="70.08,-55.54 72.72,-65.8 77.05,-56.13 70.08,-55.54"/>
</a>
</g>
</g>
</g>
</svg>
