<?xml version="1.0" encoding="UTF-8" standalone="no"?>
<!DOCTYPE svg PUBLIC "-//W3C//DTD SVG 1.1//EN"
 "http://www.w3.org/Graphics/SVG/1.1/DTD/svg11.dtd">
<!-- Generated by graphviz version 2.43.0 (0)
 -->
<!-- Title: testing::internal::ArgsMatcherImpl&lt; ArgsTuple, k0, k1, k2, k3, k4, k5, k6, k7, k8, k9 &gt; Pages: 1 -->
<svg width="169pt" height="192pt"
 viewBox="0.00 0.00 169.00 192.00" xmlns="http://www.w3.org/2000/svg" xmlns:xlink="http://www.w3.org/1999/xlink">
<g id="graph0" class="graph" transform="scale(1 1) rotate(0) translate(4 188)">
<title>testing::internal::ArgsMatcherImpl&lt; ArgsTuple, k0, k1, k2, k3, k4, k5, k6, k7, k8, k9 &gt;</title>
<!-- Node1 -->
<g id="Node000001" class="node">
<title>Node1</title>
<g id="a_Node000001"><a xlink:title=" ">
<polygon fill="#999999" stroke="#666666" points="161,-52 0,-52 0,0 161,0 161,-52"/>
<text text-anchor="start" x="8" y="-40" font-family="Helvetica,sans-Serif" font-size="10.00">testing::internal::</text>
<text text-anchor="start" x="8" y="-29" font-family="Helvetica,sans-Serif" font-size="10.00">ArgsMatcherImpl&lt; ArgsTuple,</text>
<text text-anchor="start" x="8" y="-18" font-family="Helvetica,sans-Serif" font-size="10.00"> k0, k1, k2, k3, k4, k5,</text>
<text text-anchor="middle" x="80.5" y="-7" font-family="Helvetica,sans-Serif" font-size="10.00"> k6, k7, k8, k9 &gt;</text>
</a>
</g>
</g>
<!-- Node2 -->
<g id="Node000002" class="node">
<title>Node2</title>
<g id="a_Node000002"><a xlink:href="classtesting_1_1MatcherInterface.html" target="_top" xlink:title=" ">
<polygon fill="white" stroke="#666666" points="150.5,-118 10.5,-118 10.5,-88 150.5,-88 150.5,-118"/>
<text text-anchor="start" x="18.5" y="-106" font-family="Helvetica,sans-Serif" font-size="10.00">testing::MatcherInterface</text>
<text text-anchor="middle" x="80.5" y="-95" font-family="Helvetica,sans-Serif" font-size="10.00">&lt; ArgsTuple &gt;</text>
</a>
</g>
</g>
<!-- Node2&#45;&gt;Node1 -->
<g id="edge1_Node000001_Node000002" class="edge">
<title>Node2&#45;&gt;Node1</title>
<g id="a_edge1_Node000001_Node000002"><a xlink:title=" ">
<path fill="none" stroke="#63b8ff" d="M74.15,-77.86C73.64,-69.69 73.62,-60.54 74.08,-52.28"/>
<polygon fill="#63b8ff" stroke="#63b8ff" points="70.67,-78.26 75.09,-87.89 77.64,-77.61 70.67,-78.26"/>
</a>
</g>
</g>
<!-- Node2&#45;&gt;Node1 -->
<g id="edge4_Node000001_Node000002" class="edge">
<title>Node2&#45;&gt;Node1</title>
<g id="a_edge4_Node000001_Node000002"><a xlink:title=" ">
<path fill="none" stroke="#63b8ff" d="M86.85,-77.86C87.36,-69.69 87.38,-60.54 86.92,-52.28"/>
<polygon fill="#63b8ff" stroke="#63b8ff" points="83.36,-77.61 85.91,-87.89 90.33,-78.26 83.36,-77.61"/>
</a>
</g>
</g>
<!-- Node3 -->
<g id="Node000003" class="node">
<title>Node3</title>
<g id="a_Node000003"><a xlink:href="classtesting_1_1MatcherDescriberInterface.html" target="_top" xlink:title=" ">
<polygon fill="white" stroke="#666666" points="152,-184 9,-184 9,-154 152,-154 152,-184"/>
<text text-anchor="start" x="17" y="-172" font-family="Helvetica,sans-Serif" font-size="10.00">testing::MatcherDescriber</text>
<text text-anchor="middle" x="80.5" y="-161" font-family="Helvetica,sans-Serif" font-size="10.00">Interface</text>
</a>
</g>
</g>
<!-- Node3&#45;&gt;Node2 -->
<g id="edge2_Node000002_Node000003" class="edge">
<title>Node3&#45;&gt;Node2</title>
<g id="a_edge2_Node000002_Node000003"><a xlink:title=" ">
<path fill="none" stroke="#63b8ff" d="M73.93,-143.83C73.52,-135.17 73.81,-125.7 74.79,-118.16"/>
<polygon fill="#63b8ff" stroke="#63b8ff" points="70.45,-144.13 74.78,-153.8 77.42,-143.54 70.45,-144.13"/>
</a>
</g>
</g>
<!-- Node3&#45;&gt;Node2 -->
<g id="edge3_Node000002_Node000003" class="edge">
<title>Node3&#45;&gt;Node2</title>
<g id="a_edge3_Node000002_Node000003"><a xlink:title=" ">
<path fill="none" stroke="#63b8ff" d="M87.07,-143.83C87.48,-135.17 87.19,-125.7 86.21,-118.16"/>
<polygon fill="#63b8ff" stroke="#63b8ff" points="83.58,-143.54 86.22,-153.8 90.55,-144.13 83.58,-143.54"/>
</a>
</g>
</g>
</g>
</svg>
