<?xml version="1.0" encoding="UTF-8" standalone="no"?>
<!DOCTYPE svg PUBLIC "-//W3C//DTD SVG 1.1//EN"
 "http://www.w3.org/Graphics/SVG/1.1/DTD/svg11.dtd">
<!-- Generated by graphviz version 2.43.0 (0)
 -->
<!-- Title: dsd.h Pages: 1 -->
<svg width="1358pt" height="82pt"
 viewBox="0.00 0.00 1357.50 82.00" xmlns="http://www.w3.org/2000/svg" xmlns:xlink="http://www.w3.org/1999/xlink">
<g id="graph0" class="graph" transform="scale(1 1) rotate(0) translate(4 78)">
<title>dsd.h</title>
<!-- Node1 -->
<g id="Node000001" class="node">
<title>Node1</title>
<g id="a_Node000001"><a xlink:title=" ">
<polygon fill="#999999" stroke="#666666" points="653,-74 610,-74 610,-55 653,-55 653,-74"/>
<text text-anchor="middle" x="631.5" y="-62" font-family="Helvetica,sans-Serif" font-size="10.00">dsd.h</text>
</a>
</g>
</g>
<!-- Node2 -->
<g id="Node000002" class="node">
<title>Node2</title>
<g id="a_Node000002"><a xlink:href="dsd_2include_2config_8h.html" target="_top" xlink:title=" ">
<polygon fill="white" stroke="#666666" points="55,-19 0,-19 0,0 55,0 55,-19"/>
<text text-anchor="middle" x="27.5" y="-7" font-family="Helvetica,sans-Serif" font-size="10.00">config.h</text>
</a>
</g>
</g>
<!-- Node1&#45;&gt;Node2 -->
<g id="edge1_Node000001_Node000002" class="edge">
<title>Node1&#45;&gt;Node2</title>
<g id="a_edge1_Node000001_Node000002"><a xlink:title=" ">
<path fill="none" stroke="#63b8ff" d="M609.74,-62.95C535.18,-60.81 283.11,-51.59 65.31,-18.87"/>
<polygon fill="#63b8ff" stroke="#63b8ff" points="65.71,-15.39 55.3,-17.35 64.65,-22.31 65.71,-15.39"/>
</a>
</g>
</g>
<!-- Node3 -->
<g id="Node000003" class="node">
<title>Node3</title>
<g id="a_Node000003"><a xlink:title=" ">
<polygon fill="#e0e0e0" stroke="#999999" points="123.5,-19 73.5,-19 73.5,0 123.5,0 123.5,-19"/>
<text text-anchor="middle" x="98.5" y="-7" font-family="Helvetica,sans-Serif" font-size="10.00">stdio.h</text>
</a>
</g>
</g>
<!-- Node1&#45;&gt;Node3 -->
<g id="edge2_Node000001_Node000003" class="edge">
<title>Node1&#45;&gt;Node3</title>
<g id="a_edge2_Node000001_Node000003"><a xlink:title=" ">
<path fill="none" stroke="#63b8ff" d="M609.95,-62.78C541.56,-60.24 323.25,-50.21 133.53,-18.91"/>
<polygon fill="#63b8ff" stroke="#63b8ff" points="134.1,-15.45 123.66,-17.25 132.94,-22.36 134.1,-15.45"/>
</a>
</g>
</g>
<!-- Node4 -->
<g id="Node000004" class="node">
<title>Node4</title>
<g id="a_Node000004"><a xlink:title=" ">
<polygon fill="#e0e0e0" stroke="#999999" points="195,-19 142,-19 142,0 195,0 195,-19"/>
<text text-anchor="middle" x="168.5" y="-7" font-family="Helvetica,sans-Serif" font-size="10.00">stdlib.h</text>
</a>
</g>
</g>
<!-- Node1&#45;&gt;Node4 -->
<g id="edge3_Node000001_Node000004" class="edge">
<title>Node1&#45;&gt;Node4</title>
<g id="a_edge3_Node000001_Node000004"><a xlink:title=" ">
<path fill="none" stroke="#63b8ff" d="M609.98,-62.29C548.36,-58.61 365.79,-46.21 205.23,-19.09"/>
<polygon fill="#63b8ff" stroke="#63b8ff" points="205.62,-15.61 195.18,-17.37 204.44,-22.51 205.62,-15.61"/>
</a>
</g>
</g>
<!-- Node5 -->
<g id="Node000005" class="node">
<title>Node5</title>
<g id="a_Node000005"><a xlink:title=" ">
<polygon fill="#e0e0e0" stroke="#999999" points="268,-19 213,-19 213,0 268,0 268,-19"/>
<text text-anchor="middle" x="240.5" y="-7" font-family="Helvetica,sans-Serif" font-size="10.00">signal.h</text>
</a>
</g>
</g>
<!-- Node1&#45;&gt;Node5 -->
<g id="edge4_Node000001_Node000005" class="edge">
<title>Node1&#45;&gt;Node5</title>
<g id="a_edge4_Node000001_Node000005"><a xlink:title=" ">
<path fill="none" stroke="#63b8ff" d="M609.77,-61.59C555.49,-56.66 409.49,-42.33 278.55,-19.21"/>
<polygon fill="#63b8ff" stroke="#63b8ff" points="278.81,-15.7 268.35,-17.39 277.57,-22.59 278.81,-15.7"/>
</a>
</g>
</g>
<!-- Node6 -->
<g id="Node000006" class="node">
<title>Node6</title>
<g id="a_Node000006"><a xlink:title=" ">
<polygon fill="#e0e0e0" stroke="#999999" points="339,-19 286,-19 286,0 339,0 339,-19"/>
<text text-anchor="middle" x="312.5" y="-7" font-family="Helvetica,sans-Serif" font-size="10.00">string.h</text>
</a>
</g>
</g>
<!-- Node1&#45;&gt;Node6 -->
<g id="edge5_Node000001_Node000006" class="edge">
<title>Node1&#45;&gt;Node6</title>
<g id="a_edge5_Node000001_Node000006"><a xlink:title=" ">
<path fill="none" stroke="#63b8ff" d="M609.74,-60.65C563.65,-54.5 452.61,-39.03 349.17,-18.99"/>
<polygon fill="#63b8ff" stroke="#63b8ff" points="349.67,-15.52 339.19,-17.04 348.33,-22.39 349.67,-15.52"/>
</a>
</g>
</g>
<!-- Node7 -->
<g id="Node000007" class="node">
<title>Node7</title>
<g id="a_Node000007"><a xlink:title=" ">
<polygon fill="#e0e0e0" stroke="#999999" points="405.5,-19 357.5,-19 357.5,0 405.5,0 405.5,-19"/>
<text text-anchor="middle" x="381.5" y="-7" font-family="Helvetica,sans-Serif" font-size="10.00">time.h</text>
</a>
</g>
</g>
<!-- Node1&#45;&gt;Node7 -->
<g id="edge6_Node000001_Node000007" class="edge">
<title>Node1&#45;&gt;Node7</title>
<g id="a_edge6_Node000001_Node000007"><a xlink:title=" ">
<path fill="none" stroke="#63b8ff" d="M609.86,-59.43C572.35,-52.3 492.59,-36.8 415.49,-19.14"/>
<polygon fill="#63b8ff" stroke="#63b8ff" points="416.15,-15.7 405.62,-16.86 414.57,-22.52 416.15,-15.7"/>
</a>
</g>
</g>
<!-- Node8 -->
<g id="Node000008" class="node">
<title>Node8</title>
<g id="a_Node000008"><a xlink:title=" ">
<polygon fill="#e0e0e0" stroke="#999999" points="491.5,-19 423.5,-19 423.5,0 491.5,0 491.5,-19"/>
<text text-anchor="middle" x="457.5" y="-7" font-family="Helvetica,sans-Serif" font-size="10.00">sys/time.h</text>
</a>
</g>
</g>
<!-- Node1&#45;&gt;Node8 -->
<g id="edge7_Node000001_Node000008" class="edge">
<title>Node1&#45;&gt;Node8</title>
<g id="a_edge7_Node000001_Node000008"><a xlink:title=" ">
<path fill="none" stroke="#63b8ff" d="M609.81,-56.89C581.21,-48.18 530.4,-32.71 495.38,-22.04"/>
<polygon fill="#63b8ff" stroke="#63b8ff" points="496.1,-18.6 485.51,-19.03 494.06,-25.29 496.1,-18.6"/>
</a>
</g>
</g>
<!-- Node9 -->
<g id="Node000009" class="node">
<title>Node9</title>
<g id="a_Node000009"><a xlink:title=" ">
<polygon fill="#e0e0e0" stroke="#999999" points="581.5,-19 509.5,-19 509.5,0 581.5,0 581.5,-19"/>
<text text-anchor="middle" x="545.5" y="-7" font-family="Helvetica,sans-Serif" font-size="10.00">sys/types.h</text>
</a>
</g>
</g>
<!-- Node1&#45;&gt;Node9 -->
<g id="edge8_Node000001_Node000009" class="edge">
<title>Node1&#45;&gt;Node9</title>
<g id="a_edge8_Node000001_Node000009"><a xlink:title=" ">
<path fill="none" stroke="#63b8ff" d="M617.68,-54.98C604.35,-46.77 583.92,-34.18 568.19,-24.49"/>
<polygon fill="#63b8ff" stroke="#63b8ff" points="569.92,-21.44 559.57,-19.17 566.25,-27.4 569.92,-21.44"/>
</a>
</g>
</g>
<!-- Node10 -->
<g id="Node000010" class="node">
<title>Node10</title>
<g id="a_Node000010"><a xlink:title=" ">
<polygon fill="#e0e0e0" stroke="#999999" points="663.5,-19 599.5,-19 599.5,0 663.5,0 663.5,-19"/>
<text text-anchor="middle" x="631.5" y="-7" font-family="Helvetica,sans-Serif" font-size="10.00">sys/stat.h</text>
</a>
</g>
</g>
<!-- Node1&#45;&gt;Node10 -->
<g id="edge9_Node000001_Node000010" class="edge">
<title>Node1&#45;&gt;Node10</title>
<g id="a_edge9_Node000001_Node000010"><a xlink:title=" ">
<path fill="none" stroke="#63b8ff" d="M631.5,-54.75C631.5,-47.8 631.5,-37.85 631.5,-29.13"/>
<polygon fill="#63b8ff" stroke="#63b8ff" points="635,-29.09 631.5,-19.09 628,-29.09 635,-29.09"/>
</a>
</g>
</g>
<!-- Node11 -->
<g id="Node000011" class="node">
<title>Node11</title>
<g id="a_Node000011"><a xlink:title=" ">
<polygon fill="#e0e0e0" stroke="#999999" points="747.5,-19 681.5,-19 681.5,0 747.5,0 747.5,-19"/>
<text text-anchor="middle" x="714.5" y="-7" font-family="Helvetica,sans-Serif" font-size="10.00">sys/ioctl.h</text>
</a>
</g>
</g>
<!-- Node1&#45;&gt;Node11 -->
<g id="edge10_Node000001_Node000011" class="edge">
<title>Node1&#45;&gt;Node11</title>
<g id="a_edge10_Node000001_Node000011"><a xlink:title=" ">
<path fill="none" stroke="#63b8ff" d="M644.84,-54.98C657.59,-46.84 677.05,-34.41 692.17,-24.76"/>
<polygon fill="#63b8ff" stroke="#63b8ff" points="694.38,-27.5 700.92,-19.17 690.61,-21.6 694.38,-27.5"/>
</a>
</g>
</g>
<!-- Node12 -->
<g id="Node000012" class="node">
<title>Node12</title>
<g id="a_Node000012"><a xlink:title=" ">
<polygon fill="#e0e0e0" stroke="#999999" points="813,-19 766,-19 766,0 813,0 813,-19"/>
<text text-anchor="middle" x="789.5" y="-7" font-family="Helvetica,sans-Serif" font-size="10.00">fcntl.h</text>
</a>
</g>
</g>
<!-- Node1&#45;&gt;Node12 -->
<g id="edge11_Node000001_Node000012" class="edge">
<title>Node1&#45;&gt;Node12</title>
<g id="a_edge11_Node000001_Node000012"><a xlink:title=" ">
<path fill="none" stroke="#63b8ff" d="M653.14,-56.24C679.75,-47.31 725.22,-32.06 756.27,-21.65"/>
<polygon fill="#63b8ff" stroke="#63b8ff" points="757.44,-24.95 765.81,-18.45 755.21,-18.31 757.44,-24.95"/>
</a>
</g>
</g>
<!-- Node13 -->
<g id="Node000013" class="node">
<title>Node13</title>
<g id="a_Node000013"><a xlink:title=" ">
<polygon fill="#e0e0e0" stroke="#999999" points="887.5,-19 831.5,-19 831.5,0 887.5,0 887.5,-19"/>
<text text-anchor="middle" x="859.5" y="-7" font-family="Helvetica,sans-Serif" font-size="10.00">unistd.h</text>
</a>
</g>
</g>
<!-- Node1&#45;&gt;Node13 -->
<g id="edge12_Node000001_Node000013" class="edge">
<title>Node1&#45;&gt;Node13</title>
<g id="a_edge12_Node000001_Node000013"><a xlink:title=" ">
<path fill="none" stroke="#63b8ff" d="M653.36,-58.42C692.09,-49.41 773.21,-30.56 821.33,-19.37"/>
<polygon fill="#63b8ff" stroke="#63b8ff" points="822.41,-22.71 831.36,-17.04 820.83,-15.9 822.41,-22.71"/>
</a>
</g>
</g>
<!-- Node14 -->
<g id="Node000014" class="node">
<title>Node14</title>
<g id="a_Node000014"><a xlink:title=" ">
<polygon fill="#e0e0e0" stroke="#999999" points="1001,-19 906,-19 906,0 1001,0 1001,-19"/>
<text text-anchor="middle" x="953.5" y="-7" font-family="Helvetica,sans-Serif" font-size="10.00">sys/soundcard.h</text>
</a>
</g>
</g>
<!-- Node1&#45;&gt;Node14 -->
<g id="edge13_Node000001_Node000014" class="edge">
<title>Node1&#45;&gt;Node14</title>
<g id="a_edge13_Node000001_Node000014"><a xlink:title=" ">
<path fill="none" stroke="#63b8ff" d="M653.13,-59.94C702.22,-51.86 823.42,-31.91 895.97,-19.97"/>
<polygon fill="#63b8ff" stroke="#63b8ff" points="896.57,-23.42 905.87,-18.34 895.44,-16.51 896.57,-23.42"/>
</a>
</g>
</g>
<!-- Node15 -->
<g id="Node000015" class="node">
<title>Node15</title>
<g id="a_Node000015"><a xlink:title=" ">
<polygon fill="#e0e0e0" stroke="#999999" points="1070,-19 1019,-19 1019,0 1070,0 1070,-19"/>
<text text-anchor="middle" x="1044.5" y="-7" font-family="Helvetica,sans-Serif" font-size="10.00">math.h</text>
</a>
</g>
</g>
<!-- Node1&#45;&gt;Node15 -->
<g id="edge14_Node000001_Node000015" class="edge">
<title>Node1&#45;&gt;Node15</title>
<g id="a_edge14_Node000001_Node000015"><a xlink:title=" ">
<path fill="none" stroke="#63b8ff" d="M653.01,-61.95C709.7,-57.65 867.95,-44.32 1008.84,-19.1"/>
<polygon fill="#63b8ff" stroke="#63b8ff" points="1009.74,-22.49 1018.96,-17.26 1008.49,-15.6 1009.74,-22.49"/>
</a>
</g>
</g>
<!-- Node16 -->
<g id="Node000016" class="node">
<title>Node16</title>
<g id="a_Node000016"><a xlink:href="mbelib_8h.html" target="_top" xlink:title=" ">
<polygon fill="white" stroke="#666666" points="1147,-19 1088,-19 1088,0 1147,0 1147,-19"/>
<text text-anchor="middle" x="1117.5" y="-7" font-family="Helvetica,sans-Serif" font-size="10.00">mbelib.h</text>
</a>
</g>
</g>
<!-- Node1&#45;&gt;Node16 -->
<g id="edge15_Node000001_Node000016" class="edge">
<title>Node1&#45;&gt;Node16</title>
<g id="a_edge15_Node000001_Node000016"><a xlink:title=" ">
<path fill="none" stroke="#63b8ff" d="M653.07,-62.29C716.65,-58.52 908.96,-45.71 1077.64,-19.13"/>
<polygon fill="#63b8ff" stroke="#63b8ff" points="1078.37,-22.56 1087.7,-17.52 1077.27,-15.65 1078.37,-22.56"/>
</a>
</g>
</g>
<!-- Node17 -->
<g id="Node000017" class="node">
<title>Node17</title>
<g id="a_Node000017"><a xlink:title=" ">
<polygon fill="#e0e0e0" stroke="#999999" points="1223.5,-19 1165.5,-19 1165.5,0 1223.5,0 1223.5,-19"/>
<text text-anchor="middle" x="1194.5" y="-7" font-family="Helvetica,sans-Serif" font-size="10.00">sndfile.h</text>
</a>
</g>
</g>
<!-- Node1&#45;&gt;Node17 -->
<g id="edge16_Node000001_Node000017" class="edge">
<title>Node1&#45;&gt;Node17</title>
<g id="a_edge16_Node000001_Node000017"><a xlink:title=" ">
<path fill="none" stroke="#63b8ff" d="M653.13,-62.72C723.85,-59.94 954.72,-49.14 1155,-19.03"/>
<polygon fill="#63b8ff" stroke="#63b8ff" points="1155.76,-22.45 1165.12,-17.49 1154.7,-15.53 1155.76,-22.45"/>
</a>
</g>
</g>
<!-- Node18 -->
<g id="Node000018" class="node">
<title>Node18</title>
<g id="a_Node000018"><a xlink:href="p25p1__heuristics_8h.html" target="_top" xlink:title=" ">
<polygon fill="white" stroke="#666666" points="1349.5,-19 1241.5,-19 1241.5,0 1349.5,0 1349.5,-19"/>
<text text-anchor="middle" x="1295.5" y="-7" font-family="Helvetica,sans-Serif" font-size="10.00">p25p1_heuristics.h</text>
</a>
</g>
</g>
<!-- Node1&#45;&gt;Node18 -->
<g id="edge17_Node000001_Node000018" class="edge">
<title>Node1&#45;&gt;Node18</title>
<g id="a_edge17_Node000001_Node000018"><a xlink:title=" ">
<path fill="none" stroke="#63b8ff" d="M653.1,-62.37C730.13,-58.25 998.67,-43.04 1231.23,-19.07"/>
<polygon fill="#63b8ff" stroke="#63b8ff" points="1231.64,-22.55 1241.23,-18.03 1230.92,-15.58 1231.64,-22.55"/>
</a>
</g>
</g>
</g>
</svg>
