<?xml version="1.0" encoding="UTF-8" standalone="no"?>
<!DOCTYPE svg PUBLIC "-//W3C//DTD SVG 1.1//EN"
 "http://www.w3.org/Graphics/SVG/1.1/DTD/svg11.dtd">
<!-- Generated by graphviz version 2.43.0 (0)
 -->
<!-- Title: dsd_block_ff_impl.h Pages: 1 -->
<svg width="1603pt" height="192pt"
 viewBox="0.00 0.00 1603.00 192.00" xmlns="http://www.w3.org/2000/svg" xmlns:xlink="http://www.w3.org/1999/xlink">
<g id="graph0" class="graph" transform="scale(1 1) rotate(0) translate(4 188)">
<title>dsd_block_ff_impl.h</title>
<!-- Node1 -->
<g id="Node000001" class="node">
<title>Node1</title>
<g id="a_Node000001"><a xlink:title=" ">
<polygon fill="#999999" stroke="#666666" points="550.5,-184 437.5,-184 437.5,-165 550.5,-165 550.5,-184"/>
<text text-anchor="middle" x="494" y="-172" font-family="Helvetica,sans-Serif" font-size="10.00">dsd_block_ff_impl.h</text>
</a>
</g>
</g>
<!-- Node2 -->
<g id="Node000002" class="node">
<title>Node2</title>
<g id="a_Node000002"><a xlink:href="dsd__block__ff_8h.html" target="_top" xlink:title=" ">
<polygon fill="white" stroke="#666666" points="250.5,-129 143.5,-129 143.5,-110 250.5,-110 250.5,-129"/>
<text text-anchor="middle" x="197" y="-117" font-family="Helvetica,sans-Serif" font-size="10.00">dsd/dsd_block_ff.h</text>
</a>
</g>
</g>
<!-- Node1&#45;&gt;Node2 -->
<g id="edge1_Node000001_Node000002" class="edge">
<title>Node1&#45;&gt;Node2</title>
<g id="a_edge1_Node000001_Node000002"><a xlink:title=" ">
<path fill="none" stroke="#63b8ff" d="M446.28,-164.98C394.26,-155.7 311,-140.84 255.18,-130.88"/>
<polygon fill="#63b8ff" stroke="#63b8ff" points="255.55,-127.39 245.09,-129.08 254.32,-134.28 255.55,-127.39"/>
</a>
</g>
</g>
<!-- Node6 -->
<g id="Node000006" class="node">
<title>Node6</title>
<g id="a_Node000006"><a xlink:href="dsd_8h.html" target="_top" xlink:title=" ">
<polygon fill="white" stroke="#666666" points="855.5,-129 812.5,-129 812.5,-110 855.5,-110 855.5,-129"/>
<text text-anchor="middle" x="834" y="-117" font-family="Helvetica,sans-Serif" font-size="10.00">dsd.h</text>
</a>
</g>
</g>
<!-- Node1&#45;&gt;Node6 -->
<g id="edge5_Node000001_Node000006" class="edge">
<title>Node1&#45;&gt;Node6</title>
<g id="a_edge5_Node000001_Node000006"><a xlink:title=" ">
<path fill="none" stroke="#63b8ff" d="M548.63,-164.98C620.37,-153.8 744.03,-134.52 802.11,-125.47"/>
<polygon fill="#63b8ff" stroke="#63b8ff" points="802.83,-128.9 812.17,-123.9 801.75,-121.99 802.83,-128.9"/>
</a>
</g>
</g>
<!-- Node3 -->
<g id="Node000003" class="node">
<title>Node3</title>
<g id="a_Node000003"><a xlink:title=" ">
<polygon fill="#e0e0e0" stroke="#999999" points="148,-74 0,-74 0,-55 148,-55 148,-74"/>
<text text-anchor="middle" x="74" y="-62" font-family="Helvetica,sans-Serif" font-size="10.00">gnuradio/sync_decimator.h</text>
</a>
</g>
</g>
<!-- Node2&#45;&gt;Node3 -->
<g id="edge2_Node000002_Node000003" class="edge">
<title>Node2&#45;&gt;Node3</title>
<g id="a_edge2_Node000002_Node000003"><a xlink:title=" ">
<path fill="none" stroke="#63b8ff" d="M177.24,-109.98C157.27,-101.38 126.2,-87.99 103.35,-78.15"/>
<polygon fill="#63b8ff" stroke="#63b8ff" points="104.69,-74.91 94.12,-74.17 101.92,-81.34 104.69,-74.91"/>
</a>
</g>
</g>
<!-- Node4 -->
<g id="Node000004" class="node">
<title>Node4</title>
<g id="a_Node000004"><a xlink:href="api_8h.html" target="_top" xlink:title=" ">
<polygon fill="white" stroke="#666666" points="227.5,-74 166.5,-74 166.5,-55 227.5,-55 227.5,-74"/>
<text text-anchor="middle" x="197" y="-62" font-family="Helvetica,sans-Serif" font-size="10.00">dsd/api.h</text>
</a>
</g>
</g>
<!-- Node2&#45;&gt;Node4 -->
<g id="edge3_Node000002_Node000004" class="edge">
<title>Node2&#45;&gt;Node4</title>
<g id="a_edge3_Node000002_Node000004"><a xlink:title=" ">
<path fill="none" stroke="#63b8ff" d="M197,-109.75C197,-102.8 197,-92.85 197,-84.13"/>
<polygon fill="#63b8ff" stroke="#63b8ff" points="200.5,-84.09 197,-74.09 193.5,-84.09 200.5,-84.09"/>
</a>
</g>
</g>
<!-- Node5 -->
<g id="Node000005" class="node">
<title>Node5</title>
<g id="a_Node000005"><a xlink:title=" ">
<polygon fill="#e0e0e0" stroke="#999999" points="256.5,-19 137.5,-19 137.5,0 256.5,0 256.5,-19"/>
<text text-anchor="middle" x="197" y="-7" font-family="Helvetica,sans-Serif" font-size="10.00">gnuradio/attributes.h</text>
</a>
</g>
</g>
<!-- Node4&#45;&gt;Node5 -->
<g id="edge4_Node000004_Node000005" class="edge">
<title>Node4&#45;&gt;Node5</title>
<g id="a_edge4_Node000004_Node000005"><a xlink:title=" ">
<path fill="none" stroke="#63b8ff" d="M197,-54.75C197,-47.8 197,-37.85 197,-29.13"/>
<polygon fill="#63b8ff" stroke="#63b8ff" points="200.5,-29.09 197,-19.09 193.5,-29.09 200.5,-29.09"/>
</a>
</g>
</g>
<!-- Node7 -->
<g id="Node000007" class="node">
<title>Node7</title>
<g id="a_Node000007"><a xlink:href="dsd_2include_2config_8h.html" target="_top" xlink:title=" ">
<polygon fill="white" stroke="#666666" points="300.5,-74 245.5,-74 245.5,-55 300.5,-55 300.5,-74"/>
<text text-anchor="middle" x="273" y="-62" font-family="Helvetica,sans-Serif" font-size="10.00">config.h</text>
</a>
</g>
</g>
<!-- Node6&#45;&gt;Node7 -->
<g id="edge6_Node000006_Node000007" class="edge">
<title>Node6&#45;&gt;Node7</title>
<g id="a_edge6_Node000006_Node000007"><a xlink:title=" ">
<path fill="none" stroke="#63b8ff" d="M812.41,-117.76C741.8,-115.11 511.31,-104.64 310.92,-73.9"/>
<polygon fill="#63b8ff" stroke="#63b8ff" points="311.22,-70.41 300.8,-72.33 310.14,-77.32 311.22,-70.41"/>
</a>
</g>
</g>
<!-- Node8 -->
<g id="Node000008" class="node">
<title>Node8</title>
<g id="a_Node000008"><a xlink:title=" ">
<polygon fill="#e0e0e0" stroke="#999999" points="369,-74 319,-74 319,-55 369,-55 369,-74"/>
<text text-anchor="middle" x="344" y="-62" font-family="Helvetica,sans-Serif" font-size="10.00">stdio.h</text>
</a>
</g>
</g>
<!-- Node6&#45;&gt;Node8 -->
<g id="edge7_Node000006_Node000008" class="edge">
<title>Node6&#45;&gt;Node8</title>
<g id="a_edge7_Node000006_Node000008"><a xlink:title=" ">
<path fill="none" stroke="#63b8ff" d="M812.48,-117.53C748.13,-114.39 551.46,-103.09 379.17,-73.95"/>
<polygon fill="#63b8ff" stroke="#63b8ff" points="379.61,-70.47 369.16,-72.23 378.43,-77.37 379.61,-70.47"/>
</a>
</g>
</g>
<!-- Node9 -->
<g id="Node000009" class="node">
<title>Node9</title>
<g id="a_Node000009"><a xlink:title=" ">
<polygon fill="#e0e0e0" stroke="#999999" points="440.5,-74 387.5,-74 387.5,-55 440.5,-55 440.5,-74"/>
<text text-anchor="middle" x="414" y="-62" font-family="Helvetica,sans-Serif" font-size="10.00">stdlib.h</text>
</a>
</g>
</g>
<!-- Node6&#45;&gt;Node9 -->
<g id="edge8_Node000006_Node000009" class="edge">
<title>Node6&#45;&gt;Node9</title>
<g id="a_edge8_Node000006_Node000009"><a xlink:title=" ">
<path fill="none" stroke="#63b8ff" d="M812.15,-116.92C754.59,-112.57 593.89,-99.13 450.94,-74.16"/>
<polygon fill="#63b8ff" stroke="#63b8ff" points="451.14,-70.64 440.68,-72.34 449.92,-77.53 451.14,-70.64"/>
</a>
</g>
</g>
<!-- Node10 -->
<g id="Node000010" class="node">
<title>Node10</title>
<g id="a_Node000010"><a xlink:title=" ">
<polygon fill="#e0e0e0" stroke="#999999" points="513.5,-74 458.5,-74 458.5,-55 513.5,-55 513.5,-74"/>
<text text-anchor="middle" x="486" y="-62" font-family="Helvetica,sans-Serif" font-size="10.00">signal.h</text>
</a>
</g>
</g>
<!-- Node6&#45;&gt;Node10 -->
<g id="edge9_Node000006_Node000010" class="edge">
<title>Node6&#45;&gt;Node10</title>
<g id="a_edge9_Node000006_Node000010"><a xlink:title=" ">
<path fill="none" stroke="#63b8ff" d="M812.33,-116.09C762.86,-110.45 637.69,-95.36 523.78,-74.2"/>
<polygon fill="#63b8ff" stroke="#63b8ff" points="524.33,-70.75 513.86,-72.34 523.04,-77.62 524.33,-70.75"/>
</a>
</g>
</g>
<!-- Node11 -->
<g id="Node000011" class="node">
<title>Node11</title>
<g id="a_Node000011"><a xlink:title=" ">
<polygon fill="#e0e0e0" stroke="#999999" points="584.5,-74 531.5,-74 531.5,-55 584.5,-55 584.5,-74"/>
<text text-anchor="middle" x="558" y="-62" font-family="Helvetica,sans-Serif" font-size="10.00">string.h</text>
</a>
</g>
</g>
<!-- Node6&#45;&gt;Node11 -->
<g id="edge10_Node000006_Node000011" class="edge">
<title>Node6&#45;&gt;Node11</title>
<g id="a_edge10_Node000006_Node000011"><a xlink:title=" ">
<path fill="none" stroke="#63b8ff" d="M812.42,-114.86C771.86,-107.94 681.29,-92.13 594.7,-74.06"/>
<polygon fill="#63b8ff" stroke="#63b8ff" points="595.21,-70.59 584.7,-71.96 593.77,-77.44 595.21,-70.59"/>
</a>
</g>
</g>
<!-- Node12 -->
<g id="Node000012" class="node">
<title>Node12</title>
<g id="a_Node000012"><a xlink:title=" ">
<polygon fill="#e0e0e0" stroke="#999999" points="651,-74 603,-74 603,-55 651,-55 651,-74"/>
<text text-anchor="middle" x="627" y="-62" font-family="Helvetica,sans-Serif" font-size="10.00">time.h</text>
</a>
</g>
</g>
<!-- Node6&#45;&gt;Node12 -->
<g id="edge11_Node000006_Node000012" class="edge">
<title>Node6&#45;&gt;Node12</title>
<g id="a_edge11_Node000006_Node000012"><a xlink:title=" ">
<path fill="none" stroke="#63b8ff" d="M812.3,-112.96C781.04,-104.98 721.29,-89.72 660.85,-74.22"/>
<polygon fill="#63b8ff" stroke="#63b8ff" points="661.71,-70.82 651.15,-71.73 659.97,-77.6 661.71,-70.82"/>
</a>
</g>
</g>
<!-- Node13 -->
<g id="Node000013" class="node">
<title>Node13</title>
<g id="a_Node000013"><a xlink:title=" ">
<polygon fill="#e0e0e0" stroke="#999999" points="737,-74 669,-74 669,-55 737,-55 737,-74"/>
<text text-anchor="middle" x="703" y="-62" font-family="Helvetica,sans-Serif" font-size="10.00">sys/time.h</text>
</a>
</g>
</g>
<!-- Node6&#45;&gt;Node13 -->
<g id="edge12_Node000006_Node000013" class="edge">
<title>Node6&#45;&gt;Node13</title>
<g id="a_edge12_Node000006_Node000013"><a xlink:title=" ">
<path fill="none" stroke="#63b8ff" d="M812.95,-109.98C791.59,-101.34 758.3,-87.87 733.94,-78.02"/>
<polygon fill="#63b8ff" stroke="#63b8ff" points="735.01,-74.68 724.43,-74.17 732.39,-81.17 735.01,-74.68"/>
</a>
</g>
</g>
<!-- Node14 -->
<g id="Node000014" class="node">
<title>Node14</title>
<g id="a_Node000014"><a xlink:title=" ">
<polygon fill="#e0e0e0" stroke="#999999" points="827,-74 755,-74 755,-55 827,-55 827,-74"/>
<text text-anchor="middle" x="791" y="-62" font-family="Helvetica,sans-Serif" font-size="10.00">sys/types.h</text>
</a>
</g>
</g>
<!-- Node6&#45;&gt;Node14 -->
<g id="edge13_Node000006_Node000014" class="edge">
<title>Node6&#45;&gt;Node14</title>
<g id="a_edge13_Node000006_Node000014"><a xlink:title=" ">
<path fill="none" stroke="#63b8ff" d="M826.9,-109.75C820.83,-102.26 811.91,-91.28 804.49,-82.13"/>
<polygon fill="#63b8ff" stroke="#63b8ff" points="806.99,-79.65 797.97,-74.09 801.55,-84.06 806.99,-79.65"/>
</a>
</g>
</g>
<!-- Node15 -->
<g id="Node000015" class="node">
<title>Node15</title>
<g id="a_Node000015"><a xlink:title=" ">
<polygon fill="#e0e0e0" stroke="#999999" points="909,-74 845,-74 845,-55 909,-55 909,-74"/>
<text text-anchor="middle" x="877" y="-62" font-family="Helvetica,sans-Serif" font-size="10.00">sys/stat.h</text>
</a>
</g>
</g>
<!-- Node6&#45;&gt;Node15 -->
<g id="edge14_Node000006_Node000015" class="edge">
<title>Node6&#45;&gt;Node15</title>
<g id="a_edge14_Node000006_Node000015"><a xlink:title=" ">
<path fill="none" stroke="#63b8ff" d="M841.1,-109.75C847.17,-102.26 856.09,-91.28 863.51,-82.13"/>
<polygon fill="#63b8ff" stroke="#63b8ff" points="866.45,-84.06 870.03,-74.09 861.01,-79.65 866.45,-84.06"/>
</a>
</g>
</g>
<!-- Node16 -->
<g id="Node000016" class="node">
<title>Node16</title>
<g id="a_Node000016"><a xlink:title=" ">
<polygon fill="#e0e0e0" stroke="#999999" points="993,-74 927,-74 927,-55 993,-55 993,-74"/>
<text text-anchor="middle" x="960" y="-62" font-family="Helvetica,sans-Serif" font-size="10.00">sys/ioctl.h</text>
</a>
</g>
</g>
<!-- Node6&#45;&gt;Node16 -->
<g id="edge15_Node000006_Node000016" class="edge">
<title>Node6&#45;&gt;Node16</title>
<g id="a_edge15_Node000006_Node000016"><a xlink:title=" ">
<path fill="none" stroke="#63b8ff" d="M854.24,-109.98C874.7,-101.38 906.53,-87.99 929.93,-78.15"/>
<polygon fill="#63b8ff" stroke="#63b8ff" points="931.53,-81.27 939.39,-74.17 928.81,-74.82 931.53,-81.27"/>
</a>
</g>
</g>
<!-- Node17 -->
<g id="Node000017" class="node">
<title>Node17</title>
<g id="a_Node000017"><a xlink:title=" ">
<polygon fill="#e0e0e0" stroke="#999999" points="1058.5,-74 1011.5,-74 1011.5,-55 1058.5,-55 1058.5,-74"/>
<text text-anchor="middle" x="1035" y="-62" font-family="Helvetica,sans-Serif" font-size="10.00">fcntl.h</text>
</a>
</g>
</g>
<!-- Node6&#45;&gt;Node17 -->
<g id="edge16_Node000006_Node000017" class="edge">
<title>Node6&#45;&gt;Node17</title>
<g id="a_edge16_Node000006_Node000017"><a xlink:title=" ">
<path fill="none" stroke="#63b8ff" d="M855.51,-112.83C890.52,-103.6 960.08,-85.25 1001.58,-74.31"/>
<polygon fill="#63b8ff" stroke="#63b8ff" points="1002.7,-77.64 1011.48,-71.7 1000.92,-70.87 1002.7,-77.64"/>
</a>
</g>
</g>
<!-- Node18 -->
<g id="Node000018" class="node">
<title>Node18</title>
<g id="a_Node000018"><a xlink:title=" ">
<polygon fill="#e0e0e0" stroke="#999999" points="1133,-74 1077,-74 1077,-55 1133,-55 1133,-74"/>
<text text-anchor="middle" x="1105" y="-62" font-family="Helvetica,sans-Serif" font-size="10.00">unistd.h</text>
</a>
</g>
</g>
<!-- Node6&#45;&gt;Node18 -->
<g id="edge17_Node000006_Node000018" class="edge">
<title>Node6&#45;&gt;Node18</title>
<g id="a_edge17_Node000006_Node000018"><a xlink:title=" ">
<path fill="none" stroke="#63b8ff" d="M855.67,-114.66C895.46,-107.55 983.08,-91.63 1066.82,-74.19"/>
<polygon fill="#63b8ff" stroke="#63b8ff" points="1067.67,-77.58 1076.74,-72.11 1066.24,-70.73 1067.67,-77.58"/>
</a>
</g>
</g>
<!-- Node19 -->
<g id="Node000019" class="node">
<title>Node19</title>
<g id="a_Node000019"><a xlink:title=" ">
<polygon fill="#e0e0e0" stroke="#999999" points="1246.5,-74 1151.5,-74 1151.5,-55 1246.5,-55 1246.5,-74"/>
<text text-anchor="middle" x="1199" y="-62" font-family="Helvetica,sans-Serif" font-size="10.00">sys/soundcard.h</text>
</a>
</g>
</g>
<!-- Node6&#45;&gt;Node19 -->
<g id="edge18_Node000006_Node000019" class="edge">
<title>Node6&#45;&gt;Node19</title>
<g id="a_edge18_Node000006_Node000019"><a xlink:title=" ">
<path fill="none" stroke="#63b8ff" d="M855.66,-115.4C904.54,-108.41 1027.34,-90.81 1141.46,-74.07"/>
<polygon fill="#63b8ff" stroke="#63b8ff" points="1142.03,-77.53 1151.42,-72.61 1141.01,-70.6 1142.03,-77.53"/>
</a>
</g>
</g>
<!-- Node20 -->
<g id="Node000020" class="node">
<title>Node20</title>
<g id="a_Node000020"><a xlink:title=" ">
<polygon fill="#e0e0e0" stroke="#999999" points="1315.5,-74 1264.5,-74 1264.5,-55 1315.5,-55 1315.5,-74"/>
<text text-anchor="middle" x="1290" y="-62" font-family="Helvetica,sans-Serif" font-size="10.00">math.h</text>
</a>
</g>
</g>
<!-- Node6&#45;&gt;Node20 -->
<g id="edge19_Node000006_Node000020" class="edge">
<title>Node6&#45;&gt;Node20</title>
<g id="a_edge19_Node000006_Node000020"><a xlink:title=" ">
<path fill="none" stroke="#63b8ff" d="M855.67,-117.29C916.89,-113.64 1096.45,-101.39 1254.56,-74.03"/>
<polygon fill="#63b8ff" stroke="#63b8ff" points="1255.22,-77.47 1264.46,-72.29 1254.01,-70.57 1255.22,-77.47"/>
</a>
</g>
</g>
<!-- Node21 -->
<g id="Node000021" class="node">
<title>Node21</title>
<g id="a_Node000021"><a xlink:href="mbelib_8h.html" target="_top" xlink:title=" ">
<polygon fill="white" stroke="#666666" points="1392.5,-74 1333.5,-74 1333.5,-55 1392.5,-55 1392.5,-74"/>
<text text-anchor="middle" x="1363" y="-62" font-family="Helvetica,sans-Serif" font-size="10.00">mbelib.h</text>
</a>
</g>
</g>
<!-- Node6&#45;&gt;Node21 -->
<g id="edge20_Node000006_Node000021" class="edge">
<title>Node6&#45;&gt;Node21</title>
<g id="a_edge20_Node000006_Node000021"><a xlink:title=" ">
<path fill="none" stroke="#63b8ff" d="M855.66,-117.54C923.37,-114.33 1137.18,-102.61 1323.24,-74.1"/>
<polygon fill="#63b8ff" stroke="#63b8ff" points="1323.85,-77.54 1333.2,-72.55 1322.78,-70.63 1323.85,-77.54"/>
</a>
</g>
</g>
<!-- Node22 -->
<g id="Node000022" class="node">
<title>Node22</title>
<g id="a_Node000022"><a xlink:title=" ">
<polygon fill="#e0e0e0" stroke="#999999" points="1469,-74 1411,-74 1411,-55 1469,-55 1469,-74"/>
<text text-anchor="middle" x="1440" y="-62" font-family="Helvetica,sans-Serif" font-size="10.00">sndfile.h</text>
</a>
</g>
</g>
<!-- Node6&#45;&gt;Node22 -->
<g id="edge21_Node000006_Node000022" class="edge">
<title>Node6&#45;&gt;Node22</title>
<g id="a_edge21_Node000006_Node000022"><a xlink:title=" ">
<path fill="none" stroke="#63b8ff" d="M855.53,-117.91C929.87,-115.66 1182.66,-106.08 1400.6,-74"/>
<polygon fill="#63b8ff" stroke="#63b8ff" points="1401.24,-77.44 1410.62,-72.5 1400.21,-70.52 1401.24,-77.44"/>
</a>
</g>
</g>
<!-- Node23 -->
<g id="Node000023" class="node">
<title>Node23</title>
<g id="a_Node000023"><a xlink:href="p25p1__heuristics_8h.html" target="_top" xlink:title=" ">
<polygon fill="white" stroke="#666666" points="1595,-74 1487,-74 1487,-55 1595,-55 1595,-74"/>
<text text-anchor="middle" x="1541" y="-62" font-family="Helvetica,sans-Serif" font-size="10.00">p25p1_heuristics.h</text>
</a>
</g>
</g>
<!-- Node6&#45;&gt;Node23 -->
<g id="edge22_Node000006_Node000023" class="edge">
<title>Node6&#45;&gt;Node23</title>
<g id="a_edge22_Node000006_Node000023"><a xlink:title=" ">
<path fill="none" stroke="#63b8ff" d="M855.73,-117.51C936.4,-113.74 1226.59,-99.21 1476.73,-74.06"/>
<polygon fill="#63b8ff" stroke="#63b8ff" points="1477.13,-77.54 1486.73,-73.05 1476.43,-70.58 1477.13,-77.54"/>
</a>
</g>
</g>
</g>
</svg>
