<?xml version="1.0" encoding="UTF-8" standalone="no"?>
<!DOCTYPE svg PUBLIC "-//W3C//DTD SVG 1.1//EN"
 "http://www.w3.org/Graphics/SVG/1.1/DTD/svg11.dtd">
<!-- Generated by graphviz version 2.43.0 (0)
 -->
<!-- Title: Graphical Class Hierarchy Pages: 1 -->
<svg width="550pt" height="1414pt"
 viewBox="0.00 0.00 550.00 1414.00" xmlns="http://www.w3.org/2000/svg" xmlns:xlink="http://www.w3.org/1999/xlink">
<g id="graph0" class="graph" transform="scale(1 1) rotate(0) translate(4 1410)">
<title>Graphical Class Hierarchy</title>
<!-- Node0 -->
<g id="Node000000" class="node">
<title>Node0</title>
<g id="a_Node000000"><a xlink:href="classtesting_1_1internal_1_1UntypedFunctionMockerBase.html" target="_top" xlink:title=" ">
<polygon fill="white" stroke="#666666" points="158,-773 0,-773 0,-743 158,-743 158,-773"/>
<text text-anchor="start" x="8" y="-761" font-family="Helvetica,sans-Serif" font-size="10.00">testing::internal::</text>
<text text-anchor="middle" x="79" y="-750" font-family="Helvetica,sans-Serif" font-size="10.00">UntypedFunctionMockerBase</text>
</a>
</g>
</g>
<!-- Node1 -->
<g id="Node000001" class="node">
<title>Node1</title>
<g id="a_Node000001"><a xlink:href="classtesting_1_1internal_1_1FunctionMockerBase.html" target="_top" xlink:title=" ">
<polygon fill="white" stroke="#666666" points="346.5,-1406 195.5,-1406 195.5,-1376 346.5,-1376 346.5,-1406"/>
<text text-anchor="start" x="203.5" y="-1394" font-family="Helvetica,sans-Serif" font-size="10.00">testing::internal::</text>
<text text-anchor="middle" x="271" y="-1383" font-family="Helvetica,sans-Serif" font-size="10.00">FunctionMockerBase&lt; R()&gt;</text>
</a>
</g>
</g>
<!-- Node0&#45;&gt;Node1 -->
<g id="edge35_Node000000_Node000001" class="edge">
<title>Node0&#45;&gt;Node1</title>
<g id="a_edge35_Node000000_Node000001"><a xlink:title=" ">
<path fill="none" stroke="#63b8ff" d="M81.35,-783.44C87.38,-887.29 115.03,-1277.86 194,-1367 197.03,-1370.42 200.54,-1373.35 204.36,-1375.87"/>
<polygon fill="#63b8ff" stroke="#63b8ff" points="84.84,-783.04 80.78,-773.26 77.85,-783.44 84.84,-783.04"/>
</a>
</g>
</g>
<!-- Node3 -->
<g id="Node000003" class="node">
<title>Node3</title>
<g id="a_Node000003"><a xlink:href="classtesting_1_1internal_1_1FunctionMockerBase.html" target="_top" xlink:title=" ">
<polygon fill="white" stroke="#666666" points="348,-1358 194,-1358 194,-1328 348,-1328 348,-1358"/>
<text text-anchor="start" x="202" y="-1346" font-family="Helvetica,sans-Serif" font-size="10.00">testing::internal::</text>
<text text-anchor="middle" x="271" y="-1335" font-family="Helvetica,sans-Serif" font-size="10.00">FunctionMockerBase&lt; R() &gt;</text>
</a>
</g>
</g>
<!-- Node0&#45;&gt;Node3 -->
<g id="edge37_Node000000_Node000003" class="edge">
<title>Node0&#45;&gt;Node3</title>
<g id="a_edge37_Node000000_Node000003"><a xlink:title=" ">
<path fill="none" stroke="#63b8ff" d="M81.79,-783.31C89.24,-881.76 120.87,-1237.72 194,-1319 197.05,-1322.39 200.58,-1325.31 204.42,-1327.82"/>
<polygon fill="#63b8ff" stroke="#63b8ff" points="85.26,-782.82 81.03,-773.11 78.28,-783.34 85.26,-782.82"/>
</a>
</g>
</g>
<!-- Node4 -->
<g id="Node000004" class="node">
<title>Node4</title>
<g id="a_Node000004"><a xlink:href="classtesting_1_1internal_1_1FunctionMockerBase.html" target="_top" xlink:title=" ">
<polygon fill="white" stroke="#666666" points="333.5,-1309.5 208.5,-1309.5 208.5,-1268.5 333.5,-1268.5 333.5,-1309.5"/>
<text text-anchor="start" x="216.5" y="-1297.5" font-family="Helvetica,sans-Serif" font-size="10.00">testing::internal::</text>
<text text-anchor="start" x="216.5" y="-1286.5" font-family="Helvetica,sans-Serif" font-size="10.00">FunctionMockerBase&lt;</text>
<text text-anchor="middle" x="271" y="-1275.5" font-family="Helvetica,sans-Serif" font-size="10.00"> R(A1)&gt;</text>
</a>
</g>
</g>
<!-- Node0&#45;&gt;Node4 -->
<g id="edge38_Node000000_Node000004" class="edge">
<title>Node0&#45;&gt;Node4</title>
<g id="a_edge38_Node000000_Node000004"><a xlink:title=" ">
<path fill="none" stroke="#63b8ff" d="M82.62,-783.47C92.5,-875.12 130.25,-1186.55 194,-1260 198.07,-1264.69 202.99,-1268.63 208.34,-1271.93"/>
<polygon fill="#63b8ff" stroke="#63b8ff" points="86.08,-782.99 81.55,-773.42 79.12,-783.73 86.08,-782.99"/>
</a>
</g>
</g>
<!-- Node6 -->
<g id="Node000006" class="node">
<title>Node6</title>
<g id="a_Node000006"><a xlink:href="classtesting_1_1internal_1_1FunctionMockerBase.html" target="_top" xlink:title=" ">
<polygon fill="white" stroke="#666666" points="333.5,-1250.5 208.5,-1250.5 208.5,-1209.5 333.5,-1209.5 333.5,-1250.5"/>
<text text-anchor="start" x="216.5" y="-1238.5" font-family="Helvetica,sans-Serif" font-size="10.00">testing::internal::</text>
<text text-anchor="start" x="216.5" y="-1227.5" font-family="Helvetica,sans-Serif" font-size="10.00">FunctionMockerBase&lt;</text>
<text text-anchor="middle" x="271" y="-1216.5" font-family="Helvetica,sans-Serif" font-size="10.00"> R(A1) &gt;</text>
</a>
</g>
</g>
<!-- Node0&#45;&gt;Node6 -->
<g id="edge40_Node000000_Node000006" class="edge">
<title>Node0&#45;&gt;Node6</title>
<g id="a_edge40_Node000000_Node000006"><a xlink:title=" ">
<path fill="none" stroke="#63b8ff" d="M83.45,-783.46C95.35,-867.96 137.11,-1137.31 194,-1201 198.14,-1205.63 203.1,-1209.53 208.48,-1212.81"/>
<polygon fill="#63b8ff" stroke="#63b8ff" points="86.9,-782.87 82.06,-773.45 79.97,-783.84 86.9,-782.87"/>
</a>
</g>
</g>
<!-- Node7 -->
<g id="Node000007" class="node">
<title>Node7</title>
<g id="a_Node000007"><a xlink:href="classtesting_1_1internal_1_1FunctionMockerBase.html" target="_top" xlink:title=" ">
<polygon fill="white" stroke="#666666" points="333.5,-1191.5 208.5,-1191.5 208.5,-1150.5 333.5,-1150.5 333.5,-1191.5"/>
<text text-anchor="start" x="216.5" y="-1179.5" font-family="Helvetica,sans-Serif" font-size="10.00">testing::internal::</text>
<text text-anchor="start" x="216.5" y="-1168.5" font-family="Helvetica,sans-Serif" font-size="10.00">FunctionMockerBase&lt;</text>
<text text-anchor="middle" x="271" y="-1157.5" font-family="Helvetica,sans-Serif" font-size="10.00"> R(A1, A2)&gt;</text>
</a>
</g>
</g>
<!-- Node0&#45;&gt;Node7 -->
<g id="edge41_Node000000_Node000007" class="edge">
<title>Node0&#45;&gt;Node7</title>
<g id="a_edge41_Node000000_Node000007"><a xlink:title=" ">
<path fill="none" stroke="#63b8ff" d="M80.18,-783.24C82.01,-850.55 96.16,-1036.43 194,-1142 198.13,-1146.45 203.01,-1150.23 208.29,-1153.43"/>
<polygon fill="#63b8ff" stroke="#63b8ff" points="83.67,-783.06 79.97,-773.13 76.68,-783.2 83.67,-783.06"/>
</a>
</g>
</g>
<!-- Node9 -->
<g id="Node000009" class="node">
<title>Node9</title>
<g id="a_Node000009"><a xlink:href="classtesting_1_1internal_1_1FunctionMockerBase.html" target="_top" xlink:title=" ">
<polygon fill="white" stroke="#666666" points="333.5,-1132.5 208.5,-1132.5 208.5,-1091.5 333.5,-1091.5 333.5,-1132.5"/>
<text text-anchor="start" x="216.5" y="-1120.5" font-family="Helvetica,sans-Serif" font-size="10.00">testing::internal::</text>
<text text-anchor="start" x="216.5" y="-1109.5" font-family="Helvetica,sans-Serif" font-size="10.00">FunctionMockerBase&lt;</text>
<text text-anchor="middle" x="271" y="-1098.5" font-family="Helvetica,sans-Serif" font-size="10.00"> R(A1, A2) &gt;</text>
</a>
</g>
</g>
<!-- Node0&#45;&gt;Node9 -->
<g id="edge43_Node000000_Node000009" class="edge">
<title>Node0&#45;&gt;Node9</title>
<g id="a_edge43_Node000000_Node000009"><a xlink:title=" ">
<path fill="none" stroke="#63b8ff" d="M81.8,-783.37C87.39,-843.52 109.59,-996.27 194,-1083 198.14,-1087.25 202.96,-1090.89 208.14,-1094"/>
<polygon fill="#63b8ff" stroke="#63b8ff" points="85.27,-782.92 80.94,-773.25 78.3,-783.51 85.27,-782.92"/>
</a>
</g>
</g>
<!-- Node10 -->
<g id="Node000010" class="node">
<title>Node10</title>
<g id="a_Node000010"><a xlink:href="classtesting_1_1internal_1_1FunctionMockerBase.html" target="_top" xlink:title=" ">
<polygon fill="white" stroke="#666666" points="333.5,-1073.5 208.5,-1073.5 208.5,-1032.5 333.5,-1032.5 333.5,-1073.5"/>
<text text-anchor="start" x="216.5" y="-1061.5" font-family="Helvetica,sans-Serif" font-size="10.00">testing::internal::</text>
<text text-anchor="start" x="216.5" y="-1050.5" font-family="Helvetica,sans-Serif" font-size="10.00">FunctionMockerBase&lt;</text>
<text text-anchor="middle" x="271" y="-1039.5" font-family="Helvetica,sans-Serif" font-size="10.00"> R(A1, A2, A3)&gt;</text>
</a>
</g>
</g>
<!-- Node0&#45;&gt;Node10 -->
<g id="edge44_Node000000_Node000010" class="edge">
<title>Node0&#45;&gt;Node10</title>
<g id="a_edge44_Node000000_Node000010"><a xlink:title=" ">
<path fill="none" stroke="#63b8ff" d="M84.07,-783.33C93.73,-835.46 122.79,-955.6 194,-1024 198.28,-1028.11 203.2,-1031.65 208.43,-1034.7"/>
<polygon fill="#63b8ff" stroke="#63b8ff" points="87.48,-782.52 82.29,-773.28 80.59,-783.74 87.48,-782.52"/>
</a>
</g>
</g>
<!-- Node12 -->
<g id="Node000012" class="node">
<title>Node12</title>
<g id="a_Node000012"><a xlink:href="classtesting_1_1internal_1_1FunctionMockerBase.html" target="_top" xlink:title=" ">
<polygon fill="white" stroke="#666666" points="333.5,-1014.5 208.5,-1014.5 208.5,-973.5 333.5,-973.5 333.5,-1014.5"/>
<text text-anchor="start" x="216.5" y="-1002.5" font-family="Helvetica,sans-Serif" font-size="10.00">testing::internal::</text>
<text text-anchor="start" x="216.5" y="-991.5" font-family="Helvetica,sans-Serif" font-size="10.00">FunctionMockerBase&lt;</text>
<text text-anchor="middle" x="271" y="-980.5" font-family="Helvetica,sans-Serif" font-size="10.00"> R(A1, A2, A3) &gt;</text>
</a>
</g>
</g>
<!-- Node0&#45;&gt;Node12 -->
<g id="edge46_Node000000_Node000012" class="edge">
<title>Node0&#45;&gt;Node12</title>
<g id="a_edge46_Node000000_Node000012"><a xlink:title=" ">
<path fill="none" stroke="#63b8ff" d="M87.33,-782.71C101.27,-825.61 135.52,-914.13 194,-965 198.37,-968.8 203.29,-972.13 208.47,-975.03"/>
<polygon fill="#63b8ff" stroke="#63b8ff" points="90.64,-781.56 84.3,-773.08 83.97,-783.67 90.64,-781.56"/>
</a>
</g>
</g>
<!-- Node13 -->
<g id="Node000013" class="node">
<title>Node13</title>
<g id="a_Node000013"><a xlink:href="classtesting_1_1internal_1_1FunctionMockerBase.html" target="_top" xlink:title=" ">
<polygon fill="white" stroke="#666666" points="333.5,-955.5 208.5,-955.5 208.5,-914.5 333.5,-914.5 333.5,-955.5"/>
<text text-anchor="start" x="216.5" y="-943.5" font-family="Helvetica,sans-Serif" font-size="10.00">testing::internal::</text>
<text text-anchor="start" x="216.5" y="-932.5" font-family="Helvetica,sans-Serif" font-size="10.00">FunctionMockerBase&lt;</text>
<text text-anchor="middle" x="271" y="-921.5" font-family="Helvetica,sans-Serif" font-size="10.00"> R(A1, A2, A3, A4)&gt;</text>
</a>
</g>
</g>
<!-- Node0&#45;&gt;Node13 -->
<g id="edge47_Node000000_Node000013" class="edge">
<title>Node0&#45;&gt;Node13</title>
<g id="a_edge47_Node000000_Node000013"><a xlink:title=" ">
<path fill="none" stroke="#63b8ff" d="M92.84,-782.03C111.25,-814.38 148.05,-871.82 194,-906 198.42,-909.29 203.26,-912.25 208.28,-914.9"/>
<polygon fill="#63b8ff" stroke="#63b8ff" points="95.86,-780.26 87.94,-773.23 89.75,-783.67 95.86,-780.26"/>
</a>
</g>
</g>
<!-- Node15 -->
<g id="Node000015" class="node">
<title>Node15</title>
<g id="a_Node000015"><a xlink:href="classtesting_1_1internal_1_1FunctionMockerBase.html" target="_top" xlink:title=" ">
<polygon fill="white" stroke="#666666" points="333.5,-896.5 208.5,-896.5 208.5,-855.5 333.5,-855.5 333.5,-896.5"/>
<text text-anchor="start" x="216.5" y="-884.5" font-family="Helvetica,sans-Serif" font-size="10.00">testing::internal::</text>
<text text-anchor="start" x="216.5" y="-873.5" font-family="Helvetica,sans-Serif" font-size="10.00">FunctionMockerBase&lt;</text>
<text text-anchor="middle" x="271" y="-862.5" font-family="Helvetica,sans-Serif" font-size="10.00"> R(A1, A2, A3, A4) &gt;</text>
</a>
</g>
</g>
<!-- Node0&#45;&gt;Node15 -->
<g id="edge49_Node000000_Node000015" class="edge">
<title>Node0&#45;&gt;Node15</title>
<g id="a_edge49_Node000000_Node000015"><a xlink:title=" ">
<path fill="none" stroke="#63b8ff" d="M103.8,-780.05C125.87,-799.62 160.31,-827.99 194,-847 199.29,-849.98 204.95,-852.78 210.7,-855.38"/>
<polygon fill="#63b8ff" stroke="#63b8ff" points="106.03,-777.35 96.25,-773.27 101.35,-782.55 106.03,-777.35"/>
</a>
</g>
</g>
<!-- Node16 -->
<g id="Node000016" class="node">
<title>Node16</title>
<g id="a_Node000016"><a xlink:href="classtesting_1_1internal_1_1FunctionMockerBase.html" target="_top" xlink:title=" ">
<polygon fill="white" stroke="#666666" points="336,-837.5 206,-837.5 206,-796.5 336,-796.5 336,-837.5"/>
<text text-anchor="start" x="214" y="-825.5" font-family="Helvetica,sans-Serif" font-size="10.00">testing::internal::</text>
<text text-anchor="start" x="214" y="-814.5" font-family="Helvetica,sans-Serif" font-size="10.00">FunctionMockerBase&lt;</text>
<text text-anchor="middle" x="271" y="-803.5" font-family="Helvetica,sans-Serif" font-size="10.00"> R(A1, A2, A3, A4, A5)&gt;</text>
</a>
</g>
</g>
<!-- Node0&#45;&gt;Node16 -->
<g id="edge50_Node000000_Node000016" class="edge">
<title>Node0&#45;&gt;Node16</title>
<g id="a_edge50_Node000000_Node000016"><a xlink:title=" ">
<path fill="none" stroke="#63b8ff" d="M138.06,-776.03C159.5,-782.69 183.92,-790.27 205.87,-797.09"/>
<polygon fill="#63b8ff" stroke="#63b8ff" points="139.02,-772.66 128.44,-773.04 136.95,-779.35 139.02,-772.66"/>
</a>
</g>
</g>
<!-- Node18 -->
<g id="Node000018" class="node">
<title>Node18</title>
<g id="a_Node000018"><a xlink:href="classtesting_1_1internal_1_1FunctionMockerBase.html" target="_top" xlink:title=" ">
<polygon fill="white" stroke="#666666" points="337.5,-778.5 204.5,-778.5 204.5,-737.5 337.5,-737.5 337.5,-778.5"/>
<text text-anchor="start" x="212.5" y="-766.5" font-family="Helvetica,sans-Serif" font-size="10.00">testing::internal::</text>
<text text-anchor="start" x="212.5" y="-755.5" font-family="Helvetica,sans-Serif" font-size="10.00">FunctionMockerBase&lt;</text>
<text text-anchor="middle" x="271" y="-744.5" font-family="Helvetica,sans-Serif" font-size="10.00"> R(A1, A2, A3, A4, A5) &gt;</text>
</a>
</g>
</g>
<!-- Node0&#45;&gt;Node18 -->
<g id="edge52_Node000000_Node000018" class="edge">
<title>Node0&#45;&gt;Node18</title>
<g id="a_edge52_Node000000_Node000018"><a xlink:title=" ">
<path fill="none" stroke="#63b8ff" d="M168.25,-758C180.39,-758 192.68,-758 204.31,-758"/>
<polygon fill="#63b8ff" stroke="#63b8ff" points="168.1,-754.5 158.1,-758 168.1,-761.5 168.1,-754.5"/>
</a>
</g>
</g>
<!-- Node19 -->
<g id="Node000019" class="node">
<title>Node19</title>
<g id="a_Node000019"><a xlink:href="classtesting_1_1internal_1_1FunctionMockerBase.html" target="_top" xlink:title=" ">
<polygon fill="white" stroke="#666666" points="345.5,-719.5 196.5,-719.5 196.5,-678.5 345.5,-678.5 345.5,-719.5"/>
<text text-anchor="start" x="204.5" y="-707.5" font-family="Helvetica,sans-Serif" font-size="10.00">testing::internal::</text>
<text text-anchor="start" x="204.5" y="-696.5" font-family="Helvetica,sans-Serif" font-size="10.00">FunctionMockerBase&lt;</text>
<text text-anchor="middle" x="271" y="-685.5" font-family="Helvetica,sans-Serif" font-size="10.00"> R(A1, A2, A3, A4, A5, A6)&gt;</text>
</a>
</g>
</g>
<!-- Node0&#45;&gt;Node19 -->
<g id="edge53_Node000000_Node000019" class="edge">
<title>Node0&#45;&gt;Node19</title>
<g id="a_edge53_Node000000_Node000019"><a xlink:title=" ">
<path fill="none" stroke="#63b8ff" d="M138.07,-739.97C158.81,-733.53 182.34,-726.22 203.73,-719.58"/>
<polygon fill="#63b8ff" stroke="#63b8ff" points="136.95,-736.65 128.44,-742.96 139.02,-743.34 136.95,-736.65"/>
</a>
</g>
</g>
<!-- Node21 -->
<g id="Node000021" class="node">
<title>Node21</title>
<g id="a_Node000021"><a xlink:href="classtesting_1_1internal_1_1FunctionMockerBase.html" target="_top" xlink:title=" ">
<polygon fill="white" stroke="#666666" points="333.5,-660 208.5,-660 208.5,-608 333.5,-608 333.5,-660"/>
<text text-anchor="start" x="216.5" y="-648" font-family="Helvetica,sans-Serif" font-size="10.00">testing::internal::</text>
<text text-anchor="start" x="216.5" y="-637" font-family="Helvetica,sans-Serif" font-size="10.00">FunctionMockerBase&lt;</text>
<text text-anchor="start" x="216.5" y="-626" font-family="Helvetica,sans-Serif" font-size="10.00"> R(A1, A2, A3, A4, A5,</text>
<text text-anchor="middle" x="271" y="-615" font-family="Helvetica,sans-Serif" font-size="10.00"> A6) &gt;</text>
</a>
</g>
</g>
<!-- Node0&#45;&gt;Node21 -->
<g id="edge55_Node000000_Node000021" class="edge">
<title>Node0&#45;&gt;Node21</title>
<g id="a_edge55_Node000000_Node000021"><a xlink:title=" ">
<path fill="none" stroke="#63b8ff" d="M104.98,-736.17C127.35,-717.27 161.54,-689.9 194,-670 199.6,-666.57 205.58,-663.23 211.64,-660.06"/>
<polygon fill="#63b8ff" stroke="#63b8ff" points="102.64,-733.57 97.3,-742.73 107.18,-738.9 102.64,-733.57"/>
</a>
</g>
</g>
<!-- Node22 -->
<g id="Node000022" class="node">
<title>Node22</title>
<g id="a_Node000022"><a xlink:href="classtesting_1_1internal_1_1FunctionMockerBase.html" target="_top" xlink:title=" ">
<polygon fill="white" stroke="#666666" points="333.5,-590 208.5,-590 208.5,-538 333.5,-538 333.5,-590"/>
<text text-anchor="start" x="216.5" y="-578" font-family="Helvetica,sans-Serif" font-size="10.00">testing::internal::</text>
<text text-anchor="start" x="216.5" y="-567" font-family="Helvetica,sans-Serif" font-size="10.00">FunctionMockerBase&lt;</text>
<text text-anchor="start" x="216.5" y="-556" font-family="Helvetica,sans-Serif" font-size="10.00"> R(A1, A2, A3, A4, A5,</text>
<text text-anchor="middle" x="271" y="-545" font-family="Helvetica,sans-Serif" font-size="10.00"> A6, A7)&gt;</text>
</a>
</g>
</g>
<!-- Node0&#45;&gt;Node22 -->
<g id="edge56_Node000000_Node000022" class="edge">
<title>Node0&#45;&gt;Node22</title>
<g id="a_edge56_Node000000_Node000022"><a xlink:title=" ">
<path fill="none" stroke="#63b8ff" d="M92.2,-733.66C110.31,-699.6 147.27,-637.58 194,-599 198.37,-595.39 203.17,-592.07 208.17,-589.04"/>
<polygon fill="#63b8ff" stroke="#63b8ff" points="88.91,-732.39 87.39,-742.88 95.12,-735.63 88.91,-732.39"/>
</a>
</g>
</g>
<!-- Node24 -->
<g id="Node000024" class="node">
<title>Node24</title>
<g id="a_Node000024"><a xlink:href="classtesting_1_1internal_1_1FunctionMockerBase.html" target="_top" xlink:title=" ">
<polygon fill="white" stroke="#666666" points="333.5,-520 208.5,-520 208.5,-468 333.5,-468 333.5,-520"/>
<text text-anchor="start" x="216.5" y="-508" font-family="Helvetica,sans-Serif" font-size="10.00">testing::internal::</text>
<text text-anchor="start" x="216.5" y="-497" font-family="Helvetica,sans-Serif" font-size="10.00">FunctionMockerBase&lt;</text>
<text text-anchor="start" x="216.5" y="-486" font-family="Helvetica,sans-Serif" font-size="10.00"> R(A1, A2, A3, A4, A5,</text>
<text text-anchor="middle" x="271" y="-475" font-family="Helvetica,sans-Serif" font-size="10.00"> A6, A7) &gt;</text>
</a>
</g>
</g>
<!-- Node0&#45;&gt;Node24 -->
<g id="edge58_Node000000_Node000024" class="edge">
<title>Node0&#45;&gt;Node24</title>
<g id="a_edge58_Node000000_Node000024"><a xlink:title=" ">
<path fill="none" stroke="#63b8ff" d="M86.42,-733.05C99.42,-687.06 132.93,-588.24 194,-529 198.27,-524.85 203.13,-521.14 208.27,-517.82"/>
<polygon fill="#63b8ff" stroke="#63b8ff" points="83.02,-732.22 83.76,-742.79 89.77,-734.07 83.02,-732.22"/>
</a>
</g>
</g>
<!-- Node25 -->
<g id="Node000025" class="node">
<title>Node25</title>
<g id="a_Node000025"><a xlink:href="classtesting_1_1internal_1_1FunctionMockerBase.html" target="_top" xlink:title=" ">
<polygon fill="white" stroke="#666666" points="333.5,-450 208.5,-450 208.5,-398 333.5,-398 333.5,-450"/>
<text text-anchor="start" x="216.5" y="-438" font-family="Helvetica,sans-Serif" font-size="10.00">testing::internal::</text>
<text text-anchor="start" x="216.5" y="-427" font-family="Helvetica,sans-Serif" font-size="10.00">FunctionMockerBase&lt;</text>
<text text-anchor="start" x="216.5" y="-416" font-family="Helvetica,sans-Serif" font-size="10.00"> R(A1, A2, A3, A4, A5,</text>
<text text-anchor="middle" x="271" y="-405" font-family="Helvetica,sans-Serif" font-size="10.00"> A6, A7, A8)&gt;</text>
</a>
</g>
</g>
<!-- Node0&#45;&gt;Node25 -->
<g id="edge59_Node000000_Node000025" class="edge">
<title>Node0&#45;&gt;Node25</title>
<g id="a_edge59_Node000000_Node000025"><a xlink:title=" ">
<path fill="none" stroke="#63b8ff" d="M83.12,-732.73C91.31,-676.58 118.24,-540.04 194,-459 198.17,-454.54 203.01,-450.61 208.2,-447.14"/>
<polygon fill="#63b8ff" stroke="#63b8ff" points="79.63,-732.46 81.73,-742.84 86.56,-733.41 79.63,-732.46"/>
</a>
</g>
</g>
<!-- Node27 -->
<g id="Node000027" class="node">
<title>Node27</title>
<g id="a_Node000027"><a xlink:href="classtesting_1_1internal_1_1FunctionMockerBase.html" target="_top" xlink:title=" ">
<polygon fill="white" stroke="#666666" points="333.5,-380 208.5,-380 208.5,-328 333.5,-328 333.5,-380"/>
<text text-anchor="start" x="216.5" y="-368" font-family="Helvetica,sans-Serif" font-size="10.00">testing::internal::</text>
<text text-anchor="start" x="216.5" y="-357" font-family="Helvetica,sans-Serif" font-size="10.00">FunctionMockerBase&lt;</text>
<text text-anchor="start" x="216.5" y="-346" font-family="Helvetica,sans-Serif" font-size="10.00"> R(A1, A2, A3, A4, A5,</text>
<text text-anchor="middle" x="271" y="-335" font-family="Helvetica,sans-Serif" font-size="10.00"> A6, A7, A8) &gt;</text>
</a>
</g>
</g>
<!-- Node0&#45;&gt;Node27 -->
<g id="edge61_Node000000_Node000027" class="edge">
<title>Node0&#45;&gt;Node27</title>
<g id="a_edge61_Node000000_Node000027"><a xlink:title=" ">
<path fill="none" stroke="#63b8ff" d="M80.95,-732.79C84.7,-667.85 103.16,-492.69 194,-389 198.12,-384.3 202.99,-380.19 208.26,-376.61"/>
<polygon fill="#63b8ff" stroke="#63b8ff" points="77.45,-732.75 80.44,-742.92 84.44,-733.11 77.45,-732.75"/>
</a>
</g>
</g>
<!-- Node28 -->
<g id="Node000028" class="node">
<title>Node28</title>
<g id="a_Node000028"><a xlink:href="classtesting_1_1internal_1_1FunctionMockerBase.html" target="_top" xlink:title=" ">
<polygon fill="white" stroke="#666666" points="333.5,-310 208.5,-310 208.5,-258 333.5,-258 333.5,-310"/>
<text text-anchor="start" x="216.5" y="-298" font-family="Helvetica,sans-Serif" font-size="10.00">testing::internal::</text>
<text text-anchor="start" x="216.5" y="-287" font-family="Helvetica,sans-Serif" font-size="10.00">FunctionMockerBase&lt;</text>
<text text-anchor="start" x="216.5" y="-276" font-family="Helvetica,sans-Serif" font-size="10.00"> R(A1, A2, A3, A4, A5,</text>
<text text-anchor="middle" x="271" y="-265" font-family="Helvetica,sans-Serif" font-size="10.00"> A6, A7, A8, A9)&gt;</text>
</a>
</g>
</g>
<!-- Node0&#45;&gt;Node28 -->
<g id="edge62_Node000000_Node000028" class="edge">
<title>Node0&#45;&gt;Node28</title>
<g id="a_edge62_Node000000_Node000028"><a xlink:title=" ">
<path fill="none" stroke="#63b8ff" d="M79.44,-732.58C79.18,-659.45 88.03,-445.67 194,-319 198.1,-314.1 203.04,-309.85 208.4,-306.17"/>
<polygon fill="#63b8ff" stroke="#63b8ff" points="75.94,-732.73 79.54,-742.7 82.94,-732.66 75.94,-732.73"/>
</a>
</g>
</g>
<!-- Node30 -->
<g id="Node000030" class="node">
<title>Node30</title>
<g id="a_Node000030"><a xlink:href="classtesting_1_1internal_1_1FunctionMockerBase.html" target="_top" xlink:title=" ">
<polygon fill="white" stroke="#666666" points="333.5,-240 208.5,-240 208.5,-188 333.5,-188 333.5,-240"/>
<text text-anchor="start" x="216.5" y="-228" font-family="Helvetica,sans-Serif" font-size="10.00">testing::internal::</text>
<text text-anchor="start" x="216.5" y="-217" font-family="Helvetica,sans-Serif" font-size="10.00">FunctionMockerBase&lt;</text>
<text text-anchor="start" x="216.5" y="-206" font-family="Helvetica,sans-Serif" font-size="10.00"> R(A1, A2, A3, A4, A5,</text>
<text text-anchor="middle" x="271" y="-195" font-family="Helvetica,sans-Serif" font-size="10.00"> A6, A7, A8, A9) &gt;</text>
</a>
</g>
</g>
<!-- Node0&#45;&gt;Node30 -->
<g id="edge64_Node000000_Node000030" class="edge">
<title>Node0&#45;&gt;Node30</title>
<g id="a_edge64_Node000000_Node000030"><a xlink:title=" ">
<path fill="none" stroke="#63b8ff" d="M82.67,-732.93C92.86,-641.28 131.91,-325.81 194,-249 198.02,-244.03 202.9,-239.73 208.23,-236.03"/>
<polygon fill="#63b8ff" stroke="#63b8ff" points="79.18,-732.64 81.57,-742.96 86.14,-733.4 79.18,-732.64"/>
</a>
</g>
</g>
<!-- Node31 -->
<g id="Node000031" class="node">
<title>Node31</title>
<g id="a_Node000031"><a xlink:href="classtesting_1_1internal_1_1FunctionMockerBase.html" target="_top" xlink:title=" ">
<polygon fill="white" stroke="#666666" points="333.5,-170 208.5,-170 208.5,-118 333.5,-118 333.5,-170"/>
<text text-anchor="start" x="216.5" y="-158" font-family="Helvetica,sans-Serif" font-size="10.00">testing::internal::</text>
<text text-anchor="start" x="216.5" y="-147" font-family="Helvetica,sans-Serif" font-size="10.00">FunctionMockerBase&lt;</text>
<text text-anchor="start" x="216.5" y="-136" font-family="Helvetica,sans-Serif" font-size="10.00"> R(A1, A2, A3, A4, A5,</text>
<text text-anchor="middle" x="271" y="-125" font-family="Helvetica,sans-Serif" font-size="10.00"> A6, A7, A8, A9, A10)&gt;</text>
</a>
</g>
</g>
<!-- Node0&#45;&gt;Node31 -->
<g id="edge65_Node000000_Node000031" class="edge">
<title>Node0&#45;&gt;Node31</title>
<g id="a_edge65_Node000000_Node000031"><a xlink:title=" ">
<path fill="none" stroke="#63b8ff" d="M81.94,-732.79C90.05,-633.12 124.15,-267.75 194,-179 198.04,-173.86 203.01,-169.45 208.46,-165.67"/>
<polygon fill="#63b8ff" stroke="#63b8ff" points="78.44,-732.6 81.14,-742.85 85.42,-733.16 78.44,-732.6"/>
</a>
</g>
</g>
<!-- Node33 -->
<g id="Node000033" class="node">
<title>Node33</title>
<g id="a_Node000033"><a xlink:href="classtesting_1_1internal_1_1FunctionMockerBase.html" target="_top" xlink:title=" ">
<polygon fill="white" stroke="#666666" points="335,-100 207,-100 207,-48 335,-48 335,-100"/>
<text text-anchor="start" x="215" y="-88" font-family="Helvetica,sans-Serif" font-size="10.00">testing::internal::</text>
<text text-anchor="start" x="215" y="-77" font-family="Helvetica,sans-Serif" font-size="10.00">FunctionMockerBase&lt;</text>
<text text-anchor="start" x="215" y="-66" font-family="Helvetica,sans-Serif" font-size="10.00"> R(A1, A2, A3, A4, A5,</text>
<text text-anchor="middle" x="271" y="-55" font-family="Helvetica,sans-Serif" font-size="10.00"> A6, A7, A8, A9, A10) &gt;</text>
</a>
</g>
</g>
<!-- Node0&#45;&gt;Node33 -->
<g id="edge67_Node000000_Node000033" class="edge">
<title>Node0&#45;&gt;Node33</title>
<g id="a_edge67_Node000000_Node000033"><a xlink:title=" ">
<path fill="none" stroke="#63b8ff" d="M81.36,-732.57C87.58,-625.19 116.36,-209.76 194,-109 197.64,-104.28 202.06,-100.18 206.92,-96.61"/>
<polygon fill="#63b8ff" stroke="#63b8ff" points="77.86,-732.61 80.79,-742.79 84.85,-733 77.86,-732.61"/>
</a>
</g>
</g>
<!-- Node34 -->
<g id="Node000034" class="node">
<title>Node34</title>
<g id="a_Node000034"><a xlink:href="classtesting_1_1internal_1_1FunctionMockerBase.html" target="_top" xlink:title=" ">
<polygon fill="white" stroke="#666666" points="344,-30 198,-30 198,0 344,0 344,-30"/>
<text text-anchor="start" x="206" y="-18" font-family="Helvetica,sans-Serif" font-size="10.00">testing::internal::</text>
<text text-anchor="middle" x="271" y="-7" font-family="Helvetica,sans-Serif" font-size="10.00">FunctionMockerBase&lt; F &gt;</text>
</a>
</g>
</g>
<!-- Node0&#45;&gt;Node34 -->
<g id="edge68_Node000000_Node000034" class="edge">
<title>Node0&#45;&gt;Node34</title>
<g id="a_edge68_Node000000_Node000034"><a xlink:title=" ">
<path fill="none" stroke="#63b8ff" d="M80.56,-732.57C83.58,-617.48 101.5,-146.38 194,-39 196.98,-35.54 200.45,-32.57 204.25,-30.03"/>
<polygon fill="#63b8ff" stroke="#63b8ff" points="77.05,-732.77 80.3,-742.85 84.05,-732.94 77.05,-732.77"/>
</a>
</g>
</g>
<!-- Node2 -->
<g id="Node000002" class="node">
<title>Node2</title>
<g id="a_Node000002"><a xlink:href="classtesting_1_1internal_1_1FunctionMocker_3_01R_07_08_4.html" target="_top" xlink:title=" ">
<polygon fill="white" stroke="#666666" points="526.5,-1406 399.5,-1406 399.5,-1376 526.5,-1376 526.5,-1406"/>
<text text-anchor="start" x="407.5" y="-1394" font-family="Helvetica,sans-Serif" font-size="10.00">testing::internal::</text>
<text text-anchor="middle" x="463" y="-1383" font-family="Helvetica,sans-Serif" font-size="10.00">FunctionMocker&lt; R()&gt;</text>
</a>
</g>
</g>
<!-- Node1&#45;&gt;Node2 -->
<g id="edge36_Node000001_Node000002" class="edge">
<title>Node1&#45;&gt;Node2</title>
<g id="a_edge36_Node000001_Node000002"><a xlink:title=" ">
<path fill="none" stroke="#63b8ff" d="M356.87,-1391C371.16,-1391 385.75,-1391 399.33,-1391"/>
<polygon fill="#63b8ff" stroke="#63b8ff" points="356.55,-1387.5 346.55,-1391 356.55,-1394.5 356.55,-1387.5"/>
</a>
</g>
</g>
<!-- Node5 -->
<g id="Node000005" class="node">
<title>Node5</title>
<g id="a_Node000005"><a xlink:href="classtesting_1_1internal_1_1FunctionMocker_3_01R_07A1_08_4.html" target="_top" xlink:title=" ">
<polygon fill="white" stroke="#666666" points="533,-1304 393,-1304 393,-1274 533,-1274 533,-1304"/>
<text text-anchor="start" x="401" y="-1292" font-family="Helvetica,sans-Serif" font-size="10.00">testing::internal::</text>
<text text-anchor="middle" x="463" y="-1281" font-family="Helvetica,sans-Serif" font-size="10.00">FunctionMocker&lt; R(A1)&gt;</text>
</a>
</g>
</g>
<!-- Node4&#45;&gt;Node5 -->
<g id="edge39_Node000004_Node000005" class="edge">
<title>Node4&#45;&gt;Node5</title>
<g id="a_edge39_Node000004_Node000005"><a xlink:title=" ">
<path fill="none" stroke="#63b8ff" d="M344.02,-1289C359.99,-1289 376.87,-1289 392.72,-1289"/>
<polygon fill="#63b8ff" stroke="#63b8ff" points="343.69,-1285.5 333.69,-1289 343.69,-1292.5 343.69,-1285.5"/>
</a>
</g>
</g>
<!-- Node8 -->
<g id="Node000008" class="node">
<title>Node8</title>
<g id="a_Node000008"><a xlink:href="classtesting_1_1internal_1_1FunctionMocker_3_01R_07A1_00_01A2_08_4.html" target="_top" xlink:title=" ">
<polygon fill="white" stroke="#666666" points="542,-1186 384,-1186 384,-1156 542,-1156 542,-1186"/>
<text text-anchor="start" x="392" y="-1174" font-family="Helvetica,sans-Serif" font-size="10.00">testing::internal::</text>
<text text-anchor="middle" x="463" y="-1163" font-family="Helvetica,sans-Serif" font-size="10.00">FunctionMocker&lt; R(A1, A2)&gt;</text>
</a>
</g>
</g>
<!-- Node7&#45;&gt;Node8 -->
<g id="edge42_Node000007_Node000008" class="edge">
<title>Node7&#45;&gt;Node8</title>
<g id="a_edge42_Node000007_Node000008"><a xlink:title=" ">
<path fill="none" stroke="#63b8ff" d="M344.01,-1171C357.07,-1171 370.75,-1171 383.97,-1171"/>
<polygon fill="#63b8ff" stroke="#63b8ff" points="343.69,-1167.5 333.69,-1171 343.69,-1174.5 343.69,-1167.5"/>
</a>
</g>
</g>
<!-- Node11 -->
<g id="Node000011" class="node">
<title>Node11</title>
<g id="a_Node000011"><a xlink:href="classtesting_1_1internal_1_1FunctionMocker_3_01R_07A1_00_01A2_00_01A3_08_4.html" target="_top" xlink:title=" ">
<polygon fill="white" stroke="#666666" points="528.5,-1073.5 397.5,-1073.5 397.5,-1032.5 528.5,-1032.5 528.5,-1073.5"/>
<text text-anchor="start" x="405.5" y="-1061.5" font-family="Helvetica,sans-Serif" font-size="10.00">testing::internal::</text>
<text text-anchor="start" x="405.5" y="-1050.5" font-family="Helvetica,sans-Serif" font-size="10.00">FunctionMocker&lt; R(A1,</text>
<text text-anchor="middle" x="463" y="-1039.5" font-family="Helvetica,sans-Serif" font-size="10.00"> A2, A3)&gt;</text>
</a>
</g>
</g>
<!-- Node10&#45;&gt;Node11 -->
<g id="edge45_Node000010_Node000011" class="edge">
<title>Node10&#45;&gt;Node11</title>
<g id="a_edge45_Node000010_Node000011"><a xlink:title=" ">
<path fill="none" stroke="#63b8ff" d="M343.88,-1053C361.45,-1053 380.15,-1053 397.36,-1053"/>
<polygon fill="#63b8ff" stroke="#63b8ff" points="343.69,-1049.5 333.69,-1053 343.69,-1056.5 343.69,-1049.5"/>
</a>
</g>
</g>
<!-- Node14 -->
<g id="Node000014" class="node">
<title>Node14</title>
<g id="a_Node000014"><a xlink:href="classtesting_1_1internal_1_1FunctionMocker_3_01R_07A1_00_01A2_00_01A3_00_01A4_08_4.html" target="_top" xlink:title=" ">
<polygon fill="white" stroke="#666666" points="528.5,-955.5 397.5,-955.5 397.5,-914.5 528.5,-914.5 528.5,-955.5"/>
<text text-anchor="start" x="405.5" y="-943.5" font-family="Helvetica,sans-Serif" font-size="10.00">testing::internal::</text>
<text text-anchor="start" x="405.5" y="-932.5" font-family="Helvetica,sans-Serif" font-size="10.00">FunctionMocker&lt; R(A1,</text>
<text text-anchor="middle" x="463" y="-921.5" font-family="Helvetica,sans-Serif" font-size="10.00"> A2, A3, A4)&gt;</text>
</a>
</g>
</g>
<!-- Node13&#45;&gt;Node14 -->
<g id="edge48_Node000013_Node000014" class="edge">
<title>Node13&#45;&gt;Node14</title>
<g id="a_edge48_Node000013_Node000014"><a xlink:title=" ">
<path fill="none" stroke="#63b8ff" d="M343.88,-935C361.45,-935 380.15,-935 397.36,-935"/>
<polygon fill="#63b8ff" stroke="#63b8ff" points="343.69,-931.5 333.69,-935 343.69,-938.5 343.69,-931.5"/>
</a>
</g>
</g>
<!-- Node17 -->
<g id="Node000017" class="node">
<title>Node17</title>
<g id="a_Node000017"><a xlink:href="classtesting_1_1internal_1_1FunctionMocker_3_01R_07A1_00_01A2_00_01A3_00_01A4_00_01A5_08_4.html" target="_top" xlink:title=" ">
<polygon fill="white" stroke="#666666" points="528.5,-837.5 397.5,-837.5 397.5,-796.5 528.5,-796.5 528.5,-837.5"/>
<text text-anchor="start" x="405.5" y="-825.5" font-family="Helvetica,sans-Serif" font-size="10.00">testing::internal::</text>
<text text-anchor="start" x="405.5" y="-814.5" font-family="Helvetica,sans-Serif" font-size="10.00">FunctionMocker&lt; R(A1,</text>
<text text-anchor="middle" x="463" y="-803.5" font-family="Helvetica,sans-Serif" font-size="10.00"> A2, A3, A4, A5)&gt;</text>
</a>
</g>
</g>
<!-- Node16&#45;&gt;Node17 -->
<g id="edge51_Node000016_Node000017" class="edge">
<title>Node16&#45;&gt;Node17</title>
<g id="a_edge51_Node000016_Node000017"><a xlink:title=" ">
<path fill="none" stroke="#63b8ff" d="M346.38,-817C363.18,-817 380.88,-817 397.25,-817"/>
<polygon fill="#63b8ff" stroke="#63b8ff" points="346.06,-813.5 336.06,-817 346.06,-820.5 346.06,-813.5"/>
</a>
</g>
</g>
<!-- Node20 -->
<g id="Node000020" class="node">
<title>Node20</title>
<g id="a_Node000020"><a xlink:href="classtesting_1_1internal_1_1FunctionMocker_3_01R_07A1_00_01A2_00_01A3_00_01A4_00_01A5_00_01A6_08_4.html" target="_top" xlink:title=" ">
<polygon fill="white" stroke="#666666" points="528.5,-719.5 397.5,-719.5 397.5,-678.5 528.5,-678.5 528.5,-719.5"/>
<text text-anchor="start" x="405.5" y="-707.5" font-family="Helvetica,sans-Serif" font-size="10.00">testing::internal::</text>
<text text-anchor="start" x="405.5" y="-696.5" font-family="Helvetica,sans-Serif" font-size="10.00">FunctionMocker&lt; R(A1,</text>
<text text-anchor="middle" x="463" y="-685.5" font-family="Helvetica,sans-Serif" font-size="10.00"> A2, A3, A4, A5, A6)&gt;</text>
</a>
</g>
</g>
<!-- Node19&#45;&gt;Node20 -->
<g id="edge54_Node000019_Node000020" class="edge">
<title>Node19&#45;&gt;Node20</title>
<g id="a_edge54_Node000019_Node000020"><a xlink:title=" ">
<path fill="none" stroke="#63b8ff" d="M355.79,-699C369.7,-699 383.93,-699 397.28,-699"/>
<polygon fill="#63b8ff" stroke="#63b8ff" points="355.73,-695.5 345.73,-699 355.73,-702.5 355.73,-695.5"/>
</a>
</g>
</g>
<!-- Node23 -->
<g id="Node000023" class="node">
<title>Node23</title>
<g id="a_Node000023"><a xlink:href="classtesting_1_1internal_1_1FunctionMocker_3_01R_07A1_00_01A2_00_01A3_00_01A4_00_01A5_00_01A6_00_01A7_08_4.html" target="_top" xlink:title=" ">
<polygon fill="white" stroke="#666666" points="532,-584.5 394,-584.5 394,-543.5 532,-543.5 532,-584.5"/>
<text text-anchor="start" x="402" y="-572.5" font-family="Helvetica,sans-Serif" font-size="10.00">testing::internal::</text>
<text text-anchor="start" x="402" y="-561.5" font-family="Helvetica,sans-Serif" font-size="10.00">FunctionMocker&lt; R(A1,</text>
<text text-anchor="middle" x="463" y="-550.5" font-family="Helvetica,sans-Serif" font-size="10.00"> A2, A3, A4, A5, A6, A7)&gt;</text>
</a>
</g>
</g>
<!-- Node22&#45;&gt;Node23 -->
<g id="edge57_Node000022_Node000023" class="edge">
<title>Node22&#45;&gt;Node23</title>
<g id="a_edge57_Node000022_Node000023"><a xlink:title=" ">
<path fill="none" stroke="#63b8ff" d="M343.74,-564C360.12,-564 377.49,-564 393.72,-564"/>
<polygon fill="#63b8ff" stroke="#63b8ff" points="343.69,-560.5 333.69,-564 343.69,-567.5 343.69,-560.5"/>
</a>
</g>
</g>
<!-- Node26 -->
<g id="Node000026" class="node">
<title>Node26</title>
<g id="a_Node000026"><a xlink:href="classtesting_1_1internal_1_1FunctionMocker_3_01R_07A1_00_01A2_00_01A3_00_01A4_00_01A5_00_01A6_00_01A7_00_01A8_08_4.html" target="_top" xlink:title=" ">
<polygon fill="white" stroke="#666666" points="528.5,-450 397.5,-450 397.5,-398 528.5,-398 528.5,-450"/>
<text text-anchor="start" x="405.5" y="-438" font-family="Helvetica,sans-Serif" font-size="10.00">testing::internal::</text>
<text text-anchor="start" x="405.5" y="-427" font-family="Helvetica,sans-Serif" font-size="10.00">FunctionMocker&lt; R(A1,</text>
<text text-anchor="start" x="405.5" y="-416" font-family="Helvetica,sans-Serif" font-size="10.00"> A2, A3, A4, A5, A6,</text>
<text text-anchor="middle" x="463" y="-405" font-family="Helvetica,sans-Serif" font-size="10.00"> A7, A8)&gt;</text>
</a>
</g>
</g>
<!-- Node25&#45;&gt;Node26 -->
<g id="edge60_Node000025_Node000026" class="edge">
<title>Node25&#45;&gt;Node26</title>
<g id="a_edge60_Node000025_Node000026"><a xlink:title=" ">
<path fill="none" stroke="#63b8ff" d="M343.88,-424C361.45,-424 380.15,-424 397.36,-424"/>
<polygon fill="#63b8ff" stroke="#63b8ff" points="343.69,-420.5 333.69,-424 343.69,-427.5 343.69,-420.5"/>
</a>
</g>
</g>
<!-- Node29 -->
<g id="Node000029" class="node">
<title>Node29</title>
<g id="a_Node000029"><a xlink:href="classtesting_1_1internal_1_1FunctionMocker_3_01R_07A1_00_01A2_00_01A3_00_01A4_00_01A5_00_01A6_00_01A7_00_01A8_00_01A9_08_4.html" target="_top" xlink:title=" ">
<polygon fill="white" stroke="#666666" points="528.5,-310 397.5,-310 397.5,-258 528.5,-258 528.5,-310"/>
<text text-anchor="start" x="405.5" y="-298" font-family="Helvetica,sans-Serif" font-size="10.00">testing::internal::</text>
<text text-anchor="start" x="405.5" y="-287" font-family="Helvetica,sans-Serif" font-size="10.00">FunctionMocker&lt; R(A1,</text>
<text text-anchor="start" x="405.5" y="-276" font-family="Helvetica,sans-Serif" font-size="10.00"> A2, A3, A4, A5, A6,</text>
<text text-anchor="middle" x="463" y="-265" font-family="Helvetica,sans-Serif" font-size="10.00"> A7, A8, A9)&gt;</text>
</a>
</g>
</g>
<!-- Node28&#45;&gt;Node29 -->
<g id="edge63_Node000028_Node000029" class="edge">
<title>Node28&#45;&gt;Node29</title>
<g id="a_edge63_Node000028_Node000029"><a xlink:title=" ">
<path fill="none" stroke="#63b8ff" d="M343.88,-284C361.45,-284 380.15,-284 397.36,-284"/>
<polygon fill="#63b8ff" stroke="#63b8ff" points="343.69,-280.5 333.69,-284 343.69,-287.5 343.69,-280.5"/>
</a>
</g>
</g>
<!-- Node32 -->
<g id="Node000032" class="node">
<title>Node32</title>
<g id="a_Node000032"><a xlink:href="classtesting_1_1internal_1_1FunctionMocker_3_01R_07A1_00_01A2_00_01A3_00_01A4_00_01A5_00_01A6_0079295c90ba14a714e84d5a856a5b50dd.html" target="_top" xlink:title=" ">
<polygon fill="white" stroke="#666666" points="528.5,-170 397.5,-170 397.5,-118 528.5,-118 528.5,-170"/>
<text text-anchor="start" x="405.5" y="-158" font-family="Helvetica,sans-Serif" font-size="10.00">testing::internal::</text>
<text text-anchor="start" x="405.5" y="-147" font-family="Helvetica,sans-Serif" font-size="10.00">FunctionMocker&lt; R(A1,</text>
<text text-anchor="start" x="405.5" y="-136" font-family="Helvetica,sans-Serif" font-size="10.00"> A2, A3, A4, A5, A6,</text>
<text text-anchor="middle" x="463" y="-125" font-family="Helvetica,sans-Serif" font-size="10.00"> A7, A8, A9, A10)&gt;</text>
</a>
</g>
</g>
<!-- Node31&#45;&gt;Node32 -->
<g id="edge66_Node000031_Node000032" class="edge">
<title>Node31&#45;&gt;Node32</title>
<g id="a_edge66_Node000031_Node000032"><a xlink:title=" ">
<path fill="none" stroke="#63b8ff" d="M343.88,-144C361.45,-144 380.15,-144 397.36,-144"/>
<polygon fill="#63b8ff" stroke="#63b8ff" points="343.69,-140.5 333.69,-144 343.69,-147.5 343.69,-140.5"/>
</a>
</g>
</g>
</g>
</svg>
