<?xml version="1.0" encoding="UTF-8" standalone="no"?>
<!DOCTYPE svg PUBLIC "-//W3C//DTD SVG 1.1//EN"
 "http://www.w3.org/Graphics/SVG/1.1/DTD/svg11.dtd">
<!-- Generated by graphviz version 2.43.0 (0)
 -->
<!-- Title: Graphical Class Hierarchy Pages: 1 -->
<svg width="382pt" height="205pt"
 viewBox="0.00 0.00 382.00 205.00" xmlns="http://www.w3.org/2000/svg" xmlns:xlink="http://www.w3.org/1999/xlink">
<g id="graph0" class="graph" transform="scale(1 1) rotate(0) translate(4 201)">
<title>Graphical Class Hierarchy</title>
<!-- Node0 -->
<g id="Node000000" class="node">
<title>Node0</title>
<g id="a_Node000000"><a xlink:href="classtesting_1_1TestPartResultReporterInterface.html" target="_top" xlink:title=" ">
<polygon fill="white" stroke="#666666" points="167,-113 0,-113 0,-83 167,-83 167,-113"/>
<text text-anchor="start" x="8" y="-101" font-family="Helvetica,sans-Serif" font-size="10.00">testing::TestPartResultReporter</text>
<text text-anchor="middle" x="83.5" y="-90" font-family="Helvetica,sans-Serif" font-size="10.00">Interface</text>
</a>
</g>
</g>
<!-- Node1 -->
<g id="Node000001" class="node">
<title>Node1</title>
<g id="a_Node000001"><a xlink:href="classtesting_1_1ScopedFakeTestPartResultReporter.html" target="_top" xlink:title=" ">
<polygon fill="white" stroke="#666666" points="364.5,-197 212.5,-197 212.5,-167 364.5,-167 364.5,-197"/>
<text text-anchor="start" x="220.5" y="-185" font-family="Helvetica,sans-Serif" font-size="10.00">testing::ScopedFakeTestPart</text>
<text text-anchor="middle" x="288.5" y="-174" font-family="Helvetica,sans-Serif" font-size="10.00">ResultReporter</text>
</a>
</g>
</g>
<!-- Node0&#45;&gt;Node1 -->
<g id="edge111_Node000000_Node000001" class="edge">
<title>Node0&#45;&gt;Node1</title>
<g id="a_edge111_Node000000_Node000001"><a xlink:title=" ">
<path fill="none" stroke="#63b8ff" d="M119.43,-117.92C142.61,-130.58 173.99,-146.66 203,-158 211.24,-161.22 220.08,-164.21 228.83,-166.92"/>
<polygon fill="#63b8ff" stroke="#63b8ff" points="121.1,-114.85 110.65,-113.08 117.72,-120.98 121.1,-114.85"/>
</a>
</g>
</g>
<!-- Node2 -->
<g id="Node000002" class="node">
<title>Node2</title>
<g id="a_Node000002"><a xlink:href="classtesting_1_1internal_1_1DefaultGlobalTestPartResultReporter.html" target="_top" xlink:title=" ">
<polygon fill="white" stroke="#666666" points="365,-148.5 212,-148.5 212,-107.5 365,-107.5 365,-148.5"/>
<text text-anchor="start" x="220" y="-136.5" font-family="Helvetica,sans-Serif" font-size="10.00">testing::internal::</text>
<text text-anchor="start" x="220" y="-125.5" font-family="Helvetica,sans-Serif" font-size="10.00">DefaultGlobalTestPartResult</text>
<text text-anchor="middle" x="288.5" y="-114.5" font-family="Helvetica,sans-Serif" font-size="10.00">Reporter</text>
</a>
</g>
</g>
<!-- Node0&#45;&gt;Node2 -->
<g id="edge112_Node000000_Node000002" class="edge">
<title>Node0&#45;&gt;Node2</title>
<g id="a_edge112_Node000000_Node000002"><a xlink:title=" ">
<path fill="none" stroke="#63b8ff" d="M177.21,-111.7C188.82,-113.42 200.57,-115.15 211.87,-116.82"/>
<polygon fill="#63b8ff" stroke="#63b8ff" points="177.47,-108.2 167.07,-110.2 176.45,-115.13 177.47,-108.2"/>
</a>
</g>
</g>
<!-- Node3 -->
<g id="Node000003" class="node">
<title>Node3</title>
<g id="a_Node000003"><a xlink:href="classtesting_1_1internal_1_1DefaultPerThreadTestPartResultReporter.html" target="_top" xlink:title=" ">
<polygon fill="white" stroke="#666666" points="374,-89.5 203,-89.5 203,-48.5 374,-48.5 374,-89.5"/>
<text text-anchor="start" x="211" y="-77.5" font-family="Helvetica,sans-Serif" font-size="10.00">testing::internal::</text>
<text text-anchor="start" x="211" y="-66.5" font-family="Helvetica,sans-Serif" font-size="10.00">DefaultPerThreadTestPartResult</text>
<text text-anchor="middle" x="288.5" y="-55.5" font-family="Helvetica,sans-Serif" font-size="10.00">Reporter</text>
</a>
</g>
</g>
<!-- Node0&#45;&gt;Node3 -->
<g id="edge113_Node000000_Node000003" class="edge">
<title>Node0&#45;&gt;Node3</title>
<g id="a_edge113_Node000000_Node000003"><a xlink:title=" ">
<path fill="none" stroke="#63b8ff" d="M177.05,-84.78C185.59,-83.56 194.22,-82.33 202.7,-81.11"/>
<polygon fill="#63b8ff" stroke="#63b8ff" points="176.47,-81.33 167.07,-86.2 177.46,-88.26 176.47,-81.33"/>
</a>
</g>
</g>
<!-- Node4 -->
<g id="Node000004" class="node">
<title>Node4</title>
<g id="a_Node000004"><a xlink:href="classtesting_1_1internal_1_1HasNewFatalFailureHelper.html" target="_top" xlink:title=" ">
<polygon fill="white" stroke="#666666" points="361,-30 216,-30 216,0 361,0 361,-30"/>
<text text-anchor="start" x="224" y="-18" font-family="Helvetica,sans-Serif" font-size="10.00">testing::internal::</text>
<text text-anchor="middle" x="288.5" y="-7" font-family="Helvetica,sans-Serif" font-size="10.00">HasNewFatalFailureHelper</text>
</a>
</g>
</g>
<!-- Node0&#45;&gt;Node4 -->
<g id="edge114_Node000000_Node000004" class="edge">
<title>Node0&#45;&gt;Node4</title>
<g id="a_edge114_Node000000_Node000004"><a xlink:title=" ">
<path fill="none" stroke="#63b8ff" d="M121.23,-78.04C144.28,-66.01 174.86,-50.96 203,-40 212.12,-36.45 221.97,-33.11 231.6,-30.1"/>
<polygon fill="#63b8ff" stroke="#63b8ff" points="119.37,-75.06 112.16,-82.82 122.64,-81.25 119.37,-75.06"/>
</a>
</g>
</g>
</g>
</svg>
