<?xml version="1.0" encoding="UTF-8" standalone="no"?>
<!DOCTYPE svg PUBLIC "-//W3C//DTD SVG 1.1//EN"
 "http://www.w3.org/Graphics/SVG/1.1/DTD/svg11.dtd">
<!-- Generated by graphviz version 2.43.0 (0)
 -->
<!-- Title: Graphical Class Hierarchy Pages: 1 -->
<svg width="386pt" height="797pt"
 viewBox="0.00 0.00 386.00 796.50" xmlns="http://www.w3.org/2000/svg" xmlns:xlink="http://www.w3.org/1999/xlink">
<g id="graph0" class="graph" transform="scale(1 1) rotate(0) translate(4 792.5)">
<title>Graphical Class Hierarchy</title>
<!-- Node0 -->
<g id="Node000000" class="node">
<title>Node0</title>
<g id="a_Node000000"><a xlink:href="structtesting_1_1internal_1_1bool__constant.html" target="_top" xlink:title=" ">
<polygon fill="white" stroke="#666666" points="117,-361.5 0,-361.5 0,-320.5 117,-320.5 117,-361.5"/>
<text text-anchor="start" x="8" y="-349.5" font-family="Helvetica,sans-Serif" font-size="10.00">testing::internal::</text>
<text text-anchor="start" x="8" y="-338.5" font-family="Helvetica,sans-Serif" font-size="10.00">bool_constant&lt; bool</text>
<text text-anchor="middle" x="58.5" y="-327.5" font-family="Helvetica,sans-Serif" font-size="10.00">_value &gt;</text>
</a>
</g>
</g>
<!-- Node1 -->
<g id="Node000001" class="node">
<title>Node1</title>
<g id="a_Node000001"><a xlink:href="structtesting_1_1internal_1_1LosslessArithmeticConvertibleImpl.html" target="_top" xlink:title=" ">
<polygon fill="white" stroke="#666666" points="368,-788.5 163,-788.5 163,-747.5 368,-747.5 368,-788.5"/>
<text text-anchor="start" x="171" y="-776.5" font-family="Helvetica,sans-Serif" font-size="10.00">testing::internal::</text>
<text text-anchor="start" x="171" y="-765.5" font-family="Helvetica,sans-Serif" font-size="10.00">LosslessArithmeticConvertible</text>
<text text-anchor="middle" x="265.5" y="-754.5" font-family="Helvetica,sans-Serif" font-size="10.00">Impl&lt; kFromKind, From, kToKind, To &gt;</text>
</a>
</g>
</g>
<!-- Node0&#45;&gt;Node1 -->
<g id="edge8_Node000000_Node000001" class="edge">
<title>Node0&#45;&gt;Node1</title>
<g id="a_edge8_Node000000_Node000001"><a xlink:title=" ">
<path fill="none" stroke="#63b8ff" d="M62.71,-371.91C72.02,-455.81 101.72,-685.08 153,-738 156.35,-741.46 160.05,-744.53 164,-747.25"/>
<polygon fill="#63b8ff" stroke="#63b8ff" points="66.16,-371.3 61.6,-361.74 59.2,-372.06 66.16,-371.3"/>
</a>
</g>
</g>
<!-- Node2 -->
<g id="Node000002" class="node">
<title>Node2</title>
<g id="a_Node000002"><a xlink:href="structtesting_1_1internal_1_1LosslessArithmeticConvertibleImpl_3_01kBool_00_01bool_00_01kBool_00_01bool_01_4.html" target="_top" xlink:title=" ">
<polygon fill="white" stroke="#666666" points="348,-729 183,-729 183,-677 348,-677 348,-729"/>
<text text-anchor="start" x="191" y="-717" font-family="Helvetica,sans-Serif" font-size="10.00">testing::internal::</text>
<text text-anchor="start" x="191" y="-706" font-family="Helvetica,sans-Serif" font-size="10.00">LosslessArithmeticConvertible</text>
<text text-anchor="start" x="191" y="-695" font-family="Helvetica,sans-Serif" font-size="10.00">Impl&lt; kBool, bool, kBool,</text>
<text text-anchor="middle" x="265.5" y="-684" font-family="Helvetica,sans-Serif" font-size="10.00"> bool &gt;</text>
</a>
</g>
</g>
<!-- Node0&#45;&gt;Node2 -->
<g id="edge9_Node000000_Node000002" class="edge">
<title>Node0&#45;&gt;Node2</title>
<g id="a_edge9_Node000000_Node000002"><a xlink:title=" ">
<path fill="none" stroke="#63b8ff" d="M59.18,-372.19C60.25,-436.53 71.97,-584.86 153,-668 161.36,-676.57 171.78,-683.05 182.88,-687.95"/>
<polygon fill="#63b8ff" stroke="#63b8ff" points="62.68,-371.87 59.09,-361.9 55.68,-371.93 62.68,-371.87"/>
</a>
</g>
</g>
<!-- Node3 -->
<g id="Node000003" class="node">
<title>Node3</title>
<g id="a_Node000003"><a xlink:href="structtesting_1_1internal_1_1LosslessArithmeticConvertibleImpl_3_01kBool_00_01bool_00_01kFloatingPoint_00_01To_01_4.html" target="_top" xlink:title=" ">
<polygon fill="white" stroke="#666666" points="370,-658.5 161,-658.5 161,-617.5 370,-617.5 370,-658.5"/>
<text text-anchor="start" x="169" y="-646.5" font-family="Helvetica,sans-Serif" font-size="10.00">testing::internal::</text>
<text text-anchor="start" x="169" y="-635.5" font-family="Helvetica,sans-Serif" font-size="10.00">LosslessArithmeticConvertible</text>
<text text-anchor="middle" x="265.5" y="-624.5" font-family="Helvetica,sans-Serif" font-size="10.00">Impl&lt; kBool, bool, kFloatingPoint, To &gt;</text>
</a>
</g>
</g>
<!-- Node0&#45;&gt;Node3 -->
<g id="edge10_Node000000_Node000003" class="edge">
<title>Node0&#45;&gt;Node3</title>
<g id="a_edge10_Node000000_Node000003"><a xlink:title=" ">
<path fill="none" stroke="#63b8ff" d="M61.15,-371.91C65.85,-427.69 83.88,-545.28 153,-609 156.38,-612.12 160.06,-614.91 163.94,-617.41"/>
<polygon fill="#63b8ff" stroke="#63b8ff" points="64.62,-371.32 60.38,-361.61 57.64,-371.85 64.62,-371.32"/>
</a>
</g>
</g>
<!-- Node4 -->
<g id="Node000004" class="node">
<title>Node4</title>
<g id="a_Node000004"><a xlink:href="structtesting_1_1internal_1_1LosslessArithmeticConvertibleImpl_3_01kBool_00_01bool_00_01kInteger_00_01To_01_4.html" target="_top" xlink:title=" ">
<polygon fill="white" stroke="#666666" points="355,-599.5 176,-599.5 176,-558.5 355,-558.5 355,-599.5"/>
<text text-anchor="start" x="184" y="-587.5" font-family="Helvetica,sans-Serif" font-size="10.00">testing::internal::</text>
<text text-anchor="start" x="184" y="-576.5" font-family="Helvetica,sans-Serif" font-size="10.00">LosslessArithmeticConvertible</text>
<text text-anchor="middle" x="265.5" y="-565.5" font-family="Helvetica,sans-Serif" font-size="10.00">Impl&lt; kBool, bool, kInteger, To &gt;</text>
</a>
</g>
</g>
<!-- Node0&#45;&gt;Node4 -->
<g id="edge11_Node000000_Node000004" class="edge">
<title>Node0&#45;&gt;Node4</title>
<g id="a_edge11_Node000000_Node000004"><a xlink:title=" ">
<path fill="none" stroke="#63b8ff" d="M64.7,-371.5C74.07,-417.01 98.2,-502.31 153,-549 159.79,-554.78 167.59,-559.46 175.84,-563.25"/>
<polygon fill="#63b8ff" stroke="#63b8ff" points="68.12,-370.77 62.77,-361.63 61.25,-372.11 68.12,-370.77"/>
</a>
</g>
</g>
<!-- Node5 -->
<g id="Node000005" class="node">
<title>Node5</title>
<g id="a_Node000005"><a xlink:href="structtesting_1_1internal_1_1LosslessArithmeticConvertibleImpl_3_01kFloatingPoint_00_01From_00_01kBool_00_01bool_01_4.html" target="_top" xlink:title=" ">
<polygon fill="white" stroke="#666666" points="348,-540 183,-540 183,-488 348,-488 348,-540"/>
<text text-anchor="start" x="191" y="-528" font-family="Helvetica,sans-Serif" font-size="10.00">testing::internal::</text>
<text text-anchor="start" x="191" y="-517" font-family="Helvetica,sans-Serif" font-size="10.00">LosslessArithmeticConvertible</text>
<text text-anchor="start" x="191" y="-506" font-family="Helvetica,sans-Serif" font-size="10.00">Impl&lt; kFloatingPoint, From,</text>
<text text-anchor="middle" x="265.5" y="-495" font-family="Helvetica,sans-Serif" font-size="10.00"> kBool, bool &gt;</text>
</a>
</g>
</g>
<!-- Node0&#45;&gt;Node5 -->
<g id="edge12_Node000000_Node000005" class="edge">
<title>Node0&#45;&gt;Node5</title>
<g id="a_edge12_Node000000_Node000005"><a xlink:title=" ">
<path fill="none" stroke="#63b8ff" d="M72.29,-370.66C87.25,-401.98 114.92,-450.66 153,-479 161.95,-485.66 172.2,-491.08 182.78,-495.47"/>
<polygon fill="#63b8ff" stroke="#63b8ff" points="75.44,-369.14 68.05,-361.54 69.09,-372.09 75.44,-369.14"/>
</a>
</g>
</g>
<!-- Node6 -->
<g id="Node000006" class="node">
<title>Node6</title>
<g id="a_Node000006"><a xlink:href="structtesting_1_1internal_1_1LosslessArithmeticConvertibleImpl_3_01kFloatingPoint_00_01From_00_01kInteger_00_01To_01_4.html" target="_top" xlink:title=" ">
<polygon fill="white" stroke="#666666" points="348,-470 183,-470 183,-418 348,-418 348,-470"/>
<text text-anchor="start" x="191" y="-458" font-family="Helvetica,sans-Serif" font-size="10.00">testing::internal::</text>
<text text-anchor="start" x="191" y="-447" font-family="Helvetica,sans-Serif" font-size="10.00">LosslessArithmeticConvertible</text>
<text text-anchor="start" x="191" y="-436" font-family="Helvetica,sans-Serif" font-size="10.00">Impl&lt; kFloatingPoint, From,</text>
<text text-anchor="middle" x="265.5" y="-425" font-family="Helvetica,sans-Serif" font-size="10.00"> kInteger, To &gt;</text>
</a>
</g>
</g>
<!-- Node0&#45;&gt;Node6 -->
<g id="edge13_Node000000_Node000006" class="edge">
<title>Node0&#45;&gt;Node6</title>
<g id="a_edge13_Node000000_Node000006"><a xlink:title=" ">
<path fill="none" stroke="#63b8ff" d="M91.18,-368.04C108.54,-381.79 130.97,-397.91 153,-409 162.42,-413.74 172.62,-418.01 182.88,-421.78"/>
<polygon fill="#63b8ff" stroke="#63b8ff" points="93.07,-365.06 83.09,-361.51 88.67,-370.51 93.07,-365.06"/>
</a>
</g>
</g>
<!-- Node7 -->
<g id="Node000007" class="node">
<title>Node7</title>
<g id="a_Node000007"><a xlink:href="structtesting_1_1internal_1_1LosslessArithmeticConvertibleImpl_3_01kInteger_00_01From_00_01kBool_00_01bool_01_4.html" target="_top" xlink:title=" ">
<polygon fill="white" stroke="#666666" points="348,-400 183,-400 183,-348 348,-348 348,-400"/>
<text text-anchor="start" x="191" y="-388" font-family="Helvetica,sans-Serif" font-size="10.00">testing::internal::</text>
<text text-anchor="start" x="191" y="-377" font-family="Helvetica,sans-Serif" font-size="10.00">LosslessArithmeticConvertible</text>
<text text-anchor="start" x="191" y="-366" font-family="Helvetica,sans-Serif" font-size="10.00">Impl&lt; kInteger, From, kBool,</text>
<text text-anchor="middle" x="265.5" y="-355" font-family="Helvetica,sans-Serif" font-size="10.00"> bool &gt;</text>
</a>
</g>
</g>
<!-- Node0&#45;&gt;Node7 -->
<g id="edge14_Node000000_Node000007" class="edge">
<title>Node0&#45;&gt;Node7</title>
<g id="a_edge14_Node000000_Node000007"><a xlink:title=" ">
<path fill="none" stroke="#63b8ff" d="M127.39,-351.93C145.13,-354.78 164.44,-357.89 182.81,-360.85"/>
<polygon fill="#63b8ff" stroke="#63b8ff" points="127.58,-348.41 117.15,-350.28 126.47,-355.33 127.58,-348.41"/>
</a>
</g>
</g>
<!-- Node8 -->
<g id="Node000008" class="node">
<title>Node8</title>
<g id="a_Node000008"><a xlink:href="structtesting_1_1internal_1_1LosslessArithmeticConvertibleImpl_3_01kInteger_00_01From_00_01kFloatingPoint_00_01To_01_4.html" target="_top" xlink:title=" ">
<polygon fill="white" stroke="#666666" points="378,-329.5 153,-329.5 153,-288.5 378,-288.5 378,-329.5"/>
<text text-anchor="start" x="161" y="-317.5" font-family="Helvetica,sans-Serif" font-size="10.00">testing::internal::</text>
<text text-anchor="start" x="161" y="-306.5" font-family="Helvetica,sans-Serif" font-size="10.00">LosslessArithmeticConvertible</text>
<text text-anchor="middle" x="265.5" y="-295.5" font-family="Helvetica,sans-Serif" font-size="10.00">Impl&lt; kInteger, From, kFloatingPoint, To &gt;</text>
</a>
</g>
</g>
<!-- Node0&#45;&gt;Node8 -->
<g id="edge15_Node000000_Node000008" class="edge">
<title>Node0&#45;&gt;Node8</title>
<g id="a_edge15_Node000000_Node000008"><a xlink:title=" ">
<path fill="none" stroke="#63b8ff" d="M127.11,-330.45C135.44,-329.15 144.11,-327.79 152.87,-326.42"/>
<polygon fill="#63b8ff" stroke="#63b8ff" points="126.49,-327 117.15,-332 127.57,-333.92 126.49,-327"/>
</a>
</g>
</g>
<!-- Node9 -->
<g id="Node000009" class="node">
<title>Node9</title>
<g id="a_Node000009"><a xlink:href="structtesting_1_1internal_1_1is__pointer.html" target="_top" xlink:title=" ">
<polygon fill="white" stroke="#666666" points="315.5,-270 215.5,-270 215.5,-240 315.5,-240 315.5,-270"/>
<text text-anchor="start" x="223.5" y="-258" font-family="Helvetica,sans-Serif" font-size="10.00">testing::internal::</text>
<text text-anchor="middle" x="265.5" y="-247" font-family="Helvetica,sans-Serif" font-size="10.00">is_pointer&lt; T &gt;</text>
</a>
</g>
</g>
<!-- Node0&#45;&gt;Node9 -->
<g id="edge16_Node000000_Node000009" class="edge">
<title>Node0&#45;&gt;Node9</title>
<g id="a_edge16_Node000000_Node000009"><a xlink:title=" ">
<path fill="none" stroke="#63b8ff" d="M93.93,-314.27C110.9,-302.24 132.17,-288.79 153,-280 172.65,-271.71 195.46,-265.97 215.31,-262.11"/>
<polygon fill="#63b8ff" stroke="#63b8ff" points="91.51,-311.7 85.47,-320.4 95.62,-317.37 91.51,-311.7"/>
</a>
</g>
</g>
<!-- Node10 -->
<g id="Node000010" class="node">
<title>Node10</title>
<g id="a_Node000010"><a xlink:href="structtesting_1_1internal_1_1is__pointer_3_01T_01_5_01_4.html" target="_top" xlink:title=" ">
<polygon fill="white" stroke="#666666" points="316,-222 215,-222 215,-192 316,-192 316,-222"/>
<text text-anchor="start" x="223" y="-210" font-family="Helvetica,sans-Serif" font-size="10.00">testing::internal::</text>
<text text-anchor="middle" x="265.5" y="-199" font-family="Helvetica,sans-Serif" font-size="10.00">is_pointer&lt; T * &gt;</text>
</a>
</g>
</g>
<!-- Node0&#45;&gt;Node10 -->
<g id="edge17_Node000000_Node000010" class="edge">
<title>Node0&#45;&gt;Node10</title>
<g id="a_edge17_Node000000_Node000010"><a xlink:title=" ">
<path fill="none" stroke="#63b8ff" d="M76.47,-311.9C92.82,-286.53 119.91,-250.8 153,-231 171.52,-219.92 194.48,-213.92 214.75,-210.69"/>
<polygon fill="#63b8ff" stroke="#63b8ff" points="73.49,-310.06 71.14,-320.39 79.42,-313.78 73.49,-310.06"/>
</a>
</g>
</g>
<!-- Node11 -->
<g id="Node000011" class="node">
<title>Node11</title>
<g id="a_Node000011"><a xlink:href="structtesting_1_1internal_1_1is__reference.html" target="_top" xlink:title=" ">
<polygon fill="white" stroke="#666666" points="318,-174 213,-174 213,-144 318,-144 318,-174"/>
<text text-anchor="start" x="221" y="-162" font-family="Helvetica,sans-Serif" font-size="10.00">testing::internal::</text>
<text text-anchor="middle" x="265.5" y="-151" font-family="Helvetica,sans-Serif" font-size="10.00">is_reference&lt; T &gt;</text>
</a>
</g>
</g>
<!-- Node0&#45;&gt;Node11 -->
<g id="edge18_Node000000_Node000011" class="edge">
<title>Node0&#45;&gt;Node11</title>
<g id="a_edge18_Node000000_Node000011"><a xlink:title=" ">
<path fill="none" stroke="#63b8ff" d="M68.97,-310.8C81.94,-274.6 108.79,-214.84 153,-183 170.27,-170.56 192.7,-164.33 212.91,-161.3"/>
<polygon fill="#63b8ff" stroke="#63b8ff" points="65.63,-309.75 65.68,-320.35 72.25,-312.03 65.63,-309.75"/>
</a>
</g>
</g>
<!-- Node12 -->
<g id="Node000012" class="node">
<title>Node12</title>
<g id="a_Node000012"><a xlink:href="structtesting_1_1internal_1_1is__reference_3_01T_01_6_01_4.html" target="_top" xlink:title=" ">
<polygon fill="white" stroke="#666666" points="323.5,-126 207.5,-126 207.5,-96 323.5,-96 323.5,-126"/>
<text text-anchor="start" x="215.5" y="-114" font-family="Helvetica,sans-Serif" font-size="10.00">testing::internal::</text>
<text text-anchor="middle" x="265.5" y="-103" font-family="Helvetica,sans-Serif" font-size="10.00">is_reference&lt; T &amp; &gt;</text>
</a>
</g>
</g>
<!-- Node0&#45;&gt;Node12 -->
<g id="edge19_Node000000_Node000012" class="edge">
<title>Node0&#45;&gt;Node12</title>
<g id="a_edge19_Node000000_Node000012"><a xlink:title=" ">
<path fill="none" stroke="#63b8ff" d="M64.49,-310.43C73.61,-264.9 97.39,-179.82 153,-135 168.26,-122.7 188.4,-116.32 207.35,-113.13"/>
<polygon fill="#63b8ff" stroke="#63b8ff" points="61.04,-309.84 62.62,-320.32 67.92,-311.14 61.04,-309.84"/>
</a>
</g>
</g>
<!-- Node13 -->
<g id="Node000013" class="node">
<title>Node13</title>
<g id="a_Node000013"><a xlink:href="structtesting_1_1internal_1_1type__equals.html" target="_top" xlink:title=" ">
<polygon fill="white" stroke="#666666" points="329.5,-78 201.5,-78 201.5,-48 329.5,-48 329.5,-78"/>
<text text-anchor="start" x="209.5" y="-66" font-family="Helvetica,sans-Serif" font-size="10.00">testing::internal::</text>
<text text-anchor="middle" x="265.5" y="-55" font-family="Helvetica,sans-Serif" font-size="10.00">type_equals&lt; T1, T2 &gt;</text>
</a>
</g>
</g>
<!-- Node0&#45;&gt;Node13 -->
<g id="edge20_Node000000_Node000013" class="edge">
<title>Node0&#45;&gt;Node13</title>
<g id="a_edge20_Node000000_Node000013"><a xlink:title=" ">
<path fill="none" stroke="#63b8ff" d="M61.55,-310.2C66.86,-256.36 85.81,-145.34 153,-87 166.38,-75.38 184.03,-68.95 201.34,-65.51"/>
<polygon fill="#63b8ff" stroke="#63b8ff" points="58.06,-309.9 60.66,-320.17 65.03,-310.52 58.06,-309.9"/>
</a>
</g>
</g>
<!-- Node14 -->
<g id="Node000014" class="node">
<title>Node14</title>
<g id="a_Node000014"><a xlink:href="structtesting_1_1internal_1_1type__equals_3_01T_00_01T_01_4.html" target="_top" xlink:title=" ">
<polygon fill="white" stroke="#666666" points="323.5,-30 207.5,-30 207.5,0 323.5,0 323.5,-30"/>
<text text-anchor="start" x="215.5" y="-18" font-family="Helvetica,sans-Serif" font-size="10.00">testing::internal::</text>
<text text-anchor="middle" x="265.5" y="-7" font-family="Helvetica,sans-Serif" font-size="10.00">type_equals&lt; T, T &gt;</text>
</a>
</g>
</g>
<!-- Node0&#45;&gt;Node14 -->
<g id="edge21_Node000000_Node000014" class="edge">
<title>Node0&#45;&gt;Node14</title>
<g id="a_edge21_Node000000_Node000014"><a xlink:title=" ">
<path fill="none" stroke="#63b8ff" d="M59.44,-310.3C61.09,-249.05 73.94,-111.37 153,-39 167.68,-25.56 188.02,-18.98 207.31,-15.93"/>
<polygon fill="#63b8ff" stroke="#63b8ff" points="55.94,-310.41 59.25,-320.47 62.94,-310.54 55.94,-310.41"/>
</a>
</g>
</g>
</g>
</svg>
