<?xml version="1.0" encoding="UTF-8" standalone="no"?>
<!DOCTYPE svg PUBLIC "-//W3C//DTD SVG 1.1//EN"
 "http://www.w3.org/Graphics/SVG/1.1/DTD/svg11.dtd">
<!-- Generated by graphviz version 2.43.0 (0)
 -->
<!-- Title: Graphical Class Hierarchy Pages: 1 -->
<svg width="1664pt" height="60pt"
 viewBox="0.00 0.00 1664.00 60.00" xmlns="http://www.w3.org/2000/svg" xmlns:xlink="http://www.w3.org/1999/xlink">
<g id="graph0" class="graph" transform="scale(1 1) rotate(0) translate(4 56)">
<title>Graphical Class Hierarchy</title>
<!-- Node0 -->
<g id="Node000000" class="node">
<title>Node0</title>
<g id="a_Node000000"><a xlink:href="structtesting_1_1internal_1_1Function_3_01R_07_08_4.html" target="_top" xlink:title=" ">
<polygon fill="white" stroke="#666666" points="100,-41 0,-41 0,-11 100,-11 100,-41"/>
<text text-anchor="start" x="8" y="-29" font-family="Helvetica,sans-Serif" font-size="10.00">testing::internal::</text>
<text text-anchor="middle" x="50" y="-18" font-family="Helvetica,sans-Serif" font-size="10.00">Function&lt; R()&gt;</text>
</a>
</g>
</g>
<!-- Node1 -->
<g id="Node000001" class="node">
<title>Node1</title>
<g id="a_Node000001"><a xlink:href="structtesting_1_1internal_1_1Function_3_01R_07A1_08_4.html" target="_top" xlink:title=" ">
<polygon fill="white" stroke="#666666" points="240,-41 136,-41 136,-11 240,-11 240,-41"/>
<text text-anchor="start" x="144" y="-29" font-family="Helvetica,sans-Serif" font-size="10.00">testing::internal::</text>
<text text-anchor="middle" x="188" y="-18" font-family="Helvetica,sans-Serif" font-size="10.00">Function&lt; R(A1)&gt;</text>
</a>
</g>
</g>
<!-- Node0&#45;&gt;Node1 -->
<g id="edge23_Node000000_Node000001" class="edge">
<title>Node0&#45;&gt;Node1</title>
<g id="a_edge23_Node000000_Node000001"><a xlink:title=" ">
<path fill="none" stroke="#63b8ff" d="M110.29,-26C118.75,-26 127.39,-26 135.68,-26"/>
<polygon fill="#63b8ff" stroke="#63b8ff" points="110.1,-22.5 100.1,-26 110.1,-29.5 110.1,-22.5"/>
</a>
</g>
</g>
<!-- Node2 -->
<g id="Node000002" class="node">
<title>Node2</title>
<g id="a_Node000002"><a xlink:href="structtesting_1_1internal_1_1Function_3_01R_07A1_00_01A2_08_4.html" target="_top" xlink:title=" ">
<polygon fill="white" stroke="#666666" points="399,-41 276,-41 276,-11 399,-11 399,-41"/>
<text text-anchor="start" x="284" y="-29" font-family="Helvetica,sans-Serif" font-size="10.00">testing::internal::</text>
<text text-anchor="middle" x="337.5" y="-18" font-family="Helvetica,sans-Serif" font-size="10.00">Function&lt; R(A1, A2)&gt;</text>
</a>
</g>
</g>
<!-- Node1&#45;&gt;Node2 -->
<g id="edge24_Node000001_Node000002" class="edge">
<title>Node1&#45;&gt;Node2</title>
<g id="a_edge24_Node000001_Node000002"><a xlink:title=" ">
<path fill="none" stroke="#63b8ff" d="M250.3,-26C258.72,-26 267.37,-26 275.78,-26"/>
<polygon fill="#63b8ff" stroke="#63b8ff" points="250.17,-22.5 240.17,-26 250.17,-29.5 250.17,-22.5"/>
</a>
</g>
</g>
<!-- Node3 -->
<g id="Node000003" class="node">
<title>Node3</title>
<g id="a_Node000003"><a xlink:href="structtesting_1_1internal_1_1Function_3_01R_07A1_00_01A2_00_01A3_08_4.html" target="_top" xlink:title=" ">
<polygon fill="white" stroke="#666666" points="577,-41 435,-41 435,-11 577,-11 577,-41"/>
<text text-anchor="start" x="443" y="-29" font-family="Helvetica,sans-Serif" font-size="10.00">testing::internal::</text>
<text text-anchor="middle" x="506" y="-18" font-family="Helvetica,sans-Serif" font-size="10.00">Function&lt; R(A1, A2, A3)&gt;</text>
</a>
</g>
</g>
<!-- Node2&#45;&gt;Node3 -->
<g id="edge25_Node000002_Node000003" class="edge">
<title>Node2&#45;&gt;Node3</title>
<g id="a_edge25_Node000002_Node000003"><a xlink:title=" ">
<path fill="none" stroke="#63b8ff" d="M409.3,-26C417.76,-26 426.4,-26 434.86,-26"/>
<polygon fill="#63b8ff" stroke="#63b8ff" points="409.08,-22.5 399.08,-26 409.08,-29.5 409.08,-22.5"/>
</a>
</g>
</g>
<!-- Node4 -->
<g id="Node000004" class="node">
<title>Node4</title>
<g id="a_Node000004"><a xlink:href="structtesting_1_1internal_1_1Function_3_01R_07A1_00_01A2_00_01A3_00_01A4_08_4.html" target="_top" xlink:title=" ">
<polygon fill="white" stroke="#666666" points="727,-46.5 613,-46.5 613,-5.5 727,-5.5 727,-46.5"/>
<text text-anchor="start" x="621" y="-34.5" font-family="Helvetica,sans-Serif" font-size="10.00">testing::internal::</text>
<text text-anchor="start" x="621" y="-23.5" font-family="Helvetica,sans-Serif" font-size="10.00">Function&lt; R(A1, A2,</text>
<text text-anchor="middle" x="670" y="-12.5" font-family="Helvetica,sans-Serif" font-size="10.00"> A3, A4)&gt;</text>
</a>
</g>
</g>
<!-- Node3&#45;&gt;Node4 -->
<g id="edge26_Node000003_Node000004" class="edge">
<title>Node3&#45;&gt;Node4</title>
<g id="a_edge26_Node000003_Node000004"><a xlink:title=" ">
<path fill="none" stroke="#63b8ff" d="M587.27,-26C595.94,-26 604.63,-26 612.93,-26"/>
<polygon fill="#63b8ff" stroke="#63b8ff" points="587.11,-22.5 577.11,-26 587.11,-29.5 587.11,-22.5"/>
</a>
</g>
</g>
<!-- Node5 -->
<g id="Node000005" class="node">
<title>Node5</title>
<g id="a_Node000005"><a xlink:href="structtesting_1_1internal_1_1Function_3_01R_07A1_00_01A2_00_01A3_00_01A4_00_01A5_08_4.html" target="_top" xlink:title=" ">
<polygon fill="white" stroke="#666666" points="877,-46.5 763,-46.5 763,-5.5 877,-5.5 877,-46.5"/>
<text text-anchor="start" x="771" y="-34.5" font-family="Helvetica,sans-Serif" font-size="10.00">testing::internal::</text>
<text text-anchor="start" x="771" y="-23.5" font-family="Helvetica,sans-Serif" font-size="10.00">Function&lt; R(A1, A2,</text>
<text text-anchor="middle" x="820" y="-12.5" font-family="Helvetica,sans-Serif" font-size="10.00"> A3, A4, A5)&gt;</text>
</a>
</g>
</g>
<!-- Node4&#45;&gt;Node5 -->
<g id="edge27_Node000004_Node000005" class="edge">
<title>Node4&#45;&gt;Node5</title>
<g id="a_edge27_Node000004_Node000005"><a xlink:title=" ">
<path fill="none" stroke="#63b8ff" d="M737.56,-26C745.98,-26 754.54,-26 762.78,-26"/>
<polygon fill="#63b8ff" stroke="#63b8ff" points="737.37,-22.5 727.37,-26 737.37,-29.5 737.37,-22.5"/>
</a>
</g>
</g>
<!-- Node6 -->
<g id="Node000006" class="node">
<title>Node6</title>
<g id="a_Node000006"><a xlink:href="structtesting_1_1internal_1_1Function_3_01R_07A1_00_01A2_00_01A3_00_01A4_00_01A5_00_01A6_08_4.html" target="_top" xlink:title=" ">
<polygon fill="white" stroke="#666666" points="1027,-46.5 913,-46.5 913,-5.5 1027,-5.5 1027,-46.5"/>
<text text-anchor="start" x="921" y="-34.5" font-family="Helvetica,sans-Serif" font-size="10.00">testing::internal::</text>
<text text-anchor="start" x="921" y="-23.5" font-family="Helvetica,sans-Serif" font-size="10.00">Function&lt; R(A1, A2,</text>
<text text-anchor="middle" x="970" y="-12.5" font-family="Helvetica,sans-Serif" font-size="10.00"> A3, A4, A5, A6)&gt;</text>
</a>
</g>
</g>
<!-- Node5&#45;&gt;Node6 -->
<g id="edge28_Node000005_Node000006" class="edge">
<title>Node5&#45;&gt;Node6</title>
<g id="a_edge28_Node000005_Node000006"><a xlink:title=" ">
<path fill="none" stroke="#63b8ff" d="M887.56,-26C895.98,-26 904.54,-26 912.78,-26"/>
<polygon fill="#63b8ff" stroke="#63b8ff" points="887.37,-22.5 877.37,-26 887.37,-29.5 887.37,-22.5"/>
</a>
</g>
</g>
<!-- Node7 -->
<g id="Node000007" class="node">
<title>Node7</title>
<g id="a_Node000007"><a xlink:href="structtesting_1_1internal_1_1Function_3_01R_07A1_00_01A2_00_01A3_00_01A4_00_01A5_00_01A6_00_01A7_08_4.html" target="_top" xlink:title=" ">
<polygon fill="white" stroke="#666666" points="1182,-46.5 1063,-46.5 1063,-5.5 1182,-5.5 1182,-46.5"/>
<text text-anchor="start" x="1071" y="-34.5" font-family="Helvetica,sans-Serif" font-size="10.00">testing::internal::</text>
<text text-anchor="start" x="1071" y="-23.5" font-family="Helvetica,sans-Serif" font-size="10.00">Function&lt; R(A1, A2,</text>
<text text-anchor="middle" x="1122.5" y="-12.5" font-family="Helvetica,sans-Serif" font-size="10.00"> A3, A4, A5, A6, A7)&gt;</text>
</a>
</g>
</g>
<!-- Node6&#45;&gt;Node7 -->
<g id="edge29_Node000006_Node000007" class="edge">
<title>Node6&#45;&gt;Node7</title>
<g id="a_edge29_Node000006_Node000007"><a xlink:title=" ">
<path fill="none" stroke="#63b8ff" d="M1037.04,-26C1045.65,-26 1054.42,-26 1062.9,-26"/>
<polygon fill="#63b8ff" stroke="#63b8ff" points="1037.04,-22.5 1027.04,-26 1037.04,-29.5 1037.04,-22.5"/>
</a>
</g>
</g>
<!-- Node8 -->
<g id="Node000008" class="node">
<title>Node8</title>
<g id="a_Node000008"><a xlink:href="structtesting_1_1internal_1_1Function_3_01R_07A1_00_01A2_00_01A3_00_01A4_00_01A5_00_01A6_00_01A7_00_01A8_08_4.html" target="_top" xlink:title=" ">
<polygon fill="white" stroke="#666666" points="1356,-46.5 1218,-46.5 1218,-5.5 1356,-5.5 1356,-46.5"/>
<text text-anchor="start" x="1226" y="-34.5" font-family="Helvetica,sans-Serif" font-size="10.00">testing::internal::</text>
<text text-anchor="start" x="1226" y="-23.5" font-family="Helvetica,sans-Serif" font-size="10.00">Function&lt; R(A1, A2,</text>
<text text-anchor="middle" x="1287" y="-12.5" font-family="Helvetica,sans-Serif" font-size="10.00"> A3, A4, A5, A6, A7, A8)&gt;</text>
</a>
</g>
</g>
<!-- Node7&#45;&gt;Node8 -->
<g id="edge30_Node000007_Node000008" class="edge">
<title>Node7&#45;&gt;Node8</title>
<g id="a_edge30_Node000007_Node000008"><a xlink:title=" ">
<path fill="none" stroke="#63b8ff" d="M1192.32,-26C1200.74,-26 1209.34,-26 1217.75,-26"/>
<polygon fill="#63b8ff" stroke="#63b8ff" points="1192.17,-22.5 1182.17,-26 1192.17,-29.5 1192.17,-22.5"/>
</a>
</g>
</g>
<!-- Node9 -->
<g id="Node000009" class="node">
<title>Node9</title>
<g id="a_Node000009"><a xlink:href="structtesting_1_1internal_1_1Function_3_01R_07A1_00_01A2_00_01A3_00_01A4_00_01A5_00_01A6_00_01A7_00_01A8_00_01A9_08_4.html" target="_top" xlink:title=" ">
<polygon fill="white" stroke="#666666" points="1506,-52 1392,-52 1392,0 1506,0 1506,-52"/>
<text text-anchor="start" x="1400" y="-40" font-family="Helvetica,sans-Serif" font-size="10.00">testing::internal::</text>
<text text-anchor="start" x="1400" y="-29" font-family="Helvetica,sans-Serif" font-size="10.00">Function&lt; R(A1, A2,</text>
<text text-anchor="start" x="1400" y="-18" font-family="Helvetica,sans-Serif" font-size="10.00"> A3, A4, A5, A6, A7,</text>
<text text-anchor="middle" x="1449" y="-7" font-family="Helvetica,sans-Serif" font-size="10.00"> A8, A9)&gt;</text>
</a>
</g>
</g>
<!-- Node8&#45;&gt;Node9 -->
<g id="edge31_Node000008_Node000009" class="edge">
<title>Node8&#45;&gt;Node9</title>
<g id="a_edge31_Node000008_Node000009"><a xlink:title=" ">
<path fill="none" stroke="#63b8ff" d="M1366.41,-26C1375.04,-26 1383.69,-26 1391.97,-26"/>
<polygon fill="#63b8ff" stroke="#63b8ff" points="1366.32,-22.5 1356.32,-26 1366.32,-29.5 1366.32,-22.5"/>
</a>
</g>
</g>
<!-- Node10 -->
<g id="Node000010" class="node">
<title>Node10</title>
<g id="a_Node000010"><a xlink:href="structtesting_1_1internal_1_1Function_3_01R_07A1_00_01A2_00_01A3_00_01A4_00_01A5_00_01A6_00_01A7_00_01A8_00_01A9_00_01A10_08_4.html" target="_top" xlink:title=" ">
<polygon fill="white" stroke="#666666" points="1656,-52 1542,-52 1542,0 1656,0 1656,-52"/>
<text text-anchor="start" x="1550" y="-40" font-family="Helvetica,sans-Serif" font-size="10.00">testing::internal::</text>
<text text-anchor="start" x="1550" y="-29" font-family="Helvetica,sans-Serif" font-size="10.00">Function&lt; R(A1, A2,</text>
<text text-anchor="start" x="1550" y="-18" font-family="Helvetica,sans-Serif" font-size="10.00"> A3, A4, A5, A6, A7,</text>
<text text-anchor="middle" x="1599" y="-7" font-family="Helvetica,sans-Serif" font-size="10.00"> A8, A9, A10)&gt;</text>
</a>
</g>
</g>
<!-- Node9&#45;&gt;Node10 -->
<g id="edge32_Node000009_Node000010" class="edge">
<title>Node9&#45;&gt;Node10</title>
<g id="a_edge32_Node000009_Node000010"><a xlink:title=" ">
<path fill="none" stroke="#63b8ff" d="M1516.56,-26C1524.98,-26 1533.54,-26 1541.78,-26"/>
<polygon fill="#63b8ff" stroke="#63b8ff" points="1516.37,-22.5 1506.37,-26 1516.37,-29.5 1516.37,-22.5"/>
</a>
</g>
</g>
</g>
</svg>
