<?xml version="1.0" encoding="UTF-8" standalone="no"?>
<!DOCTYPE svg PUBLIC "-//W3C//DTD SVG 1.1//EN"
 "http://www.w3.org/Graphics/SVG/1.1/DTD/svg11.dtd">
<!-- Generated by graphviz version 2.43.0 (0)
 -->
<!-- Title: Graphical Class Hierarchy Pages: 1 -->
<svg width="810pt" height="1319pt"
 viewBox="0.00 0.00 810.00 1318.50" xmlns="http://www.w3.org/2000/svg" xmlns:xlink="http://www.w3.org/1999/xlink">
<g id="graph0" class="graph" transform="scale(1 1) rotate(0) translate(4 1314.5)">
<title>Graphical Class Hierarchy</title>
<!-- Node0 -->
<g id="Node000000" class="node">
<title>Node0</title>
<g id="a_Node000000"><a xlink:href="classtesting_1_1MatcherDescriberInterface.html" target="_top" xlink:title=" ">
<polygon fill="white" stroke="#666666" points="143,-537.5 0,-537.5 0,-507.5 143,-507.5 143,-537.5"/>
<text text-anchor="start" x="8" y="-525.5" font-family="Helvetica,sans-Serif" font-size="10.00">testing::MatcherDescriber</text>
<text text-anchor="middle" x="71.5" y="-514.5" font-family="Helvetica,sans-Serif" font-size="10.00">Interface</text>
</a>
</g>
</g>
<!-- Node1 -->
<g id="Node000001" class="node">
<title>Node1</title>
<g id="a_Node000001"><a xlink:href="classtesting_1_1MatcherInterface.html" target="_top" xlink:title=" ">
<polygon fill="white" stroke="#666666" points="339,-1051.5 189,-1051.5 189,-1021.5 339,-1021.5 339,-1051.5"/>
<text text-anchor="start" x="197" y="-1039.5" font-family="Helvetica,sans-Serif" font-size="10.00">testing::MatcherInterface</text>
<text text-anchor="middle" x="264" y="-1028.5" font-family="Helvetica,sans-Serif" font-size="10.00">&lt; const internal::string &amp; &gt;</text>
</a>
</g>
</g>
<!-- Node0&#45;&gt;Node1 -->
<g id="edge70_Node000000_Node000001" class="edge">
<title>Node0&#45;&gt;Node1</title>
<g id="a_edge70_Node000000_Node000001"><a xlink:title=" ">
<path fill="none" stroke="#63b8ff" d="M74.62,-547.81C82.67,-638.22 114.26,-943.46 179,-1012.5 182.22,-1015.93 185.89,-1018.88 189.85,-1021.42"/>
<polygon fill="#63b8ff" stroke="#63b8ff" points="78.09,-547.31 73.73,-537.66 71.11,-547.92 78.09,-547.31"/>
</a>
</g>
</g>
<!-- Node2 -->
<g id="Node000002" class="node">
<title>Node2</title>
<g id="a_Node000002"><a xlink:href="classtesting_1_1MatcherInterface.html" target="_top" xlink:title=" ">
<polygon fill="white" stroke="#666666" points="334,-1003.5 194,-1003.5 194,-973.5 334,-973.5 334,-1003.5"/>
<text text-anchor="start" x="202" y="-991.5" font-family="Helvetica,sans-Serif" font-size="10.00">testing::MatcherInterface</text>
<text text-anchor="middle" x="264" y="-980.5" font-family="Helvetica,sans-Serif" font-size="10.00">&lt; internal::string &gt;</text>
</a>
</g>
</g>
<!-- Node0&#45;&gt;Node2 -->
<g id="edge71_Node000000_Node000002" class="edge">
<title>Node0&#45;&gt;Node2</title>
<g id="a_edge71_Node000000_Node000002"><a xlink:title=" ">
<path fill="none" stroke="#63b8ff" d="M75.23,-547.52C84.89,-631.74 120.12,-903.1 179,-964.5 183.3,-968.99 188.38,-972.65 193.88,-975.65"/>
<polygon fill="#63b8ff" stroke="#63b8ff" points="78.7,-547.1 74.1,-537.55 71.75,-547.88 78.7,-547.1"/>
</a>
</g>
</g>
<!-- Node3 -->
<g id="Node000003" class="node">
<title>Node3</title>
<g id="a_Node000003"><a xlink:href="classtesting_1_1MatcherInterface.html" target="_top" xlink:title=" ">
<polygon fill="white" stroke="#666666" points="334,-955.5 194,-955.5 194,-925.5 334,-925.5 334,-955.5"/>
<text text-anchor="start" x="202" y="-943.5" font-family="Helvetica,sans-Serif" font-size="10.00">testing::MatcherInterface</text>
<text text-anchor="middle" x="264" y="-932.5" font-family="Helvetica,sans-Serif" font-size="10.00">&lt; ArgsTuple &gt;</text>
</a>
</g>
</g>
<!-- Node0&#45;&gt;Node3 -->
<g id="edge72_Node000000_Node000003" class="edge">
<title>Node0&#45;&gt;Node3</title>
<g id="a_edge72_Node000000_Node000003"><a xlink:title=" ">
<path fill="none" stroke="#63b8ff" d="M76.02,-547.58C87.48,-625.73 126.03,-862.76 179,-916.5 183.26,-920.82 188.24,-924.38 193.61,-927.3"/>
<polygon fill="#63b8ff" stroke="#63b8ff" points="79.48,-547.05 74.59,-537.65 72.55,-548.05 79.48,-547.05"/>
</a>
</g>
</g>
<!-- Node5 -->
<g id="Node000005" class="node">
<title>Node5</title>
<g id="a_Node000005"><a xlink:href="classtesting_1_1MatcherInterface.html" target="_top" xlink:title=" ">
<polygon fill="white" stroke="#666666" points="334,-907.5 194,-907.5 194,-877.5 334,-877.5 334,-907.5"/>
<text text-anchor="start" x="202" y="-895.5" font-family="Helvetica,sans-Serif" font-size="10.00">testing::MatcherInterface</text>
<text text-anchor="middle" x="264" y="-884.5" font-family="Helvetica,sans-Serif" font-size="10.00">&lt; Container &gt;</text>
</a>
</g>
</g>
<!-- Node0&#45;&gt;Node5 -->
<g id="edge74_Node000000_Node000005" class="edge">
<title>Node0&#45;&gt;Node5</title>
<g id="a_edge74_Node000000_Node000005"><a xlink:title=" ">
<path fill="none" stroke="#63b8ff" d="M72.64,-548.06C74.42,-611.49 88.01,-777.43 179,-867.5 183.33,-871.78 188.35,-875.34 193.75,-878.28"/>
<polygon fill="#63b8ff" stroke="#63b8ff" points="76.14,-547.71 72.44,-537.79 69.14,-547.86 76.14,-547.71"/>
</a>
</g>
</g>
<!-- Node13 -->
<g id="Node000013" class="node">
<title>Node13</title>
<g id="a_Node000013"><a xlink:href="classtesting_1_1MatcherInterface.html" target="_top" xlink:title=" ">
<polygon fill="white" stroke="#666666" points="334,-751.5 194,-751.5 194,-721.5 334,-721.5 334,-751.5"/>
<text text-anchor="start" x="202" y="-739.5" font-family="Helvetica,sans-Serif" font-size="10.00">testing::MatcherInterface</text>
<text text-anchor="middle" x="264" y="-728.5" font-family="Helvetica,sans-Serif" font-size="10.00">&lt; PairType &gt;</text>
</a>
</g>
</g>
<!-- Node0&#45;&gt;Node13 -->
<g id="edge81_Node000000_Node000013" class="edge">
<title>Node0&#45;&gt;Node13</title>
<g id="a_edge81_Node000000_Node000013"><a xlink:title=" ">
<path fill="none" stroke="#63b8ff" d="M79.6,-547.38C92.51,-588.1 123.75,-668.81 179,-712.5 183.52,-716.07 188.55,-719.12 193.84,-721.71"/>
<polygon fill="#63b8ff" stroke="#63b8ff" points="82.91,-546.24 76.64,-537.7 76.22,-548.29 82.91,-546.24"/>
</a>
</g>
</g>
<!-- Node16 -->
<g id="Node000016" class="node">
<title>Node16</title>
<g id="a_Node000016"><a xlink:href="classtesting_1_1MatcherInterface.html" target="_top" xlink:title=" ">
<polygon fill="white" stroke="#666666" points="334,-799.5 194,-799.5 194,-769.5 334,-769.5 334,-799.5"/>
<text text-anchor="start" x="202" y="-787.5" font-family="Helvetica,sans-Serif" font-size="10.00">testing::MatcherInterface</text>
<text text-anchor="middle" x="264" y="-776.5" font-family="Helvetica,sans-Serif" font-size="10.00">&lt; Pointer &gt;</text>
</a>
</g>
</g>
<!-- Node0&#45;&gt;Node16 -->
<g id="edge84_Node000000_Node000016" class="edge">
<title>Node0&#45;&gt;Node16</title>
<g id="a_edge84_Node000000_Node000016"><a xlink:title=" ">
<path fill="none" stroke="#63b8ff" d="M76.56,-547.62C85.74,-596.14 112.7,-703.03 179,-760.5 183.47,-764.37 188.53,-767.63 193.89,-770.35"/>
<polygon fill="#63b8ff" stroke="#63b8ff" points="79.98,-546.88 74.77,-537.66 73.09,-548.12 79.98,-546.88"/>
</a>
</g>
</g>
<!-- Node17 -->
<g id="Node000017" class="node">
<title>Node17</title>
<g id="a_Node000017"><a xlink:href="classtesting_1_1MatcherInterface.html" target="_top" xlink:title=" ">
<polygon fill="white" stroke="#666666" points="334,-89.5 194,-89.5 194,-59.5 334,-59.5 334,-89.5"/>
<text text-anchor="start" x="202" y="-77.5" font-family="Helvetica,sans-Serif" font-size="10.00">testing::MatcherInterface</text>
<text text-anchor="middle" x="264" y="-66.5" font-family="Helvetica,sans-Serif" font-size="10.00">&lt; LhsContainer &gt;</text>
</a>
</g>
</g>
<!-- Node0&#45;&gt;Node17 -->
<g id="edge85_Node000000_Node000017" class="edge">
<title>Node0&#45;&gt;Node17</title>
<g id="a_edge85_Node000000_Node000017"><a xlink:title=" ">
<path fill="none" stroke="#63b8ff" d="M75.54,-497.15C85.91,-414.83 122.41,-156.94 179,-98.5 183.33,-94.03 188.42,-90.38 193.93,-87.4"/>
<polygon fill="#63b8ff" stroke="#63b8ff" points="72.06,-496.79 74.3,-507.14 79.01,-497.65 72.06,-496.79"/>
</a>
</g>
</g>
<!-- Node20 -->
<g id="Node000020" class="node">
<title>Node20</title>
<g id="a_Node000020"><a xlink:href="classtesting_1_1MatcherInterface.html" target="_top" xlink:title=" ">
<polygon fill="white" stroke="#666666" points="334,-703.5 194,-703.5 194,-673.5 334,-673.5 334,-703.5"/>
<text text-anchor="start" x="202" y="-691.5" font-family="Helvetica,sans-Serif" font-size="10.00">testing::MatcherInterface</text>
<text text-anchor="middle" x="264" y="-680.5" font-family="Helvetica,sans-Serif" font-size="10.00">&lt; Super &amp; &gt;</text>
</a>
</g>
</g>
<!-- Node0&#45;&gt;Node20 -->
<g id="edge88_Node000000_Node000020" class="edge">
<title>Node0&#45;&gt;Node20</title>
<g id="a_edge88_Node000000_Node000020"><a xlink:title=" ">
<path fill="none" stroke="#63b8ff" d="M84.42,-547.02C101.16,-578.85 134.6,-633.94 179,-664.5 184,-667.94 189.48,-670.89 195.18,-673.42"/>
<polygon fill="#63b8ff" stroke="#63b8ff" points="87.45,-545.25 79.77,-537.94 81.22,-548.44 87.45,-545.25"/>
</a>
</g>
</g>
<!-- Node21 -->
<g id="Node000021" class="node">
<title>Node21</title>
<g id="a_Node000021"><a xlink:href="classtesting_1_1MatcherInterface.html" target="_top" xlink:title=" ">
<polygon fill="white" stroke="#666666" points="334,-655.5 194,-655.5 194,-625.5 334,-625.5 334,-655.5"/>
<text text-anchor="start" x="202" y="-643.5" font-family="Helvetica,sans-Serif" font-size="10.00">testing::MatcherInterface</text>
<text text-anchor="middle" x="264" y="-632.5" font-family="Helvetica,sans-Serif" font-size="10.00">&lt; const Element &amp; &gt;</text>
</a>
</g>
</g>
<!-- Node0&#45;&gt;Node21 -->
<g id="edge89_Node000000_Node000021" class="edge">
<title>Node0&#45;&gt;Node21</title>
<g id="a_edge89_Node000000_Node000021"><a xlink:title=" ">
<path fill="none" stroke="#63b8ff" d="M92.74,-545.48C112.69,-566.79 145.05,-597.92 179,-616.5 185.25,-619.92 192.04,-622.9 198.96,-625.47"/>
<polygon fill="#63b8ff" stroke="#63b8ff" points="95.07,-542.84 85.73,-537.84 89.91,-547.58 95.07,-542.84"/>
</a>
</g>
</g>
<!-- Node22 -->
<g id="Node000022" class="node">
<title>Node22</title>
<g id="a_Node000022"><a xlink:href="classtesting_1_1MatcherInterface.html" target="_top" xlink:title=" ">
<polygon fill="white" stroke="#666666" points="334,-607.5 194,-607.5 194,-577.5 334,-577.5 334,-607.5"/>
<text text-anchor="start" x="202" y="-595.5" font-family="Helvetica,sans-Serif" font-size="10.00">testing::MatcherInterface</text>
<text text-anchor="middle" x="264" y="-584.5" font-family="Helvetica,sans-Serif" font-size="10.00">&lt; const FieldType &amp; &gt;</text>
</a>
</g>
</g>
<!-- Node0&#45;&gt;Node22 -->
<g id="edge90_Node000000_Node000022" class="edge">
<title>Node0&#45;&gt;Node22</title>
<g id="a_edge90_Node000000_Node000022"><a xlink:title=" ">
<path fill="none" stroke="#63b8ff" d="M113.9,-541.87C133.42,-550.61 157.16,-560.7 179,-568.5 187.86,-571.66 197.35,-574.7 206.65,-577.49"/>
<polygon fill="#63b8ff" stroke="#63b8ff" points="115.25,-538.63 104.69,-537.7 112.36,-545.01 115.25,-538.63"/>
</a>
</g>
</g>
<!-- Node23 -->
<g id="Node000023" class="node">
<title>Node23</title>
<g id="a_Node000023"><a xlink:href="classtesting_1_1MatcherInterface.html" target="_top" xlink:title=" ">
<polygon fill="white" stroke="#666666" points="334,-559.5 194,-559.5 194,-529.5 334,-529.5 334,-559.5"/>
<text text-anchor="start" x="202" y="-547.5" font-family="Helvetica,sans-Serif" font-size="10.00">testing::MatcherInterface</text>
<text text-anchor="middle" x="264" y="-536.5" font-family="Helvetica,sans-Serif" font-size="10.00">&lt; const KeyType &amp; &gt;</text>
</a>
</g>
</g>
<!-- Node0&#45;&gt;Node23 -->
<g id="edge91_Node000000_Node000023" class="edge">
<title>Node0&#45;&gt;Node23</title>
<g id="a_edge91_Node000000_Node000023"><a xlink:title=" ">
<path fill="none" stroke="#63b8ff" d="M153.34,-531.84C166.78,-533.39 180.6,-534.98 193.72,-536.5"/>
<polygon fill="#63b8ff" stroke="#63b8ff" points="153.5,-528.33 143.16,-530.66 152.7,-535.28 153.5,-528.33"/>
</a>
</g>
</g>
<!-- Node24 -->
<g id="Node000024" class="node">
<title>Node24</title>
<g id="a_Node000024"><a xlink:href="classtesting_1_1MatcherInterface.html" target="_top" xlink:title=" ">
<polygon fill="white" stroke="#666666" points="349,-511 179,-511 179,-492 349,-492 349,-511"/>
<text text-anchor="middle" x="264" y="-499" font-family="Helvetica,sans-Serif" font-size="10.00">testing::MatcherInterface&lt; U &gt;</text>
</a>
</g>
</g>
<!-- Node0&#45;&gt;Node24 -->
<g id="edge92_Node000000_Node000024" class="edge">
<title>Node0&#45;&gt;Node24</title>
<g id="a_edge92_Node000000_Node000024"><a xlink:title=" ">
<path fill="none" stroke="#63b8ff" d="M153.38,-513.58C161.83,-512.65 170.44,-511.7 178.92,-510.77"/>
<polygon fill="#63b8ff" stroke="#63b8ff" points="152.72,-510.14 143.16,-514.71 153.49,-517.09 152.72,-510.14"/>
</a>
</g>
</g>
<!-- Node25 -->
<g id="Node000025" class="node">
<title>Node25</title>
<g id="a_Node000025"><a xlink:href="classtesting_1_1MatcherInterface.html" target="_top" xlink:title=" ">
<polygon fill="white" stroke="#666666" points="340,-473.5 188,-473.5 188,-443.5 340,-443.5 340,-473.5"/>
<text text-anchor="start" x="196" y="-461.5" font-family="Helvetica,sans-Serif" font-size="10.00">testing::MatcherInterface</text>
<text text-anchor="middle" x="264" y="-450.5" font-family="Helvetica,sans-Serif" font-size="10.00">&lt; const ArgumentTuple &amp; &gt;</text>
</a>
</g>
</g>
<!-- Node0&#45;&gt;Node25 -->
<g id="edge93_Node000000_Node000025" class="edge">
<title>Node0&#45;&gt;Node25</title>
<g id="a_edge93_Node000000_Node000025"><a xlink:title=" ">
<path fill="none" stroke="#63b8ff" d="M119.53,-503.9C137.96,-496.86 159.36,-488.98 179,-482.5 188.22,-479.46 198.08,-476.44 207.68,-473.62"/>
<polygon fill="#63b8ff" stroke="#63b8ff" points="118.26,-500.64 110.19,-507.49 120.78,-507.17 118.26,-500.64"/>
</a>
</g>
</g>
<!-- Node26 -->
<g id="Node000026" class="node">
<title>Node26</title>
<g id="a_Node000026"><a xlink:href="classtesting_1_1MatcherInterface.html" target="_top" xlink:title=" ">
<polygon fill="white" stroke="#666666" points="334,-425.5 194,-425.5 194,-395.5 334,-395.5 334,-425.5"/>
<text text-anchor="start" x="202" y="-413.5" font-family="Helvetica,sans-Serif" font-size="10.00">testing::MatcherInterface</text>
<text text-anchor="middle" x="264" y="-402.5" font-family="Helvetica,sans-Serif" font-size="10.00">&lt; const FirstType &amp; &gt;</text>
</a>
</g>
</g>
<!-- Node0&#45;&gt;Node26 -->
<g id="edge94_Node000000_Node000026" class="edge">
<title>Node0&#45;&gt;Node26</title>
<g id="a_edge94_Node000000_Node000026"><a xlink:title=" ">
<path fill="none" stroke="#63b8ff" d="M94.07,-500.03C114.29,-480.16 146.25,-451.73 179,-434.5 185.44,-431.11 192.42,-428.15 199.51,-425.57"/>
<polygon fill="#63b8ff" stroke="#63b8ff" points="91.51,-497.63 86.91,-507.18 96.46,-502.58 91.51,-497.63"/>
</a>
</g>
</g>
<!-- Node27 -->
<g id="Node000027" class="node">
<title>Node27</title>
<g id="a_Node000027"><a xlink:href="classtesting_1_1MatcherInterface.html" target="_top" xlink:title=" ">
<polygon fill="white" stroke="#666666" points="334,-377.5 194,-377.5 194,-347.5 334,-347.5 334,-377.5"/>
<text text-anchor="start" x="202" y="-365.5" font-family="Helvetica,sans-Serif" font-size="10.00">testing::MatcherInterface</text>
<text text-anchor="middle" x="264" y="-354.5" font-family="Helvetica,sans-Serif" font-size="10.00">&lt; const SecondType &amp; &gt;</text>
</a>
</g>
</g>
<!-- Node0&#45;&gt;Node27 -->
<g id="edge95_Node000000_Node000027" class="edge">
<title>Node0&#45;&gt;Node27</title>
<g id="a_edge95_Node000000_Node000027"><a xlink:title=" ">
<path fill="none" stroke="#63b8ff" d="M85.18,-498.15C102.36,-467.54 135.9,-415.51 179,-386.5 184.16,-383.03 189.82,-380.05 195.69,-377.5"/>
<polygon fill="#63b8ff" stroke="#63b8ff" points="81.91,-496.83 80.18,-507.28 88.05,-500.18 81.91,-496.83"/>
</a>
</g>
</g>
<!-- Node28 -->
<g id="Node000028" class="node">
<title>Node28</title>
<g id="a_Node000028"><a xlink:href="classtesting_1_1MatcherInterface.html" target="_top" xlink:title=" ">
<polygon fill="white" stroke="#666666" points="334,-329.5 194,-329.5 194,-299.5 334,-299.5 334,-329.5"/>
<text text-anchor="start" x="202" y="-317.5" font-family="Helvetica,sans-Serif" font-size="10.00">testing::MatcherInterface</text>
<text text-anchor="middle" x="264" y="-306.5" font-family="Helvetica,sans-Serif" font-size="10.00">&lt; const Pointee &amp; &gt;</text>
</a>
</g>
</g>
<!-- Node0&#45;&gt;Node28 -->
<g id="edge96_Node000000_Node000028" class="edge">
<title>Node0&#45;&gt;Node28</title>
<g id="a_edge96_Node000000_Node000028"><a xlink:title=" ">
<path fill="none" stroke="#63b8ff" d="M80.11,-497.56C93.52,-457.85 125.16,-380.48 179,-338.5 183.55,-334.96 188.59,-331.94 193.89,-329.36"/>
<polygon fill="#63b8ff" stroke="#63b8ff" points="76.72,-496.66 76.95,-507.25 83.38,-498.83 76.72,-496.66"/>
</a>
</g>
</g>
<!-- Node29 -->
<g id="Node000029" class="node">
<title>Node29</title>
<g id="a_Node000029"><a xlink:href="classtesting_1_1MatcherInterface.html" target="_top" xlink:title=" ">
<polygon fill="white" stroke="#666666" points="334,-281.5 194,-281.5 194,-251.5 334,-251.5 334,-281.5"/>
<text text-anchor="start" x="202" y="-269.5" font-family="Helvetica,sans-Serif" font-size="10.00">testing::MatcherInterface</text>
<text text-anchor="middle" x="264" y="-258.5" font-family="Helvetica,sans-Serif" font-size="10.00">&lt; std::tr1::tuple &gt;</text>
</a>
</g>
</g>
<!-- Node0&#45;&gt;Node29 -->
<g id="edge97_Node000000_Node000029" class="edge">
<title>Node0&#45;&gt;Node29</title>
<g id="a_edge97_Node000000_Node000029"><a xlink:title=" ">
<path fill="none" stroke="#63b8ff" d="M76.89,-497.36C86.53,-449.75 114.11,-346.21 179,-290.5 183.49,-286.65 188.56,-283.41 193.93,-280.69"/>
<polygon fill="#63b8ff" stroke="#63b8ff" points="73.41,-496.94 74.95,-507.42 80.28,-498.26 73.41,-496.94"/>
</a>
</g>
</g>
<!-- Node30 -->
<g id="Node000030" class="node">
<title>Node30</title>
<g id="a_Node000030"><a xlink:href="classtesting_1_1MatcherInterface.html" target="_top" xlink:title=" ">
<polygon fill="white" stroke="#666666" points="334,-233.5 194,-233.5 194,-203.5 334,-203.5 334,-233.5"/>
<text text-anchor="start" x="202" y="-221.5" font-family="Helvetica,sans-Serif" font-size="10.00">testing::MatcherInterface</text>
<text text-anchor="middle" x="264" y="-210.5" font-family="Helvetica,sans-Serif" font-size="10.00">&lt; RefToConstProperty &gt;</text>
</a>
</g>
</g>
<!-- Node0&#45;&gt;Node30 -->
<g id="edge98_Node000000_Node000030" class="edge">
<title>Node0&#45;&gt;Node30</title>
<g id="a_edge98_Node000000_Node000030"><a xlink:title=" ">
<path fill="none" stroke="#63b8ff" d="M74.67,-497.29C80.74,-442.61 102.84,-312.43 179,-242.5 183.36,-238.5 188.34,-235.16 193.65,-232.37"/>
<polygon fill="#63b8ff" stroke="#63b8ff" points="71.16,-497.16 73.63,-507.47 78.13,-497.88 71.16,-497.16"/>
</a>
</g>
</g>
<!-- Node31 -->
<g id="Node000031" class="node">
<title>Node31</title>
<g id="a_Node000031"><a xlink:href="classtesting_1_1MatcherInterface.html" target="_top" xlink:title=" ">
<polygon fill="white" stroke="#666666" points="334,-185.5 194,-185.5 194,-155.5 334,-155.5 334,-185.5"/>
<text text-anchor="start" x="202" y="-173.5" font-family="Helvetica,sans-Serif" font-size="10.00">testing::MatcherInterface</text>
<text text-anchor="middle" x="264" y="-162.5" font-family="Helvetica,sans-Serif" font-size="10.00">&lt; ResultType &gt;</text>
</a>
</g>
</g>
<!-- Node0&#45;&gt;Node31 -->
<g id="edge99_Node000000_Node000031" class="edge">
<title>Node0&#45;&gt;Node31</title>
<g id="a_edge99_Node000000_Node000031"><a xlink:title=" ">
<path fill="none" stroke="#63b8ff" d="M73.06,-496.88C75.84,-435.49 91.6,-278.84 179,-194.5 183.37,-190.29 188.42,-186.81 193.84,-183.93"/>
<polygon fill="#63b8ff" stroke="#63b8ff" points="69.55,-497.07 72.68,-507.2 76.55,-497.33 69.55,-497.07"/>
</a>
</g>
</g>
<!-- Node32 -->
<g id="Node000032" class="node">
<title>Node32</title>
<g id="a_Node000032"><a xlink:href="classtesting_1_1MatcherInterface.html" target="_top" xlink:title=" ">
<polygon fill="white" stroke="#666666" points="334,-137.5 194,-137.5 194,-107.5 334,-107.5 334,-137.5"/>
<text text-anchor="start" x="202" y="-125.5" font-family="Helvetica,sans-Serif" font-size="10.00">testing::MatcherInterface</text>
<text text-anchor="middle" x="264" y="-114.5" font-family="Helvetica,sans-Serif" font-size="10.00">&lt; SizeType &gt;</text>
</a>
</g>
</g>
<!-- Node0&#45;&gt;Node32 -->
<g id="edge100_Node000000_Node000032" class="edge">
<title>Node0&#45;&gt;Node32</title>
<g id="a_edge100_Node000000_Node000032"><a xlink:title=" ">
<path fill="none" stroke="#63b8ff" d="M71.81,-497.35C71.4,-430.36 79.82,-245.91 179,-146.5 183.28,-142.21 188.28,-138.67 193.66,-135.75"/>
<polygon fill="#63b8ff" stroke="#63b8ff" points="68.31,-497.46 71.95,-507.41 75.31,-497.37 68.31,-497.46"/>
</a>
</g>
</g>
<!-- Node33 -->
<g id="Node000033" class="node">
<title>Node33</title>
<g id="a_Node000033"><a xlink:href="classtesting_1_1MatcherInterface.html" target="_top" xlink:title=" ">
<polygon fill="white" stroke="#666666" points="334,-41 194,-41 194,0 334,0 334,-41"/>
<text text-anchor="start" x="202" y="-29" font-family="Helvetica,sans-Serif" font-size="10.00">testing::MatcherInterface</text>
<text text-anchor="start" x="202" y="-18" font-family="Helvetica,sans-Serif" font-size="10.00">&lt; const ::std::vector&lt;</text>
<text text-anchor="middle" x="264" y="-7" font-family="Helvetica,sans-Serif" font-size="10.00"> LhsValue &gt; &amp; &gt;</text>
</a>
</g>
</g>
<!-- Node0&#45;&gt;Node33 -->
<g id="edge101_Node000000_Node000033" class="edge">
<title>Node0&#45;&gt;Node33</title>
<g id="a_edge101_Node000000_Node000033"><a xlink:title=" ">
<path fill="none" stroke="#63b8ff" d="M75.05,-496.81C84.3,-408.42 118.78,-118.5 179,-50.5 183.21,-45.75 188.23,-41.75 193.68,-38.38"/>
<polygon fill="#63b8ff" stroke="#63b8ff" points="71.54,-496.71 74,-507.02 78.51,-497.43 71.54,-496.71"/>
</a>
</g>
</g>
<!-- Node34 -->
<g id="Node000034" class="node">
<title>Node34</title>
<g id="a_Node000034"><a xlink:href="classtesting_1_1MatcherInterface.html" target="_top" xlink:title=" ">
<polygon fill="white" stroke="#666666" points="348,-1176 180,-1176 180,-1157 348,-1157 348,-1176"/>
<text text-anchor="middle" x="264" y="-1164" font-family="Helvetica,sans-Serif" font-size="10.00">testing::MatcherInterface&lt; T &gt;</text>
</a>
</g>
</g>
<!-- Node0&#45;&gt;Node34 -->
<g id="edge102_Node000000_Node000034" class="edge">
<title>Node0&#45;&gt;Node34</title>
<g id="a_edge102_Node000000_Node000034"><a xlink:title=" ">
<path fill="none" stroke="#63b8ff" d="M73.33,-547.91C76.78,-627.37 94.14,-876.82 179,-1060.5 197.61,-1100.79 234.53,-1139.36 252.58,-1156.8"/>
<polygon fill="#63b8ff" stroke="#63b8ff" points="76.82,-547.7 72.93,-537.85 69.83,-547.98 76.82,-547.7"/>
</a>
</g>
</g>
<!-- Node4 -->
<g id="Node000004" class="node">
<title>Node4</title>
<g id="a_Node000004"><a xlink:href="classtesting_1_1internal_1_1ArgsMatcherImpl.html" target="_top" xlink:title=" ">
<polygon fill="white" stroke="#666666" points="570.5,-1058.5 409.5,-1058.5 409.5,-1006.5 570.5,-1006.5 570.5,-1058.5"/>
<text text-anchor="start" x="417.5" y="-1046.5" font-family="Helvetica,sans-Serif" font-size="10.00">testing::internal::</text>
<text text-anchor="start" x="417.5" y="-1035.5" font-family="Helvetica,sans-Serif" font-size="10.00">ArgsMatcherImpl&lt; ArgsTuple,</text>
<text text-anchor="start" x="417.5" y="-1024.5" font-family="Helvetica,sans-Serif" font-size="10.00"> k0, k1, k2, k3, k4, k5,</text>
<text text-anchor="middle" x="490" y="-1013.5" font-family="Helvetica,sans-Serif" font-size="10.00"> k6, k7, k8, k9 &gt;</text>
</a>
</g>
</g>
<!-- Node3&#45;&gt;Node4 -->
<g id="edge73_Node000003_Node000004" class="edge">
<title>Node3&#45;&gt;Node4</title>
<g id="a_edge73_Node000003_Node000004"><a xlink:title=" ">
<path fill="none" stroke="#63b8ff" d="M338.34,-959.26C342.01,-960.88 345.58,-962.62 349,-964.5 367.76,-974.81 366.53,-985.68 385,-996.5 392.67,-1000.99 400.98,-1005.04 409.45,-1008.65"/>
<polygon fill="#63b8ff" stroke="#63b8ff" points="339.64,-956.02 329.05,-955.51 337.01,-962.5 339.64,-956.02"/>
</a>
</g>
</g>
<!-- Node6 -->
<g id="Node000006" class="node">
<title>Node6</title>
<g id="a_Node000006"><a xlink:href="classtesting_1_1internal_1_1ElementsAreMatcherImpl.html" target="_top" xlink:title=" ">
<polygon fill="white" stroke="#666666" points="560,-988 420,-988 420,-947 560,-947 560,-988"/>
<text text-anchor="start" x="428" y="-976" font-family="Helvetica,sans-Serif" font-size="10.00">testing::internal::</text>
<text text-anchor="start" x="428" y="-965" font-family="Helvetica,sans-Serif" font-size="10.00">ElementsAreMatcherImpl</text>
<text text-anchor="middle" x="490" y="-954" font-family="Helvetica,sans-Serif" font-size="10.00">&lt; Container &gt;</text>
</a>
</g>
</g>
<!-- Node5&#45;&gt;Node6 -->
<g id="edge75_Node000005_Node000006" class="edge">
<title>Node5&#45;&gt;Node6</title>
<g id="a_edge75_Node000005_Node000006"><a xlink:title=" ">
<path fill="none" stroke="#63b8ff" d="M334.46,-910.85C339.43,-912.62 344.32,-914.51 349,-916.5 366.04,-923.77 367.97,-930.21 385,-937.5 396.06,-942.23 408.08,-946.47 419.91,-950.17"/>
<polygon fill="#63b8ff" stroke="#63b8ff" points="335.44,-907.49 324.84,-907.6 333.19,-914.12 335.44,-907.49"/>
</a>
</g>
</g>
<!-- Node7 -->
<g id="Node000007" class="node">
<title>Node7</title>
<g id="a_Node000007"><a xlink:href="classtesting_1_1internal_1_1QuantifierMatcherImpl.html" target="_top" xlink:title=" ">
<polygon fill="white" stroke="#666666" points="553,-929 427,-929 427,-888 553,-888 553,-929"/>
<text text-anchor="start" x="435" y="-917" font-family="Helvetica,sans-Serif" font-size="10.00">testing::internal::</text>
<text text-anchor="start" x="435" y="-906" font-family="Helvetica,sans-Serif" font-size="10.00">QuantifierMatcherImpl</text>
<text text-anchor="middle" x="490" y="-895" font-family="Helvetica,sans-Serif" font-size="10.00">&lt; Container &gt;</text>
</a>
</g>
</g>
<!-- Node5&#45;&gt;Node7 -->
<g id="edge76_Node000005_Node000007" class="edge">
<title>Node5&#45;&gt;Node7</title>
<g id="a_edge76_Node000005_Node000007"><a xlink:title=" ">
<path fill="none" stroke="#63b8ff" d="M344.25,-898.16C371.3,-900.09 401.14,-902.22 426.66,-904.05"/>
<polygon fill="#63b8ff" stroke="#63b8ff" points="344.26,-894.65 334.04,-897.43 343.76,-901.63 344.26,-894.65"/>
</a>
</g>
</g>
<!-- Node10 -->
<g id="Node000010" class="node">
<title>Node10</title>
<g id="a_Node000010"><a xlink:href="classtesting_1_1internal_1_1SizeIsMatcher_1_1Impl.html" target="_top" xlink:title=" ">
<polygon fill="white" stroke="#666666" points="568,-870 412,-870 412,-829 568,-829 568,-870"/>
<text text-anchor="start" x="420" y="-858" font-family="Helvetica,sans-Serif" font-size="10.00">testing::internal::</text>
<text text-anchor="start" x="420" y="-847" font-family="Helvetica,sans-Serif" font-size="10.00">SizeIsMatcher&lt; SizeMatcher</text>
<text text-anchor="middle" x="490" y="-836" font-family="Helvetica,sans-Serif" font-size="10.00"> &gt;::Impl&lt; Container &gt;</text>
</a>
</g>
</g>
<!-- Node5&#45;&gt;Node10 -->
<g id="edge79_Node000005_Node000010" class="edge">
<title>Node5&#45;&gt;Node10</title>
<g id="a_edge79_Node000005_Node000010"><a xlink:title=" ">
<path fill="none" stroke="#63b8ff" d="M344.03,-877.33C366.1,-873.09 390.04,-868.5 411.99,-864.28"/>
<polygon fill="#63b8ff" stroke="#63b8ff" points="343.2,-873.93 334.04,-879.25 344.52,-880.8 343.2,-873.93"/>
</a>
</g>
</g>
<!-- Node11 -->
<g id="Node000011" class="node">
<title>Node11</title>
<g id="a_Node000011"><a xlink:href="classtesting_1_1internal_1_1UnorderedElementsAreMatcherImpl.html" target="_top" xlink:title=" ">
<polygon fill="white" stroke="#666666" points="575,-811 405,-811 405,-770 575,-770 575,-811"/>
<text text-anchor="start" x="413" y="-799" font-family="Helvetica,sans-Serif" font-size="10.00">testing::internal::</text>
<text text-anchor="start" x="413" y="-788" font-family="Helvetica,sans-Serif" font-size="10.00">UnorderedElementsAreMatcher</text>
<text text-anchor="middle" x="490" y="-777" font-family="Helvetica,sans-Serif" font-size="10.00">Impl&lt; Container &gt;</text>
</a>
</g>
</g>
<!-- Node5&#45;&gt;Node11 -->
<g id="edge80_Node000005_Node000011" class="edge">
<title>Node5&#45;&gt;Node11</title>
<g id="a_edge80_Node000005_Node000011"><a xlink:title=" ">
<path fill="none" stroke="#63b8ff" d="M340.36,-872.82C343.36,-871.18 346.25,-869.41 349,-867.5 370.88,-852.26 362.99,-834.55 385,-819.5 391.11,-815.32 397.81,-811.74 404.78,-808.68"/>
<polygon fill="#63b8ff" stroke="#63b8ff" points="338.56,-869.8 331.11,-877.33 341.63,-876.09 338.56,-869.8"/>
</a>
</g>
</g>
<!-- Node8 -->
<g id="Node000008" class="node">
<title>Node8</title>
<g id="a_Node000008"><a xlink:href="classtesting_1_1internal_1_1ContainsMatcherImpl.html" target="_top" xlink:title=" ">
<polygon fill="white" stroke="#666666" points="777,-956 656,-956 656,-915 777,-915 777,-956"/>
<text text-anchor="start" x="664" y="-944" font-family="Helvetica,sans-Serif" font-size="10.00">testing::internal::</text>
<text text-anchor="start" x="664" y="-933" font-family="Helvetica,sans-Serif" font-size="10.00">ContainsMatcherImpl</text>
<text text-anchor="middle" x="716.5" y="-922" font-family="Helvetica,sans-Serif" font-size="10.00">&lt; Container &gt;</text>
</a>
</g>
</g>
<!-- Node7&#45;&gt;Node8 -->
<g id="edge77_Node000007_Node000008" class="edge">
<title>Node7&#45;&gt;Node8</title>
<g id="a_edge77_Node000007_Node000008"><a xlink:title=" ">
<path fill="none" stroke="#63b8ff" d="M563.2,-917.18C593.11,-920.78 627.4,-924.9 655.85,-928.33"/>
<polygon fill="#63b8ff" stroke="#63b8ff" points="563.58,-913.7 553.24,-915.99 562.75,-920.65 563.58,-913.7"/>
</a>
</g>
</g>
<!-- Node9 -->
<g id="Node000009" class="node">
<title>Node9</title>
<g id="a_Node000009"><a xlink:href="classtesting_1_1internal_1_1EachMatcherImpl.html" target="_top" xlink:title=" ">
<polygon fill="white" stroke="#666666" points="802,-896.5 631,-896.5 631,-866.5 802,-866.5 802,-896.5"/>
<text text-anchor="start" x="639" y="-884.5" font-family="Helvetica,sans-Serif" font-size="10.00">testing::internal::</text>
<text text-anchor="middle" x="716.5" y="-873.5" font-family="Helvetica,sans-Serif" font-size="10.00">EachMatcherImpl&lt; Container &gt;</text>
</a>
</g>
</g>
<!-- Node7&#45;&gt;Node9 -->
<g id="edge78_Node000007_Node000009" class="edge">
<title>Node7&#45;&gt;Node9</title>
<g id="a_edge78_Node000007_Node000009"><a xlink:title=" ">
<path fill="none" stroke="#63b8ff" d="M563.28,-899.81C584.82,-897.22 608.61,-894.36 630.86,-891.68"/>
<polygon fill="#63b8ff" stroke="#63b8ff" points="562.75,-896.35 553.24,-901.01 563.58,-903.3 562.75,-896.35"/>
</a>
</g>
</g>
<!-- Node14 -->
<g id="Node000014" class="node">
<title>Node14</title>
<g id="a_Node000014"><a xlink:href="classtesting_1_1internal_1_1KeyMatcherImpl.html" target="_top" xlink:title=" ">
<polygon fill="white" stroke="#666666" points="569.5,-703.5 410.5,-703.5 410.5,-673.5 569.5,-673.5 569.5,-703.5"/>
<text text-anchor="start" x="418.5" y="-691.5" font-family="Helvetica,sans-Serif" font-size="10.00">testing::internal::</text>
<text text-anchor="middle" x="490" y="-680.5" font-family="Helvetica,sans-Serif" font-size="10.00">KeyMatcherImpl&lt; PairType &gt;</text>
</a>
</g>
</g>
<!-- Node13&#45;&gt;Node14 -->
<g id="edge82_Node000013_Node000014" class="edge">
<title>Node13&#45;&gt;Node14</title>
<g id="a_edge82_Node000013_Node000014"><a xlink:title=" ">
<path fill="none" stroke="#63b8ff" d="M343.95,-719.58C368.29,-714.37 394.92,-708.66 418.65,-703.58"/>
<polygon fill="#63b8ff" stroke="#63b8ff" points="343.08,-716.19 334.04,-721.71 344.55,-723.03 343.08,-716.19"/>
</a>
</g>
</g>
<!-- Node15 -->
<g id="Node000015" class="node">
<title>Node15</title>
<g id="a_Node000015"><a xlink:href="classtesting_1_1internal_1_1PairMatcherImpl.html" target="_top" xlink:title=" ">
<polygon fill="white" stroke="#666666" points="569.5,-751.5 410.5,-751.5 410.5,-721.5 569.5,-721.5 569.5,-751.5"/>
<text text-anchor="start" x="418.5" y="-739.5" font-family="Helvetica,sans-Serif" font-size="10.00">testing::internal::</text>
<text text-anchor="middle" x="490" y="-728.5" font-family="Helvetica,sans-Serif" font-size="10.00">PairMatcherImpl&lt; PairType &gt;</text>
</a>
</g>
</g>
<!-- Node13&#45;&gt;Node15 -->
<g id="edge83_Node000013_Node000015" class="edge">
<title>Node13&#45;&gt;Node15</title>
<g id="a_edge83_Node000013_Node000015"><a xlink:title=" ">
<path fill="none" stroke="#63b8ff" d="M344.11,-736.5C365.63,-736.5 388.92,-736.5 410.4,-736.5"/>
<polygon fill="#63b8ff" stroke="#63b8ff" points="344.04,-733 334.04,-736.5 344.04,-740 344.04,-733"/>
</a>
</g>
</g>
<!-- Node18 -->
<g id="Node000018" class="node">
<title>Node18</title>
<g id="a_Node000018"><a xlink:href="classtesting_1_1internal_1_1PointwiseMatcher_1_1Impl.html" target="_top" xlink:title=" ">
<polygon fill="white" stroke="#666666" points="595,-63 385,-63 385,-22 595,-22 595,-63"/>
<text text-anchor="start" x="393" y="-51" font-family="Helvetica,sans-Serif" font-size="10.00">testing::internal::</text>
<text text-anchor="start" x="393" y="-40" font-family="Helvetica,sans-Serif" font-size="10.00">PointwiseMatcher&lt; TupleMatcher,</text>
<text text-anchor="middle" x="490" y="-29" font-family="Helvetica,sans-Serif" font-size="10.00"> RhsContainer &gt;::Impl&lt; LhsContainer &gt;</text>
</a>
</g>
</g>
<!-- Node17&#45;&gt;Node18 -->
<g id="edge86_Node000017_Node000018" class="edge">
<title>Node17&#45;&gt;Node18</title>
<g id="a_edge86_Node000017_Node000018"><a xlink:title=" ">
<path fill="none" stroke="#63b8ff" d="M343.99,-63.22C357.19,-61.33 371.06,-59.35 384.78,-57.39"/>
<polygon fill="#63b8ff" stroke="#63b8ff" points="343.44,-59.76 334.04,-64.64 344.43,-66.69 343.44,-59.76"/>
</a>
</g>
</g>
<!-- Node19 -->
<g id="Node000019" class="node">
<title>Node19</title>
<g id="a_Node000019"><a xlink:href="classtesting_1_1internal_1_1WhenSortedByMatcher_1_1Impl.html" target="_top" xlink:title=" ">
<polygon fill="white" stroke="#666666" points="579.5,-133.5 400.5,-133.5 400.5,-81.5 579.5,-81.5 579.5,-133.5"/>
<text text-anchor="start" x="408.5" y="-121.5" font-family="Helvetica,sans-Serif" font-size="10.00">testing::internal::</text>
<text text-anchor="start" x="408.5" y="-110.5" font-family="Helvetica,sans-Serif" font-size="10.00">WhenSortedByMatcher</text>
<text text-anchor="start" x="408.5" y="-99.5" font-family="Helvetica,sans-Serif" font-size="10.00">&lt; Comparator, ContainerMatcher</text>
<text text-anchor="middle" x="490" y="-88.5" font-family="Helvetica,sans-Serif" font-size="10.00"> &gt;::Impl&lt; LhsContainer &gt;</text>
</a>
</g>
</g>
<!-- Node17&#45;&gt;Node19 -->
<g id="edge87_Node000017_Node000019" class="edge">
<title>Node17&#45;&gt;Node19</title>
<g id="a_edge87_Node000017_Node000019"><a xlink:title=" ">
<path fill="none" stroke="#63b8ff" d="M344.02,-86.14C362.24,-88.83 381.75,-91.7 400.36,-94.44"/>
<polygon fill="#63b8ff" stroke="#63b8ff" points="344.44,-82.67 334.04,-84.67 343.42,-89.59 344.44,-82.67"/>
</a>
</g>
</g>
<!-- Node35 -->
<g id="Node000035" class="node">
<title>Node35</title>
<g id="a_Node000035"><a xlink:href="classtesting_1_1internal_1_1AnyMatcherImpl.html" target="_top" xlink:title=" ">
<polygon fill="white" stroke="#666666" points="552.5,-1106.5 427.5,-1106.5 427.5,-1076.5 552.5,-1076.5 552.5,-1106.5"/>
<text text-anchor="start" x="435.5" y="-1094.5" font-family="Helvetica,sans-Serif" font-size="10.00">testing::internal::</text>
<text text-anchor="middle" x="490" y="-1083.5" font-family="Helvetica,sans-Serif" font-size="10.00">AnyMatcherImpl&lt; T &gt;</text>
</a>
</g>
</g>
<!-- Node34&#45;&gt;Node35 -->
<g id="edge103_Node000034_Node000035" class="edge">
<title>Node34&#45;&gt;Node35</title>
<g id="a_edge103_Node000034_Node000035"><a xlink:title=" ">
<path fill="none" stroke="#63b8ff" d="M293.78,-1152.58C317.76,-1141.4 353.02,-1125.9 385,-1115.5 398.57,-1111.09 413.38,-1107.16 427.47,-1103.82"/>
<polygon fill="#63b8ff" stroke="#63b8ff" points="292.1,-1149.5 284.55,-1156.93 295.09,-1155.83 292.1,-1149.5"/>
</a>
</g>
</g>
<!-- Node36 -->
<g id="Node000036" class="node">
<title>Node36</title>
<g id="a_Node000036"><a xlink:href="classtesting_1_1internal_1_1BothOfMatcherImpl.html" target="_top" xlink:title=" ">
<polygon fill="white" stroke="#666666" points="560,-1310.5 420,-1310.5 420,-1280.5 560,-1280.5 560,-1310.5"/>
<text text-anchor="start" x="428" y="-1298.5" font-family="Helvetica,sans-Serif" font-size="10.00">testing::internal::</text>
<text text-anchor="middle" x="490" y="-1287.5" font-family="Helvetica,sans-Serif" font-size="10.00">BothOfMatcherImpl&lt; T &gt;</text>
</a>
</g>
</g>
<!-- Node34&#45;&gt;Node36 -->
<g id="edge104_Node000034_Node000036" class="edge">
<title>Node34&#45;&gt;Node36</title>
<g id="a_edge104_Node000034_Node000036"><a xlink:title=" ">
<path fill="none" stroke="#63b8ff" d="M279.68,-1183.86C300.6,-1207.42 341.32,-1249.16 385,-1271.5 395.81,-1277.03 407.89,-1281.3 419.89,-1284.59"/>
<polygon fill="#63b8ff" stroke="#63b8ff" points="282.11,-1181.31 272.9,-1176.07 276.83,-1185.91 282.11,-1181.31"/>
</a>
</g>
</g>
<!-- Node37 -->
<g id="Node000037" class="node">
<title>Node37</title>
<g id="a_Node000037"><a xlink:href="classtesting_1_1internal_1_1EitherOfMatcherImpl.html" target="_top" xlink:title=" ">
<polygon fill="white" stroke="#666666" points="563,-1262.5 417,-1262.5 417,-1232.5 563,-1232.5 563,-1262.5"/>
<text text-anchor="start" x="425" y="-1250.5" font-family="Helvetica,sans-Serif" font-size="10.00">testing::internal::</text>
<text text-anchor="middle" x="490" y="-1239.5" font-family="Helvetica,sans-Serif" font-size="10.00">EitherOfMatcherImpl&lt; T &gt;</text>
</a>
</g>
</g>
<!-- Node34&#45;&gt;Node37 -->
<g id="edge105_Node000034_Node000037" class="edge">
<title>Node34&#45;&gt;Node37</title>
<g id="a_edge105_Node000034_Node000037"><a xlink:title=" ">
<path fill="none" stroke="#63b8ff" d="M291.08,-1180.92C314.94,-1193.61 351.5,-1211.83 385,-1223.5 395.15,-1227.03 406.04,-1230.2 416.81,-1232.98"/>
<polygon fill="#63b8ff" stroke="#63b8ff" points="292.45,-1177.68 281.99,-1176.02 289.13,-1183.85 292.45,-1177.68"/>
</a>
</g>
</g>
<!-- Node38 -->
<g id="Node000038" class="node">
<title>Node38</title>
<g id="a_Node000038"><a xlink:href="classtesting_1_1internal_1_1FloatingEqMatcher_1_1Impl.html" target="_top" xlink:title=" ">
<polygon fill="white" stroke="#666666" points="573.5,-1214 406.5,-1214 406.5,-1173 573.5,-1173 573.5,-1214"/>
<text text-anchor="start" x="414.5" y="-1202" font-family="Helvetica,sans-Serif" font-size="10.00">testing::internal::</text>
<text text-anchor="start" x="414.5" y="-1191" font-family="Helvetica,sans-Serif" font-size="10.00">FloatingEqMatcher&lt; FloatType</text>
<text text-anchor="middle" x="490" y="-1180" font-family="Helvetica,sans-Serif" font-size="10.00"> &gt;::Impl&lt; T &gt;</text>
</a>
</g>
</g>
<!-- Node34&#45;&gt;Node38 -->
<g id="edge106_Node000034_Node000038" class="edge">
<title>Node34&#45;&gt;Node38</title>
<g id="a_edge106_Node000034_Node000038"><a xlink:title=" ">
<path fill="none" stroke="#63b8ff" d="M354.01,-1177.23C371.22,-1179.3 389.18,-1181.47 406.19,-1183.52"/>
<polygon fill="#63b8ff" stroke="#63b8ff" points="354.32,-1173.74 343.97,-1176.02 353.48,-1180.69 354.32,-1173.74"/>
</a>
</g>
</g>
<!-- Node39 -->
<g id="Node000039" class="node">
<title>Node39</title>
<g id="a_Node000039"><a xlink:href="classtesting_1_1internal_1_1NotMatcherImpl.html" target="_top" xlink:title=" ">
<polygon fill="white" stroke="#666666" points="552,-1154.5 428,-1154.5 428,-1124.5 552,-1124.5 552,-1154.5"/>
<text text-anchor="start" x="436" y="-1142.5" font-family="Helvetica,sans-Serif" font-size="10.00">testing::internal::</text>
<text text-anchor="middle" x="490" y="-1131.5" font-family="Helvetica,sans-Serif" font-size="10.00">NotMatcherImpl&lt; T &gt;</text>
</a>
</g>
</g>
<!-- Node34&#45;&gt;Node39 -->
<g id="edge107_Node000034_Node000039" class="edge">
<title>Node34&#45;&gt;Node39</title>
<g id="a_edge107_Node000034_Node000039"><a xlink:title=" ">
<path fill="none" stroke="#63b8ff" d="M354.11,-1155.76C378.88,-1152.77 405.22,-1149.6 427.98,-1146.86"/>
<polygon fill="#63b8ff" stroke="#63b8ff" points="353.48,-1152.31 343.97,-1156.98 354.32,-1159.26 353.48,-1152.31"/>
</a>
</g>
</g>
<!-- Node12 -->
<g id="Node000012" class="node">
<title>Node12</title>
<g id="a_Node000012"><a xlink:href="classtesting_1_1internal_1_1UnorderedElementsAreMatcherImplBase.html" target="_top" xlink:title=" ">
<polygon fill="white" stroke="#666666" points="349,-859 179,-859 179,-818 349,-818 349,-859"/>
<text text-anchor="start" x="187" y="-847" font-family="Helvetica,sans-Serif" font-size="10.00">testing::internal::</text>
<text text-anchor="start" x="187" y="-836" font-family="Helvetica,sans-Serif" font-size="10.00">UnorderedElementsAreMatcher</text>
<text text-anchor="middle" x="264" y="-825" font-family="Helvetica,sans-Serif" font-size="10.00">ImplBase</text>
</a>
</g>
</g>
<!-- Node12&#45;&gt;Node11 -->
<g id="edge108_Node000012_Node000011" class="edge">
<title>Node12&#45;&gt;Node11</title>
<g id="a_edge108_Node000012_Node000011"><a xlink:title=" ">
<path fill="none" stroke="#63b8ff" d="M358.97,-818.36C374.2,-815.1 389.88,-811.74 404.85,-808.53"/>
<polygon fill="#63b8ff" stroke="#63b8ff" points="358.09,-814.97 349.05,-820.49 359.56,-821.82 358.09,-814.97"/>
</a>
</g>
</g>
</g>
</svg>
