<?xml version="1.0" encoding="UTF-8" standalone="no"?>
<!DOCTYPE svg PUBLIC "-//W3C//DTD SVG 1.1//EN"
 "http://www.w3.org/Graphics/SVG/1.1/DTD/svg11.dtd">
<!-- Generated by graphviz version 2.43.0 (0)
 -->
<!-- Title: Graphical Class Hierarchy Pages: 1 -->
<svg width="227pt" height="134pt"
 viewBox="0.00 0.00 227.00 134.00" xmlns="http://www.w3.org/2000/svg" xmlns:xlink="http://www.w3.org/1999/xlink">
<g id="graph0" class="graph" transform="scale(1 1) rotate(0) translate(4 130)">
<title>Graphical Class Hierarchy</title>
<!-- Node0 -->
<g id="Node000000" class="node">
<title>Node0</title>
<g id="a_Node000000"><a xlink:title=" ">
<polygon fill="#e0e0e0" stroke="#999999" points="69,-72.5 0,-72.5 0,-53.5 69,-53.5 69,-72.5"/>
<text text-anchor="middle" x="34.5" y="-60.5" font-family="Helvetica,sans-Serif" font-size="10.00">MockClass</text>
</a>
</g>
</g>
<!-- Node1 -->
<g id="Node000001" class="node">
<title>Node1</title>
<g id="a_Node000001"><a xlink:href="classtesting_1_1NaggyMock.html" target="_top" xlink:title=" ">
<polygon fill="white" stroke="#666666" points="219,-126 105,-126 105,-96 219,-96 219,-126"/>
<text text-anchor="start" x="113" y="-114" font-family="Helvetica,sans-Serif" font-size="10.00">testing::NaggyMock</text>
<text text-anchor="middle" x="162" y="-103" font-family="Helvetica,sans-Serif" font-size="10.00">&lt; MockClass &gt;</text>
</a>
</g>
</g>
<!-- Node0&#45;&gt;Node1 -->
<g id="edge4_Node000000_Node000001" class="edge">
<title>Node0&#45;&gt;Node1</title>
<g id="a_edge4_Node000000_Node000001"><a xlink:title=" ">
<path fill="none" stroke="#63b8ff" d="M70.09,-76.23C86.06,-82.34 105.1,-89.62 121.62,-95.94"/>
<polygon fill="#63b8ff" stroke="#63b8ff" points="71.19,-72.9 60.6,-72.6 68.68,-79.44 71.19,-72.9"/>
</a>
</g>
</g>
<!-- Node2 -->
<g id="Node000002" class="node">
<title>Node2</title>
<g id="a_Node000002"><a xlink:href="classtesting_1_1NiceMock.html" target="_top" xlink:title=" ">
<polygon fill="white" stroke="#666666" points="218.5,-78 105.5,-78 105.5,-48 218.5,-48 218.5,-78"/>
<text text-anchor="start" x="113.5" y="-66" font-family="Helvetica,sans-Serif" font-size="10.00">testing::NiceMock&lt;</text>
<text text-anchor="middle" x="162" y="-55" font-family="Helvetica,sans-Serif" font-size="10.00"> MockClass &gt;</text>
</a>
</g>
</g>
<!-- Node0&#45;&gt;Node2 -->
<g id="edge5_Node000000_Node000002" class="edge">
<title>Node0&#45;&gt;Node2</title>
<g id="a_edge5_Node000000_Node000002"><a xlink:title=" ">
<path fill="none" stroke="#63b8ff" d="M79.18,-63C87.66,-63 96.66,-63 105.47,-63"/>
<polygon fill="#63b8ff" stroke="#63b8ff" points="79.13,-59.5 69.13,-63 79.13,-66.5 79.13,-59.5"/>
</a>
</g>
</g>
<!-- Node3 -->
<g id="Node000003" class="node">
<title>Node3</title>
<g id="a_Node000003"><a xlink:href="classtesting_1_1StrictMock.html" target="_top" xlink:title=" ">
<polygon fill="white" stroke="#666666" points="216,-30 108,-30 108,0 216,0 216,-30"/>
<text text-anchor="start" x="116" y="-18" font-family="Helvetica,sans-Serif" font-size="10.00">testing::StrictMock</text>
<text text-anchor="middle" x="162" y="-7" font-family="Helvetica,sans-Serif" font-size="10.00">&lt; MockClass &gt;</text>
</a>
</g>
</g>
<!-- Node0&#45;&gt;Node3 -->
<g id="edge6_Node000000_Node000003" class="edge">
<title>Node0&#45;&gt;Node3</title>
<g id="a_edge6_Node000000_Node000003"><a xlink:title=" ">
<path fill="none" stroke="#63b8ff" d="M70.09,-49.77C86.06,-43.66 105.1,-36.38 121.62,-30.06"/>
<polygon fill="#63b8ff" stroke="#63b8ff" points="68.68,-46.56 60.6,-53.4 71.19,-53.1 68.68,-46.56"/>
</a>
</g>
</g>
</g>
</svg>
