<?xml version="1.0" encoding="UTF-8" standalone="no"?>
<!DOCTYPE svg PUBLIC "-//W3C//DTD SVG 1.1//EN"
 "http://www.w3.org/Graphics/SVG/1.1/DTD/svg11.dtd">
<!-- Generated by graphviz version 2.43.0 (0)
 -->
<!-- Title: p25p1_ldu.h Pages: 1 -->
<svg width="1448pt" height="137pt"
 viewBox="0.00 0.00 1448.00 137.00" xmlns="http://www.w3.org/2000/svg" xmlns:xlink="http://www.w3.org/1999/xlink">
<g id="graph0" class="graph" transform="scale(1 1) rotate(0) translate(4 133)">
<title>p25p1_ldu.h</title>
<!-- Node1 -->
<g id="Node000001" class="node">
<title>Node1</title>
<g id="a_Node000001"><a xlink:title=" ">
<polygon fill="#999999" stroke="#666666" points="1299.5,-129 1223.5,-129 1223.5,-110 1299.5,-110 1299.5,-129"/>
<text text-anchor="middle" x="1261.5" y="-117" font-family="Helvetica,sans-Serif" font-size="10.00">p25p1_ldu.h</text>
</a>
</g>
</g>
<!-- Node2 -->
<g id="Node000002" class="node">
<title>Node2</title>
<g id="a_Node000002"><a xlink:href="dsd_8h.html" target="_top" xlink:title=" ">
<polygon fill="white" stroke="#666666" points="695,-74 652,-74 652,-55 695,-55 695,-74"/>
<text text-anchor="middle" x="673.5" y="-62" font-family="Helvetica,sans-Serif" font-size="10.00">dsd.h</text>
</a>
</g>
</g>
<!-- Node1&#45;&gt;Node2 -->
<g id="edge1_Node000001_Node000002" class="edge">
<title>Node1&#45;&gt;Node2</title>
<g id="a_edge1_Node000001_Node000002"><a xlink:title=" ">
<path fill="none" stroke="#63b8ff" d="M1223.37,-115.06C1114.84,-105.28 805.62,-77.41 705.33,-68.37"/>
<polygon fill="#63b8ff" stroke="#63b8ff" points="705.49,-64.87 695.22,-67.46 704.86,-71.84 705.49,-64.87"/>
</a>
</g>
</g>
<!-- Node19 -->
<g id="Node000019" class="node">
<title>Node19</title>
<g id="a_Node000019"><a xlink:href="p25p1__heuristics_8h.html" target="_top" xlink:title=" ">
<polygon fill="white" stroke="#666666" points="1349.5,-19 1241.5,-19 1241.5,0 1349.5,0 1349.5,-19"/>
<text text-anchor="middle" x="1295.5" y="-7" font-family="Helvetica,sans-Serif" font-size="10.00">p25p1_heuristics.h</text>
</a>
</g>
</g>
<!-- Node1&#45;&gt;Node19 -->
<g id="edge22_Node000001_Node000019" class="edge">
<title>Node1&#45;&gt;Node19</title>
<g id="a_edge22_Node000001_Node000019"><a xlink:title=" ">
<path fill="none" stroke="#63b8ff" d="M1256.38,-109.96C1249.59,-97.45 1239.37,-73.62 1247.5,-55 1252.77,-42.92 1263.13,-32.65 1272.87,-25.03"/>
<polygon fill="#63b8ff" stroke="#63b8ff" points="1275.09,-27.74 1281.13,-19.04 1270.98,-22.07 1275.09,-27.74"/>
</a>
</g>
</g>
<!-- Node20 -->
<g id="Node000020" class="node">
<title>Node20</title>
<g id="a_Node000020"><a xlink:href="p25p1__hdu_8h.html" target="_top" xlink:title=" ">
<polygon fill="white" stroke="#666666" points="1335,-74 1256,-74 1256,-55 1335,-55 1335,-74"/>
<text text-anchor="middle" x="1295.5" y="-62" font-family="Helvetica,sans-Serif" font-size="10.00">p25p1_hdu.h</text>
</a>
</g>
</g>
<!-- Node1&#45;&gt;Node20 -->
<g id="edge19_Node000001_Node000020" class="edge">
<title>Node1&#45;&gt;Node20</title>
<g id="a_edge19_Node000001_Node000020"><a xlink:title=" ">
<path fill="none" stroke="#63b8ff" d="M1267.11,-109.75C1271.82,-102.42 1278.67,-91.73 1284.47,-82.7"/>
<polygon fill="#63b8ff" stroke="#63b8ff" points="1287.54,-84.4 1289.99,-74.09 1281.64,-80.62 1287.54,-84.4"/>
</a>
</g>
</g>
<!-- Node21 -->
<g id="Node000021" class="node">
<title>Node21</title>
<g id="a_Node000021"><a xlink:href="p25p1__const_8h.html" target="_top" xlink:title=" ">
<polygon fill="white" stroke="#666666" points="1440,-74 1353,-74 1353,-55 1440,-55 1440,-74"/>
<text text-anchor="middle" x="1396.5" y="-62" font-family="Helvetica,sans-Serif" font-size="10.00">p25p1_const.h</text>
</a>
</g>
</g>
<!-- Node1&#45;&gt;Node21 -->
<g id="edge21_Node000001_Node000021" class="edge">
<title>Node1&#45;&gt;Node21</title>
<g id="a_edge21_Node000001_Node000021"><a xlink:title=" ">
<path fill="none" stroke="#63b8ff" d="M1283.19,-109.98C1305.3,-101.3 1339.82,-87.75 1364.95,-77.88"/>
<polygon fill="#63b8ff" stroke="#63b8ff" points="1366.39,-81.08 1374.42,-74.17 1363.83,-74.57 1366.39,-81.08"/>
</a>
</g>
</g>
<!-- Node3 -->
<g id="Node000003" class="node">
<title>Node3</title>
<g id="a_Node000003"><a xlink:href="dsd_2include_2config_8h.html" target="_top" xlink:title=" ">
<polygon fill="white" stroke="#666666" points="55,-19 0,-19 0,0 55,0 55,-19"/>
<text text-anchor="middle" x="27.5" y="-7" font-family="Helvetica,sans-Serif" font-size="10.00">config.h</text>
</a>
</g>
</g>
<!-- Node2&#45;&gt;Node3 -->
<g id="edge2_Node000002_Node000003" class="edge">
<title>Node2&#45;&gt;Node3</title>
<g id="a_edge2_Node000002_Node000003"><a xlink:title=" ">
<path fill="none" stroke="#63b8ff" d="M651.79,-63.11C573.8,-61.47 300.4,-53.54 65.4,-18.87"/>
<polygon fill="#63b8ff" stroke="#63b8ff" points="65.7,-15.38 55.29,-17.36 64.67,-22.3 65.7,-15.38"/>
</a>
</g>
</g>
<!-- Node4 -->
<g id="Node000004" class="node">
<title>Node4</title>
<g id="a_Node000004"><a xlink:title=" ">
<polygon fill="#e0e0e0" stroke="#999999" points="123.5,-19 73.5,-19 73.5,0 123.5,0 123.5,-19"/>
<text text-anchor="middle" x="98.5" y="-7" font-family="Helvetica,sans-Serif" font-size="10.00">stdio.h</text>
</a>
</g>
</g>
<!-- Node2&#45;&gt;Node4 -->
<g id="edge3_Node000002_Node000004" class="edge">
<title>Node2&#45;&gt;Node4</title>
<g id="a_edge3_Node000002_Node000004"><a xlink:title=" ">
<path fill="none" stroke="#63b8ff" d="M651.95,-62.99C579.87,-61.01 340.53,-52.31 133.79,-18.93"/>
<polygon fill="#63b8ff" stroke="#63b8ff" points="134.09,-15.44 123.66,-17.27 132.96,-22.34 134.09,-15.44"/>
</a>
</g>
</g>
<!-- Node5 -->
<g id="Node000005" class="node">
<title>Node5</title>
<g id="a_Node000005"><a xlink:title=" ">
<polygon fill="#e0e0e0" stroke="#999999" points="195,-19 142,-19 142,0 195,0 195,-19"/>
<text text-anchor="middle" x="168.5" y="-7" font-family="Helvetica,sans-Serif" font-size="10.00">stdlib.h</text>
</a>
</g>
</g>
<!-- Node2&#45;&gt;Node5 -->
<g id="edge4_Node000002_Node000005" class="edge">
<title>Node2&#45;&gt;Node5</title>
<g id="a_edge4_Node000002_Node000005"><a xlink:title=" ">
<path fill="none" stroke="#63b8ff" d="M651.81,-62.56C585.97,-59.46 382.6,-48.2 205.2,-19.07"/>
<polygon fill="#63b8ff" stroke="#63b8ff" points="205.61,-15.59 195.17,-17.4 204.46,-22.49 205.61,-15.59"/>
</a>
</g>
</g>
<!-- Node6 -->
<g id="Node000006" class="node">
<title>Node6</title>
<g id="a_Node000006"><a xlink:title=" ">
<polygon fill="#e0e0e0" stroke="#999999" points="268,-19 213,-19 213,0 268,0 268,-19"/>
<text text-anchor="middle" x="240.5" y="-7" font-family="Helvetica,sans-Serif" font-size="10.00">signal.h</text>
</a>
</g>
</g>
<!-- Node2&#45;&gt;Node6 -->
<g id="edge5_Node000002_Node000006" class="edge">
<title>Node2&#45;&gt;Node6</title>
<g id="a_edge5_Node000002_Node000006"><a xlink:title=" ">
<path fill="none" stroke="#63b8ff" d="M651.85,-61.99C593.23,-57.72 426.36,-44.28 278.5,-19.17"/>
<polygon fill="#63b8ff" stroke="#63b8ff" points="278.79,-15.67 268.34,-17.42 277.6,-22.57 278.79,-15.67"/>
</a>
</g>
</g>
<!-- Node7 -->
<g id="Node000007" class="node">
<title>Node7</title>
<g id="a_Node000007"><a xlink:title=" ">
<polygon fill="#e0e0e0" stroke="#999999" points="339,-19 286,-19 286,0 339,0 339,-19"/>
<text text-anchor="middle" x="312.5" y="-7" font-family="Helvetica,sans-Serif" font-size="10.00">string.h</text>
</a>
</g>
</g>
<!-- Node2&#45;&gt;Node7 -->
<g id="edge6_Node000002_Node000007" class="edge">
<title>Node2&#45;&gt;Node7</title>
<g id="a_edge6_Node000002_Node000007"><a xlink:title=" ">
<path fill="none" stroke="#63b8ff" d="M651.71,-61.25C600.68,-55.81 469.33,-40.94 349.27,-18.97"/>
<polygon fill="#63b8ff" stroke="#63b8ff" points="349.65,-15.48 339.18,-17.1 348.37,-22.36 349.65,-15.48"/>
</a>
</g>
</g>
<!-- Node8 -->
<g id="Node000008" class="node">
<title>Node8</title>
<g id="a_Node000008"><a xlink:title=" ">
<polygon fill="#e0e0e0" stroke="#999999" points="405.5,-19 357.5,-19 357.5,0 405.5,0 405.5,-19"/>
<text text-anchor="middle" x="381.5" y="-7" font-family="Helvetica,sans-Serif" font-size="10.00">time.h</text>
</a>
</g>
</g>
<!-- Node2&#45;&gt;Node8 -->
<g id="edge7_Node000002_Node000008" class="edge">
<title>Node2&#45;&gt;Node8</title>
<g id="a_edge7_Node000002_Node000008"><a xlink:title=" ">
<path fill="none" stroke="#63b8ff" d="M651.9,-60.4C608.83,-54.09 509.07,-38.83 415.5,-19.06"/>
<polygon fill="#63b8ff" stroke="#63b8ff" points="416.11,-15.61 405.6,-16.95 414.65,-22.46 416.11,-15.61"/>
</a>
</g>
</g>
<!-- Node9 -->
<g id="Node000009" class="node">
<title>Node9</title>
<g id="a_Node000009"><a xlink:title=" ">
<polygon fill="#e0e0e0" stroke="#999999" points="491.5,-19 423.5,-19 423.5,0 491.5,0 491.5,-19"/>
<text text-anchor="middle" x="457.5" y="-7" font-family="Helvetica,sans-Serif" font-size="10.00">sys/time.h</text>
</a>
</g>
</g>
<!-- Node2&#45;&gt;Node9 -->
<g id="edge8_Node000002_Node000009" class="edge">
<title>Node2&#45;&gt;Node9</title>
<g id="a_edge8_Node000002_Node000009"><a xlink:title=" ">
<path fill="none" stroke="#63b8ff" d="M652,-58.22C617.08,-49.66 547.34,-32.54 501.56,-21.31"/>
<polygon fill="#63b8ff" stroke="#63b8ff" points="502.15,-17.85 491.61,-18.87 500.48,-24.65 502.15,-17.85"/>
</a>
</g>
</g>
<!-- Node10 -->
<g id="Node000010" class="node">
<title>Node10</title>
<g id="a_Node000010"><a xlink:title=" ">
<polygon fill="#e0e0e0" stroke="#999999" points="581.5,-19 509.5,-19 509.5,0 581.5,0 581.5,-19"/>
<text text-anchor="middle" x="545.5" y="-7" font-family="Helvetica,sans-Serif" font-size="10.00">sys/types.h</text>
</a>
</g>
</g>
<!-- Node2&#45;&gt;Node10 -->
<g id="edge9_Node000002_Node000010" class="edge">
<title>Node2&#45;&gt;Node10</title>
<g id="a_edge9_Node000002_Node000010"><a xlink:title=" ">
<path fill="none" stroke="#63b8ff" d="M652.93,-54.98C632.07,-46.34 599.53,-32.87 575.73,-23.02"/>
<polygon fill="#63b8ff" stroke="#63b8ff" points="577.02,-19.76 566.44,-19.17 574.34,-26.23 577.02,-19.76"/>
</a>
</g>
</g>
<!-- Node11 -->
<g id="Node000011" class="node">
<title>Node11</title>
<g id="a_Node000011"><a xlink:title=" ">
<polygon fill="#e0e0e0" stroke="#999999" points="663.5,-19 599.5,-19 599.5,0 663.5,0 663.5,-19"/>
<text text-anchor="middle" x="631.5" y="-7" font-family="Helvetica,sans-Serif" font-size="10.00">sys/stat.h</text>
</a>
</g>
</g>
<!-- Node2&#45;&gt;Node11 -->
<g id="edge10_Node000002_Node000011" class="edge">
<title>Node2&#45;&gt;Node11</title>
<g id="a_edge10_Node000002_Node000011"><a xlink:title=" ">
<path fill="none" stroke="#63b8ff" d="M666.56,-54.75C660.63,-47.26 651.93,-36.28 644.68,-27.13"/>
<polygon fill="#63b8ff" stroke="#63b8ff" points="647.26,-24.75 638.31,-19.09 641.77,-29.1 647.26,-24.75"/>
</a>
</g>
</g>
<!-- Node12 -->
<g id="Node000012" class="node">
<title>Node12</title>
<g id="a_Node000012"><a xlink:title=" ">
<polygon fill="#e0e0e0" stroke="#999999" points="747.5,-19 681.5,-19 681.5,0 747.5,0 747.5,-19"/>
<text text-anchor="middle" x="714.5" y="-7" font-family="Helvetica,sans-Serif" font-size="10.00">sys/ioctl.h</text>
</a>
</g>
</g>
<!-- Node2&#45;&gt;Node12 -->
<g id="edge11_Node000002_Node000012" class="edge">
<title>Node2&#45;&gt;Node12</title>
<g id="a_edge11_Node000002_Node000012"><a xlink:title=" ">
<path fill="none" stroke="#63b8ff" d="M680.27,-54.75C686.06,-47.26 694.56,-36.28 701.64,-27.13"/>
<polygon fill="#63b8ff" stroke="#63b8ff" points="704.51,-29.14 707.86,-19.09 698.97,-24.86 704.51,-29.14"/>
</a>
</g>
</g>
<!-- Node13 -->
<g id="Node000013" class="node">
<title>Node13</title>
<g id="a_Node000013"><a xlink:title=" ">
<polygon fill="#e0e0e0" stroke="#999999" points="813,-19 766,-19 766,0 813,0 813,-19"/>
<text text-anchor="middle" x="789.5" y="-7" font-family="Helvetica,sans-Serif" font-size="10.00">fcntl.h</text>
</a>
</g>
</g>
<!-- Node2&#45;&gt;Node13 -->
<g id="edge12_Node000002_Node000013" class="edge">
<title>Node2&#45;&gt;Node13</title>
<g id="a_edge12_Node000002_Node000013"><a xlink:title=" ">
<path fill="none" stroke="#63b8ff" d="M692.14,-54.98C710.8,-46.46 739.75,-33.23 761.24,-23.41"/>
<polygon fill="#63b8ff" stroke="#63b8ff" points="762.88,-26.51 770.52,-19.17 759.97,-20.14 762.88,-26.51"/>
</a>
</g>
</g>
<!-- Node14 -->
<g id="Node000014" class="node">
<title>Node14</title>
<g id="a_Node000014"><a xlink:title=" ">
<polygon fill="#e0e0e0" stroke="#999999" points="887.5,-19 831.5,-19 831.5,0 887.5,0 887.5,-19"/>
<text text-anchor="middle" x="859.5" y="-7" font-family="Helvetica,sans-Serif" font-size="10.00">unistd.h</text>
</a>
</g>
</g>
<!-- Node2&#45;&gt;Node14 -->
<g id="edge13_Node000002_Node000014" class="edge">
<title>Node2&#45;&gt;Node14</title>
<g id="a_edge13_Node000002_Node000014"><a xlink:title=" ">
<path fill="none" stroke="#63b8ff" d="M695.2,-57.32C726.17,-48.49 783.49,-32.16 821.56,-21.31"/>
<polygon fill="#63b8ff" stroke="#63b8ff" points="822.62,-24.65 831.28,-18.54 820.7,-17.92 822.62,-24.65"/>
</a>
</g>
</g>
<!-- Node15 -->
<g id="Node000015" class="node">
<title>Node15</title>
<g id="a_Node000015"><a xlink:title=" ">
<polygon fill="#e0e0e0" stroke="#999999" points="1001,-19 906,-19 906,0 1001,0 1001,-19"/>
<text text-anchor="middle" x="953.5" y="-7" font-family="Helvetica,sans-Serif" font-size="10.00">sys/soundcard.h</text>
</a>
</g>
</g>
<!-- Node2&#45;&gt;Node15 -->
<g id="edge14_Node000002_Node000015" class="edge">
<title>Node2&#45;&gt;Node15</title>
<g id="a_edge14_Node000002_Node000015"><a xlink:title=" ">
<path fill="none" stroke="#63b8ff" d="M695.01,-59.43C738.13,-51.27 836.35,-32.67 898.54,-20.9"/>
<polygon fill="#63b8ff" stroke="#63b8ff" points="899.4,-24.3 908.57,-19 898.09,-17.43 899.4,-24.3"/>
</a>
</g>
</g>
<!-- Node16 -->
<g id="Node000016" class="node">
<title>Node16</title>
<g id="a_Node000016"><a xlink:title=" ">
<polygon fill="#e0e0e0" stroke="#999999" points="1070,-19 1019,-19 1019,0 1070,0 1070,-19"/>
<text text-anchor="middle" x="1044.5" y="-7" font-family="Helvetica,sans-Serif" font-size="10.00">math.h</text>
</a>
</g>
</g>
<!-- Node2&#45;&gt;Node16 -->
<g id="edge15_Node000002_Node000016" class="edge">
<title>Node2&#45;&gt;Node16</title>
<g id="a_edge15_Node000002_Node000016"><a xlink:title=" ">
<path fill="none" stroke="#63b8ff" d="M695.25,-61.43C747.49,-56.29 884.32,-41.81 1008.86,-18.92"/>
<polygon fill="#63b8ff" stroke="#63b8ff" points="1009.76,-22.31 1018.95,-17.04 1008.48,-15.43 1009.76,-22.31"/>
</a>
</g>
</g>
<!-- Node17 -->
<g id="Node000017" class="node">
<title>Node17</title>
<g id="a_Node000017"><a xlink:href="mbelib_8h.html" target="_top" xlink:title=" ">
<polygon fill="white" stroke="#666666" points="1147,-19 1088,-19 1088,0 1147,0 1147,-19"/>
<text text-anchor="middle" x="1117.5" y="-7" font-family="Helvetica,sans-Serif" font-size="10.00">mbelib.h</text>
</a>
</g>
</g>
<!-- Node2&#45;&gt;Node17 -->
<g id="edge16_Node000002_Node000017" class="edge">
<title>Node2&#45;&gt;Node17</title>
<g id="a_edge16_Node000002_Node000017"><a xlink:title=" ">
<path fill="none" stroke="#63b8ff" d="M695.12,-61.93C754.53,-57.45 925.39,-43.41 1077.74,-18.95"/>
<polygon fill="#63b8ff" stroke="#63b8ff" points="1078.44,-22.38 1087.75,-17.32 1077.32,-15.47 1078.44,-22.38"/>
</a>
</g>
</g>
<!-- Node18 -->
<g id="Node000018" class="node">
<title>Node18</title>
<g id="a_Node000018"><a xlink:title=" ">
<polygon fill="#e0e0e0" stroke="#999999" points="1223.5,-19 1165.5,-19 1165.5,0 1223.5,0 1223.5,-19"/>
<text text-anchor="middle" x="1194.5" y="-7" font-family="Helvetica,sans-Serif" font-size="10.00">sndfile.h</text>
</a>
</g>
</g>
<!-- Node2&#45;&gt;Node18 -->
<g id="edge17_Node000002_Node000018" class="edge">
<title>Node2&#45;&gt;Node18</title>
<g id="a_edge17_Node000002_Node000018"><a xlink:title=" ">
<path fill="none" stroke="#63b8ff" d="M695.23,-62.44C762.18,-58.99 971.28,-46.73 1155.07,-18.85"/>
<polygon fill="#63b8ff" stroke="#63b8ff" points="1155.83,-22.27 1165.18,-17.29 1154.77,-15.35 1155.83,-22.27"/>
</a>
</g>
</g>
<!-- Node2&#45;&gt;Node19 -->
<g id="edge18_Node000002_Node000019" class="edge">
<title>Node2&#45;&gt;Node19</title>
<g id="a_edge18_Node000002_Node000019"><a xlink:title=" ">
<path fill="none" stroke="#63b8ff" d="M695.12,-62.21C768.62,-57.72 1015.76,-41.89 1231,-19.1"/>
<polygon fill="#63b8ff" stroke="#63b8ff" points="1231.65,-22.55 1241.23,-18.01 1230.91,-15.59 1231.65,-22.55"/>
</a>
</g>
</g>
<!-- Node20&#45;&gt;Node19 -->
<g id="edge20_Node000020_Node000019" class="edge">
<title>Node20&#45;&gt;Node19</title>
<g id="a_edge20_Node000020_Node000019"><a xlink:title=" ">
<path fill="none" stroke="#63b8ff" d="M1295.5,-54.75C1295.5,-47.8 1295.5,-37.85 1295.5,-29.13"/>
<polygon fill="#63b8ff" stroke="#63b8ff" points="1299,-29.09 1295.5,-19.09 1292,-29.09 1299,-29.09"/>
</a>
</g>
</g>
</g>
</svg>
