<?xml version="1.0" encoding="UTF-8" standalone="no"?>
<!DOCTYPE svg PUBLIC "-//W3C//DTD SVG 1.1//EN"
 "http://www.w3.org/Graphics/SVG/1.1/DTD/svg11.dtd">
<!-- Generated by graphviz version 2.43.0 (0)
 -->
<!-- Title: p25p1_heuristics.h Pages: 1 -->
<svg width="253pt" height="137pt"
 viewBox="0.00 0.00 253.00 137.00" xmlns="http://www.w3.org/2000/svg" xmlns:xlink="http://www.w3.org/1999/xlink">
<g id="graph0" class="graph" transform="scale(1 1) rotate(0) translate(4 133)">
<title>p25p1_heuristics.h</title>
<!-- Node1 -->
<g id="Node000001" class="node">
<title>Node1</title>
<g id="a_Node000001"><a xlink:title=" ">
<polygon fill="#999999" stroke="#666666" points="191.5,-129 83.5,-129 83.5,-110 191.5,-110 191.5,-129"/>
<text text-anchor="middle" x="137.5" y="-117" font-family="Helvetica,sans-Serif" font-size="10.00">p25p1_heuristics.h</text>
</a>
</g>
</g>
<!-- Node2 -->
<g id="Node000002" class="node">
<title>Node2</title>
<g id="a_Node000002"><a xlink:href="dsd_8h.html" target="_top" xlink:title=" ">
<polygon fill="white" stroke="#666666" points="109,-74 66,-74 66,-55 109,-55 109,-74"/>
<text text-anchor="middle" x="87.5" y="-62" font-family="Helvetica,sans-Serif" font-size="10.00">dsd.h</text>
</a>
</g>
</g>
<!-- Node1&#45;&gt;Node2 -->
<g id="edge1_Node000001_Node000002" class="edge">
<title>Node1&#45;&gt;Node2</title>
<g id="a_edge1_Node000001_Node000002"><a xlink:title=" ">
<path fill="none" stroke="#63b8ff" d="M122.16,-102.24C113.4,-92.95 102.76,-81.68 95.6,-74.09"/>
<polygon fill="#63b8ff" stroke="#63b8ff" points="119.84,-104.88 129.24,-109.75 124.93,-100.07 119.84,-104.88"/>
</a>
</g>
</g>
<!-- Node4 -->
<g id="Node000004" class="node">
<title>Node4</title>
<g id="a_Node000004"><a xlink:href="p25p1__ldu_8h.html" target="_top" xlink:title=" ">
<polygon fill="white" stroke="#666666" points="207.5,-19 131.5,-19 131.5,0 207.5,0 207.5,-19"/>
<text text-anchor="middle" x="169.5" y="-7" font-family="Helvetica,sans-Serif" font-size="10.00">p25p1_ldu.h</text>
</a>
</g>
</g>
<!-- Node1&#45;&gt;Node4 -->
<g id="edge6_Node000001_Node000004" class="edge">
<title>Node1&#45;&gt;Node4</title>
<g id="a_edge6_Node000001_Node000004"><a xlink:title=" ">
<path fill="none" stroke="#63b8ff" d="M143.04,-99.8C150.03,-76.2 161.77,-36.58 166.93,-19.16"/>
<polygon fill="#63b8ff" stroke="#63b8ff" points="139.6,-99.08 140.12,-109.66 146.32,-101.07 139.6,-99.08"/>
</a>
</g>
</g>
<!-- Node5 -->
<g id="Node000005" class="node">
<title>Node5</title>
<g id="a_Node000005"><a xlink:href="p25p1__hdu_8h.html" target="_top" xlink:title=" ">
<polygon fill="white" stroke="#666666" points="245,-74 166,-74 166,-55 245,-55 245,-74"/>
<text text-anchor="middle" x="205.5" y="-62" font-family="Helvetica,sans-Serif" font-size="10.00">p25p1_hdu.h</text>
</a>
</g>
</g>
<!-- Node1&#45;&gt;Node5 -->
<g id="edge4_Node000001_Node000005" class="edge">
<title>Node1&#45;&gt;Node5</title>
<g id="a_edge4_Node000001_Node000005"><a xlink:title=" ">
<path fill="none" stroke="#63b8ff" d="M156.62,-103.6C168.8,-94.11 184.16,-82.13 194.38,-74.17"/>
<polygon fill="#63b8ff" stroke="#63b8ff" points="154.16,-101.08 148.43,-109.98 158.46,-106.6 154.16,-101.08"/>
</a>
</g>
</g>
<!-- Node3 -->
<g id="Node000003" class="node">
<title>Node3</title>
<g id="a_Node000003"><a xlink:href="dsd__block__ff__impl_8h.html" target="_top" xlink:title=" ">
<polygon fill="white" stroke="#666666" points="113,-19 0,-19 0,0 113,0 113,-19"/>
<text text-anchor="middle" x="56.5" y="-7" font-family="Helvetica,sans-Serif" font-size="10.00">dsd_block_ff_impl.h</text>
</a>
</g>
</g>
<!-- Node2&#45;&gt;Node3 -->
<g id="edge2_Node000002_Node000003" class="edge">
<title>Node2&#45;&gt;Node3</title>
<g id="a_edge2_Node000002_Node000003"><a xlink:title=" ">
<path fill="none" stroke="#63b8ff" d="M77.32,-46.1C72.03,-37.04 65.78,-26.37 61.52,-19.09"/>
<polygon fill="#63b8ff" stroke="#63b8ff" points="74.31,-47.88 82.38,-54.75 80.35,-44.35 74.31,-47.88"/>
</a>
</g>
</g>
<!-- Node2&#45;&gt;Node4 -->
<g id="edge3_Node000002_Node000004" class="edge">
<title>Node2&#45;&gt;Node4</title>
<g id="a_edge3_Node000002_Node000004"><a xlink:title=" ">
<path fill="none" stroke="#63b8ff" d="M109.28,-49.42C124.16,-39.81 143.41,-27.37 156.09,-19.17"/>
<polygon fill="#63b8ff" stroke="#63b8ff" points="107.17,-46.62 100.67,-54.98 110.97,-52.5 107.17,-46.62"/>
</a>
</g>
</g>
<!-- Node5&#45;&gt;Node4 -->
<g id="edge5_Node000005_Node000004" class="edge">
<title>Node5&#45;&gt;Node4</title>
<g id="a_edge5_Node000005_Node000004"><a xlink:title=" ">
<path fill="none" stroke="#63b8ff" d="M193.88,-46.39C187.68,-37.27 180.33,-26.45 175.33,-19.09"/>
<polygon fill="#63b8ff" stroke="#63b8ff" points="191.04,-48.44 199.56,-54.75 196.83,-44.51 191.04,-48.44"/>
</a>
</g>
</g>
</g>
</svg>
