<?xml version="1.0" encoding="UTF-8" standalone="no"?>
<!DOCTYPE svg PUBLIC "-//W3C//DTD SVG 1.1//EN"
 "http://www.w3.org/Graphics/SVG/1.1/DTD/svg11.dtd">
<!-- Generated by graphviz version 2.43.0 (0)
 -->
<!-- Title: testing::internal::IsAProtocolMessage&lt; T &gt; Pages: 1 -->
<svg width="385pt" height="82pt"
 viewBox="0.00 0.00 385.00 82.00" xmlns="http://www.w3.org/2000/svg" xmlns:xlink="http://www.w3.org/1999/xlink">
<g id="graph0" class="graph" transform="scale(1 1) rotate(0) translate(4 78)">
<title>testing::internal::IsAProtocolMessage&lt; T &gt;</title>
<!-- Node1 -->
<g id="Node000001" class="node">
<title>Node1</title>
<g id="a_Node000001"><a xlink:title=" ">
<polygon fill="#999999" stroke="#666666" points="377,-52 234,-52 234,-22 377,-22 377,-52"/>
<text text-anchor="start" x="242" y="-40" font-family="Helvetica,sans-Serif" font-size="10.00">testing::internal::</text>
<text text-anchor="middle" x="305.5" y="-29" font-family="Helvetica,sans-Serif" font-size="10.00">IsAProtocolMessage&lt; T &gt;</text>
</a>
</g>
</g>
<!-- Node2 -->
<g id="Node000002" class="node">
<title>Node2</title>
<g id="a_Node000002"><a xlink:href="structtesting_1_1internal_1_1bool__constant.html" target="_top" xlink:title=" ">
<polygon fill="white" stroke="#666666" points="198,-74 0,-74 0,0 198,0 198,-74"/>
<text text-anchor="start" x="8" y="-62" font-family="Helvetica,sans-Serif" font-size="10.00">testing::internal::</text>
<text text-anchor="start" x="8" y="-51" font-family="Helvetica,sans-Serif" font-size="10.00">bool_constant&lt; ImplicitlyConvertible</text>
<text text-anchor="start" x="8" y="-40" font-family="Helvetica,sans-Serif" font-size="10.00">&lt; const T *, const ::ProtocolMessage</text>
<text text-anchor="start" x="8" y="-29" font-family="Helvetica,sans-Serif" font-size="10.00"> * &gt;::value||ImplicitlyConvertible</text>
<text text-anchor="start" x="8" y="-18" font-family="Helvetica,sans-Serif" font-size="10.00">&lt; const T *, const ::proto2::Message</text>
<text text-anchor="middle" x="99" y="-7" font-family="Helvetica,sans-Serif" font-size="10.00"> * &gt;::value &gt;</text>
</a>
</g>
</g>
<!-- Node2&#45;&gt;Node1 -->
<g id="edge1_Node000001_Node000002" class="edge">
<title>Node2&#45;&gt;Node1</title>
<g id="a_edge1_Node000001_Node000002"><a xlink:title=" ">
<path fill="none" stroke="#63b8ff" d="M208.27,-30.26C216.95,-30.29 225.58,-30.39 233.9,-30.55"/>
<polygon fill="#63b8ff" stroke="#63b8ff" points="208.06,-26.76 198.06,-30.26 208.06,-33.76 208.06,-26.76"/>
</a>
</g>
</g>
<!-- Node2&#45;&gt;Node1 -->
<g id="edge2_Node000001_Node000002" class="edge">
<title>Node2&#45;&gt;Node1</title>
<g id="a_edge2_Node000001_Node000002"><a xlink:title=" ">
<path fill="none" stroke="#63b8ff" d="M208.27,-43.74C216.95,-43.71 225.58,-43.61 233.9,-43.45"/>
<polygon fill="#63b8ff" stroke="#63b8ff" points="208.06,-40.24 198.06,-43.74 208.06,-47.24 208.06,-40.24"/>
</a>
</g>
</g>
</g>
</svg>
