<?xml version="1.0" encoding="UTF-8" standalone="no"?>
<!DOCTYPE svg PUBLIC "-//W3C//DTD SVG 1.1//EN"
 "http://www.w3.org/Graphics/SVG/1.1/DTD/svg11.dtd">
<!-- Generated by graphviz version 2.43.0 (0)
 -->
<!-- Title: testing::internal::bool_constant&lt; bool_value &gt; Pages: 1 -->
<svg width="386pt" height="797pt"
 viewBox="0.00 0.00 386.00 796.50" xmlns="http://www.w3.org/2000/svg" xmlns:xlink="http://www.w3.org/1999/xlink">
<g id="graph0" class="graph" transform="scale(1 1) rotate(0) translate(4 792.5)">
<title>testing::internal::bool_constant&lt; bool_value &gt;</title>
<!-- Node1 -->
<g id="Node000001" class="node">
<title>Node1</title>
<g id="a_Node000001"><a xlink:title=" ">
<polygon fill="#999999" stroke="#666666" points="117,-361.5 0,-361.5 0,-320.5 117,-320.5 117,-361.5"/>
<text text-anchor="start" x="8" y="-349.5" font-family="Helvetica,sans-Serif" font-size="10.00">testing::internal::</text>
<text text-anchor="start" x="8" y="-338.5" font-family="Helvetica,sans-Serif" font-size="10.00">bool_constant&lt; bool</text>
<text text-anchor="middle" x="58.5" y="-327.5" font-family="Helvetica,sans-Serif" font-size="10.00">_value &gt;</text>
</a>
</g>
</g>
<!-- Node2 -->
<g id="Node000002" class="node">
<title>Node2</title>
<g id="a_Node000002"><a xlink:href="structtesting_1_1internal_1_1LosslessArithmeticConvertibleImpl.html" target="_top" xlink:title=" ">
<polygon fill="white" stroke="#666666" points="368,-788.5 163,-788.5 163,-747.5 368,-747.5 368,-788.5"/>
<text text-anchor="start" x="171" y="-776.5" font-family="Helvetica,sans-Serif" font-size="10.00">testing::internal::</text>
<text text-anchor="start" x="171" y="-765.5" font-family="Helvetica,sans-Serif" font-size="10.00">LosslessArithmeticConvertible</text>
<text text-anchor="middle" x="265.5" y="-754.5" font-family="Helvetica,sans-Serif" font-size="10.00">Impl&lt; kFromKind, From, kToKind, To &gt;</text>
</a>
</g>
</g>
<!-- Node1&#45;&gt;Node2 -->
<g id="edge1_Node000001_Node000002" class="edge">
<title>Node1&#45;&gt;Node2</title>
<g id="a_edge1_Node000001_Node000002"><a xlink:title=" ">
<path fill="none" stroke="#63b8ff" d="M63.17,-371.68C72.98,-454.15 102.55,-676.93 153,-729 160.74,-736.99 170.37,-742.93 180.7,-747.41"/>
<polygon fill="#63b8ff" stroke="#63b8ff" points="66.64,-371.19 62,-361.67 59.69,-372.01 66.64,-371.19"/>
</a>
</g>
</g>
<!-- Node1&#45;&gt;Node2 -->
<g id="edge2_Node000001_Node000002" class="edge">
<title>Node1&#45;&gt;Node2</title>
<g id="a_edge2_Node000001_Node000002"><a xlink:title=" ">
<path fill="none" stroke="#63b8ff" d="M62.25,-371.63C71.01,-456.89 100.84,-693.17 153,-747 155.93,-750.02 159.13,-752.75 162.53,-755.21"/>
<polygon fill="#63b8ff" stroke="#63b8ff" points="65.71,-371.15 61.24,-361.55 58.75,-371.84 65.71,-371.15"/>
</a>
</g>
</g>
<!-- Node3 -->
<g id="Node000003" class="node">
<title>Node3</title>
<g id="a_Node000003"><a xlink:href="structtesting_1_1internal_1_1LosslessArithmeticConvertibleImpl_3_01kBool_00_01bool_00_01kBool_00_01bool_01_4.html" target="_top" xlink:title=" ">
<polygon fill="white" stroke="#666666" points="348,-729 183,-729 183,-677 348,-677 348,-729"/>
<text text-anchor="start" x="191" y="-717" font-family="Helvetica,sans-Serif" font-size="10.00">testing::internal::</text>
<text text-anchor="start" x="191" y="-706" font-family="Helvetica,sans-Serif" font-size="10.00">LosslessArithmeticConvertible</text>
<text text-anchor="start" x="191" y="-695" font-family="Helvetica,sans-Serif" font-size="10.00">Impl&lt; kBool, bool, kBool,</text>
<text text-anchor="middle" x="265.5" y="-684" font-family="Helvetica,sans-Serif" font-size="10.00"> bool &gt;</text>
</a>
</g>
</g>
<!-- Node1&#45;&gt;Node3 -->
<g id="edge3_Node000001_Node000003" class="edge">
<title>Node1&#45;&gt;Node3</title>
<g id="a_edge3_Node000001_Node000003"><a xlink:title=" ">
<path fill="none" stroke="#63b8ff" d="M59.28,-371.77C60.86,-434.62 73.91,-577.86 153,-659 161.36,-667.57 171.78,-674.05 182.88,-679.06"/>
<polygon fill="#63b8ff" stroke="#63b8ff" points="62.77,-371.63 59.11,-361.69 55.77,-371.75 62.77,-371.63"/>
</a>
</g>
</g>
<!-- Node1&#45;&gt;Node3 -->
<g id="edge4_Node000001_Node000003" class="edge">
<title>Node1&#45;&gt;Node3</title>
<g id="a_edge4_Node000001_Node000003"><a xlink:title=" ">
<path fill="none" stroke="#63b8ff" d="M59.12,-371.92C59.69,-437.72 69.85,-591.68 153,-677 161.36,-685.57 171.78,-692.05 182.88,-696.84"/>
<polygon fill="#63b8ff" stroke="#63b8ff" points="62.61,-371.76 59.1,-361.77 55.61,-371.78 62.61,-371.76"/>
</a>
</g>
</g>
<!-- Node4 -->
<g id="Node000004" class="node">
<title>Node4</title>
<g id="a_Node000004"><a xlink:href="structtesting_1_1internal_1_1LosslessArithmeticConvertibleImpl_3_01kBool_00_01bool_00_01kFloatingPoint_00_01To_01_4.html" target="_top" xlink:title=" ">
<polygon fill="white" stroke="#666666" points="370,-658.5 161,-658.5 161,-617.5 370,-617.5 370,-658.5"/>
<text text-anchor="start" x="169" y="-646.5" font-family="Helvetica,sans-Serif" font-size="10.00">testing::internal::</text>
<text text-anchor="start" x="169" y="-635.5" font-family="Helvetica,sans-Serif" font-size="10.00">LosslessArithmeticConvertible</text>
<text text-anchor="middle" x="265.5" y="-624.5" font-family="Helvetica,sans-Serif" font-size="10.00">Impl&lt; kBool, bool, kFloatingPoint, To &gt;</text>
</a>
</g>
</g>
<!-- Node1&#45;&gt;Node4 -->
<g id="edge5_Node000001_Node000004" class="edge">
<title>Node1&#45;&gt;Node4</title>
<g id="a_edge5_Node000001_Node000004"><a xlink:title=" ">
<path fill="none" stroke="#63b8ff" d="M61.65,-371.82C67.06,-426.15 86.09,-538.31 153,-600 161.16,-607.52 171.03,-613.15 181.47,-617.44"/>
<polygon fill="#63b8ff" stroke="#63b8ff" points="65.12,-371.4 60.74,-361.76 58.15,-372.03 65.12,-371.4"/>
</a>
</g>
</g>
<!-- Node1&#45;&gt;Node4 -->
<g id="edge6_Node000001_Node000004" class="edge">
<title>Node1&#45;&gt;Node4</title>
<g id="a_edge6_Node000001_Node000004"><a xlink:title=" ">
<path fill="none" stroke="#63b8ff" d="M60.78,-372.13C64.84,-429.78 81.86,-552.42 153,-618 155.5,-620.3 158.16,-622.43 160.95,-624.39"/>
<polygon fill="#63b8ff" stroke="#63b8ff" points="64.25,-371.59 60.14,-361.83 57.26,-372.02 64.25,-371.59"/>
</a>
</g>
</g>
<!-- Node5 -->
<g id="Node000005" class="node">
<title>Node5</title>
<g id="a_Node000005"><a xlink:href="structtesting_1_1internal_1_1LosslessArithmeticConvertibleImpl_3_01kBool_00_01bool_00_01kInteger_00_01To_01_4.html" target="_top" xlink:title=" ">
<polygon fill="white" stroke="#666666" points="355,-599.5 176,-599.5 176,-558.5 355,-558.5 355,-599.5"/>
<text text-anchor="start" x="184" y="-587.5" font-family="Helvetica,sans-Serif" font-size="10.00">testing::internal::</text>
<text text-anchor="start" x="184" y="-576.5" font-family="Helvetica,sans-Serif" font-size="10.00">LosslessArithmeticConvertible</text>
<text text-anchor="middle" x="265.5" y="-565.5" font-family="Helvetica,sans-Serif" font-size="10.00">Impl&lt; kBool, bool, kInteger, To &gt;</text>
</a>
</g>
</g>
<!-- Node1&#45;&gt;Node5 -->
<g id="edge7_Node000001_Node000005" class="edge">
<title>Node1&#45;&gt;Node5</title>
<g id="a_edge7_Node000001_Node000005"><a xlink:title=" ">
<path fill="none" stroke="#63b8ff" d="M65.98,-371.39C76.2,-415.25 100.54,-495.31 153,-540 162.46,-548.06 173.88,-553.98 185.75,-558.44"/>
<polygon fill="#63b8ff" stroke="#63b8ff" points="69.39,-370.58 63.79,-361.58 62.56,-372.1 69.39,-370.58"/>
</a>
</g>
</g>
<!-- Node1&#45;&gt;Node5 -->
<g id="edge8_Node000001_Node000005" class="edge">
<title>Node1&#45;&gt;Node5</title>
<g id="a_edge8_Node000001_Node000005"><a xlink:title=" ">
<path fill="none" stroke="#63b8ff" d="M63.63,-371.55C72.17,-419.05 95.98,-509.43 153,-558 159.79,-563.78 167.59,-568.46 175.84,-572.2"/>
<polygon fill="#63b8ff" stroke="#63b8ff" points="67.06,-370.82 61.95,-361.54 60.15,-371.98 67.06,-370.82"/>
</a>
</g>
</g>
<!-- Node6 -->
<g id="Node000006" class="node">
<title>Node6</title>
<g id="a_Node000006"><a xlink:href="structtesting_1_1internal_1_1LosslessArithmeticConvertibleImpl_3_01kFloatingPoint_00_01From_00_01kBool_00_01bool_01_4.html" target="_top" xlink:title=" ">
<polygon fill="white" stroke="#666666" points="348,-540 183,-540 183,-488 348,-488 348,-540"/>
<text text-anchor="start" x="191" y="-528" font-family="Helvetica,sans-Serif" font-size="10.00">testing::internal::</text>
<text text-anchor="start" x="191" y="-517" font-family="Helvetica,sans-Serif" font-size="10.00">LosslessArithmeticConvertible</text>
<text text-anchor="start" x="191" y="-506" font-family="Helvetica,sans-Serif" font-size="10.00">Impl&lt; kFloatingPoint, From,</text>
<text text-anchor="middle" x="265.5" y="-495" font-family="Helvetica,sans-Serif" font-size="10.00"> kBool, bool &gt;</text>
</a>
</g>
</g>
<!-- Node1&#45;&gt;Node6 -->
<g id="edge9_Node000001_Node000006" class="edge">
<title>Node1&#45;&gt;Node6</title>
<g id="a_edge9_Node000001_Node000006"><a xlink:title=" ">
<path fill="none" stroke="#63b8ff" d="M75.77,-370.68C91.35,-399.99 117.7,-443.73 153,-470 162.93,-477.39 174.46,-483.24 186.26,-488"/>
<polygon fill="#63b8ff" stroke="#63b8ff" points="78.82,-368.96 71.09,-361.71 72.61,-372.19 78.82,-368.96"/>
</a>
</g>
</g>
<!-- Node1&#45;&gt;Node6 -->
<g id="edge10_Node000001_Node000006" class="edge">
<title>Node1&#45;&gt;Node6</title>
<g id="a_edge10_Node000001_Node000006"><a xlink:title=" ">
<path fill="none" stroke="#63b8ff" d="M69.52,-370.89C83.68,-404.53 112.43,-457.81 153,-488 161.95,-494.66 172.2,-500.08 182.78,-504.38"/>
<polygon fill="#63b8ff" stroke="#63b8ff" points="72.73,-369.51 65.75,-361.55 66.24,-372.13 72.73,-369.51"/>
</a>
</g>
</g>
<!-- Node7 -->
<g id="Node000007" class="node">
<title>Node7</title>
<g id="a_Node000007"><a xlink:href="structtesting_1_1internal_1_1LosslessArithmeticConvertibleImpl_3_01kFloatingPoint_00_01From_00_01kInteger_00_01To_01_4.html" target="_top" xlink:title=" ">
<polygon fill="white" stroke="#666666" points="348,-470 183,-470 183,-418 348,-418 348,-470"/>
<text text-anchor="start" x="191" y="-458" font-family="Helvetica,sans-Serif" font-size="10.00">testing::internal::</text>
<text text-anchor="start" x="191" y="-447" font-family="Helvetica,sans-Serif" font-size="10.00">LosslessArithmeticConvertible</text>
<text text-anchor="start" x="191" y="-436" font-family="Helvetica,sans-Serif" font-size="10.00">Impl&lt; kFloatingPoint, From,</text>
<text text-anchor="middle" x="265.5" y="-425" font-family="Helvetica,sans-Serif" font-size="10.00"> kInteger, To &gt;</text>
</a>
</g>
</g>
<!-- Node1&#45;&gt;Node7 -->
<g id="edge11_Node000001_Node000007" class="edge">
<title>Node1&#45;&gt;Node7</title>
<g id="a_edge11_Node000001_Node000007"><a xlink:title=" ">
<path fill="none" stroke="#63b8ff" d="M101.58,-367.61C117.04,-378.73 135.15,-391.01 153,-400 166.77,-406.93 182.19,-412.84 197.07,-417.94"/>
<polygon fill="#63b8ff" stroke="#63b8ff" points="103.42,-364.62 93.28,-361.57 99.31,-370.28 103.42,-364.62"/>
</a>
</g>
</g>
<!-- Node1&#45;&gt;Node7 -->
<g id="edge12_Node000001_Node000007" class="edge">
<title>Node1&#45;&gt;Node7</title>
<g id="a_edge12_Node000001_Node000007"><a xlink:title=" ">
<path fill="none" stroke="#63b8ff" d="M83.05,-368.91C101.16,-385.36 127.35,-405.08 153,-418 162.42,-422.74 172.62,-427.01 182.88,-430.71"/>
<polygon fill="#63b8ff" stroke="#63b8ff" points="85,-365.94 75.33,-361.61 80.2,-371.02 85,-365.94"/>
</a>
</g>
</g>
<!-- Node8 -->
<g id="Node000008" class="node">
<title>Node8</title>
<g id="a_Node000008"><a xlink:href="structtesting_1_1internal_1_1LosslessArithmeticConvertibleImpl_3_01kInteger_00_01From_00_01kBool_00_01bool_01_4.html" target="_top" xlink:title=" ">
<polygon fill="white" stroke="#666666" points="348,-400 183,-400 183,-348 348,-348 348,-400"/>
<text text-anchor="start" x="191" y="-388" font-family="Helvetica,sans-Serif" font-size="10.00">testing::internal::</text>
<text text-anchor="start" x="191" y="-377" font-family="Helvetica,sans-Serif" font-size="10.00">LosslessArithmeticConvertible</text>
<text text-anchor="start" x="191" y="-366" font-family="Helvetica,sans-Serif" font-size="10.00">Impl&lt; kInteger, From, kBool,</text>
<text text-anchor="middle" x="265.5" y="-355" font-family="Helvetica,sans-Serif" font-size="10.00"> bool &gt;</text>
</a>
</g>
</g>
<!-- Node1&#45;&gt;Node8 -->
<g id="edge13_Node000001_Node000008" class="edge">
<title>Node1&#45;&gt;Node8</title>
<g id="a_edge13_Node000001_Node000008"><a xlink:title=" ">
<path fill="none" stroke="#63b8ff" d="M127.39,-345.53C145.13,-348.01 164.44,-351.04 182.81,-354.23"/>
<polygon fill="#63b8ff" stroke="#63b8ff" points="127.53,-342.02 117.15,-344.14 126.59,-348.96 127.53,-342.02"/>
</a>
</g>
</g>
<!-- Node1&#45;&gt;Node8 -->
<g id="edge14_Node000001_Node000008" class="edge">
<title>Node1&#45;&gt;Node8</title>
<g id="a_edge14_Node000001_Node000008"><a xlink:title=" ">
<path fill="none" stroke="#63b8ff" d="M127.39,-358.32C145.13,-361.56 164.44,-364.74 182.81,-367.47"/>
<polygon fill="#63b8ff" stroke="#63b8ff" points="127.62,-354.81 117.15,-356.42 126.34,-361.69 127.62,-354.81"/>
</a>
</g>
</g>
<!-- Node9 -->
<g id="Node000009" class="node">
<title>Node9</title>
<g id="a_Node000009"><a xlink:href="structtesting_1_1internal_1_1LosslessArithmeticConvertibleImpl_3_01kInteger_00_01From_00_01kFloatingPoint_00_01To_01_4.html" target="_top" xlink:title=" ">
<polygon fill="white" stroke="#666666" points="378,-329.5 153,-329.5 153,-288.5 378,-288.5 378,-329.5"/>
<text text-anchor="start" x="161" y="-317.5" font-family="Helvetica,sans-Serif" font-size="10.00">testing::internal::</text>
<text text-anchor="start" x="161" y="-306.5" font-family="Helvetica,sans-Serif" font-size="10.00">LosslessArithmeticConvertible</text>
<text text-anchor="middle" x="265.5" y="-295.5" font-family="Helvetica,sans-Serif" font-size="10.00">Impl&lt; kInteger, From, kFloatingPoint, To &gt;</text>
</a>
</g>
</g>
<!-- Node1&#45;&gt;Node9 -->
<g id="edge15_Node000001_Node000009" class="edge">
<title>Node1&#45;&gt;Node9</title>
<g id="a_edge15_Node000001_Node000009"><a xlink:title=" ">
<path fill="none" stroke="#63b8ff" d="M127.11,-324.06C135.44,-322.58 144.11,-321.11 152.87,-319.7"/>
<polygon fill="#63b8ff" stroke="#63b8ff" points="126.37,-320.63 117.15,-325.86 127.61,-327.52 126.37,-320.63"/>
</a>
</g>
</g>
<!-- Node1&#45;&gt;Node9 -->
<g id="edge16_Node000001_Node000009" class="edge">
<title>Node1&#45;&gt;Node9</title>
<g id="a_edge16_Node000001_Node000009"><a xlink:title=" ">
<path fill="none" stroke="#63b8ff" d="M127.19,-336.82C142.77,-334.73 159.56,-332.21 175.87,-329.53"/>
<polygon fill="#63b8ff" stroke="#63b8ff" points="126.61,-333.37 117.15,-338.14 127.52,-340.31 126.61,-333.37"/>
</a>
</g>
</g>
<!-- Node10 -->
<g id="Node000010" class="node">
<title>Node10</title>
<g id="a_Node000010"><a xlink:href="structtesting_1_1internal_1_1is__pointer.html" target="_top" xlink:title=" ">
<polygon fill="white" stroke="#666666" points="315.5,-270 215.5,-270 215.5,-240 315.5,-240 315.5,-270"/>
<text text-anchor="start" x="223.5" y="-258" font-family="Helvetica,sans-Serif" font-size="10.00">testing::internal::</text>
<text text-anchor="middle" x="265.5" y="-247" font-family="Helvetica,sans-Serif" font-size="10.00">is_pointer&lt; T &gt;</text>
</a>
</g>
</g>
<!-- Node1&#45;&gt;Node10 -->
<g id="edge17_Node000001_Node000010" class="edge">
<title>Node1&#45;&gt;Node10</title>
<g id="a_edge17_Node000001_Node000010"><a xlink:title=" ">
<path fill="none" stroke="#63b8ff" d="M84.44,-313.62C102.52,-298.71 128.07,-281.52 153,-271 172.65,-262.71 195.46,-256.97 215.31,-253.77"/>
<polygon fill="#63b8ff" stroke="#63b8ff" points="82,-311.11 76.69,-320.28 86.56,-316.42 82,-311.11"/>
</a>
</g>
</g>
<!-- Node1&#45;&gt;Node10 -->
<g id="edge18_Node000001_Node000010" class="edge">
<title>Node1&#45;&gt;Node10</title>
<g id="a_edge18_Node000001_Node000010"><a xlink:title=" ">
<path fill="none" stroke="#63b8ff" d="M105.66,-314.81C120.2,-305.57 136.73,-295.86 153,-289 173.29,-280.44 196.94,-274.6 217.24,-270"/>
<polygon fill="#63b8ff" stroke="#63b8ff" points="103.38,-312.12 96.88,-320.48 107.18,-318 103.38,-312.12"/>
</a>
</g>
</g>
<!-- Node11 -->
<g id="Node000011" class="node">
<title>Node11</title>
<g id="a_Node000011"><a xlink:href="structtesting_1_1internal_1_1is__pointer_3_01T_01_5_01_4.html" target="_top" xlink:title=" ">
<polygon fill="white" stroke="#666666" points="316,-222 215,-222 215,-192 316,-192 316,-222"/>
<text text-anchor="start" x="223" y="-210" font-family="Helvetica,sans-Serif" font-size="10.00">testing::internal::</text>
<text text-anchor="middle" x="265.5" y="-199" font-family="Helvetica,sans-Serif" font-size="10.00">is_pointer&lt; T * &gt;</text>
</a>
</g>
</g>
<!-- Node1&#45;&gt;Node11 -->
<g id="edge19_Node000001_Node000011" class="edge">
<title>Node1&#45;&gt;Node11</title>
<g id="a_edge19_Node000001_Node000011"><a xlink:title=" ">
<path fill="none" stroke="#63b8ff" d="M72.74,-311.25C88.51,-283.37 117.25,-243.39 153,-222 171.52,-210.92 194.48,-204.92 214.75,-202.39"/>
<polygon fill="#63b8ff" stroke="#63b8ff" points="69.58,-309.74 67.9,-320.2 75.74,-313.07 69.58,-309.74"/>
</a>
</g>
</g>
<!-- Node1&#45;&gt;Node11 -->
<g id="edge20_Node000001_Node000011" class="edge">
<title>Node1&#45;&gt;Node11</title>
<g id="a_edge20_Node000001_Node000011"><a xlink:title=" ">
<path fill="none" stroke="#63b8ff" d="M81.43,-311.95C98.03,-288.87 123.06,-257.91 153,-240 171.52,-228.92 194.48,-222.92 214.75,-219"/>
<polygon fill="#63b8ff" stroke="#63b8ff" points="78.4,-310.17 75.48,-320.36 84.11,-314.21 78.4,-310.17"/>
</a>
</g>
</g>
<!-- Node12 -->
<g id="Node000012" class="node">
<title>Node12</title>
<g id="a_Node000012"><a xlink:href="structtesting_1_1internal_1_1is__reference.html" target="_top" xlink:title=" ">
<polygon fill="white" stroke="#666666" points="318,-174 213,-174 213,-144 318,-144 318,-174"/>
<text text-anchor="start" x="221" y="-162" font-family="Helvetica,sans-Serif" font-size="10.00">testing::internal::</text>
<text text-anchor="middle" x="265.5" y="-151" font-family="Helvetica,sans-Serif" font-size="10.00">is_reference&lt; T &gt;</text>
</a>
</g>
</g>
<!-- Node1&#45;&gt;Node12 -->
<g id="edge21_Node000001_Node000012" class="edge">
<title>Node1&#45;&gt;Node12</title>
<g id="a_edge21_Node000001_Node000012"><a xlink:title=" ">
<path fill="none" stroke="#63b8ff" d="M66.94,-310.73C79.02,-272.3 106.35,-207.6 153,-174 170.27,-161.56 192.7,-155.33 212.91,-152.97"/>
<polygon fill="#63b8ff" stroke="#63b8ff" points="63.57,-309.78 64.07,-320.36 70.28,-311.78 63.57,-309.78"/>
</a>
</g>
</g>
<!-- Node1&#45;&gt;Node12 -->
<g id="edge22_Node000001_Node000012" class="edge">
<title>Node1&#45;&gt;Node12</title>
<g id="a_edge22_Node000001_Node000012"><a xlink:title=" ">
<path fill="none" stroke="#63b8ff" d="M71.46,-310.8C85.23,-276.51 111.45,-221.93 153,-192 170.27,-179.56 192.7,-173.33 212.91,-169.63"/>
<polygon fill="#63b8ff" stroke="#63b8ff" points="68.12,-309.73 67.74,-320.32 74.64,-312.27 68.12,-309.73"/>
</a>
</g>
</g>
<!-- Node13 -->
<g id="Node000013" class="node">
<title>Node13</title>
<g id="a_Node000013"><a xlink:href="structtesting_1_1internal_1_1is__reference_3_01T_01_6_01_4.html" target="_top" xlink:title=" ">
<polygon fill="white" stroke="#666666" points="323.5,-126 207.5,-126 207.5,-96 323.5,-96 323.5,-126"/>
<text text-anchor="start" x="215.5" y="-114" font-family="Helvetica,sans-Serif" font-size="10.00">testing::internal::</text>
<text text-anchor="middle" x="265.5" y="-103" font-family="Helvetica,sans-Serif" font-size="10.00">is_reference&lt; T &amp; &gt;</text>
</a>
</g>
</g>
<!-- Node1&#45;&gt;Node13 -->
<g id="edge23_Node000001_Node000013" class="edge">
<title>Node1&#45;&gt;Node13</title>
<g id="a_edge23_Node000001_Node000013"><a xlink:title=" ">
<path fill="none" stroke="#63b8ff" d="M63.46,-310.39C71.74,-262.85 95.15,-172.63 153,-126 168.26,-113.7 188.4,-107.32 207.35,-104.65"/>
<polygon fill="#63b8ff" stroke="#63b8ff" points="59.98,-309.98 61.83,-320.41 66.89,-311.1 59.98,-309.98"/>
</a>
</g>
</g>
<!-- Node1&#45;&gt;Node13 -->
<g id="edge24_Node000001_Node000013" class="edge">
<title>Node1&#45;&gt;Node13</title>
<g id="a_edge24_Node000001_Node000013"><a xlink:title=" ">
<path fill="none" stroke="#63b8ff" d="M65.75,-310.54C75.71,-266.68 99.78,-186.9 153,-144 168.26,-131.7 188.4,-125.32 207.35,-121.61"/>
<polygon fill="#63b8ff" stroke="#63b8ff" points="62.32,-309.85 63.62,-320.36 69.16,-311.33 62.32,-309.85"/>
</a>
</g>
</g>
<!-- Node14 -->
<g id="Node000014" class="node">
<title>Node14</title>
<g id="a_Node000014"><a xlink:href="structtesting_1_1internal_1_1type__equals.html" target="_top" xlink:title=" ">
<polygon fill="white" stroke="#666666" points="329.5,-78 201.5,-78 201.5,-48 329.5,-48 329.5,-78"/>
<text text-anchor="start" x="209.5" y="-66" font-family="Helvetica,sans-Serif" font-size="10.00">testing::internal::</text>
<text text-anchor="middle" x="265.5" y="-55" font-family="Helvetica,sans-Serif" font-size="10.00">type_equals&lt; T1, T2 &gt;</text>
</a>
</g>
</g>
<!-- Node1&#45;&gt;Node14 -->
<g id="edge25_Node000001_Node000014" class="edge">
<title>Node1&#45;&gt;Node14</title>
<g id="a_edge25_Node000001_Node000014"><a xlink:title=" ">
<path fill="none" stroke="#63b8ff" d="M61.08,-310.17C65.7,-254.49 83.67,-138.2 153,-78 166.38,-66.38 184.03,-59.95 201.34,-56.89"/>
<polygon fill="#63b8ff" stroke="#63b8ff" points="57.59,-309.91 60.35,-320.15 64.57,-310.43 57.59,-309.91"/>
</a>
</g>
</g>
<!-- Node1&#45;&gt;Node14 -->
<g id="edge26_Node000001_Node000014" class="edge">
<title>Node1&#45;&gt;Node14</title>
<g id="a_edge26_Node000001_Node000014"><a xlink:title=" ">
<path fill="none" stroke="#63b8ff" d="M62.14,-310.2C68.21,-257.83 88.11,-152.35 153,-96 166.38,-84.38 184.03,-77.95 201.34,-74.12"/>
<polygon fill="#63b8ff" stroke="#63b8ff" points="58.65,-309.92 61.08,-320.23 65.61,-310.66 58.65,-309.92"/>
</a>
</g>
</g>
<!-- Node15 -->
<g id="Node000015" class="node">
<title>Node15</title>
<g id="a_Node000015"><a xlink:href="structtesting_1_1internal_1_1type__equals_3_01T_00_01T_01_4.html" target="_top" xlink:title=" ">
<polygon fill="white" stroke="#666666" points="323.5,-30 207.5,-30 207.5,0 323.5,0 323.5,-30"/>
<text text-anchor="start" x="215.5" y="-18" font-family="Helvetica,sans-Serif" font-size="10.00">testing::internal::</text>
<text text-anchor="middle" x="265.5" y="-7" font-family="Helvetica,sans-Serif" font-size="10.00">type_equals&lt; T, T &gt;</text>
</a>
</g>
</g>
<!-- Node1&#45;&gt;Node15 -->
<g id="edge27_Node000001_Node000015" class="edge">
<title>Node1&#45;&gt;Node15</title>
<g id="a_edge27_Node000001_Node000015"><a xlink:title=" ">
<path fill="none" stroke="#63b8ff" d="M59.33,-310.28C60.46,-247.33 71.87,-104.27 153,-30 167.68,-16.56 188.02,-9.98 207.31,-7.48"/>
<polygon fill="#63b8ff" stroke="#63b8ff" points="55.83,-310.34 59.23,-320.38 62.83,-310.41 55.83,-310.34"/>
</a>
</g>
</g>
<!-- Node1&#45;&gt;Node15 -->
<g id="edge28_Node000001_Node000015" class="edge">
<title>Node1&#45;&gt;Node15</title>
<g id="a_edge28_Node000001_Node000015"><a xlink:title=" ">
<path fill="none" stroke="#63b8ff" d="M59.62,-310.13C61.89,-250.13 76.24,-118.27 153,-48 167.68,-34.56 188.02,-27.98 207.31,-24.39"/>
<polygon fill="#63b8ff" stroke="#63b8ff" points="56.12,-310.03 59.32,-320.13 63.11,-310.24 56.12,-310.03"/>
</a>
</g>
</g>
</g>
</svg>
