<?xml version="1.0" encoding="UTF-8" standalone="no"?>
<!DOCTYPE svg PUBLIC "-//W3C//DTD SVG 1.1//EN"
 "http://www.w3.org/Graphics/SVG/1.1/DTD/svg11.dtd">
<!-- Generated by graphviz version 2.43.0 (0)
 -->
<!-- Title: testing::internal::Function&lt; R(A1, A2, A3, A4)&gt; Pages: 1 -->
<svg width="150pt" height="797pt"
 viewBox="0.00 0.00 150.00 797.00" xmlns="http://www.w3.org/2000/svg" xmlns:xlink="http://www.w3.org/1999/xlink">
<g id="graph0" class="graph" transform="scale(1 1) rotate(0) translate(4 793)">
<title>testing::internal::Function&lt; R(A1, A2, A3, A4)&gt;</title>
<!-- Node1 -->
<g id="Node000001" class="node">
<title>Node1</title>
<g id="a_Node000001"><a xlink:title=" ">
<polygon fill="#999999" stroke="#666666" points="128,-525 14,-525 14,-484 128,-484 128,-525"/>
<text text-anchor="start" x="22" y="-513" font-family="Helvetica,sans-Serif" font-size="10.00">testing::internal::</text>
<text text-anchor="start" x="22" y="-502" font-family="Helvetica,sans-Serif" font-size="10.00">Function&lt; R(A1, A2,</text>
<text text-anchor="middle" x="71" y="-491" font-family="Helvetica,sans-Serif" font-size="10.00"> A3, A4)&gt;</text>
</a>
</g>
</g>
<!-- Node6 -->
<g id="Node000006" class="node">
<title>Node6</title>
<g id="a_Node000006"><a xlink:href="structtesting_1_1internal_1_1Function_3_01R_07A1_00_01A2_00_01A3_00_01A4_00_01A5_08_4.html" target="_top" xlink:title=" ">
<polygon fill="white" stroke="#666666" points="128,-448 14,-448 14,-407 128,-407 128,-448"/>
<text text-anchor="start" x="22" y="-436" font-family="Helvetica,sans-Serif" font-size="10.00">testing::internal::</text>
<text text-anchor="start" x="22" y="-425" font-family="Helvetica,sans-Serif" font-size="10.00">Function&lt; R(A1, A2,</text>
<text text-anchor="middle" x="71" y="-414" font-family="Helvetica,sans-Serif" font-size="10.00"> A3, A4, A5)&gt;</text>
</a>
</g>
</g>
<!-- Node1&#45;&gt;Node6 -->
<g id="edge9_Node000001_Node000006" class="edge">
<title>Node1&#45;&gt;Node6</title>
<g id="a_edge9_Node000001_Node000006"><a xlink:title=" ">
<path fill="none" stroke="#63b8ff" d="M64.38,-473.69C64.09,-465.08 64.29,-455.9 64.99,-448.07"/>
<polygon fill="#63b8ff" stroke="#63b8ff" points="60.89,-474.02 64.98,-483.79 67.88,-473.6 60.89,-474.02"/>
</a>
</g>
</g>
<!-- Node1&#45;&gt;Node6 -->
<g id="edge20_Node000001_Node000006" class="edge">
<title>Node1&#45;&gt;Node6</title>
<g id="a_edge20_Node000001_Node000006"><a xlink:title=" ">
<path fill="none" stroke="#63b8ff" d="M77.62,-473.69C77.91,-465.08 77.71,-455.9 77.01,-448.07"/>
<polygon fill="#63b8ff" stroke="#63b8ff" points="74.12,-473.6 77.02,-483.79 81.11,-474.02 74.12,-473.6"/>
</a>
</g>
</g>
<!-- Node2 -->
<g id="Node000002" class="node">
<title>Node2</title>
<g id="a_Node000002"><a xlink:href="structtesting_1_1internal_1_1Function_3_01R_07A1_00_01A2_00_01A3_08_4.html" target="_top" xlink:title=" ">
<polygon fill="white" stroke="#666666" points="142,-591 0,-591 0,-561 142,-561 142,-591"/>
<text text-anchor="start" x="8" y="-579" font-family="Helvetica,sans-Serif" font-size="10.00">testing::internal::</text>
<text text-anchor="middle" x="71" y="-568" font-family="Helvetica,sans-Serif" font-size="10.00">Function&lt; R(A1, A2, A3)&gt;</text>
</a>
</g>
</g>
<!-- Node2&#45;&gt;Node1 -->
<g id="edge1_Node000001_Node000002" class="edge">
<title>Node2&#45;&gt;Node1</title>
<g id="a_edge1_Node000001_Node000002"><a xlink:title=" ">
<path fill="none" stroke="#63b8ff" d="M64.54,-550.91C64.07,-542.47 64.17,-533.1 64.86,-525.07"/>
<polygon fill="#63b8ff" stroke="#63b8ff" points="61.06,-551.29 65.45,-560.94 68.03,-550.66 61.06,-551.29"/>
</a>
</g>
</g>
<!-- Node2&#45;&gt;Node1 -->
<g id="edge8_Node000001_Node000002" class="edge">
<title>Node2&#45;&gt;Node1</title>
<g id="a_edge8_Node000001_Node000002"><a xlink:title=" ">
<path fill="none" stroke="#63b8ff" d="M77.46,-550.91C77.93,-542.47 77.83,-533.1 77.14,-525.07"/>
<polygon fill="#63b8ff" stroke="#63b8ff" points="73.97,-550.66 76.55,-560.94 80.94,-551.29 73.97,-550.66"/>
</a>
</g>
</g>
<!-- Node3 -->
<g id="Node000003" class="node">
<title>Node3</title>
<g id="a_Node000003"><a xlink:href="structtesting_1_1internal_1_1Function_3_01R_07A1_00_01A2_08_4.html" target="_top" xlink:title=" ">
<polygon fill="white" stroke="#666666" points="132.5,-657 9.5,-657 9.5,-627 132.5,-627 132.5,-657"/>
<text text-anchor="start" x="17.5" y="-645" font-family="Helvetica,sans-Serif" font-size="10.00">testing::internal::</text>
<text text-anchor="middle" x="71" y="-634" font-family="Helvetica,sans-Serif" font-size="10.00">Function&lt; R(A1, A2)&gt;</text>
</a>
</g>
</g>
<!-- Node3&#45;&gt;Node2 -->
<g id="edge2_Node000002_Node000003" class="edge">
<title>Node3&#45;&gt;Node2</title>
<g id="a_edge2_Node000002_Node000003"><a xlink:title=" ">
<path fill="none" stroke="#63b8ff" d="M64.43,-616.83C64.02,-608.17 64.31,-598.7 65.29,-591.16"/>
<polygon fill="#63b8ff" stroke="#63b8ff" points="60.95,-617.13 65.28,-626.8 67.92,-616.54 60.95,-617.13"/>
</a>
</g>
</g>
<!-- Node3&#45;&gt;Node2 -->
<g id="edge7_Node000002_Node000003" class="edge">
<title>Node3&#45;&gt;Node2</title>
<g id="a_edge7_Node000002_Node000003"><a xlink:title=" ">
<path fill="none" stroke="#63b8ff" d="M77.57,-616.83C77.98,-608.17 77.69,-598.7 76.71,-591.16"/>
<polygon fill="#63b8ff" stroke="#63b8ff" points="74.08,-616.54 76.72,-626.8 81.05,-617.13 74.08,-616.54"/>
</a>
</g>
</g>
<!-- Node4 -->
<g id="Node000004" class="node">
<title>Node4</title>
<g id="a_Node000004"><a xlink:href="structtesting_1_1internal_1_1Function_3_01R_07A1_08_4.html" target="_top" xlink:title=" ">
<polygon fill="white" stroke="#666666" points="123,-723 19,-723 19,-693 123,-693 123,-723"/>
<text text-anchor="start" x="27" y="-711" font-family="Helvetica,sans-Serif" font-size="10.00">testing::internal::</text>
<text text-anchor="middle" x="71" y="-700" font-family="Helvetica,sans-Serif" font-size="10.00">Function&lt; R(A1)&gt;</text>
</a>
</g>
</g>
<!-- Node4&#45;&gt;Node3 -->
<g id="edge3_Node000003_Node000004" class="edge">
<title>Node4&#45;&gt;Node3</title>
<g id="a_edge3_Node000003_Node000004"><a xlink:title=" ">
<path fill="none" stroke="#63b8ff" d="M64.43,-682.83C64.02,-674.17 64.31,-664.7 65.29,-657.16"/>
<polygon fill="#63b8ff" stroke="#63b8ff" points="60.95,-683.13 65.28,-692.8 67.92,-682.54 60.95,-683.13"/>
</a>
</g>
</g>
<!-- Node4&#45;&gt;Node3 -->
<g id="edge6_Node000003_Node000004" class="edge">
<title>Node4&#45;&gt;Node3</title>
<g id="a_edge6_Node000003_Node000004"><a xlink:title=" ">
<path fill="none" stroke="#63b8ff" d="M77.57,-682.83C77.98,-674.17 77.69,-664.7 76.71,-657.16"/>
<polygon fill="#63b8ff" stroke="#63b8ff" points="74.08,-682.54 76.72,-692.8 81.05,-683.13 74.08,-682.54"/>
</a>
</g>
</g>
<!-- Node5 -->
<g id="Node000005" class="node">
<title>Node5</title>
<g id="a_Node000005"><a xlink:href="structtesting_1_1internal_1_1Function_3_01R_07_08_4.html" target="_top" xlink:title=" ">
<polygon fill="white" stroke="#666666" points="121,-789 21,-789 21,-759 121,-759 121,-789"/>
<text text-anchor="start" x="29" y="-777" font-family="Helvetica,sans-Serif" font-size="10.00">testing::internal::</text>
<text text-anchor="middle" x="71" y="-766" font-family="Helvetica,sans-Serif" font-size="10.00">Function&lt; R()&gt;</text>
</a>
</g>
</g>
<!-- Node5&#45;&gt;Node4 -->
<g id="edge4_Node000004_Node000005" class="edge">
<title>Node5&#45;&gt;Node4</title>
<g id="a_edge4_Node000004_Node000005"><a xlink:title=" ">
<path fill="none" stroke="#63b8ff" d="M64.43,-748.83C64.02,-740.17 64.31,-730.7 65.29,-723.16"/>
<polygon fill="#63b8ff" stroke="#63b8ff" points="60.95,-749.13 65.28,-758.8 67.92,-748.54 60.95,-749.13"/>
</a>
</g>
</g>
<!-- Node5&#45;&gt;Node4 -->
<g id="edge5_Node000004_Node000005" class="edge">
<title>Node5&#45;&gt;Node4</title>
<g id="a_edge5_Node000004_Node000005"><a xlink:title=" ">
<path fill="none" stroke="#63b8ff" d="M77.57,-748.83C77.98,-740.17 77.69,-730.7 76.71,-723.16"/>
<polygon fill="#63b8ff" stroke="#63b8ff" points="74.08,-748.54 76.72,-758.8 81.05,-749.13 74.08,-748.54"/>
</a>
</g>
</g>
<!-- Node7 -->
<g id="Node000007" class="node">
<title>Node7</title>
<g id="a_Node000007"><a xlink:href="structtesting_1_1internal_1_1Function_3_01R_07A1_00_01A2_00_01A3_00_01A4_00_01A5_00_01A6_08_4.html" target="_top" xlink:title=" ">
<polygon fill="white" stroke="#666666" points="128,-371 14,-371 14,-330 128,-330 128,-371"/>
<text text-anchor="start" x="22" y="-359" font-family="Helvetica,sans-Serif" font-size="10.00">testing::internal::</text>
<text text-anchor="start" x="22" y="-348" font-family="Helvetica,sans-Serif" font-size="10.00">Function&lt; R(A1, A2,</text>
<text text-anchor="middle" x="71" y="-337" font-family="Helvetica,sans-Serif" font-size="10.00"> A3, A4, A5, A6)&gt;</text>
</a>
</g>
</g>
<!-- Node6&#45;&gt;Node7 -->
<g id="edge10_Node000006_Node000007" class="edge">
<title>Node6&#45;&gt;Node7</title>
<g id="a_edge10_Node000006_Node000007"><a xlink:title=" ">
<path fill="none" stroke="#63b8ff" d="M64.38,-396.69C64.09,-388.08 64.29,-378.9 64.99,-371.07"/>
<polygon fill="#63b8ff" stroke="#63b8ff" points="60.89,-397.02 64.98,-406.79 67.88,-396.6 60.89,-397.02"/>
</a>
</g>
</g>
<!-- Node6&#45;&gt;Node7 -->
<g id="edge19_Node000006_Node000007" class="edge">
<title>Node6&#45;&gt;Node7</title>
<g id="a_edge19_Node000006_Node000007"><a xlink:title=" ">
<path fill="none" stroke="#63b8ff" d="M77.62,-396.69C77.91,-388.08 77.71,-378.9 77.01,-371.07"/>
<polygon fill="#63b8ff" stroke="#63b8ff" points="74.12,-396.6 77.02,-406.79 81.11,-397.02 74.12,-396.6"/>
</a>
</g>
</g>
<!-- Node8 -->
<g id="Node000008" class="node">
<title>Node8</title>
<g id="a_Node000008"><a xlink:href="structtesting_1_1internal_1_1Function_3_01R_07A1_00_01A2_00_01A3_00_01A4_00_01A5_00_01A6_00_01A7_08_4.html" target="_top" xlink:title=" ">
<polygon fill="white" stroke="#666666" points="130.5,-294 11.5,-294 11.5,-253 130.5,-253 130.5,-294"/>
<text text-anchor="start" x="19.5" y="-282" font-family="Helvetica,sans-Serif" font-size="10.00">testing::internal::</text>
<text text-anchor="start" x="19.5" y="-271" font-family="Helvetica,sans-Serif" font-size="10.00">Function&lt; R(A1, A2,</text>
<text text-anchor="middle" x="71" y="-260" font-family="Helvetica,sans-Serif" font-size="10.00"> A3, A4, A5, A6, A7)&gt;</text>
</a>
</g>
</g>
<!-- Node7&#45;&gt;Node8 -->
<g id="edge11_Node000007_Node000008" class="edge">
<title>Node7&#45;&gt;Node8</title>
<g id="a_edge11_Node000007_Node000008"><a xlink:title=" ">
<path fill="none" stroke="#63b8ff" d="M64.38,-319.69C64.09,-311.08 64.29,-301.9 64.99,-294.07"/>
<polygon fill="#63b8ff" stroke="#63b8ff" points="60.89,-320.02 64.98,-329.79 67.88,-319.6 60.89,-320.02"/>
</a>
</g>
</g>
<!-- Node7&#45;&gt;Node8 -->
<g id="edge18_Node000007_Node000008" class="edge">
<title>Node7&#45;&gt;Node8</title>
<g id="a_edge18_Node000007_Node000008"><a xlink:title=" ">
<path fill="none" stroke="#63b8ff" d="M77.62,-319.69C77.91,-311.08 77.71,-301.9 77.01,-294.07"/>
<polygon fill="#63b8ff" stroke="#63b8ff" points="74.12,-319.6 77.02,-329.79 81.11,-320.02 74.12,-319.6"/>
</a>
</g>
</g>
<!-- Node9 -->
<g id="Node000009" class="node">
<title>Node9</title>
<g id="a_Node000009"><a xlink:href="structtesting_1_1internal_1_1Function_3_01R_07A1_00_01A2_00_01A3_00_01A4_00_01A5_00_01A6_00_01A7_00_01A8_08_4.html" target="_top" xlink:title=" ">
<polygon fill="white" stroke="#666666" points="140,-217 2,-217 2,-176 140,-176 140,-217"/>
<text text-anchor="start" x="10" y="-205" font-family="Helvetica,sans-Serif" font-size="10.00">testing::internal::</text>
<text text-anchor="start" x="10" y="-194" font-family="Helvetica,sans-Serif" font-size="10.00">Function&lt; R(A1, A2,</text>
<text text-anchor="middle" x="71" y="-183" font-family="Helvetica,sans-Serif" font-size="10.00"> A3, A4, A5, A6, A7, A8)&gt;</text>
</a>
</g>
</g>
<!-- Node8&#45;&gt;Node9 -->
<g id="edge12_Node000008_Node000009" class="edge">
<title>Node8&#45;&gt;Node9</title>
<g id="a_edge12_Node000008_Node000009"><a xlink:title=" ">
<path fill="none" stroke="#63b8ff" d="M64.38,-242.69C64.09,-234.08 64.29,-224.9 64.99,-217.07"/>
<polygon fill="#63b8ff" stroke="#63b8ff" points="60.89,-243.02 64.98,-252.79 67.88,-242.6 60.89,-243.02"/>
</a>
</g>
</g>
<!-- Node8&#45;&gt;Node9 -->
<g id="edge17_Node000008_Node000009" class="edge">
<title>Node8&#45;&gt;Node9</title>
<g id="a_edge17_Node000008_Node000009"><a xlink:title=" ">
<path fill="none" stroke="#63b8ff" d="M77.62,-242.69C77.91,-234.08 77.71,-224.9 77.01,-217.07"/>
<polygon fill="#63b8ff" stroke="#63b8ff" points="74.12,-242.6 77.02,-252.79 81.11,-243.02 74.12,-242.6"/>
</a>
</g>
</g>
<!-- Node10 -->
<g id="Node000010" class="node">
<title>Node10</title>
<g id="a_Node000010"><a xlink:href="structtesting_1_1internal_1_1Function_3_01R_07A1_00_01A2_00_01A3_00_01A4_00_01A5_00_01A6_00_01A7_00_01A8_00_01A9_08_4.html" target="_top" xlink:title=" ">
<polygon fill="white" stroke="#666666" points="128,-140 14,-140 14,-88 128,-88 128,-140"/>
<text text-anchor="start" x="22" y="-128" font-family="Helvetica,sans-Serif" font-size="10.00">testing::internal::</text>
<text text-anchor="start" x="22" y="-117" font-family="Helvetica,sans-Serif" font-size="10.00">Function&lt; R(A1, A2,</text>
<text text-anchor="start" x="22" y="-106" font-family="Helvetica,sans-Serif" font-size="10.00"> A3, A4, A5, A6, A7,</text>
<text text-anchor="middle" x="71" y="-95" font-family="Helvetica,sans-Serif" font-size="10.00"> A8, A9)&gt;</text>
</a>
</g>
</g>
<!-- Node9&#45;&gt;Node10 -->
<g id="edge13_Node000009_Node000010" class="edge">
<title>Node9&#45;&gt;Node10</title>
<g id="a_edge13_Node000009_Node000010"><a xlink:title=" ">
<path fill="none" stroke="#63b8ff" d="M64.45,-165.49C64.12,-157.15 64.2,-148.19 64.69,-140.16"/>
<polygon fill="#63b8ff" stroke="#63b8ff" points="60.96,-165.84 65.08,-175.6 67.95,-165.4 60.96,-165.84"/>
</a>
</g>
</g>
<!-- Node9&#45;&gt;Node10 -->
<g id="edge16_Node000009_Node000010" class="edge">
<title>Node9&#45;&gt;Node10</title>
<g id="a_edge16_Node000009_Node000010"><a xlink:title=" ">
<path fill="none" stroke="#63b8ff" d="M77.55,-165.49C77.88,-157.15 77.8,-148.19 77.31,-140.16"/>
<polygon fill="#63b8ff" stroke="#63b8ff" points="74.05,-165.4 76.92,-175.6 81.04,-165.84 74.05,-165.4"/>
</a>
</g>
</g>
<!-- Node11 -->
<g id="Node000011" class="node">
<title>Node11</title>
<g id="a_Node000011"><a xlink:href="structtesting_1_1internal_1_1Function_3_01R_07A1_00_01A2_00_01A3_00_01A4_00_01A5_00_01A6_00_01A7_00_01A8_00_01A9_00_01A10_08_4.html" target="_top" xlink:title=" ">
<polygon fill="white" stroke="#666666" points="128,-52 14,-52 14,0 128,0 128,-52"/>
<text text-anchor="start" x="22" y="-40" font-family="Helvetica,sans-Serif" font-size="10.00">testing::internal::</text>
<text text-anchor="start" x="22" y="-29" font-family="Helvetica,sans-Serif" font-size="10.00">Function&lt; R(A1, A2,</text>
<text text-anchor="start" x="22" y="-18" font-family="Helvetica,sans-Serif" font-size="10.00"> A3, A4, A5, A6, A7,</text>
<text text-anchor="middle" x="71" y="-7" font-family="Helvetica,sans-Serif" font-size="10.00"> A8, A9, A10)&gt;</text>
</a>
</g>
</g>
<!-- Node10&#45;&gt;Node11 -->
<g id="edge14_Node000010_Node000011" class="edge">
<title>Node10&#45;&gt;Node11</title>
<g id="a_edge14_Node000010_Node000011"><a xlink:title=" ">
<path fill="none" stroke="#63b8ff" d="M64.34,-77.56C64.13,-69.04 64.28,-60.1 64.8,-52.16"/>
<polygon fill="#63b8ff" stroke="#63b8ff" points="60.85,-77.82 64.78,-87.66 67.85,-77.52 60.85,-77.82"/>
</a>
</g>
</g>
<!-- Node10&#45;&gt;Node11 -->
<g id="edge15_Node000010_Node000011" class="edge">
<title>Node10&#45;&gt;Node11</title>
<g id="a_edge15_Node000010_Node000011"><a xlink:title=" ">
<path fill="none" stroke="#63b8ff" d="M77.66,-77.56C77.87,-69.04 77.72,-60.1 77.2,-52.16"/>
<polygon fill="#63b8ff" stroke="#63b8ff" points="74.15,-77.52 77.22,-87.66 81.15,-77.82 74.15,-77.52"/>
</a>
</g>
</g>
</g>
</svg>
