<?xml version="1.0" encoding="UTF-8" standalone="no"?>
<!DOCTYPE svg PUBLIC "-//W3C//DTD SVG 1.1//EN"
 "http://www.w3.org/Graphics/SVG/1.1/DTD/svg11.dtd">
<!-- Generated by graphviz version 2.43.0 (0)
 -->
<!-- Title: testing::internal::LosslessArithmeticConvertibleImpl&lt; kBool, bool, kInteger, To &gt; Pages: 1 -->
<svg width="187pt" height="104pt"
 viewBox="0.00 0.00 187.00 104.00" xmlns="http://www.w3.org/2000/svg" xmlns:xlink="http://www.w3.org/1999/xlink">
<g id="graph0" class="graph" transform="scale(1 1) rotate(0) translate(4 100)">
<title>testing::internal::LosslessArithmeticConvertibleImpl&lt; kBool, bool, kInteger, To &gt;</title>
<!-- Node1 -->
<g id="Node000001" class="node">
<title>Node1</title>
<g id="a_Node000001"><a xlink:title=" ">
<polygon fill="#999999" stroke="#666666" points="179,-41 0,-41 0,0 179,0 179,-41"/>
<text text-anchor="start" x="8" y="-29" font-family="Helvetica,sans-Serif" font-size="10.00">testing::internal::</text>
<text text-anchor="start" x="8" y="-18" font-family="Helvetica,sans-Serif" font-size="10.00">LosslessArithmeticConvertible</text>
<text text-anchor="middle" x="89.5" y="-7" font-family="Helvetica,sans-Serif" font-size="10.00">Impl&lt; kBool, bool, kInteger, To &gt;</text>
</a>
</g>
</g>
<!-- Node2 -->
<g id="Node000002" class="node">
<title>Node2</title>
<g id="a_Node000002"><a xlink:href="structtesting_1_1internal_1_1bool__constant.html" target="_top" xlink:title=" ">
<polygon fill="white" stroke="#666666" points="121,-96 58,-96 58,-77 121,-77 121,-96"/>
<text text-anchor="middle" x="89.5" y="-84" font-family="Helvetica,sans-Serif" font-size="10.00">true_type</text>
</a>
</g>
</g>
<!-- Node2&#45;&gt;Node1 -->
<g id="edge1_Node000001_Node000002" class="edge">
<title>Node2&#45;&gt;Node1</title>
<g id="a_edge1_Node000001_Node000002"><a xlink:title=" ">
<path fill="none" stroke="#63b8ff" d="M83.31,-66.91C82.59,-58.78 82.57,-49.24 83.23,-41.01"/>
<polygon fill="#63b8ff" stroke="#63b8ff" points="79.85,-67.46 84.71,-76.87 86.78,-66.48 79.85,-67.46"/>
</a>
</g>
</g>
<!-- Node2&#45;&gt;Node1 -->
<g id="edge2_Node000001_Node000002" class="edge">
<title>Node2&#45;&gt;Node1</title>
<g id="a_edge2_Node000001_Node000002"><a xlink:title=" ">
<path fill="none" stroke="#63b8ff" d="M95.69,-66.91C96.41,-58.78 96.43,-49.24 95.77,-41.01"/>
<polygon fill="#63b8ff" stroke="#63b8ff" points="92.22,-66.48 94.29,-76.87 99.15,-67.46 92.22,-66.48"/>
</a>
</g>
</g>
</g>
</svg>
