<?xml version="1.0" encoding="UTF-8" standalone="no"?>
<!DOCTYPE svg PUBLIC "-//W3C//DTD SVG 1.1//EN"
 "http://www.w3.org/Graphics/SVG/1.1/DTD/svg11.dtd">
<!-- Generated by graphviz version 2.43.0 (0)
 -->
<!-- Title: testing::internal::LosslessArithmeticConvertibleImpl&lt; kInteger, From, kFloatingPoint, To &gt; Pages: 1 -->
<svg width="233pt" height="104pt"
 viewBox="0.00 0.00 233.00 104.00" xmlns="http://www.w3.org/2000/svg" xmlns:xlink="http://www.w3.org/1999/xlink">
<g id="graph0" class="graph" transform="scale(1 1) rotate(0) translate(4 100)">
<title>testing::internal::LosslessArithmeticConvertibleImpl&lt; kInteger, From, kFloatingPoint, To &gt;</title>
<!-- Node1 -->
<g id="Node000001" class="node">
<title>Node1</title>
<g id="a_Node000001"><a xlink:title=" ">
<polygon fill="#999999" stroke="#666666" points="225,-41 0,-41 0,0 225,0 225,-41"/>
<text text-anchor="start" x="8" y="-29" font-family="Helvetica,sans-Serif" font-size="10.00">testing::internal::</text>
<text text-anchor="start" x="8" y="-18" font-family="Helvetica,sans-Serif" font-size="10.00">LosslessArithmeticConvertible</text>
<text text-anchor="middle" x="112.5" y="-7" font-family="Helvetica,sans-Serif" font-size="10.00">Impl&lt; kInteger, From, kFloatingPoint, To &gt;</text>
</a>
</g>
</g>
<!-- Node2 -->
<g id="Node000002" class="node">
<title>Node2</title>
<g id="a_Node000002"><a xlink:href="structtesting_1_1internal_1_1bool__constant.html" target="_top" xlink:title=" ">
<polygon fill="white" stroke="#666666" points="146.5,-96 78.5,-96 78.5,-77 146.5,-77 146.5,-96"/>
<text text-anchor="middle" x="112.5" y="-84" font-family="Helvetica,sans-Serif" font-size="10.00">false_type</text>
</a>
</g>
</g>
<!-- Node2&#45;&gt;Node1 -->
<g id="edge1_Node000001_Node000002" class="edge">
<title>Node2&#45;&gt;Node1</title>
<g id="a_edge1_Node000001_Node000002"><a xlink:title=" ">
<path fill="none" stroke="#63b8ff" d="M106.31,-66.91C105.59,-58.78 105.57,-49.24 106.23,-41.01"/>
<polygon fill="#63b8ff" stroke="#63b8ff" points="102.85,-67.46 107.71,-76.87 109.78,-66.48 102.85,-67.46"/>
</a>
</g>
</g>
<!-- Node2&#45;&gt;Node1 -->
<g id="edge2_Node000001_Node000002" class="edge">
<title>Node2&#45;&gt;Node1</title>
<g id="a_edge2_Node000001_Node000002"><a xlink:title=" ">
<path fill="none" stroke="#63b8ff" d="M118.69,-66.91C119.41,-58.78 119.43,-49.24 118.77,-41.01"/>
<polygon fill="#63b8ff" stroke="#63b8ff" points="115.22,-66.48 117.29,-76.87 122.15,-67.46 115.22,-66.48"/>
</a>
</g>
</g>
</g>
</svg>
