<?xml version="1.0" encoding="UTF-8" standalone="no"?>
<!DOCTYPE svg PUBLIC "-//W3C//DTD SVG 1.1//EN"
 "http://www.w3.org/Graphics/SVG/1.1/DTD/svg11.dtd">
<!-- Generated by graphviz version 2.43.0 (0)
 -->
<!-- Title: testing::internal::LosslessArithmeticConvertibleImpl&lt; kBool, bool, kFloatingPoint, To &gt; Pages: 1 -->
<svg width="217pt" height="104pt"
 viewBox="0.00 0.00 217.00 104.00" xmlns="http://www.w3.org/2000/svg" xmlns:xlink="http://www.w3.org/1999/xlink">
<g id="graph0" class="graph" transform="scale(1 1) rotate(0) translate(4 100)">
<title>testing::internal::LosslessArithmeticConvertibleImpl&lt; kBool, bool, kFloatingPoint, To &gt;</title>
<!-- Node1 -->
<g id="Node000001" class="node">
<title>Node1</title>
<g id="a_Node000001"><a xlink:title=" ">
<polygon fill="#999999" stroke="#666666" points="209,-41 0,-41 0,0 209,0 209,-41"/>
<text text-anchor="start" x="8" y="-29" font-family="Helvetica,sans-Serif" font-size="10.00">testing::internal::</text>
<text text-anchor="start" x="8" y="-18" font-family="Helvetica,sans-Serif" font-size="10.00">LosslessArithmeticConvertible</text>
<text text-anchor="middle" x="104.5" y="-7" font-family="Helvetica,sans-Serif" font-size="10.00">Impl&lt; kBool, bool, kFloatingPoint, To &gt;</text>
</a>
</g>
</g>
<!-- Node2 -->
<g id="Node000002" class="node">
<title>Node2</title>
<g id="a_Node000002"><a xlink:href="structtesting_1_1internal_1_1bool__constant.html" target="_top" xlink:title=" ">
<polygon fill="white" stroke="#666666" points="136,-96 73,-96 73,-77 136,-77 136,-96"/>
<text text-anchor="middle" x="104.5" y="-84" font-family="Helvetica,sans-Serif" font-size="10.00">true_type</text>
</a>
</g>
</g>
<!-- Node2&#45;&gt;Node1 -->
<g id="edge1_Node000001_Node000002" class="edge">
<title>Node2&#45;&gt;Node1</title>
<g id="a_edge1_Node000001_Node000002"><a xlink:title=" ">
<path fill="none" stroke="#63b8ff" d="M98.31,-66.91C97.59,-58.78 97.57,-49.24 98.23,-41.01"/>
<polygon fill="#63b8ff" stroke="#63b8ff" points="94.85,-67.46 99.71,-76.87 101.78,-66.48 94.85,-67.46"/>
</a>
</g>
</g>
<!-- Node2&#45;&gt;Node1 -->
<g id="edge2_Node000001_Node000002" class="edge">
<title>Node2&#45;&gt;Node1</title>
<g id="a_edge2_Node000001_Node000002"><a xlink:title=" ">
<path fill="none" stroke="#63b8ff" d="M110.69,-66.91C111.41,-58.78 111.43,-49.24 110.77,-41.01"/>
<polygon fill="#63b8ff" stroke="#63b8ff" points="107.22,-66.48 109.29,-76.87 114.15,-67.46 107.22,-66.48"/>
</a>
</g>
</g>
</g>
</svg>
